M48
; DRILL file KiCad 10.0.6 date 2026-09-22T14:46:25
; FORMAT={-:-/ absolute / metric / decimal}
; #@! TF.CreationDate,2026-09-22T14:46:25+02:00
; #@! TF.GenerationSoftware,Kicad,Pcbnew,10.0.6
; #@! TF.FileFunction,Plated,1,2,PTH
FMAT,2
METRIC
; #@! TA.AperFunction,Plated,PTH,ViaDrill
T1C0.300
; #@! TA.AperFunction,Plated,PTH,ComponentDrill
T2C0.890
; #@! TA.AperFunction,Plated,PTH,ComponentDrill
T3C1.000
; #@! TA.AperFunction,Plated,PTH,ComponentDrill
T4C1.200
; #@! TA.AperFunction,Plated,PTH,ComponentDrill
T5C2.010
%
G90
G05
T1
X91.0Y-60.0
X92.4Y-60.0
X93.0Y-73.0
X93.5Y-60.0
X94.9Y-60.0
X94.9Y-73.0
X97.7Y-81.8
X97.7Y-83.2
X98.2Y-86.8
X98.6Y-81.8
X99.5Y-67.5
X99.5Y-82.7
X99.6Y-86.8
X99.6Y-88.2
X100.2Y-91.1
X100.4Y-68.4
X101.1Y-90.2
X101.2Y-85.4
X101.5Y-84.0
X101.8Y-86.8
X103.0Y-87.8
X103.6Y-86.9
X103.8Y-88.2
X105.5Y-96.2
X107.0Y-86.3
X107.6Y-94.1
X107.6Y-95.5
X107.9Y-87.2
X107.9Y-97.8
X108.1Y-93.4
X108.6Y-82.0
X108.6Y-88.9
X108.9Y-98.8
X110.0Y-89.0
X110.0Y-90.6
X110.3Y-85.2
X110.3Y-86.6
X110.7Y-56.1
X111.5Y-80.0
X111.8Y-91.4
X112.5Y-87.0
X113.4Y-96.4
X113.8Y-72.5
X113.8Y-81.0
X113.8Y-90.3
X113.9Y-97.6
X115.6Y-86.4
X116.1Y-93.4
X117.0Y-86.4
X119.9Y-94.3
X121.1Y-93.0
X122.6Y-92.4
X123.5Y-93.3
X124.2Y-90.8
X124.7Y-72.5
X124.7Y-79.4
T2
X126.19Y-82.96
X126.19Y-85.5
X126.19Y-88.04
X128.73Y-85.5
T3
X90.86Y-51.74
X93.4Y-51.74
X95.94Y-51.74
X98.48Y-51.74
X100.0Y-100.0
X101.02Y-51.74
X102.54Y-100.0
X103.0Y-91.4
X103.0Y-93.94
X103.0Y-96.48
X103.56Y-51.74
X105.08Y-100.0
X106.1Y-51.74
X107.62Y-100.0
X108.64Y-51.74
X110.16Y-100.0
X111.18Y-51.74
X112.7Y-100.0
X113.72Y-51.74
X115.24Y-100.0
X117.78Y-51.74
X117.78Y-100.0
X120.32Y-51.74
X121.0Y-73.4
X121.0Y-75.94
X121.0Y-78.48
X122.86Y-51.74
X122.86Y-100.0
X125.4Y-51.74
X125.4Y-100.0
X127.94Y-51.74
X127.94Y-100.0
X130.48Y-51.74
X130.48Y-100.0
X133.02Y-51.74
X133.02Y-100.0
X135.56Y-51.74
X135.56Y-100.0
T4
X75.7Y-74.8
X75.7Y-78.3
X75.7Y-83.6
X75.7Y-87.1
T5
X134.98Y-90.58
X135.08Y-80.42
M30
