%TF.GenerationSoftware,KiCad,Pcbnew,10.0.6*%
%TF.CreationDate,2026-09-22T14:46:25+02:00*%
%TF.ProjectId,mie1001_daq_board,6d696531-3030-4315-9f64-61715f626f61,rev?*%
%TF.SameCoordinates,Original*%
%TF.FileFunction,Paste,Top*%
%TF.FilePolarity,Positive*%
%FSLAX46Y46*%
G04 Gerber Fmt 4.6, Leading zero omitted, Abs format (unit mm)*
G04 Created by KiCad (PCBNEW 10.0.6) date 2026-09-22 14:46:25*
%MOMM*%
%LPD*%
G01*
G04 APERTURE LIST*
G04 Aperture macros list*
%AMRoundRect*
0 Rectangle with rounded corners*
0 $1 Rounding radius*
0 $2 $3 $4 $5 $6 $7 $8 $9 X,Y pos of 4 corners*
0 Add a 4 corners polygon primitive as box body*
4,1,4,$2,$3,$4,$5,$6,$7,$8,$9,$2,$3,0*
0 Add four circle primitives for the rounded corners*
1,1,$1+$1,$2,$3*
1,1,$1+$1,$4,$5*
1,1,$1+$1,$6,$7*
1,1,$1+$1,$8,$9*
0 Add four rect primitives between the rounded corners*
20,1,$1+$1,$2,$3,$4,$5,0*
20,1,$1+$1,$4,$5,$6,$7,0*
20,1,$1+$1,$6,$7,$8,$9,0*
20,1,$1+$1,$8,$9,$2,$3,0*%
G04 Aperture macros list end*
%ADD10RoundRect,0.200000X0.275000X-0.200000X0.275000X0.200000X-0.275000X0.200000X-0.275000X-0.200000X0*%
%ADD11RoundRect,0.225000X0.250000X-0.225000X0.250000X0.225000X-0.250000X0.225000X-0.250000X-0.225000X0*%
%ADD12RoundRect,0.150000X-0.825000X-0.150000X0.825000X-0.150000X0.825000X0.150000X-0.825000X0.150000X0*%
%ADD13RoundRect,0.200000X0.200000X0.275000X-0.200000X0.275000X-0.200000X-0.275000X0.200000X-0.275000X0*%
%ADD14RoundRect,0.250000X-0.312500X-0.625000X0.312500X-0.625000X0.312500X0.625000X-0.312500X0.625000X0*%
%ADD15RoundRect,0.150000X-0.150000X0.587500X-0.150000X-0.587500X0.150000X-0.587500X0.150000X0.587500X0*%
%ADD16RoundRect,0.225000X-0.225000X-0.250000X0.225000X-0.250000X0.225000X0.250000X-0.225000X0.250000X0*%
%ADD17RoundRect,0.250000X0.475000X-0.250000X0.475000X0.250000X-0.475000X0.250000X-0.475000X-0.250000X0*%
%ADD18RoundRect,0.200000X-0.200000X-0.275000X0.200000X-0.275000X0.200000X0.275000X-0.200000X0.275000X0*%
%ADD19RoundRect,0.087500X0.662500X0.087500X-0.662500X0.087500X-0.662500X-0.087500X0.662500X-0.087500X0*%
%ADD20RoundRect,0.150000X0.512500X0.150000X-0.512500X0.150000X-0.512500X-0.150000X0.512500X-0.150000X0*%
G04 APERTURE END LIST*
D10*
%TO.C,R3*%
X114500000Y-92825000D03*
X114500000Y-91175000D03*
%TD*%
D11*
%TO.C,C10*%
X120400000Y-95775000D03*
X120400000Y-94225000D03*
%TD*%
D12*
%TO.C,U3*%
X104525000Y-83995000D03*
X104525000Y-85265000D03*
X104525000Y-86535000D03*
X104525000Y-87805000D03*
X109475000Y-87805000D03*
X109475000Y-86535000D03*
X109475000Y-85265000D03*
X109475000Y-83995000D03*
%TD*%
D10*
%TO.C,R16*%
X118600000Y-96425000D03*
X118600000Y-94775000D03*
%TD*%
D13*
%TO.C,R17*%
X114725000Y-83800000D03*
X113075000Y-83800000D03*
%TD*%
D14*
%TO.C,R2*%
X115337500Y-78479999D03*
X118262500Y-78479999D03*
%TD*%
D15*
%TO.C,D1*%
X123850000Y-87362500D03*
X121950000Y-87362500D03*
X122900000Y-89237500D03*
%TD*%
D16*
%TO.C,C8*%
X120025000Y-92600000D03*
X121575000Y-92600000D03*
%TD*%
%TO.C,C5*%
X107025000Y-93600000D03*
X108575000Y-93600000D03*
%TD*%
D10*
%TO.C,R4*%
X123300000Y-84025000D03*
X123300000Y-82375000D03*
%TD*%
D16*
%TO.C,C4*%
X100425000Y-83900000D03*
X101975000Y-83900000D03*
%TD*%
%TO.C,C6*%
X107525000Y-81600000D03*
X109075000Y-81600000D03*
%TD*%
D17*
%TO.C,C7*%
X106300000Y-97950000D03*
X106300000Y-96050000D03*
%TD*%
D18*
%TO.C,R12*%
X101175000Y-81600000D03*
X102825000Y-81600000D03*
%TD*%
D19*
%TO.C,U2*%
X114600000Y-97400000D03*
X114600000Y-96900000D03*
X114600000Y-96400000D03*
X114600000Y-95900000D03*
X114600000Y-95400000D03*
X110400000Y-95400000D03*
X110400000Y-95900000D03*
X110400000Y-96400000D03*
X110400000Y-96900000D03*
X110400000Y-97400000D03*
%TD*%
D10*
%TO.C,R5*%
X93400000Y-57425000D03*
X93400000Y-55775000D03*
%TD*%
%TO.C,R11*%
X120600000Y-98825000D03*
X120600000Y-97175000D03*
%TD*%
D18*
%TO.C,R1*%
X116175000Y-73400000D03*
X117825000Y-73400000D03*
%TD*%
D17*
%TO.C,C3*%
X110400000Y-91950000D03*
X110400000Y-90050000D03*
%TD*%
D20*
%TO.C,U1*%
X102337500Y-87850000D03*
X102337500Y-86900000D03*
X102337500Y-85950000D03*
X100062500Y-85950000D03*
X100062500Y-86900000D03*
X100062500Y-87850000D03*
%TD*%
D16*
%TO.C,C1*%
X116825000Y-81800000D03*
X118375000Y-81800000D03*
%TD*%
D10*
%TO.C,R8*%
X112300000Y-92725000D03*
X112300000Y-91075000D03*
%TD*%
D18*
%TO.C,R15*%
X110575000Y-81600000D03*
X112225000Y-81600000D03*
%TD*%
D10*
%TO.C,R7*%
X112300000Y-89625000D03*
X112300000Y-87975000D03*
%TD*%
D18*
%TO.C,R14*%
X122275000Y-85500000D03*
X123925000Y-85500000D03*
%TD*%
D10*
%TO.C,R6*%
X90860000Y-57425000D03*
X90860000Y-55775000D03*
%TD*%
D16*
%TO.C,C9*%
X110425000Y-79800000D03*
X111975000Y-79800000D03*
%TD*%
D18*
%TO.C,R13*%
X106175000Y-90400000D03*
X107825000Y-90400000D03*
%TD*%
D12*
%TO.C,U4*%
X114925000Y-85395000D03*
X114925000Y-86665000D03*
X114925000Y-87935000D03*
X114925000Y-89205000D03*
X119875000Y-89205000D03*
X119875000Y-87935000D03*
X119875000Y-86665000D03*
X119875000Y-85395000D03*
%TD*%
D10*
%TO.C,R9*%
X113720000Y-57425000D03*
X113720000Y-55775000D03*
%TD*%
%TO.C,R10*%
X111180000Y-57425000D03*
X111180000Y-55775000D03*
%TD*%
D11*
%TO.C,C2*%
X116600000Y-94575000D03*
X116600000Y-93025000D03*
%TD*%
M02*
