%TF.GenerationSoftware,KiCad,Pcbnew,10.0.6*%
%TF.CreationDate,2026-09-22T14:46:25+02:00*%
%TF.ProjectId,mie1001_daq_board,6d696531-3030-4315-9f64-61715f626f61,rev?*%
%TF.SameCoordinates,Original*%
%TF.FileFunction,Legend,Top*%
%TF.FilePolarity,Positive*%
%FSLAX46Y46*%
G04 Gerber Fmt 4.6, Leading zero omitted, Abs format (unit mm)*
G04 Created by KiCad (PCBNEW 10.0.6) date 2026-09-22 14:46:25*
%MOMM*%
%LPD*%
G01*
G04 APERTURE LIST*
%ADD10C,0.160000*%
%ADD11C,0.192000*%
%ADD12C,0.150000*%
%ADD13C,0.120000*%
G04 APERTURE END LIST*
D10*
X80343358Y-75254299D02*
X80343358Y-74254299D01*
X80819548Y-75254299D02*
X80819548Y-74254299D01*
X80819548Y-74254299D02*
X81390976Y-75254299D01*
X81390976Y-75254299D02*
X81390976Y-74254299D01*
X80867167Y-77801918D02*
X80771929Y-77754299D01*
X80771929Y-77754299D02*
X80629072Y-77754299D01*
X80629072Y-77754299D02*
X80486215Y-77801918D01*
X80486215Y-77801918D02*
X80390977Y-77897156D01*
X80390977Y-77897156D02*
X80343358Y-77992394D01*
X80343358Y-77992394D02*
X80295739Y-78182870D01*
X80295739Y-78182870D02*
X80295739Y-78325727D01*
X80295739Y-78325727D02*
X80343358Y-78516203D01*
X80343358Y-78516203D02*
X80390977Y-78611441D01*
X80390977Y-78611441D02*
X80486215Y-78706680D01*
X80486215Y-78706680D02*
X80629072Y-78754299D01*
X80629072Y-78754299D02*
X80724310Y-78754299D01*
X80724310Y-78754299D02*
X80867167Y-78706680D01*
X80867167Y-78706680D02*
X80914786Y-78659060D01*
X80914786Y-78659060D02*
X80914786Y-78325727D01*
X80914786Y-78325727D02*
X80724310Y-78325727D01*
X81343358Y-78754299D02*
X81343358Y-77754299D01*
X81343358Y-77754299D02*
X81914786Y-78754299D01*
X81914786Y-78754299D02*
X81914786Y-77754299D01*
X82390977Y-78754299D02*
X82390977Y-77754299D01*
X82390977Y-77754299D02*
X82629072Y-77754299D01*
X82629072Y-77754299D02*
X82771929Y-77801918D01*
X82771929Y-77801918D02*
X82867167Y-77897156D01*
X82867167Y-77897156D02*
X82914786Y-77992394D01*
X82914786Y-77992394D02*
X82962405Y-78182870D01*
X82962405Y-78182870D02*
X82962405Y-78325727D01*
X82962405Y-78325727D02*
X82914786Y-78516203D01*
X82914786Y-78516203D02*
X82867167Y-78611441D01*
X82867167Y-78611441D02*
X82771929Y-78706680D01*
X82771929Y-78706680D02*
X82629072Y-78754299D01*
X82629072Y-78754299D02*
X82390977Y-78754299D01*
X80533834Y-83054299D02*
X80724310Y-83054299D01*
X80724310Y-83054299D02*
X80819548Y-83101918D01*
X80819548Y-83101918D02*
X80914786Y-83197156D01*
X80914786Y-83197156D02*
X80962405Y-83387632D01*
X80962405Y-83387632D02*
X80962405Y-83720965D01*
X80962405Y-83720965D02*
X80914786Y-83911441D01*
X80914786Y-83911441D02*
X80819548Y-84006680D01*
X80819548Y-84006680D02*
X80724310Y-84054299D01*
X80724310Y-84054299D02*
X80533834Y-84054299D01*
X80533834Y-84054299D02*
X80438596Y-84006680D01*
X80438596Y-84006680D02*
X80343358Y-83911441D01*
X80343358Y-83911441D02*
X80295739Y-83720965D01*
X80295739Y-83720965D02*
X80295739Y-83387632D01*
X80295739Y-83387632D02*
X80343358Y-83197156D01*
X80343358Y-83197156D02*
X80438596Y-83101918D01*
X80438596Y-83101918D02*
X80533834Y-83054299D01*
X81390977Y-83054299D02*
X81390977Y-83863822D01*
X81390977Y-83863822D02*
X81438596Y-83959060D01*
X81438596Y-83959060D02*
X81486215Y-84006680D01*
X81486215Y-84006680D02*
X81581453Y-84054299D01*
X81581453Y-84054299D02*
X81771929Y-84054299D01*
X81771929Y-84054299D02*
X81867167Y-84006680D01*
X81867167Y-84006680D02*
X81914786Y-83959060D01*
X81914786Y-83959060D02*
X81962405Y-83863822D01*
X81962405Y-83863822D02*
X81962405Y-83054299D01*
X82295739Y-83054299D02*
X82867167Y-83054299D01*
X82581453Y-84054299D02*
X82581453Y-83054299D01*
X80867167Y-86601918D02*
X80771929Y-86554299D01*
X80771929Y-86554299D02*
X80629072Y-86554299D01*
X80629072Y-86554299D02*
X80486215Y-86601918D01*
X80486215Y-86601918D02*
X80390977Y-86697156D01*
X80390977Y-86697156D02*
X80343358Y-86792394D01*
X80343358Y-86792394D02*
X80295739Y-86982870D01*
X80295739Y-86982870D02*
X80295739Y-87125727D01*
X80295739Y-87125727D02*
X80343358Y-87316203D01*
X80343358Y-87316203D02*
X80390977Y-87411441D01*
X80390977Y-87411441D02*
X80486215Y-87506680D01*
X80486215Y-87506680D02*
X80629072Y-87554299D01*
X80629072Y-87554299D02*
X80724310Y-87554299D01*
X80724310Y-87554299D02*
X80867167Y-87506680D01*
X80867167Y-87506680D02*
X80914786Y-87459060D01*
X80914786Y-87459060D02*
X80914786Y-87125727D01*
X80914786Y-87125727D02*
X80724310Y-87125727D01*
X81343358Y-87554299D02*
X81343358Y-86554299D01*
X81343358Y-86554299D02*
X81914786Y-87554299D01*
X81914786Y-87554299D02*
X81914786Y-86554299D01*
X82390977Y-87554299D02*
X82390977Y-86554299D01*
X82390977Y-86554299D02*
X82629072Y-86554299D01*
X82629072Y-86554299D02*
X82771929Y-86601918D01*
X82771929Y-86601918D02*
X82867167Y-86697156D01*
X82867167Y-86697156D02*
X82914786Y-86792394D01*
X82914786Y-86792394D02*
X82962405Y-86982870D01*
X82962405Y-86982870D02*
X82962405Y-87125727D01*
X82962405Y-87125727D02*
X82914786Y-87316203D01*
X82914786Y-87316203D02*
X82867167Y-87411441D01*
X82867167Y-87411441D02*
X82771929Y-87506680D01*
X82771929Y-87506680D02*
X82629072Y-87554299D01*
X82629072Y-87554299D02*
X82390977Y-87554299D01*
X82800501Y-71254299D02*
X83371929Y-71254299D01*
X83086215Y-72254299D02*
X83086215Y-71254299D01*
X84276691Y-72254299D02*
X83943358Y-71778108D01*
X83705263Y-72254299D02*
X83705263Y-71254299D01*
X83705263Y-71254299D02*
X84086215Y-71254299D01*
X84086215Y-71254299D02*
X84181453Y-71301918D01*
X84181453Y-71301918D02*
X84229072Y-71349537D01*
X84229072Y-71349537D02*
X84276691Y-71444775D01*
X84276691Y-71444775D02*
X84276691Y-71587632D01*
X84276691Y-71587632D02*
X84229072Y-71682870D01*
X84229072Y-71682870D02*
X84181453Y-71730489D01*
X84181453Y-71730489D02*
X84086215Y-71778108D01*
X84086215Y-71778108D02*
X83705263Y-71778108D01*
X84705263Y-72254299D02*
X84705263Y-71254299D01*
X85705262Y-71301918D02*
X85610024Y-71254299D01*
X85610024Y-71254299D02*
X85467167Y-71254299D01*
X85467167Y-71254299D02*
X85324310Y-71301918D01*
X85324310Y-71301918D02*
X85229072Y-71397156D01*
X85229072Y-71397156D02*
X85181453Y-71492394D01*
X85181453Y-71492394D02*
X85133834Y-71682870D01*
X85133834Y-71682870D02*
X85133834Y-71825727D01*
X85133834Y-71825727D02*
X85181453Y-72016203D01*
X85181453Y-72016203D02*
X85229072Y-72111441D01*
X85229072Y-72111441D02*
X85324310Y-72206680D01*
X85324310Y-72206680D02*
X85467167Y-72254299D01*
X85467167Y-72254299D02*
X85562405Y-72254299D01*
X85562405Y-72254299D02*
X85705262Y-72206680D01*
X85705262Y-72206680D02*
X85752881Y-72159060D01*
X85752881Y-72159060D02*
X85752881Y-71825727D01*
X85752881Y-71825727D02*
X85562405Y-71825727D01*
X86943358Y-72254299D02*
X86943358Y-71254299D01*
X87419548Y-72254299D02*
X87419548Y-71254299D01*
X87419548Y-71254299D02*
X87990976Y-72254299D01*
X87990976Y-72254299D02*
X87990976Y-71254299D01*
X83610024Y-80949537D02*
X83514786Y-80901918D01*
X83514786Y-80901918D02*
X83419548Y-80806680D01*
X83419548Y-80806680D02*
X83276691Y-80663822D01*
X83276691Y-80663822D02*
X83181453Y-80616203D01*
X83181453Y-80616203D02*
X83086215Y-80616203D01*
X83133834Y-80854299D02*
X83038596Y-80806680D01*
X83038596Y-80806680D02*
X82943358Y-80711441D01*
X82943358Y-80711441D02*
X82895739Y-80520965D01*
X82895739Y-80520965D02*
X82895739Y-80187632D01*
X82895739Y-80187632D02*
X82943358Y-79997156D01*
X82943358Y-79997156D02*
X83038596Y-79901918D01*
X83038596Y-79901918D02*
X83133834Y-79854299D01*
X83133834Y-79854299D02*
X83324310Y-79854299D01*
X83324310Y-79854299D02*
X83419548Y-79901918D01*
X83419548Y-79901918D02*
X83514786Y-79997156D01*
X83514786Y-79997156D02*
X83562405Y-80187632D01*
X83562405Y-80187632D02*
X83562405Y-80520965D01*
X83562405Y-80520965D02*
X83514786Y-80711441D01*
X83514786Y-80711441D02*
X83419548Y-80806680D01*
X83419548Y-80806680D02*
X83324310Y-80854299D01*
X83324310Y-80854299D02*
X83133834Y-80854299D01*
X83990977Y-80854299D02*
X83990977Y-79854299D01*
X83990977Y-79854299D02*
X84371929Y-79854299D01*
X84371929Y-79854299D02*
X84467167Y-79901918D01*
X84467167Y-79901918D02*
X84514786Y-79949537D01*
X84514786Y-79949537D02*
X84562405Y-80044775D01*
X84562405Y-80044775D02*
X84562405Y-80187632D01*
X84562405Y-80187632D02*
X84514786Y-80282870D01*
X84514786Y-80282870D02*
X84467167Y-80330489D01*
X84467167Y-80330489D02*
X84371929Y-80378108D01*
X84371929Y-80378108D02*
X83990977Y-80378108D01*
X84943358Y-80806680D02*
X85086215Y-80854299D01*
X85086215Y-80854299D02*
X85324310Y-80854299D01*
X85324310Y-80854299D02*
X85419548Y-80806680D01*
X85419548Y-80806680D02*
X85467167Y-80759060D01*
X85467167Y-80759060D02*
X85514786Y-80663822D01*
X85514786Y-80663822D02*
X85514786Y-80568584D01*
X85514786Y-80568584D02*
X85467167Y-80473346D01*
X85467167Y-80473346D02*
X85419548Y-80425727D01*
X85419548Y-80425727D02*
X85324310Y-80378108D01*
X85324310Y-80378108D02*
X85133834Y-80330489D01*
X85133834Y-80330489D02*
X85038596Y-80282870D01*
X85038596Y-80282870D02*
X84990977Y-80235251D01*
X84990977Y-80235251D02*
X84943358Y-80140013D01*
X84943358Y-80140013D02*
X84943358Y-80044775D01*
X84943358Y-80044775D02*
X84990977Y-79949537D01*
X84990977Y-79949537D02*
X85038596Y-79901918D01*
X85038596Y-79901918D02*
X85133834Y-79854299D01*
X85133834Y-79854299D02*
X85371929Y-79854299D01*
X85371929Y-79854299D02*
X85514786Y-79901918D01*
X86895739Y-79854299D02*
X87086215Y-79854299D01*
X87086215Y-79854299D02*
X87181453Y-79901918D01*
X87181453Y-79901918D02*
X87276691Y-79997156D01*
X87276691Y-79997156D02*
X87324310Y-80187632D01*
X87324310Y-80187632D02*
X87324310Y-80520965D01*
X87324310Y-80520965D02*
X87276691Y-80711441D01*
X87276691Y-80711441D02*
X87181453Y-80806680D01*
X87181453Y-80806680D02*
X87086215Y-80854299D01*
X87086215Y-80854299D02*
X86895739Y-80854299D01*
X86895739Y-80854299D02*
X86800501Y-80806680D01*
X86800501Y-80806680D02*
X86705263Y-80711441D01*
X86705263Y-80711441D02*
X86657644Y-80520965D01*
X86657644Y-80520965D02*
X86657644Y-80187632D01*
X86657644Y-80187632D02*
X86705263Y-79997156D01*
X86705263Y-79997156D02*
X86800501Y-79901918D01*
X86800501Y-79901918D02*
X86895739Y-79854299D01*
X87752882Y-79854299D02*
X87752882Y-80663822D01*
X87752882Y-80663822D02*
X87800501Y-80759060D01*
X87800501Y-80759060D02*
X87848120Y-80806680D01*
X87848120Y-80806680D02*
X87943358Y-80854299D01*
X87943358Y-80854299D02*
X88133834Y-80854299D01*
X88133834Y-80854299D02*
X88229072Y-80806680D01*
X88229072Y-80806680D02*
X88276691Y-80759060D01*
X88276691Y-80759060D02*
X88324310Y-80663822D01*
X88324310Y-80663822D02*
X88324310Y-79854299D01*
X88657644Y-79854299D02*
X89229072Y-79854299D01*
X88943358Y-80854299D02*
X88943358Y-79854299D01*
X90514787Y-79854299D02*
X90610025Y-79854299D01*
X90610025Y-79854299D02*
X90705263Y-79901918D01*
X90705263Y-79901918D02*
X90752882Y-79949537D01*
X90752882Y-79949537D02*
X90800501Y-80044775D01*
X90800501Y-80044775D02*
X90848120Y-80235251D01*
X90848120Y-80235251D02*
X90848120Y-80473346D01*
X90848120Y-80473346D02*
X90800501Y-80663822D01*
X90800501Y-80663822D02*
X90752882Y-80759060D01*
X90752882Y-80759060D02*
X90705263Y-80806680D01*
X90705263Y-80806680D02*
X90610025Y-80854299D01*
X90610025Y-80854299D02*
X90514787Y-80854299D01*
X90514787Y-80854299D02*
X90419549Y-80806680D01*
X90419549Y-80806680D02*
X90371930Y-80759060D01*
X90371930Y-80759060D02*
X90324311Y-80663822D01*
X90324311Y-80663822D02*
X90276692Y-80473346D01*
X90276692Y-80473346D02*
X90276692Y-80235251D01*
X90276692Y-80235251D02*
X90324311Y-80044775D01*
X90324311Y-80044775D02*
X90371930Y-79949537D01*
X90371930Y-79949537D02*
X90419549Y-79901918D01*
X90419549Y-79901918D02*
X90514787Y-79854299D01*
X91276692Y-80473346D02*
X92038597Y-80473346D01*
X92990977Y-79854299D02*
X92514787Y-79854299D01*
X92514787Y-79854299D02*
X92467168Y-80330489D01*
X92467168Y-80330489D02*
X92514787Y-80282870D01*
X92514787Y-80282870D02*
X92610025Y-80235251D01*
X92610025Y-80235251D02*
X92848120Y-80235251D01*
X92848120Y-80235251D02*
X92943358Y-80282870D01*
X92943358Y-80282870D02*
X92990977Y-80330489D01*
X92990977Y-80330489D02*
X93038596Y-80425727D01*
X93038596Y-80425727D02*
X93038596Y-80663822D01*
X93038596Y-80663822D02*
X92990977Y-80759060D01*
X92990977Y-80759060D02*
X92943358Y-80806680D01*
X92943358Y-80806680D02*
X92848120Y-80854299D01*
X92848120Y-80854299D02*
X92610025Y-80854299D01*
X92610025Y-80854299D02*
X92514787Y-80806680D01*
X92514787Y-80806680D02*
X92467168Y-80759060D01*
X93324311Y-79854299D02*
X93657644Y-80854299D01*
X93657644Y-80854299D02*
X93990977Y-79854299D01*
X91295739Y-64568584D02*
X91771929Y-64568584D01*
X91200501Y-64854299D02*
X91533834Y-63854299D01*
X91533834Y-63854299D02*
X91867167Y-64854299D01*
X92200501Y-64854299D02*
X92200501Y-63854299D01*
X92200501Y-63854299D02*
X92438596Y-63854299D01*
X92438596Y-63854299D02*
X92581453Y-63901918D01*
X92581453Y-63901918D02*
X92676691Y-63997156D01*
X92676691Y-63997156D02*
X92724310Y-64092394D01*
X92724310Y-64092394D02*
X92771929Y-64282870D01*
X92771929Y-64282870D02*
X92771929Y-64425727D01*
X92771929Y-64425727D02*
X92724310Y-64616203D01*
X92724310Y-64616203D02*
X92676691Y-64711441D01*
X92676691Y-64711441D02*
X92581453Y-64806680D01*
X92581453Y-64806680D02*
X92438596Y-64854299D01*
X92438596Y-64854299D02*
X92200501Y-64854299D01*
X93152882Y-64806680D02*
X93295739Y-64854299D01*
X93295739Y-64854299D02*
X93533834Y-64854299D01*
X93533834Y-64854299D02*
X93629072Y-64806680D01*
X93629072Y-64806680D02*
X93676691Y-64759060D01*
X93676691Y-64759060D02*
X93724310Y-64663822D01*
X93724310Y-64663822D02*
X93724310Y-64568584D01*
X93724310Y-64568584D02*
X93676691Y-64473346D01*
X93676691Y-64473346D02*
X93629072Y-64425727D01*
X93629072Y-64425727D02*
X93533834Y-64378108D01*
X93533834Y-64378108D02*
X93343358Y-64330489D01*
X93343358Y-64330489D02*
X93248120Y-64282870D01*
X93248120Y-64282870D02*
X93200501Y-64235251D01*
X93200501Y-64235251D02*
X93152882Y-64140013D01*
X93152882Y-64140013D02*
X93152882Y-64044775D01*
X93152882Y-64044775D02*
X93200501Y-63949537D01*
X93200501Y-63949537D02*
X93248120Y-63901918D01*
X93248120Y-63901918D02*
X93343358Y-63854299D01*
X93343358Y-63854299D02*
X93581453Y-63854299D01*
X93581453Y-63854299D02*
X93724310Y-63901918D01*
X94676691Y-64854299D02*
X94105263Y-64854299D01*
X94390977Y-64854299D02*
X94390977Y-63854299D01*
X94390977Y-63854299D02*
X94295739Y-63997156D01*
X94295739Y-63997156D02*
X94200501Y-64092394D01*
X94200501Y-64092394D02*
X94105263Y-64140013D01*
X95629072Y-64854299D02*
X95057644Y-64854299D01*
X95343358Y-64854299D02*
X95343358Y-63854299D01*
X95343358Y-63854299D02*
X95248120Y-63997156D01*
X95248120Y-63997156D02*
X95152882Y-64092394D01*
X95152882Y-64092394D02*
X95057644Y-64140013D01*
X96581453Y-64854299D02*
X96010025Y-64854299D01*
X96295739Y-64854299D02*
X96295739Y-63854299D01*
X96295739Y-63854299D02*
X96200501Y-63997156D01*
X96200501Y-63997156D02*
X96105263Y-64092394D01*
X96105263Y-64092394D02*
X96010025Y-64140013D01*
X97486215Y-63854299D02*
X97010025Y-63854299D01*
X97010025Y-63854299D02*
X96962406Y-64330489D01*
X96962406Y-64330489D02*
X97010025Y-64282870D01*
X97010025Y-64282870D02*
X97105263Y-64235251D01*
X97105263Y-64235251D02*
X97343358Y-64235251D01*
X97343358Y-64235251D02*
X97438596Y-64282870D01*
X97438596Y-64282870D02*
X97486215Y-64330489D01*
X97486215Y-64330489D02*
X97533834Y-64425727D01*
X97533834Y-64425727D02*
X97533834Y-64663822D01*
X97533834Y-64663822D02*
X97486215Y-64759060D01*
X97486215Y-64759060D02*
X97438596Y-64806680D01*
X97438596Y-64806680D02*
X97343358Y-64854299D01*
X97343358Y-64854299D02*
X97105263Y-64854299D01*
X97105263Y-64854299D02*
X97010025Y-64806680D01*
X97010025Y-64806680D02*
X96962406Y-64759060D01*
X98914787Y-63854299D02*
X99010025Y-63854299D01*
X99010025Y-63854299D02*
X99105263Y-63901918D01*
X99105263Y-63901918D02*
X99152882Y-63949537D01*
X99152882Y-63949537D02*
X99200501Y-64044775D01*
X99200501Y-64044775D02*
X99248120Y-64235251D01*
X99248120Y-64235251D02*
X99248120Y-64473346D01*
X99248120Y-64473346D02*
X99200501Y-64663822D01*
X99200501Y-64663822D02*
X99152882Y-64759060D01*
X99152882Y-64759060D02*
X99105263Y-64806680D01*
X99105263Y-64806680D02*
X99010025Y-64854299D01*
X99010025Y-64854299D02*
X98914787Y-64854299D01*
X98914787Y-64854299D02*
X98819549Y-64806680D01*
X98819549Y-64806680D02*
X98771930Y-64759060D01*
X98771930Y-64759060D02*
X98724311Y-64663822D01*
X98724311Y-64663822D02*
X98676692Y-64473346D01*
X98676692Y-64473346D02*
X98676692Y-64235251D01*
X98676692Y-64235251D02*
X98724311Y-64044775D01*
X98724311Y-64044775D02*
X98771930Y-63949537D01*
X98771930Y-63949537D02*
X98819549Y-63901918D01*
X98819549Y-63901918D02*
X98914787Y-63854299D01*
X99581454Y-64854299D02*
X100105263Y-64187632D01*
X99581454Y-64187632D02*
X100105263Y-64854299D01*
X100914787Y-64187632D02*
X100914787Y-64854299D01*
X100676692Y-63806680D02*
X100438597Y-64520965D01*
X100438597Y-64520965D02*
X101057644Y-64520965D01*
X101581454Y-64282870D02*
X101486216Y-64235251D01*
X101486216Y-64235251D02*
X101438597Y-64187632D01*
X101438597Y-64187632D02*
X101390978Y-64092394D01*
X101390978Y-64092394D02*
X101390978Y-64044775D01*
X101390978Y-64044775D02*
X101438597Y-63949537D01*
X101438597Y-63949537D02*
X101486216Y-63901918D01*
X101486216Y-63901918D02*
X101581454Y-63854299D01*
X101581454Y-63854299D02*
X101771930Y-63854299D01*
X101771930Y-63854299D02*
X101867168Y-63901918D01*
X101867168Y-63901918D02*
X101914787Y-63949537D01*
X101914787Y-63949537D02*
X101962406Y-64044775D01*
X101962406Y-64044775D02*
X101962406Y-64092394D01*
X101962406Y-64092394D02*
X101914787Y-64187632D01*
X101914787Y-64187632D02*
X101867168Y-64235251D01*
X101867168Y-64235251D02*
X101771930Y-64282870D01*
X101771930Y-64282870D02*
X101581454Y-64282870D01*
X101581454Y-64282870D02*
X101486216Y-64330489D01*
X101486216Y-64330489D02*
X101438597Y-64378108D01*
X101438597Y-64378108D02*
X101390978Y-64473346D01*
X101390978Y-64473346D02*
X101390978Y-64663822D01*
X101390978Y-64663822D02*
X101438597Y-64759060D01*
X101438597Y-64759060D02*
X101486216Y-64806680D01*
X101486216Y-64806680D02*
X101581454Y-64854299D01*
X101581454Y-64854299D02*
X101771930Y-64854299D01*
X101771930Y-64854299D02*
X101867168Y-64806680D01*
X101867168Y-64806680D02*
X101914787Y-64759060D01*
X101914787Y-64759060D02*
X101962406Y-64663822D01*
X101962406Y-64663822D02*
X101962406Y-64473346D01*
X101962406Y-64473346D02*
X101914787Y-64378108D01*
X101914787Y-64378108D02*
X101867168Y-64330489D01*
X101867168Y-64330489D02*
X101771930Y-64282870D01*
X104676693Y-64854299D02*
X104676693Y-63854299D01*
X104676693Y-63854299D02*
X105010026Y-64568584D01*
X105010026Y-64568584D02*
X105343359Y-63854299D01*
X105343359Y-63854299D02*
X105343359Y-64854299D01*
X106390978Y-64759060D02*
X106343359Y-64806680D01*
X106343359Y-64806680D02*
X106200502Y-64854299D01*
X106200502Y-64854299D02*
X106105264Y-64854299D01*
X106105264Y-64854299D02*
X105962407Y-64806680D01*
X105962407Y-64806680D02*
X105867169Y-64711441D01*
X105867169Y-64711441D02*
X105819550Y-64616203D01*
X105819550Y-64616203D02*
X105771931Y-64425727D01*
X105771931Y-64425727D02*
X105771931Y-64282870D01*
X105771931Y-64282870D02*
X105819550Y-64092394D01*
X105819550Y-64092394D02*
X105867169Y-63997156D01*
X105867169Y-63997156D02*
X105962407Y-63901918D01*
X105962407Y-63901918D02*
X106105264Y-63854299D01*
X106105264Y-63854299D02*
X106200502Y-63854299D01*
X106200502Y-63854299D02*
X106343359Y-63901918D01*
X106343359Y-63901918D02*
X106390978Y-63949537D01*
X106819550Y-64854299D02*
X106819550Y-63854299D01*
X106819550Y-63854299D02*
X107200502Y-63854299D01*
X107200502Y-63854299D02*
X107295740Y-63901918D01*
X107295740Y-63901918D02*
X107343359Y-63949537D01*
X107343359Y-63949537D02*
X107390978Y-64044775D01*
X107390978Y-64044775D02*
X107390978Y-64187632D01*
X107390978Y-64187632D02*
X107343359Y-64282870D01*
X107343359Y-64282870D02*
X107295740Y-64330489D01*
X107295740Y-64330489D02*
X107200502Y-64378108D01*
X107200502Y-64378108D02*
X106819550Y-64378108D01*
X108248121Y-64187632D02*
X108248121Y-64854299D01*
X108010026Y-63806680D02*
X107771931Y-64520965D01*
X107771931Y-64520965D02*
X108390978Y-64520965D01*
X108676693Y-63854299D02*
X109343359Y-63854299D01*
X109343359Y-63854299D02*
X108914788Y-64854299D01*
X109676693Y-63949537D02*
X109724312Y-63901918D01*
X109724312Y-63901918D02*
X109819550Y-63854299D01*
X109819550Y-63854299D02*
X110057645Y-63854299D01*
X110057645Y-63854299D02*
X110152883Y-63901918D01*
X110152883Y-63901918D02*
X110200502Y-63949537D01*
X110200502Y-63949537D02*
X110248121Y-64044775D01*
X110248121Y-64044775D02*
X110248121Y-64140013D01*
X110248121Y-64140013D02*
X110200502Y-64282870D01*
X110200502Y-64282870D02*
X109629074Y-64854299D01*
X109629074Y-64854299D02*
X110248121Y-64854299D01*
X111152883Y-63854299D02*
X110676693Y-63854299D01*
X110676693Y-63854299D02*
X110629074Y-64330489D01*
X110629074Y-64330489D02*
X110676693Y-64282870D01*
X110676693Y-64282870D02*
X110771931Y-64235251D01*
X110771931Y-64235251D02*
X111010026Y-64235251D01*
X111010026Y-64235251D02*
X111105264Y-64282870D01*
X111105264Y-64282870D02*
X111152883Y-64330489D01*
X111152883Y-64330489D02*
X111200502Y-64425727D01*
X111200502Y-64425727D02*
X111200502Y-64663822D01*
X111200502Y-64663822D02*
X111152883Y-64759060D01*
X111152883Y-64759060D02*
X111105264Y-64806680D01*
X111105264Y-64806680D02*
X111010026Y-64854299D01*
X111010026Y-64854299D02*
X110771931Y-64854299D01*
X110771931Y-64854299D02*
X110676693Y-64806680D01*
X110676693Y-64806680D02*
X110629074Y-64759060D01*
X112581455Y-63854299D02*
X112676693Y-63854299D01*
X112676693Y-63854299D02*
X112771931Y-63901918D01*
X112771931Y-63901918D02*
X112819550Y-63949537D01*
X112819550Y-63949537D02*
X112867169Y-64044775D01*
X112867169Y-64044775D02*
X112914788Y-64235251D01*
X112914788Y-64235251D02*
X112914788Y-64473346D01*
X112914788Y-64473346D02*
X112867169Y-64663822D01*
X112867169Y-64663822D02*
X112819550Y-64759060D01*
X112819550Y-64759060D02*
X112771931Y-64806680D01*
X112771931Y-64806680D02*
X112676693Y-64854299D01*
X112676693Y-64854299D02*
X112581455Y-64854299D01*
X112581455Y-64854299D02*
X112486217Y-64806680D01*
X112486217Y-64806680D02*
X112438598Y-64759060D01*
X112438598Y-64759060D02*
X112390979Y-64663822D01*
X112390979Y-64663822D02*
X112343360Y-64473346D01*
X112343360Y-64473346D02*
X112343360Y-64235251D01*
X112343360Y-64235251D02*
X112390979Y-64044775D01*
X112390979Y-64044775D02*
X112438598Y-63949537D01*
X112438598Y-63949537D02*
X112486217Y-63901918D01*
X112486217Y-63901918D02*
X112581455Y-63854299D01*
X113248122Y-64854299D02*
X113771931Y-64187632D01*
X113248122Y-64187632D02*
X113771931Y-64854299D01*
X114581455Y-63854299D02*
X114390979Y-63854299D01*
X114390979Y-63854299D02*
X114295741Y-63901918D01*
X114295741Y-63901918D02*
X114248122Y-63949537D01*
X114248122Y-63949537D02*
X114152884Y-64092394D01*
X114152884Y-64092394D02*
X114105265Y-64282870D01*
X114105265Y-64282870D02*
X114105265Y-64663822D01*
X114105265Y-64663822D02*
X114152884Y-64759060D01*
X114152884Y-64759060D02*
X114200503Y-64806680D01*
X114200503Y-64806680D02*
X114295741Y-64854299D01*
X114295741Y-64854299D02*
X114486217Y-64854299D01*
X114486217Y-64854299D02*
X114581455Y-64806680D01*
X114581455Y-64806680D02*
X114629074Y-64759060D01*
X114629074Y-64759060D02*
X114676693Y-64663822D01*
X114676693Y-64663822D02*
X114676693Y-64425727D01*
X114676693Y-64425727D02*
X114629074Y-64330489D01*
X114629074Y-64330489D02*
X114581455Y-64282870D01*
X114581455Y-64282870D02*
X114486217Y-64235251D01*
X114486217Y-64235251D02*
X114295741Y-64235251D01*
X114295741Y-64235251D02*
X114200503Y-64282870D01*
X114200503Y-64282870D02*
X114152884Y-64330489D01*
X114152884Y-64330489D02*
X114105265Y-64425727D01*
X115295741Y-63854299D02*
X115390979Y-63854299D01*
X115390979Y-63854299D02*
X115486217Y-63901918D01*
X115486217Y-63901918D02*
X115533836Y-63949537D01*
X115533836Y-63949537D02*
X115581455Y-64044775D01*
X115581455Y-64044775D02*
X115629074Y-64235251D01*
X115629074Y-64235251D02*
X115629074Y-64473346D01*
X115629074Y-64473346D02*
X115581455Y-64663822D01*
X115581455Y-64663822D02*
X115533836Y-64759060D01*
X115533836Y-64759060D02*
X115486217Y-64806680D01*
X115486217Y-64806680D02*
X115390979Y-64854299D01*
X115390979Y-64854299D02*
X115295741Y-64854299D01*
X115295741Y-64854299D02*
X115200503Y-64806680D01*
X115200503Y-64806680D02*
X115152884Y-64759060D01*
X115152884Y-64759060D02*
X115105265Y-64663822D01*
X115105265Y-64663822D02*
X115057646Y-64473346D01*
X115057646Y-64473346D02*
X115057646Y-64235251D01*
X115057646Y-64235251D02*
X115105265Y-64044775D01*
X115105265Y-64044775D02*
X115152884Y-63949537D01*
X115152884Y-63949537D02*
X115200503Y-63901918D01*
X115200503Y-63901918D02*
X115295741Y-63854299D01*
X118914789Y-64854299D02*
X118581456Y-64378108D01*
X118343361Y-64854299D02*
X118343361Y-63854299D01*
X118343361Y-63854299D02*
X118724313Y-63854299D01*
X118724313Y-63854299D02*
X118819551Y-63901918D01*
X118819551Y-63901918D02*
X118867170Y-63949537D01*
X118867170Y-63949537D02*
X118914789Y-64044775D01*
X118914789Y-64044775D02*
X118914789Y-64187632D01*
X118914789Y-64187632D02*
X118867170Y-64282870D01*
X118867170Y-64282870D02*
X118819551Y-64330489D01*
X118819551Y-64330489D02*
X118724313Y-64378108D01*
X118724313Y-64378108D02*
X118343361Y-64378108D01*
X119343361Y-64854299D02*
X119343361Y-63854299D01*
X119343361Y-63854299D02*
X119581456Y-63854299D01*
X119581456Y-63854299D02*
X119724313Y-63901918D01*
X119724313Y-63901918D02*
X119819551Y-63997156D01*
X119819551Y-63997156D02*
X119867170Y-64092394D01*
X119867170Y-64092394D02*
X119914789Y-64282870D01*
X119914789Y-64282870D02*
X119914789Y-64425727D01*
X119914789Y-64425727D02*
X119867170Y-64616203D01*
X119867170Y-64616203D02*
X119819551Y-64711441D01*
X119819551Y-64711441D02*
X119724313Y-64806680D01*
X119724313Y-64806680D02*
X119581456Y-64854299D01*
X119581456Y-64854299D02*
X119343361Y-64854299D01*
X120533837Y-64378108D02*
X120533837Y-64854299D01*
X120200504Y-63854299D02*
X120533837Y-64378108D01*
X120533837Y-64378108D02*
X120867170Y-63854299D01*
X121200504Y-64330489D02*
X121962409Y-64330489D01*
X121962409Y-64616203D02*
X121200504Y-64616203D01*
X122438599Y-64854299D02*
X122438599Y-63854299D01*
X122438599Y-63854299D02*
X122676694Y-63854299D01*
X122676694Y-63854299D02*
X122819551Y-63901918D01*
X122819551Y-63901918D02*
X122914789Y-63997156D01*
X122914789Y-63997156D02*
X122962408Y-64092394D01*
X122962408Y-64092394D02*
X123010027Y-64282870D01*
X123010027Y-64282870D02*
X123010027Y-64425727D01*
X123010027Y-64425727D02*
X122962408Y-64616203D01*
X122962408Y-64616203D02*
X122914789Y-64711441D01*
X122914789Y-64711441D02*
X122819551Y-64806680D01*
X122819551Y-64806680D02*
X122676694Y-64854299D01*
X122676694Y-64854299D02*
X122438599Y-64854299D01*
X123390980Y-63949537D02*
X123438599Y-63901918D01*
X123438599Y-63901918D02*
X123533837Y-63854299D01*
X123533837Y-63854299D02*
X123771932Y-63854299D01*
X123771932Y-63854299D02*
X123867170Y-63901918D01*
X123867170Y-63901918D02*
X123914789Y-63949537D01*
X123914789Y-63949537D02*
X123962408Y-64044775D01*
X123962408Y-64044775D02*
X123962408Y-64140013D01*
X123962408Y-64140013D02*
X123914789Y-64282870D01*
X123914789Y-64282870D02*
X123343361Y-64854299D01*
X123343361Y-64854299D02*
X123962408Y-64854299D01*
X126533838Y-63854299D02*
X127105266Y-63854299D01*
X126819552Y-64854299D02*
X126819552Y-63854299D01*
X128010028Y-64854299D02*
X127676695Y-64378108D01*
X127438600Y-64854299D02*
X127438600Y-63854299D01*
X127438600Y-63854299D02*
X127819552Y-63854299D01*
X127819552Y-63854299D02*
X127914790Y-63901918D01*
X127914790Y-63901918D02*
X127962409Y-63949537D01*
X127962409Y-63949537D02*
X128010028Y-64044775D01*
X128010028Y-64044775D02*
X128010028Y-64187632D01*
X128010028Y-64187632D02*
X127962409Y-64282870D01*
X127962409Y-64282870D02*
X127914790Y-64330489D01*
X127914790Y-64330489D02*
X127819552Y-64378108D01*
X127819552Y-64378108D02*
X127438600Y-64378108D01*
X128438600Y-64854299D02*
X128438600Y-63854299D01*
X129438599Y-63901918D02*
X129343361Y-63854299D01*
X129343361Y-63854299D02*
X129200504Y-63854299D01*
X129200504Y-63854299D02*
X129057647Y-63901918D01*
X129057647Y-63901918D02*
X128962409Y-63997156D01*
X128962409Y-63997156D02*
X128914790Y-64092394D01*
X128914790Y-64092394D02*
X128867171Y-64282870D01*
X128867171Y-64282870D02*
X128867171Y-64425727D01*
X128867171Y-64425727D02*
X128914790Y-64616203D01*
X128914790Y-64616203D02*
X128962409Y-64711441D01*
X128962409Y-64711441D02*
X129057647Y-64806680D01*
X129057647Y-64806680D02*
X129200504Y-64854299D01*
X129200504Y-64854299D02*
X129295742Y-64854299D01*
X129295742Y-64854299D02*
X129438599Y-64806680D01*
X129438599Y-64806680D02*
X129486218Y-64759060D01*
X129486218Y-64759060D02*
X129486218Y-64425727D01*
X129486218Y-64425727D02*
X129295742Y-64425727D01*
X129914790Y-64330489D02*
X130676695Y-64330489D01*
X130676695Y-64616203D02*
X129914790Y-64616203D01*
X131152885Y-64854299D02*
X131152885Y-63854299D01*
X131152885Y-63854299D02*
X131390980Y-63854299D01*
X131390980Y-63854299D02*
X131533837Y-63901918D01*
X131533837Y-63901918D02*
X131629075Y-63997156D01*
X131629075Y-63997156D02*
X131676694Y-64092394D01*
X131676694Y-64092394D02*
X131724313Y-64282870D01*
X131724313Y-64282870D02*
X131724313Y-64425727D01*
X131724313Y-64425727D02*
X131676694Y-64616203D01*
X131676694Y-64616203D02*
X131629075Y-64711441D01*
X131629075Y-64711441D02*
X131533837Y-64806680D01*
X131533837Y-64806680D02*
X131390980Y-64854299D01*
X131390980Y-64854299D02*
X131152885Y-64854299D01*
X132295742Y-64282870D02*
X132200504Y-64235251D01*
X132200504Y-64235251D02*
X132152885Y-64187632D01*
X132152885Y-64187632D02*
X132105266Y-64092394D01*
X132105266Y-64092394D02*
X132105266Y-64044775D01*
X132105266Y-64044775D02*
X132152885Y-63949537D01*
X132152885Y-63949537D02*
X132200504Y-63901918D01*
X132200504Y-63901918D02*
X132295742Y-63854299D01*
X132295742Y-63854299D02*
X132486218Y-63854299D01*
X132486218Y-63854299D02*
X132581456Y-63901918D01*
X132581456Y-63901918D02*
X132629075Y-63949537D01*
X132629075Y-63949537D02*
X132676694Y-64044775D01*
X132676694Y-64044775D02*
X132676694Y-64092394D01*
X132676694Y-64092394D02*
X132629075Y-64187632D01*
X132629075Y-64187632D02*
X132581456Y-64235251D01*
X132581456Y-64235251D02*
X132486218Y-64282870D01*
X132486218Y-64282870D02*
X132295742Y-64282870D01*
X132295742Y-64282870D02*
X132200504Y-64330489D01*
X132200504Y-64330489D02*
X132152885Y-64378108D01*
X132152885Y-64378108D02*
X132105266Y-64473346D01*
X132105266Y-64473346D02*
X132105266Y-64663822D01*
X132105266Y-64663822D02*
X132152885Y-64759060D01*
X132152885Y-64759060D02*
X132200504Y-64806680D01*
X132200504Y-64806680D02*
X132295742Y-64854299D01*
X132295742Y-64854299D02*
X132486218Y-64854299D01*
X132486218Y-64854299D02*
X132581456Y-64806680D01*
X132581456Y-64806680D02*
X132629075Y-64759060D01*
X132629075Y-64759060D02*
X132676694Y-64663822D01*
X132676694Y-64663822D02*
X132676694Y-64473346D01*
X132676694Y-64473346D02*
X132629075Y-64378108D01*
X132629075Y-64378108D02*
X132581456Y-64330489D01*
X132581456Y-64330489D02*
X132486218Y-64282870D01*
X91867167Y-65901918D02*
X91771929Y-65854299D01*
X91771929Y-65854299D02*
X91629072Y-65854299D01*
X91629072Y-65854299D02*
X91486215Y-65901918D01*
X91486215Y-65901918D02*
X91390977Y-65997156D01*
X91390977Y-65997156D02*
X91343358Y-66092394D01*
X91343358Y-66092394D02*
X91295739Y-66282870D01*
X91295739Y-66282870D02*
X91295739Y-66425727D01*
X91295739Y-66425727D02*
X91343358Y-66616203D01*
X91343358Y-66616203D02*
X91390977Y-66711441D01*
X91390977Y-66711441D02*
X91486215Y-66806680D01*
X91486215Y-66806680D02*
X91629072Y-66854299D01*
X91629072Y-66854299D02*
X91724310Y-66854299D01*
X91724310Y-66854299D02*
X91867167Y-66806680D01*
X91867167Y-66806680D02*
X91914786Y-66759060D01*
X91914786Y-66759060D02*
X91914786Y-66425727D01*
X91914786Y-66425727D02*
X91724310Y-66425727D01*
X92771929Y-66187632D02*
X92771929Y-66854299D01*
X92343358Y-66187632D02*
X92343358Y-66711441D01*
X92343358Y-66711441D02*
X92390977Y-66806680D01*
X92390977Y-66806680D02*
X92486215Y-66854299D01*
X92486215Y-66854299D02*
X92629072Y-66854299D01*
X92629072Y-66854299D02*
X92724310Y-66806680D01*
X92724310Y-66806680D02*
X92771929Y-66759060D01*
X93676691Y-66854299D02*
X93676691Y-66330489D01*
X93676691Y-66330489D02*
X93629072Y-66235251D01*
X93629072Y-66235251D02*
X93533834Y-66187632D01*
X93533834Y-66187632D02*
X93343358Y-66187632D01*
X93343358Y-66187632D02*
X93248120Y-66235251D01*
X93676691Y-66806680D02*
X93581453Y-66854299D01*
X93581453Y-66854299D02*
X93343358Y-66854299D01*
X93343358Y-66854299D02*
X93248120Y-66806680D01*
X93248120Y-66806680D02*
X93200501Y-66711441D01*
X93200501Y-66711441D02*
X93200501Y-66616203D01*
X93200501Y-66616203D02*
X93248120Y-66520965D01*
X93248120Y-66520965D02*
X93343358Y-66473346D01*
X93343358Y-66473346D02*
X93581453Y-66473346D01*
X93581453Y-66473346D02*
X93676691Y-66425727D01*
X94152882Y-66854299D02*
X94152882Y-66187632D01*
X94152882Y-66378108D02*
X94200501Y-66282870D01*
X94200501Y-66282870D02*
X94248120Y-66235251D01*
X94248120Y-66235251D02*
X94343358Y-66187632D01*
X94343358Y-66187632D02*
X94438596Y-66187632D01*
X95200501Y-66854299D02*
X95200501Y-65854299D01*
X95200501Y-66806680D02*
X95105263Y-66854299D01*
X95105263Y-66854299D02*
X94914787Y-66854299D01*
X94914787Y-66854299D02*
X94819549Y-66806680D01*
X94819549Y-66806680D02*
X94771930Y-66759060D01*
X94771930Y-66759060D02*
X94724311Y-66663822D01*
X94724311Y-66663822D02*
X94724311Y-66378108D01*
X94724311Y-66378108D02*
X94771930Y-66282870D01*
X94771930Y-66282870D02*
X94819549Y-66235251D01*
X94819549Y-66235251D02*
X94914787Y-66187632D01*
X94914787Y-66187632D02*
X95105263Y-66187632D01*
X95105263Y-66187632D02*
X95200501Y-66235251D01*
X96867168Y-66854299D02*
X96867168Y-66330489D01*
X96867168Y-66330489D02*
X96819549Y-66235251D01*
X96819549Y-66235251D02*
X96724311Y-66187632D01*
X96724311Y-66187632D02*
X96533835Y-66187632D01*
X96533835Y-66187632D02*
X96438597Y-66235251D01*
X96867168Y-66806680D02*
X96771930Y-66854299D01*
X96771930Y-66854299D02*
X96533835Y-66854299D01*
X96533835Y-66854299D02*
X96438597Y-66806680D01*
X96438597Y-66806680D02*
X96390978Y-66711441D01*
X96390978Y-66711441D02*
X96390978Y-66616203D01*
X96390978Y-66616203D02*
X96438597Y-66520965D01*
X96438597Y-66520965D02*
X96533835Y-66473346D01*
X96533835Y-66473346D02*
X96771930Y-66473346D01*
X96771930Y-66473346D02*
X96867168Y-66425727D01*
X97343359Y-66854299D02*
X97343359Y-66187632D01*
X97343359Y-66378108D02*
X97390978Y-66282870D01*
X97390978Y-66282870D02*
X97438597Y-66235251D01*
X97438597Y-66235251D02*
X97533835Y-66187632D01*
X97533835Y-66187632D02*
X97629073Y-66187632D01*
X98343359Y-66806680D02*
X98248121Y-66854299D01*
X98248121Y-66854299D02*
X98057645Y-66854299D01*
X98057645Y-66854299D02*
X97962407Y-66806680D01*
X97962407Y-66806680D02*
X97914788Y-66711441D01*
X97914788Y-66711441D02*
X97914788Y-66330489D01*
X97914788Y-66330489D02*
X97962407Y-66235251D01*
X97962407Y-66235251D02*
X98057645Y-66187632D01*
X98057645Y-66187632D02*
X98248121Y-66187632D01*
X98248121Y-66187632D02*
X98343359Y-66235251D01*
X98343359Y-66235251D02*
X98390978Y-66330489D01*
X98390978Y-66330489D02*
X98390978Y-66425727D01*
X98390978Y-66425727D02*
X97914788Y-66520965D01*
X99248121Y-66854299D02*
X99248121Y-66330489D01*
X99248121Y-66330489D02*
X99200502Y-66235251D01*
X99200502Y-66235251D02*
X99105264Y-66187632D01*
X99105264Y-66187632D02*
X98914788Y-66187632D01*
X98914788Y-66187632D02*
X98819550Y-66235251D01*
X99248121Y-66806680D02*
X99152883Y-66854299D01*
X99152883Y-66854299D02*
X98914788Y-66854299D01*
X98914788Y-66854299D02*
X98819550Y-66806680D01*
X98819550Y-66806680D02*
X98771931Y-66711441D01*
X98771931Y-66711441D02*
X98771931Y-66616203D01*
X98771931Y-66616203D02*
X98819550Y-66520965D01*
X98819550Y-66520965D02*
X98914788Y-66473346D01*
X98914788Y-66473346D02*
X99152883Y-66473346D01*
X99152883Y-66473346D02*
X99248121Y-66425727D01*
X99724312Y-66759060D02*
X99771931Y-66806680D01*
X99771931Y-66806680D02*
X99724312Y-66854299D01*
X99724312Y-66854299D02*
X99676693Y-66806680D01*
X99676693Y-66806680D02*
X99724312Y-66759060D01*
X99724312Y-66759060D02*
X99724312Y-66854299D01*
X99724312Y-66235251D02*
X99771931Y-66282870D01*
X99771931Y-66282870D02*
X99724312Y-66330489D01*
X99724312Y-66330489D02*
X99676693Y-66282870D01*
X99676693Y-66282870D02*
X99724312Y-66235251D01*
X99724312Y-66235251D02*
X99724312Y-66330489D01*
X101390978Y-66806680D02*
X101295740Y-66854299D01*
X101295740Y-66854299D02*
X101105264Y-66854299D01*
X101105264Y-66854299D02*
X101010026Y-66806680D01*
X101010026Y-66806680D02*
X100962407Y-66759060D01*
X100962407Y-66759060D02*
X100914788Y-66663822D01*
X100914788Y-66663822D02*
X100914788Y-66378108D01*
X100914788Y-66378108D02*
X100962407Y-66282870D01*
X100962407Y-66282870D02*
X101010026Y-66235251D01*
X101010026Y-66235251D02*
X101105264Y-66187632D01*
X101105264Y-66187632D02*
X101295740Y-66187632D01*
X101295740Y-66187632D02*
X101390978Y-66235251D01*
X101962407Y-66854299D02*
X101867169Y-66806680D01*
X101867169Y-66806680D02*
X101819550Y-66711441D01*
X101819550Y-66711441D02*
X101819550Y-65854299D01*
X102724312Y-66806680D02*
X102629074Y-66854299D01*
X102629074Y-66854299D02*
X102438598Y-66854299D01*
X102438598Y-66854299D02*
X102343360Y-66806680D01*
X102343360Y-66806680D02*
X102295741Y-66711441D01*
X102295741Y-66711441D02*
X102295741Y-66330489D01*
X102295741Y-66330489D02*
X102343360Y-66235251D01*
X102343360Y-66235251D02*
X102438598Y-66187632D01*
X102438598Y-66187632D02*
X102629074Y-66187632D01*
X102629074Y-66187632D02*
X102724312Y-66235251D01*
X102724312Y-66235251D02*
X102771931Y-66330489D01*
X102771931Y-66330489D02*
X102771931Y-66425727D01*
X102771931Y-66425727D02*
X102295741Y-66520965D01*
X103629074Y-66854299D02*
X103629074Y-66330489D01*
X103629074Y-66330489D02*
X103581455Y-66235251D01*
X103581455Y-66235251D02*
X103486217Y-66187632D01*
X103486217Y-66187632D02*
X103295741Y-66187632D01*
X103295741Y-66187632D02*
X103200503Y-66235251D01*
X103629074Y-66806680D02*
X103533836Y-66854299D01*
X103533836Y-66854299D02*
X103295741Y-66854299D01*
X103295741Y-66854299D02*
X103200503Y-66806680D01*
X103200503Y-66806680D02*
X103152884Y-66711441D01*
X103152884Y-66711441D02*
X103152884Y-66616203D01*
X103152884Y-66616203D02*
X103200503Y-66520965D01*
X103200503Y-66520965D02*
X103295741Y-66473346D01*
X103295741Y-66473346D02*
X103533836Y-66473346D01*
X103533836Y-66473346D02*
X103629074Y-66425727D01*
X104105265Y-66187632D02*
X104105265Y-66854299D01*
X104105265Y-66282870D02*
X104152884Y-66235251D01*
X104152884Y-66235251D02*
X104248122Y-66187632D01*
X104248122Y-66187632D02*
X104390979Y-66187632D01*
X104390979Y-66187632D02*
X104486217Y-66235251D01*
X104486217Y-66235251D02*
X104533836Y-66330489D01*
X104533836Y-66330489D02*
X104533836Y-66854299D01*
X105914789Y-66854299D02*
X105819551Y-66806680D01*
X105819551Y-66806680D02*
X105771932Y-66759060D01*
X105771932Y-66759060D02*
X105724313Y-66663822D01*
X105724313Y-66663822D02*
X105724313Y-66378108D01*
X105724313Y-66378108D02*
X105771932Y-66282870D01*
X105771932Y-66282870D02*
X105819551Y-66235251D01*
X105819551Y-66235251D02*
X105914789Y-66187632D01*
X105914789Y-66187632D02*
X106057646Y-66187632D01*
X106057646Y-66187632D02*
X106152884Y-66235251D01*
X106152884Y-66235251D02*
X106200503Y-66282870D01*
X106200503Y-66282870D02*
X106248122Y-66378108D01*
X106248122Y-66378108D02*
X106248122Y-66663822D01*
X106248122Y-66663822D02*
X106200503Y-66759060D01*
X106200503Y-66759060D02*
X106152884Y-66806680D01*
X106152884Y-66806680D02*
X106057646Y-66854299D01*
X106057646Y-66854299D02*
X105914789Y-66854299D01*
X106533837Y-66187632D02*
X106914789Y-66187632D01*
X106676694Y-66854299D02*
X106676694Y-65997156D01*
X106676694Y-65997156D02*
X106724313Y-65901918D01*
X106724313Y-65901918D02*
X106819551Y-65854299D01*
X106819551Y-65854299D02*
X106914789Y-65854299D01*
X107105266Y-66187632D02*
X107486218Y-66187632D01*
X107248123Y-66854299D02*
X107248123Y-65997156D01*
X107248123Y-65997156D02*
X107295742Y-65901918D01*
X107295742Y-65901918D02*
X107390980Y-65854299D01*
X107390980Y-65854299D02*
X107486218Y-65854299D01*
X109010028Y-66854299D02*
X109010028Y-66330489D01*
X109010028Y-66330489D02*
X108962409Y-66235251D01*
X108962409Y-66235251D02*
X108867171Y-66187632D01*
X108867171Y-66187632D02*
X108676695Y-66187632D01*
X108676695Y-66187632D02*
X108581457Y-66235251D01*
X109010028Y-66806680D02*
X108914790Y-66854299D01*
X108914790Y-66854299D02*
X108676695Y-66854299D01*
X108676695Y-66854299D02*
X108581457Y-66806680D01*
X108581457Y-66806680D02*
X108533838Y-66711441D01*
X108533838Y-66711441D02*
X108533838Y-66616203D01*
X108533838Y-66616203D02*
X108581457Y-66520965D01*
X108581457Y-66520965D02*
X108676695Y-66473346D01*
X108676695Y-66473346D02*
X108914790Y-66473346D01*
X108914790Y-66473346D02*
X109010028Y-66425727D01*
X109629076Y-66854299D02*
X109533838Y-66806680D01*
X109533838Y-66806680D02*
X109486219Y-66711441D01*
X109486219Y-66711441D02*
X109486219Y-65854299D01*
X110152886Y-66854299D02*
X110057648Y-66806680D01*
X110057648Y-66806680D02*
X110010029Y-66711441D01*
X110010029Y-66711441D02*
X110010029Y-65854299D01*
X111152887Y-66187632D02*
X111533839Y-66187632D01*
X111295744Y-66854299D02*
X111295744Y-65997156D01*
X111295744Y-65997156D02*
X111343363Y-65901918D01*
X111343363Y-65901918D02*
X111438601Y-65854299D01*
X111438601Y-65854299D02*
X111533839Y-65854299D01*
X112010030Y-66854299D02*
X111914792Y-66806680D01*
X111914792Y-66806680D02*
X111867173Y-66711441D01*
X111867173Y-66711441D02*
X111867173Y-65854299D01*
X112819554Y-66187632D02*
X112819554Y-66854299D01*
X112390983Y-66187632D02*
X112390983Y-66711441D01*
X112390983Y-66711441D02*
X112438602Y-66806680D01*
X112438602Y-66806680D02*
X112533840Y-66854299D01*
X112533840Y-66854299D02*
X112676697Y-66854299D01*
X112676697Y-66854299D02*
X112771935Y-66806680D01*
X112771935Y-66806680D02*
X112819554Y-66759060D01*
X113200507Y-66854299D02*
X113724316Y-66187632D01*
X113200507Y-66187632D02*
X113724316Y-66854299D01*
X114152888Y-66806680D02*
X114152888Y-66854299D01*
X114152888Y-66854299D02*
X114105269Y-66949537D01*
X114105269Y-66949537D02*
X114057650Y-66997156D01*
X115343364Y-66854299D02*
X115343364Y-65854299D01*
X115771935Y-66854299D02*
X115771935Y-66330489D01*
X115771935Y-66330489D02*
X115724316Y-66235251D01*
X115724316Y-66235251D02*
X115629078Y-66187632D01*
X115629078Y-66187632D02*
X115486221Y-66187632D01*
X115486221Y-66187632D02*
X115390983Y-66235251D01*
X115390983Y-66235251D02*
X115343364Y-66282870D01*
X116676697Y-66854299D02*
X116676697Y-66330489D01*
X116676697Y-66330489D02*
X116629078Y-66235251D01*
X116629078Y-66235251D02*
X116533840Y-66187632D01*
X116533840Y-66187632D02*
X116343364Y-66187632D01*
X116343364Y-66187632D02*
X116248126Y-66235251D01*
X116676697Y-66806680D02*
X116581459Y-66854299D01*
X116581459Y-66854299D02*
X116343364Y-66854299D01*
X116343364Y-66854299D02*
X116248126Y-66806680D01*
X116248126Y-66806680D02*
X116200507Y-66711441D01*
X116200507Y-66711441D02*
X116200507Y-66616203D01*
X116200507Y-66616203D02*
X116248126Y-66520965D01*
X116248126Y-66520965D02*
X116343364Y-66473346D01*
X116343364Y-66473346D02*
X116581459Y-66473346D01*
X116581459Y-66473346D02*
X116676697Y-66425727D01*
X117152888Y-66187632D02*
X117152888Y-66854299D01*
X117152888Y-66282870D02*
X117200507Y-66235251D01*
X117200507Y-66235251D02*
X117295745Y-66187632D01*
X117295745Y-66187632D02*
X117438602Y-66187632D01*
X117438602Y-66187632D02*
X117533840Y-66235251D01*
X117533840Y-66235251D02*
X117581459Y-66330489D01*
X117581459Y-66330489D02*
X117581459Y-66854299D01*
X118486221Y-66854299D02*
X118486221Y-65854299D01*
X118486221Y-66806680D02*
X118390983Y-66854299D01*
X118390983Y-66854299D02*
X118200507Y-66854299D01*
X118200507Y-66854299D02*
X118105269Y-66806680D01*
X118105269Y-66806680D02*
X118057650Y-66759060D01*
X118057650Y-66759060D02*
X118010031Y-66663822D01*
X118010031Y-66663822D02*
X118010031Y-66378108D01*
X118010031Y-66378108D02*
X118057650Y-66282870D01*
X118057650Y-66282870D02*
X118105269Y-66235251D01*
X118105269Y-66235251D02*
X118200507Y-66187632D01*
X118200507Y-66187632D02*
X118390983Y-66187632D01*
X118390983Y-66187632D02*
X118486221Y-66235251D01*
X119105269Y-66854299D02*
X119010031Y-66806680D01*
X119010031Y-66806680D02*
X118962412Y-66711441D01*
X118962412Y-66711441D02*
X118962412Y-65854299D01*
X119867174Y-66806680D02*
X119771936Y-66854299D01*
X119771936Y-66854299D02*
X119581460Y-66854299D01*
X119581460Y-66854299D02*
X119486222Y-66806680D01*
X119486222Y-66806680D02*
X119438603Y-66711441D01*
X119438603Y-66711441D02*
X119438603Y-66330489D01*
X119438603Y-66330489D02*
X119486222Y-66235251D01*
X119486222Y-66235251D02*
X119581460Y-66187632D01*
X119581460Y-66187632D02*
X119771936Y-66187632D01*
X119771936Y-66187632D02*
X119867174Y-66235251D01*
X119867174Y-66235251D02*
X119914793Y-66330489D01*
X119914793Y-66330489D02*
X119914793Y-66425727D01*
X119914793Y-66425727D02*
X119438603Y-66520965D01*
X121105270Y-66854299D02*
X121105270Y-65854299D01*
X121105270Y-66235251D02*
X121200508Y-66187632D01*
X121200508Y-66187632D02*
X121390984Y-66187632D01*
X121390984Y-66187632D02*
X121486222Y-66235251D01*
X121486222Y-66235251D02*
X121533841Y-66282870D01*
X121533841Y-66282870D02*
X121581460Y-66378108D01*
X121581460Y-66378108D02*
X121581460Y-66663822D01*
X121581460Y-66663822D02*
X121533841Y-66759060D01*
X121533841Y-66759060D02*
X121486222Y-66806680D01*
X121486222Y-66806680D02*
X121390984Y-66854299D01*
X121390984Y-66854299D02*
X121200508Y-66854299D01*
X121200508Y-66854299D02*
X121105270Y-66806680D01*
X121914794Y-66187632D02*
X122152889Y-66854299D01*
X122390984Y-66187632D02*
X122152889Y-66854299D01*
X122152889Y-66854299D02*
X122057651Y-67092394D01*
X122057651Y-67092394D02*
X122010032Y-67140013D01*
X122010032Y-67140013D02*
X121914794Y-67187632D01*
X123390985Y-66187632D02*
X123771937Y-66187632D01*
X123533842Y-65854299D02*
X123533842Y-66711441D01*
X123533842Y-66711441D02*
X123581461Y-66806680D01*
X123581461Y-66806680D02*
X123676699Y-66854299D01*
X123676699Y-66854299D02*
X123771937Y-66854299D01*
X124105271Y-66854299D02*
X124105271Y-65854299D01*
X124533842Y-66854299D02*
X124533842Y-66330489D01*
X124533842Y-66330489D02*
X124486223Y-66235251D01*
X124486223Y-66235251D02*
X124390985Y-66187632D01*
X124390985Y-66187632D02*
X124248128Y-66187632D01*
X124248128Y-66187632D02*
X124152890Y-66235251D01*
X124152890Y-66235251D02*
X124105271Y-66282870D01*
X125390985Y-66806680D02*
X125295747Y-66854299D01*
X125295747Y-66854299D02*
X125105271Y-66854299D01*
X125105271Y-66854299D02*
X125010033Y-66806680D01*
X125010033Y-66806680D02*
X124962414Y-66711441D01*
X124962414Y-66711441D02*
X124962414Y-66330489D01*
X124962414Y-66330489D02*
X125010033Y-66235251D01*
X125010033Y-66235251D02*
X125105271Y-66187632D01*
X125105271Y-66187632D02*
X125295747Y-66187632D01*
X125295747Y-66187632D02*
X125390985Y-66235251D01*
X125390985Y-66235251D02*
X125438604Y-66330489D01*
X125438604Y-66330489D02*
X125438604Y-66425727D01*
X125438604Y-66425727D02*
X124962414Y-66520965D01*
X127010033Y-66806680D02*
X126914795Y-66854299D01*
X126914795Y-66854299D02*
X126724319Y-66854299D01*
X126724319Y-66854299D02*
X126629081Y-66806680D01*
X126629081Y-66806680D02*
X126581462Y-66711441D01*
X126581462Y-66711441D02*
X126581462Y-66330489D01*
X126581462Y-66330489D02*
X126629081Y-66235251D01*
X126629081Y-66235251D02*
X126724319Y-66187632D01*
X126724319Y-66187632D02*
X126914795Y-66187632D01*
X126914795Y-66187632D02*
X127010033Y-66235251D01*
X127010033Y-66235251D02*
X127057652Y-66330489D01*
X127057652Y-66330489D02*
X127057652Y-66425727D01*
X127057652Y-66425727D02*
X126581462Y-66520965D01*
X127914795Y-66854299D02*
X127914795Y-65854299D01*
X127914795Y-66806680D02*
X127819557Y-66854299D01*
X127819557Y-66854299D02*
X127629081Y-66854299D01*
X127629081Y-66854299D02*
X127533843Y-66806680D01*
X127533843Y-66806680D02*
X127486224Y-66759060D01*
X127486224Y-66759060D02*
X127438605Y-66663822D01*
X127438605Y-66663822D02*
X127438605Y-66378108D01*
X127438605Y-66378108D02*
X127486224Y-66282870D01*
X127486224Y-66282870D02*
X127533843Y-66235251D01*
X127533843Y-66235251D02*
X127629081Y-66187632D01*
X127629081Y-66187632D02*
X127819557Y-66187632D01*
X127819557Y-66187632D02*
X127914795Y-66235251D01*
X128819557Y-66187632D02*
X128819557Y-66997156D01*
X128819557Y-66997156D02*
X128771938Y-67092394D01*
X128771938Y-67092394D02*
X128724319Y-67140013D01*
X128724319Y-67140013D02*
X128629081Y-67187632D01*
X128629081Y-67187632D02*
X128486224Y-67187632D01*
X128486224Y-67187632D02*
X128390986Y-67140013D01*
X128819557Y-66806680D02*
X128724319Y-66854299D01*
X128724319Y-66854299D02*
X128533843Y-66854299D01*
X128533843Y-66854299D02*
X128438605Y-66806680D01*
X128438605Y-66806680D02*
X128390986Y-66759060D01*
X128390986Y-66759060D02*
X128343367Y-66663822D01*
X128343367Y-66663822D02*
X128343367Y-66378108D01*
X128343367Y-66378108D02*
X128390986Y-66282870D01*
X128390986Y-66282870D02*
X128438605Y-66235251D01*
X128438605Y-66235251D02*
X128533843Y-66187632D01*
X128533843Y-66187632D02*
X128724319Y-66187632D01*
X128724319Y-66187632D02*
X128819557Y-66235251D01*
X129676700Y-66806680D02*
X129581462Y-66854299D01*
X129581462Y-66854299D02*
X129390986Y-66854299D01*
X129390986Y-66854299D02*
X129295748Y-66806680D01*
X129295748Y-66806680D02*
X129248129Y-66711441D01*
X129248129Y-66711441D02*
X129248129Y-66330489D01*
X129248129Y-66330489D02*
X129295748Y-66235251D01*
X129295748Y-66235251D02*
X129390986Y-66187632D01*
X129390986Y-66187632D02*
X129581462Y-66187632D01*
X129581462Y-66187632D02*
X129676700Y-66235251D01*
X129676700Y-66235251D02*
X129724319Y-66330489D01*
X129724319Y-66330489D02*
X129724319Y-66425727D01*
X129724319Y-66425727D02*
X129248129Y-66520965D01*
X130105272Y-66806680D02*
X130200510Y-66854299D01*
X130200510Y-66854299D02*
X130390986Y-66854299D01*
X130390986Y-66854299D02*
X130486224Y-66806680D01*
X130486224Y-66806680D02*
X130533843Y-66711441D01*
X130533843Y-66711441D02*
X130533843Y-66663822D01*
X130533843Y-66663822D02*
X130486224Y-66568584D01*
X130486224Y-66568584D02*
X130390986Y-66520965D01*
X130390986Y-66520965D02*
X130248129Y-66520965D01*
X130248129Y-66520965D02*
X130152891Y-66473346D01*
X130152891Y-66473346D02*
X130105272Y-66378108D01*
X130105272Y-66378108D02*
X130105272Y-66330489D01*
X130105272Y-66330489D02*
X130152891Y-66235251D01*
X130152891Y-66235251D02*
X130248129Y-66187632D01*
X130248129Y-66187632D02*
X130390986Y-66187632D01*
X130390986Y-66187632D02*
X130486224Y-66235251D01*
X122595739Y-72949537D02*
X122643358Y-72901918D01*
X122643358Y-72901918D02*
X122738596Y-72854299D01*
X122738596Y-72854299D02*
X122976691Y-72854299D01*
X122976691Y-72854299D02*
X123071929Y-72901918D01*
X123071929Y-72901918D02*
X123119548Y-72949537D01*
X123119548Y-72949537D02*
X123167167Y-73044775D01*
X123167167Y-73044775D02*
X123167167Y-73140013D01*
X123167167Y-73140013D02*
X123119548Y-73282870D01*
X123119548Y-73282870D02*
X122548120Y-73854299D01*
X122548120Y-73854299D02*
X123167167Y-73854299D01*
X123595739Y-73854299D02*
X123595739Y-72854299D01*
X123595739Y-72854299D02*
X123929072Y-73568584D01*
X123929072Y-73568584D02*
X124262405Y-72854299D01*
X124262405Y-72854299D02*
X124262405Y-73854299D01*
X124690977Y-72949537D02*
X124738596Y-72901918D01*
X124738596Y-72901918D02*
X124833834Y-72854299D01*
X124833834Y-72854299D02*
X125071929Y-72854299D01*
X125071929Y-72854299D02*
X125167167Y-72901918D01*
X125167167Y-72901918D02*
X125214786Y-72949537D01*
X125214786Y-72949537D02*
X125262405Y-73044775D01*
X125262405Y-73044775D02*
X125262405Y-73140013D01*
X125262405Y-73140013D02*
X125214786Y-73282870D01*
X125214786Y-73282870D02*
X124643358Y-73854299D01*
X124643358Y-73854299D02*
X125262405Y-73854299D01*
X123167167Y-78934298D02*
X122595739Y-78934298D01*
X122881453Y-78934298D02*
X122881453Y-77934298D01*
X122881453Y-77934298D02*
X122786215Y-78077155D01*
X122786215Y-78077155D02*
X122690977Y-78172393D01*
X122690977Y-78172393D02*
X122595739Y-78220012D01*
X123786215Y-77934298D02*
X123881453Y-77934298D01*
X123881453Y-77934298D02*
X123976691Y-77981917D01*
X123976691Y-77981917D02*
X124024310Y-78029536D01*
X124024310Y-78029536D02*
X124071929Y-78124774D01*
X124071929Y-78124774D02*
X124119548Y-78315250D01*
X124119548Y-78315250D02*
X124119548Y-78553345D01*
X124119548Y-78553345D02*
X124071929Y-78743821D01*
X124071929Y-78743821D02*
X124024310Y-78839059D01*
X124024310Y-78839059D02*
X123976691Y-78886679D01*
X123976691Y-78886679D02*
X123881453Y-78934298D01*
X123881453Y-78934298D02*
X123786215Y-78934298D01*
X123786215Y-78934298D02*
X123690977Y-78886679D01*
X123690977Y-78886679D02*
X123643358Y-78839059D01*
X123643358Y-78839059D02*
X123595739Y-78743821D01*
X123595739Y-78743821D02*
X123548120Y-78553345D01*
X123548120Y-78553345D02*
X123548120Y-78315250D01*
X123548120Y-78315250D02*
X123595739Y-78124774D01*
X123595739Y-78124774D02*
X123643358Y-78029536D01*
X123643358Y-78029536D02*
X123690977Y-77981917D01*
X123690977Y-77981917D02*
X123786215Y-77934298D01*
X124738596Y-77934298D02*
X124833834Y-77934298D01*
X124833834Y-77934298D02*
X124929072Y-77981917D01*
X124929072Y-77981917D02*
X124976691Y-78029536D01*
X124976691Y-78029536D02*
X125024310Y-78124774D01*
X125024310Y-78124774D02*
X125071929Y-78315250D01*
X125071929Y-78315250D02*
X125071929Y-78553345D01*
X125071929Y-78553345D02*
X125024310Y-78743821D01*
X125024310Y-78743821D02*
X124976691Y-78839059D01*
X124976691Y-78839059D02*
X124929072Y-78886679D01*
X124929072Y-78886679D02*
X124833834Y-78934298D01*
X124833834Y-78934298D02*
X124738596Y-78934298D01*
X124738596Y-78934298D02*
X124643358Y-78886679D01*
X124643358Y-78886679D02*
X124595739Y-78839059D01*
X124595739Y-78839059D02*
X124548120Y-78743821D01*
X124548120Y-78743821D02*
X124500501Y-78553345D01*
X124500501Y-78553345D02*
X124500501Y-78315250D01*
X124500501Y-78315250D02*
X124548120Y-78124774D01*
X124548120Y-78124774D02*
X124595739Y-78029536D01*
X124595739Y-78029536D02*
X124643358Y-77981917D01*
X124643358Y-77981917D02*
X124738596Y-77934298D01*
X125500501Y-78934298D02*
X125500501Y-77934298D01*
X125500501Y-77934298D02*
X125833834Y-78648583D01*
X125833834Y-78648583D02*
X126167167Y-77934298D01*
X126167167Y-77934298D02*
X126167167Y-78934298D01*
X97570927Y-90854299D02*
X97904260Y-91854299D01*
X97904260Y-91854299D02*
X98237593Y-90854299D01*
X99142355Y-91854299D02*
X98809022Y-91378108D01*
X98570927Y-91854299D02*
X98570927Y-90854299D01*
X98570927Y-90854299D02*
X98951879Y-90854299D01*
X98951879Y-90854299D02*
X99047117Y-90901918D01*
X99047117Y-90901918D02*
X99094736Y-90949537D01*
X99094736Y-90949537D02*
X99142355Y-91044775D01*
X99142355Y-91044775D02*
X99142355Y-91187632D01*
X99142355Y-91187632D02*
X99094736Y-91282870D01*
X99094736Y-91282870D02*
X99047117Y-91330489D01*
X99047117Y-91330489D02*
X98951879Y-91378108D01*
X98951879Y-91378108D02*
X98570927Y-91378108D01*
X99570927Y-91330489D02*
X99904260Y-91330489D01*
X100047117Y-91854299D02*
X99570927Y-91854299D01*
X99570927Y-91854299D02*
X99570927Y-90854299D01*
X99570927Y-90854299D02*
X100047117Y-90854299D01*
X100809022Y-91330489D02*
X100475689Y-91330489D01*
X100475689Y-91854299D02*
X100475689Y-90854299D01*
X100475689Y-90854299D02*
X100951879Y-90854299D01*
X97951880Y-94108584D02*
X98428070Y-94108584D01*
X97856642Y-94394299D02*
X98189975Y-93394299D01*
X98189975Y-93394299D02*
X98523308Y-94394299D01*
X98856642Y-94394299D02*
X98856642Y-93394299D01*
X99332832Y-94394299D02*
X99332832Y-93394299D01*
X99332832Y-93394299D02*
X99904260Y-94394299D01*
X99904260Y-94394299D02*
X99904260Y-93394299D01*
X100285213Y-93394299D02*
X100904260Y-93394299D01*
X100904260Y-93394299D02*
X100570927Y-93775251D01*
X100570927Y-93775251D02*
X100713784Y-93775251D01*
X100713784Y-93775251D02*
X100809022Y-93822870D01*
X100809022Y-93822870D02*
X100856641Y-93870489D01*
X100856641Y-93870489D02*
X100904260Y-93965727D01*
X100904260Y-93965727D02*
X100904260Y-94203822D01*
X100904260Y-94203822D02*
X100856641Y-94299060D01*
X100856641Y-94299060D02*
X100809022Y-94346680D01*
X100809022Y-94346680D02*
X100713784Y-94394299D01*
X100713784Y-94394299D02*
X100428070Y-94394299D01*
X100428070Y-94394299D02*
X100332832Y-94346680D01*
X100332832Y-94346680D02*
X100285213Y-94299060D01*
X98809022Y-95981917D02*
X98713784Y-95934298D01*
X98713784Y-95934298D02*
X98570927Y-95934298D01*
X98570927Y-95934298D02*
X98428070Y-95981917D01*
X98428070Y-95981917D02*
X98332832Y-96077155D01*
X98332832Y-96077155D02*
X98285213Y-96172393D01*
X98285213Y-96172393D02*
X98237594Y-96362869D01*
X98237594Y-96362869D02*
X98237594Y-96505726D01*
X98237594Y-96505726D02*
X98285213Y-96696202D01*
X98285213Y-96696202D02*
X98332832Y-96791440D01*
X98332832Y-96791440D02*
X98428070Y-96886679D01*
X98428070Y-96886679D02*
X98570927Y-96934298D01*
X98570927Y-96934298D02*
X98666165Y-96934298D01*
X98666165Y-96934298D02*
X98809022Y-96886679D01*
X98809022Y-96886679D02*
X98856641Y-96839059D01*
X98856641Y-96839059D02*
X98856641Y-96505726D01*
X98856641Y-96505726D02*
X98666165Y-96505726D01*
X99285213Y-96934298D02*
X99285213Y-95934298D01*
X99285213Y-95934298D02*
X99856641Y-96934298D01*
X99856641Y-96934298D02*
X99856641Y-95934298D01*
X100332832Y-96934298D02*
X100332832Y-95934298D01*
X100332832Y-95934298D02*
X100570927Y-95934298D01*
X100570927Y-95934298D02*
X100713784Y-95981917D01*
X100713784Y-95981917D02*
X100809022Y-96077155D01*
X100809022Y-96077155D02*
X100856641Y-96172393D01*
X100856641Y-96172393D02*
X100904260Y-96362869D01*
X100904260Y-96362869D02*
X100904260Y-96505726D01*
X100904260Y-96505726D02*
X100856641Y-96696202D01*
X100856641Y-96696202D02*
X100809022Y-96791440D01*
X100809022Y-96791440D02*
X100713784Y-96886679D01*
X100713784Y-96886679D02*
X100570927Y-96934298D01*
X100570927Y-96934298D02*
X100332832Y-96934298D01*
D11*
X91412029Y-62745158D02*
X91412029Y-61545158D01*
X91412029Y-61545158D02*
X91812029Y-62402301D01*
X91812029Y-62402301D02*
X92212029Y-61545158D01*
X92212029Y-61545158D02*
X92212029Y-62745158D01*
X92783458Y-62745158D02*
X92783458Y-61545158D01*
X93354887Y-62116587D02*
X93754887Y-62116587D01*
X93926315Y-62745158D02*
X93354887Y-62745158D01*
X93354887Y-62745158D02*
X93354887Y-61545158D01*
X93354887Y-61545158D02*
X93926315Y-61545158D01*
X95069172Y-62745158D02*
X94383458Y-62745158D01*
X94726315Y-62745158D02*
X94726315Y-61545158D01*
X94726315Y-61545158D02*
X94612029Y-61716587D01*
X94612029Y-61716587D02*
X94497744Y-61830873D01*
X94497744Y-61830873D02*
X94383458Y-61888016D01*
X95812029Y-61545158D02*
X95926315Y-61545158D01*
X95926315Y-61545158D02*
X96040601Y-61602301D01*
X96040601Y-61602301D02*
X96097744Y-61659444D01*
X96097744Y-61659444D02*
X96154886Y-61773730D01*
X96154886Y-61773730D02*
X96212029Y-62002301D01*
X96212029Y-62002301D02*
X96212029Y-62288016D01*
X96212029Y-62288016D02*
X96154886Y-62516587D01*
X96154886Y-62516587D02*
X96097744Y-62630873D01*
X96097744Y-62630873D02*
X96040601Y-62688016D01*
X96040601Y-62688016D02*
X95926315Y-62745158D01*
X95926315Y-62745158D02*
X95812029Y-62745158D01*
X95812029Y-62745158D02*
X95697744Y-62688016D01*
X95697744Y-62688016D02*
X95640601Y-62630873D01*
X95640601Y-62630873D02*
X95583458Y-62516587D01*
X95583458Y-62516587D02*
X95526315Y-62288016D01*
X95526315Y-62288016D02*
X95526315Y-62002301D01*
X95526315Y-62002301D02*
X95583458Y-61773730D01*
X95583458Y-61773730D02*
X95640601Y-61659444D01*
X95640601Y-61659444D02*
X95697744Y-61602301D01*
X95697744Y-61602301D02*
X95812029Y-61545158D01*
X96954886Y-61545158D02*
X97069172Y-61545158D01*
X97069172Y-61545158D02*
X97183458Y-61602301D01*
X97183458Y-61602301D02*
X97240601Y-61659444D01*
X97240601Y-61659444D02*
X97297743Y-61773730D01*
X97297743Y-61773730D02*
X97354886Y-62002301D01*
X97354886Y-62002301D02*
X97354886Y-62288016D01*
X97354886Y-62288016D02*
X97297743Y-62516587D01*
X97297743Y-62516587D02*
X97240601Y-62630873D01*
X97240601Y-62630873D02*
X97183458Y-62688016D01*
X97183458Y-62688016D02*
X97069172Y-62745158D01*
X97069172Y-62745158D02*
X96954886Y-62745158D01*
X96954886Y-62745158D02*
X96840601Y-62688016D01*
X96840601Y-62688016D02*
X96783458Y-62630873D01*
X96783458Y-62630873D02*
X96726315Y-62516587D01*
X96726315Y-62516587D02*
X96669172Y-62288016D01*
X96669172Y-62288016D02*
X96669172Y-62002301D01*
X96669172Y-62002301D02*
X96726315Y-61773730D01*
X96726315Y-61773730D02*
X96783458Y-61659444D01*
X96783458Y-61659444D02*
X96840601Y-61602301D01*
X96840601Y-61602301D02*
X96954886Y-61545158D01*
X98497743Y-62745158D02*
X97812029Y-62745158D01*
X98154886Y-62745158D02*
X98154886Y-61545158D01*
X98154886Y-61545158D02*
X98040600Y-61716587D01*
X98040600Y-61716587D02*
X97926315Y-61830873D01*
X97926315Y-61830873D02*
X97812029Y-61888016D01*
X99754886Y-61545158D02*
X100440601Y-61545158D01*
X100097743Y-62745158D02*
X100097743Y-61545158D01*
X101297744Y-62688016D02*
X101183458Y-62745158D01*
X101183458Y-62745158D02*
X100954887Y-62745158D01*
X100954887Y-62745158D02*
X100840601Y-62688016D01*
X100840601Y-62688016D02*
X100783458Y-62573730D01*
X100783458Y-62573730D02*
X100783458Y-62116587D01*
X100783458Y-62116587D02*
X100840601Y-62002301D01*
X100840601Y-62002301D02*
X100954887Y-61945158D01*
X100954887Y-61945158D02*
X101183458Y-61945158D01*
X101183458Y-61945158D02*
X101297744Y-62002301D01*
X101297744Y-62002301D02*
X101354887Y-62116587D01*
X101354887Y-62116587D02*
X101354887Y-62230873D01*
X101354887Y-62230873D02*
X100783458Y-62345158D01*
X102383458Y-62745158D02*
X102383458Y-62116587D01*
X102383458Y-62116587D02*
X102326315Y-62002301D01*
X102326315Y-62002301D02*
X102212029Y-61945158D01*
X102212029Y-61945158D02*
X101983458Y-61945158D01*
X101983458Y-61945158D02*
X101869172Y-62002301D01*
X102383458Y-62688016D02*
X102269172Y-62745158D01*
X102269172Y-62745158D02*
X101983458Y-62745158D01*
X101983458Y-62745158D02*
X101869172Y-62688016D01*
X101869172Y-62688016D02*
X101812029Y-62573730D01*
X101812029Y-62573730D02*
X101812029Y-62459444D01*
X101812029Y-62459444D02*
X101869172Y-62345158D01*
X101869172Y-62345158D02*
X101983458Y-62288016D01*
X101983458Y-62288016D02*
X102269172Y-62288016D01*
X102269172Y-62288016D02*
X102383458Y-62230873D01*
X102954886Y-62745158D02*
X102954886Y-61945158D01*
X102954886Y-62059444D02*
X103012029Y-62002301D01*
X103012029Y-62002301D02*
X103126314Y-61945158D01*
X103126314Y-61945158D02*
X103297743Y-61945158D01*
X103297743Y-61945158D02*
X103412029Y-62002301D01*
X103412029Y-62002301D02*
X103469172Y-62116587D01*
X103469172Y-62116587D02*
X103469172Y-62745158D01*
X103469172Y-62116587D02*
X103526314Y-62002301D01*
X103526314Y-62002301D02*
X103640600Y-61945158D01*
X103640600Y-61945158D02*
X103812029Y-61945158D01*
X103812029Y-61945158D02*
X103926314Y-62002301D01*
X103926314Y-62002301D02*
X103983457Y-62116587D01*
X103983457Y-62116587D02*
X103983457Y-62745158D01*
X106040600Y-61545158D02*
X105469172Y-61545158D01*
X105469172Y-61545158D02*
X105412029Y-62116587D01*
X105412029Y-62116587D02*
X105469172Y-62059444D01*
X105469172Y-62059444D02*
X105583458Y-62002301D01*
X105583458Y-62002301D02*
X105869172Y-62002301D01*
X105869172Y-62002301D02*
X105983458Y-62059444D01*
X105983458Y-62059444D02*
X106040600Y-62116587D01*
X106040600Y-62116587D02*
X106097743Y-62230873D01*
X106097743Y-62230873D02*
X106097743Y-62516587D01*
X106097743Y-62516587D02*
X106040600Y-62630873D01*
X106040600Y-62630873D02*
X105983458Y-62688016D01*
X105983458Y-62688016D02*
X105869172Y-62745158D01*
X105869172Y-62745158D02*
X105583458Y-62745158D01*
X105583458Y-62745158D02*
X105469172Y-62688016D01*
X105469172Y-62688016D02*
X105412029Y-62630873D01*
X107526315Y-62745158D02*
X107526315Y-61545158D01*
X107526315Y-61545158D02*
X107812029Y-61545158D01*
X107812029Y-61545158D02*
X107983458Y-61602301D01*
X107983458Y-61602301D02*
X108097743Y-61716587D01*
X108097743Y-61716587D02*
X108154886Y-61830873D01*
X108154886Y-61830873D02*
X108212029Y-62059444D01*
X108212029Y-62059444D02*
X108212029Y-62230873D01*
X108212029Y-62230873D02*
X108154886Y-62459444D01*
X108154886Y-62459444D02*
X108097743Y-62573730D01*
X108097743Y-62573730D02*
X107983458Y-62688016D01*
X107983458Y-62688016D02*
X107812029Y-62745158D01*
X107812029Y-62745158D02*
X107526315Y-62745158D01*
X108669172Y-62402301D02*
X109240601Y-62402301D01*
X108554886Y-62745158D02*
X108954886Y-61545158D01*
X108954886Y-61545158D02*
X109354886Y-62745158D01*
X110554886Y-62859444D02*
X110440600Y-62802301D01*
X110440600Y-62802301D02*
X110326314Y-62688016D01*
X110326314Y-62688016D02*
X110154886Y-62516587D01*
X110154886Y-62516587D02*
X110040600Y-62459444D01*
X110040600Y-62459444D02*
X109926314Y-62459444D01*
X109983457Y-62745158D02*
X109869172Y-62688016D01*
X109869172Y-62688016D02*
X109754886Y-62573730D01*
X109754886Y-62573730D02*
X109697743Y-62345158D01*
X109697743Y-62345158D02*
X109697743Y-61945158D01*
X109697743Y-61945158D02*
X109754886Y-61716587D01*
X109754886Y-61716587D02*
X109869172Y-61602301D01*
X109869172Y-61602301D02*
X109983457Y-61545158D01*
X109983457Y-61545158D02*
X110212029Y-61545158D01*
X110212029Y-61545158D02*
X110326314Y-61602301D01*
X110326314Y-61602301D02*
X110440600Y-61716587D01*
X110440600Y-61716587D02*
X110497743Y-61945158D01*
X110497743Y-61945158D02*
X110497743Y-62345158D01*
X110497743Y-62345158D02*
X110440600Y-62573730D01*
X110440600Y-62573730D02*
X110326314Y-62688016D01*
X110326314Y-62688016D02*
X110212029Y-62745158D01*
X110212029Y-62745158D02*
X109983457Y-62745158D01*
X111869172Y-62688016D02*
X111983458Y-62745158D01*
X111983458Y-62745158D02*
X112212029Y-62745158D01*
X112212029Y-62745158D02*
X112326315Y-62688016D01*
X112326315Y-62688016D02*
X112383458Y-62573730D01*
X112383458Y-62573730D02*
X112383458Y-62516587D01*
X112383458Y-62516587D02*
X112326315Y-62402301D01*
X112326315Y-62402301D02*
X112212029Y-62345158D01*
X112212029Y-62345158D02*
X112040601Y-62345158D01*
X112040601Y-62345158D02*
X111926315Y-62288016D01*
X111926315Y-62288016D02*
X111869172Y-62173730D01*
X111869172Y-62173730D02*
X111869172Y-62116587D01*
X111869172Y-62116587D02*
X111926315Y-62002301D01*
X111926315Y-62002301D02*
X112040601Y-61945158D01*
X112040601Y-61945158D02*
X112212029Y-61945158D01*
X112212029Y-61945158D02*
X112326315Y-62002301D01*
X112897744Y-62745158D02*
X112897744Y-61545158D01*
X113412030Y-62745158D02*
X113412030Y-62116587D01*
X113412030Y-62116587D02*
X113354887Y-62002301D01*
X113354887Y-62002301D02*
X113240601Y-61945158D01*
X113240601Y-61945158D02*
X113069172Y-61945158D01*
X113069172Y-61945158D02*
X112954887Y-62002301D01*
X112954887Y-62002301D02*
X112897744Y-62059444D01*
X113983458Y-62745158D02*
X113983458Y-61945158D01*
X113983458Y-61545158D02*
X113926315Y-61602301D01*
X113926315Y-61602301D02*
X113983458Y-61659444D01*
X113983458Y-61659444D02*
X114040601Y-61602301D01*
X114040601Y-61602301D02*
X113983458Y-61545158D01*
X113983458Y-61545158D02*
X113983458Y-61659444D01*
X115012030Y-62688016D02*
X114897744Y-62745158D01*
X114897744Y-62745158D02*
X114669173Y-62745158D01*
X114669173Y-62745158D02*
X114554887Y-62688016D01*
X114554887Y-62688016D02*
X114497744Y-62573730D01*
X114497744Y-62573730D02*
X114497744Y-62116587D01*
X114497744Y-62116587D02*
X114554887Y-62002301D01*
X114554887Y-62002301D02*
X114669173Y-61945158D01*
X114669173Y-61945158D02*
X114897744Y-61945158D01*
X114897744Y-61945158D02*
X115012030Y-62002301D01*
X115012030Y-62002301D02*
X115069173Y-62116587D01*
X115069173Y-62116587D02*
X115069173Y-62230873D01*
X115069173Y-62230873D02*
X114497744Y-62345158D01*
X115754886Y-62745158D02*
X115640601Y-62688016D01*
X115640601Y-62688016D02*
X115583458Y-62573730D01*
X115583458Y-62573730D02*
X115583458Y-61545158D01*
X116726315Y-62745158D02*
X116726315Y-61545158D01*
X116726315Y-62688016D02*
X116612029Y-62745158D01*
X116612029Y-62745158D02*
X116383457Y-62745158D01*
X116383457Y-62745158D02*
X116269172Y-62688016D01*
X116269172Y-62688016D02*
X116212029Y-62630873D01*
X116212029Y-62630873D02*
X116154886Y-62516587D01*
X116154886Y-62516587D02*
X116154886Y-62173730D01*
X116154886Y-62173730D02*
X116212029Y-62059444D01*
X116212029Y-62059444D02*
X116269172Y-62002301D01*
X116269172Y-62002301D02*
X116383457Y-61945158D01*
X116383457Y-61945158D02*
X116612029Y-61945158D01*
X116612029Y-61945158D02*
X116726315Y-62002301D01*
X119126315Y-62745158D02*
X119126315Y-61945158D01*
X119126315Y-62173730D02*
X119183458Y-62059444D01*
X119183458Y-62059444D02*
X119240601Y-62002301D01*
X119240601Y-62002301D02*
X119354886Y-61945158D01*
X119354886Y-61945158D02*
X119469172Y-61945158D01*
X120326315Y-62688016D02*
X120212029Y-62745158D01*
X120212029Y-62745158D02*
X119983458Y-62745158D01*
X119983458Y-62745158D02*
X119869172Y-62688016D01*
X119869172Y-62688016D02*
X119812029Y-62573730D01*
X119812029Y-62573730D02*
X119812029Y-62116587D01*
X119812029Y-62116587D02*
X119869172Y-62002301D01*
X119869172Y-62002301D02*
X119983458Y-61945158D01*
X119983458Y-61945158D02*
X120212029Y-61945158D01*
X120212029Y-61945158D02*
X120326315Y-62002301D01*
X120326315Y-62002301D02*
X120383458Y-62116587D01*
X120383458Y-62116587D02*
X120383458Y-62230873D01*
X120383458Y-62230873D02*
X119812029Y-62345158D01*
X120783457Y-61945158D02*
X121069171Y-62745158D01*
X121069171Y-62745158D02*
X121354886Y-61945158D01*
X122726315Y-62116587D02*
X123126315Y-62116587D01*
X123297743Y-62745158D02*
X122726315Y-62745158D01*
X122726315Y-62745158D02*
X122726315Y-61545158D01*
X122726315Y-61545158D02*
X123297743Y-61545158D01*
X125583458Y-61659444D02*
X125640601Y-61602301D01*
X125640601Y-61602301D02*
X125754887Y-61545158D01*
X125754887Y-61545158D02*
X126040601Y-61545158D01*
X126040601Y-61545158D02*
X126154887Y-61602301D01*
X126154887Y-61602301D02*
X126212029Y-61659444D01*
X126212029Y-61659444D02*
X126269172Y-61773730D01*
X126269172Y-61773730D02*
X126269172Y-61888016D01*
X126269172Y-61888016D02*
X126212029Y-62059444D01*
X126212029Y-62059444D02*
X125526315Y-62745158D01*
X125526315Y-62745158D02*
X126269172Y-62745158D01*
X127012029Y-61545158D02*
X127126315Y-61545158D01*
X127126315Y-61545158D02*
X127240601Y-61602301D01*
X127240601Y-61602301D02*
X127297744Y-61659444D01*
X127297744Y-61659444D02*
X127354886Y-61773730D01*
X127354886Y-61773730D02*
X127412029Y-62002301D01*
X127412029Y-62002301D02*
X127412029Y-62288016D01*
X127412029Y-62288016D02*
X127354886Y-62516587D01*
X127354886Y-62516587D02*
X127297744Y-62630873D01*
X127297744Y-62630873D02*
X127240601Y-62688016D01*
X127240601Y-62688016D02*
X127126315Y-62745158D01*
X127126315Y-62745158D02*
X127012029Y-62745158D01*
X127012029Y-62745158D02*
X126897744Y-62688016D01*
X126897744Y-62688016D02*
X126840601Y-62630873D01*
X126840601Y-62630873D02*
X126783458Y-62516587D01*
X126783458Y-62516587D02*
X126726315Y-62288016D01*
X126726315Y-62288016D02*
X126726315Y-62002301D01*
X126726315Y-62002301D02*
X126783458Y-61773730D01*
X126783458Y-61773730D02*
X126840601Y-61659444D01*
X126840601Y-61659444D02*
X126897744Y-61602301D01*
X126897744Y-61602301D02*
X127012029Y-61545158D01*
X127869172Y-61659444D02*
X127926315Y-61602301D01*
X127926315Y-61602301D02*
X128040601Y-61545158D01*
X128040601Y-61545158D02*
X128326315Y-61545158D01*
X128326315Y-61545158D02*
X128440601Y-61602301D01*
X128440601Y-61602301D02*
X128497743Y-61659444D01*
X128497743Y-61659444D02*
X128554886Y-61773730D01*
X128554886Y-61773730D02*
X128554886Y-61888016D01*
X128554886Y-61888016D02*
X128497743Y-62059444D01*
X128497743Y-62059444D02*
X127812029Y-62745158D01*
X127812029Y-62745158D02*
X128554886Y-62745158D01*
X129583458Y-61545158D02*
X129354886Y-61545158D01*
X129354886Y-61545158D02*
X129240600Y-61602301D01*
X129240600Y-61602301D02*
X129183458Y-61659444D01*
X129183458Y-61659444D02*
X129069172Y-61830873D01*
X129069172Y-61830873D02*
X129012029Y-62059444D01*
X129012029Y-62059444D02*
X129012029Y-62516587D01*
X129012029Y-62516587D02*
X129069172Y-62630873D01*
X129069172Y-62630873D02*
X129126315Y-62688016D01*
X129126315Y-62688016D02*
X129240600Y-62745158D01*
X129240600Y-62745158D02*
X129469172Y-62745158D01*
X129469172Y-62745158D02*
X129583458Y-62688016D01*
X129583458Y-62688016D02*
X129640600Y-62630873D01*
X129640600Y-62630873D02*
X129697743Y-62516587D01*
X129697743Y-62516587D02*
X129697743Y-62230873D01*
X129697743Y-62230873D02*
X129640600Y-62116587D01*
X129640600Y-62116587D02*
X129583458Y-62059444D01*
X129583458Y-62059444D02*
X129469172Y-62002301D01*
X129469172Y-62002301D02*
X129240600Y-62002301D01*
X129240600Y-62002301D02*
X129126315Y-62059444D01*
X129126315Y-62059444D02*
X129069172Y-62116587D01*
X129069172Y-62116587D02*
X129012029Y-62230873D01*
X130212029Y-62288016D02*
X131126315Y-62288016D01*
X131926314Y-61545158D02*
X132040600Y-61545158D01*
X132040600Y-61545158D02*
X132154886Y-61602301D01*
X132154886Y-61602301D02*
X132212029Y-61659444D01*
X132212029Y-61659444D02*
X132269171Y-61773730D01*
X132269171Y-61773730D02*
X132326314Y-62002301D01*
X132326314Y-62002301D02*
X132326314Y-62288016D01*
X132326314Y-62288016D02*
X132269171Y-62516587D01*
X132269171Y-62516587D02*
X132212029Y-62630873D01*
X132212029Y-62630873D02*
X132154886Y-62688016D01*
X132154886Y-62688016D02*
X132040600Y-62745158D01*
X132040600Y-62745158D02*
X131926314Y-62745158D01*
X131926314Y-62745158D02*
X131812029Y-62688016D01*
X131812029Y-62688016D02*
X131754886Y-62630873D01*
X131754886Y-62630873D02*
X131697743Y-62516587D01*
X131697743Y-62516587D02*
X131640600Y-62288016D01*
X131640600Y-62288016D02*
X131640600Y-62002301D01*
X131640600Y-62002301D02*
X131697743Y-61773730D01*
X131697743Y-61773730D02*
X131754886Y-61659444D01*
X131754886Y-61659444D02*
X131812029Y-61602301D01*
X131812029Y-61602301D02*
X131926314Y-61545158D01*
X132897743Y-62745158D02*
X133126314Y-62745158D01*
X133126314Y-62745158D02*
X133240600Y-62688016D01*
X133240600Y-62688016D02*
X133297743Y-62630873D01*
X133297743Y-62630873D02*
X133412028Y-62459444D01*
X133412028Y-62459444D02*
X133469171Y-62230873D01*
X133469171Y-62230873D02*
X133469171Y-61773730D01*
X133469171Y-61773730D02*
X133412028Y-61659444D01*
X133412028Y-61659444D02*
X133354886Y-61602301D01*
X133354886Y-61602301D02*
X133240600Y-61545158D01*
X133240600Y-61545158D02*
X133012028Y-61545158D01*
X133012028Y-61545158D02*
X132897743Y-61602301D01*
X132897743Y-61602301D02*
X132840600Y-61659444D01*
X132840600Y-61659444D02*
X132783457Y-61773730D01*
X132783457Y-61773730D02*
X132783457Y-62059444D01*
X132783457Y-62059444D02*
X132840600Y-62173730D01*
X132840600Y-62173730D02*
X132897743Y-62230873D01*
X132897743Y-62230873D02*
X133012028Y-62288016D01*
X133012028Y-62288016D02*
X133240600Y-62288016D01*
X133240600Y-62288016D02*
X133354886Y-62230873D01*
X133354886Y-62230873D02*
X133412028Y-62173730D01*
X133412028Y-62173730D02*
X133469171Y-62059444D01*
X129114285Y-96145158D02*
X129114285Y-94945158D01*
X129114285Y-94945158D02*
X129399999Y-94945158D01*
X129399999Y-94945158D02*
X129571428Y-95002301D01*
X129571428Y-95002301D02*
X129685713Y-95116587D01*
X129685713Y-95116587D02*
X129742856Y-95230873D01*
X129742856Y-95230873D02*
X129799999Y-95459444D01*
X129799999Y-95459444D02*
X129799999Y-95630873D01*
X129799999Y-95630873D02*
X129742856Y-95859444D01*
X129742856Y-95859444D02*
X129685713Y-95973730D01*
X129685713Y-95973730D02*
X129571428Y-96088016D01*
X129571428Y-96088016D02*
X129399999Y-96145158D01*
X129399999Y-96145158D02*
X129114285Y-96145158D01*
X130314285Y-95516587D02*
X130714285Y-95516587D01*
X130885713Y-96145158D02*
X130314285Y-96145158D01*
X130314285Y-96145158D02*
X130314285Y-94945158D01*
X130314285Y-94945158D02*
X130885713Y-94945158D01*
X131228570Y-94945158D02*
X131914285Y-94945158D01*
X131571427Y-96145158D02*
X131571427Y-94945158D01*
X133228571Y-96145158D02*
X133228571Y-94945158D01*
X133800000Y-96145158D02*
X133800000Y-94945158D01*
X133800000Y-94945158D02*
X134485714Y-96145158D01*
X134485714Y-96145158D02*
X134485714Y-94945158D01*
D12*
X80266666Y-81154819D02*
X80266666Y-81869104D01*
X80266666Y-81869104D02*
X80219047Y-82011961D01*
X80219047Y-82011961D02*
X80123809Y-82107200D01*
X80123809Y-82107200D02*
X79980952Y-82154819D01*
X79980952Y-82154819D02*
X79885714Y-82154819D01*
X80695238Y-81250057D02*
X80742857Y-81202438D01*
X80742857Y-81202438D02*
X80838095Y-81154819D01*
X80838095Y-81154819D02*
X81076190Y-81154819D01*
X81076190Y-81154819D02*
X81171428Y-81202438D01*
X81171428Y-81202438D02*
X81219047Y-81250057D01*
X81219047Y-81250057D02*
X81266666Y-81345295D01*
X81266666Y-81345295D02*
X81266666Y-81440533D01*
X81266666Y-81440533D02*
X81219047Y-81583390D01*
X81219047Y-81583390D02*
X80647619Y-82154819D01*
X80647619Y-82154819D02*
X81266666Y-82154819D01*
X136666666Y-95054819D02*
X136666666Y-95769104D01*
X136666666Y-95769104D02*
X136619047Y-95911961D01*
X136619047Y-95911961D02*
X136523809Y-96007200D01*
X136523809Y-96007200D02*
X136380952Y-96054819D01*
X136380952Y-96054819D02*
X136285714Y-96054819D01*
X137666666Y-96054819D02*
X137095238Y-96054819D01*
X137380952Y-96054819D02*
X137380952Y-95054819D01*
X137380952Y-95054819D02*
X137285714Y-95197676D01*
X137285714Y-95197676D02*
X137190476Y-95292914D01*
X137190476Y-95292914D02*
X137095238Y-95340533D01*
X116110839Y-75394819D02*
X116110839Y-76109104D01*
X116110839Y-76109104D02*
X116063220Y-76251961D01*
X116063220Y-76251961D02*
X115967982Y-76347200D01*
X115967982Y-76347200D02*
X115825125Y-76394819D01*
X115825125Y-76394819D02*
X115729887Y-76394819D01*
X116587030Y-76394819D02*
X116587030Y-75394819D01*
X116587030Y-75394819D02*
X116967982Y-75394819D01*
X116967982Y-75394819D02*
X117063220Y-75442438D01*
X117063220Y-75442438D02*
X117110839Y-75490057D01*
X117110839Y-75490057D02*
X117158458Y-75585295D01*
X117158458Y-75585295D02*
X117158458Y-75728152D01*
X117158458Y-75728152D02*
X117110839Y-75823390D01*
X117110839Y-75823390D02*
X117063220Y-75871009D01*
X117063220Y-75871009D02*
X116967982Y-75918628D01*
X116967982Y-75918628D02*
X116587030Y-75918628D01*
X118110839Y-76394819D02*
X117539411Y-76394819D01*
X117825125Y-76394819D02*
X117825125Y-75394819D01*
X117825125Y-75394819D02*
X117729887Y-75537676D01*
X117729887Y-75537676D02*
X117634649Y-75632914D01*
X117634649Y-75632914D02*
X117539411Y-75680533D01*
X80266666Y-72354819D02*
X80266666Y-73069104D01*
X80266666Y-73069104D02*
X80219047Y-73211961D01*
X80219047Y-73211961D02*
X80123809Y-73307200D01*
X80123809Y-73307200D02*
X79980952Y-73354819D01*
X79980952Y-73354819D02*
X79885714Y-73354819D01*
X81171428Y-72688152D02*
X81171428Y-73354819D01*
X80933333Y-72307200D02*
X80695238Y-73021485D01*
X80695238Y-73021485D02*
X81314285Y-73021485D01*
X98066666Y-88854819D02*
X98066666Y-89569104D01*
X98066666Y-89569104D02*
X98019047Y-89711961D01*
X98019047Y-89711961D02*
X97923809Y-89807200D01*
X97923809Y-89807200D02*
X97780952Y-89854819D01*
X97780952Y-89854819D02*
X97685714Y-89854819D01*
X98447619Y-88854819D02*
X99066666Y-88854819D01*
X99066666Y-88854819D02*
X98733333Y-89235771D01*
X98733333Y-89235771D02*
X98876190Y-89235771D01*
X98876190Y-89235771D02*
X98971428Y-89283390D01*
X98971428Y-89283390D02*
X99019047Y-89331009D01*
X99019047Y-89331009D02*
X99066666Y-89426247D01*
X99066666Y-89426247D02*
X99066666Y-89664342D01*
X99066666Y-89664342D02*
X99019047Y-89759580D01*
X99019047Y-89759580D02*
X98971428Y-89807200D01*
X98971428Y-89807200D02*
X98876190Y-89854819D01*
X98876190Y-89854819D02*
X98590476Y-89854819D01*
X98590476Y-89854819D02*
X98495238Y-89807200D01*
X98495238Y-89807200D02*
X98447619Y-89759580D01*
%TO.C,R3*%
D13*
X113977500Y-92237258D02*
X113977500Y-91762742D01*
X115022500Y-92237258D02*
X115022500Y-91762742D01*
%TO.C,C10*%
X119890000Y-95140580D02*
X119890000Y-94859420D01*
X120910000Y-95140580D02*
X120910000Y-94859420D01*
%TO.C,U3*%
X104940000Y-83340000D02*
X109060000Y-83340000D01*
X104940000Y-83435000D02*
X104940000Y-83340000D01*
X104940000Y-88460000D02*
X104940000Y-88365000D01*
X109060000Y-83340000D02*
X109060000Y-83435000D01*
X109060000Y-88365000D02*
X109060000Y-88460000D01*
X109060000Y-88460000D02*
X104940000Y-88460000D01*
X104400000Y-83430000D02*
X104160000Y-83100000D01*
X104640000Y-83100000D01*
X104400000Y-83430000D01*
G36*
X104400000Y-83430000D02*
G01*
X104160000Y-83100000D01*
X104640000Y-83100000D01*
X104400000Y-83430000D01*
G37*
%TO.C,R16*%
X118077500Y-95837258D02*
X118077500Y-95362742D01*
X119122500Y-95837258D02*
X119122500Y-95362742D01*
%TO.C,R17*%
X114137258Y-83277500D02*
X113662742Y-83277500D01*
X114137258Y-84322500D02*
X113662742Y-84322500D01*
%TO.C,J2*%
X72700000Y-81730000D02*
X72700000Y-88970000D01*
X78920000Y-81730000D02*
X78920000Y-88970000D01*
%TO.C,R2*%
X116072936Y-77569999D02*
X117527064Y-77569999D01*
X116072936Y-79389999D02*
X117527064Y-79389999D01*
%TO.C,D1*%
X121340000Y-87540000D02*
X121390000Y-87540000D01*
X121340000Y-89060000D02*
X121340000Y-87540000D01*
X122340000Y-89060000D02*
X121340000Y-89060000D01*
X122510000Y-87540000D02*
X123290000Y-87540000D01*
X124410000Y-87540000D02*
X124460000Y-87540000D01*
X124460000Y-87540000D02*
X124460000Y-89060000D01*
X124460000Y-89060000D02*
X123460000Y-89060000D01*
X123280000Y-87000000D02*
X122950000Y-87240000D01*
X122950000Y-86760000D01*
X123280000Y-87000000D01*
G36*
X123280000Y-87000000D02*
G01*
X122950000Y-87240000D01*
X122950000Y-86760000D01*
X123280000Y-87000000D01*
G37*
%TO.C,C8*%
X120659420Y-92090000D02*
X120940580Y-92090000D01*
X120659420Y-93110000D02*
X120940580Y-93110000D01*
%TO.C,C5*%
X107659420Y-93090000D02*
X107940580Y-93090000D01*
X107659420Y-94110000D02*
X107940580Y-94110000D01*
%TO.C,JP1*%
X119620000Y-72020000D02*
X121000000Y-72020000D01*
X119620000Y-73400000D02*
X119620000Y-72020000D01*
X119620000Y-74670000D02*
X119620000Y-79860000D01*
X119620000Y-74670000D02*
X122380000Y-74670000D01*
X119620000Y-79860000D02*
X122380000Y-79860000D01*
X122380000Y-74670000D02*
X122380000Y-79860000D01*
%TO.C,R4*%
X122777500Y-83437258D02*
X122777500Y-82962742D01*
X123822500Y-83437258D02*
X123822500Y-82962742D01*
%TO.C,C4*%
X101059420Y-83390000D02*
X101340580Y-83390000D01*
X101059420Y-84410000D02*
X101340580Y-84410000D01*
%TO.C,C6*%
X108159420Y-81090000D02*
X108440580Y-81090000D01*
X108159420Y-82110000D02*
X108440580Y-82110000D01*
%TO.C,C7*%
X105565000Y-97261252D02*
X105565000Y-96738748D01*
X107035000Y-97261252D02*
X107035000Y-96738748D01*
%TO.C,R12*%
X101762742Y-81077500D02*
X102237258Y-81077500D01*
X101762742Y-82122500D02*
X102237258Y-82122500D01*
%TO.C,U2*%
X110890000Y-94790000D02*
X114110000Y-94790000D01*
X110890000Y-94965000D02*
X110890000Y-94790000D01*
X110890000Y-98010000D02*
X110890000Y-97835000D01*
X114110000Y-94790000D02*
X114110000Y-94965000D01*
X114110000Y-97835000D02*
X114110000Y-98010000D01*
X114110000Y-98010000D02*
X110890000Y-98010000D01*
X114660000Y-97840000D02*
X114900000Y-98170000D01*
X114420000Y-98170000D01*
X114660000Y-97840000D01*
G36*
X114900000Y-98170000D02*
G01*
X114420000Y-98170000D01*
X114660000Y-97840000D01*
X114900000Y-98170000D01*
G37*
%TO.C,R5*%
X92877500Y-56837258D02*
X92877500Y-56362742D01*
X93922500Y-56837258D02*
X93922500Y-56362742D01*
%TO.C,R11*%
X120077500Y-98237258D02*
X120077500Y-97762742D01*
X121122500Y-98237258D02*
X121122500Y-97762742D01*
%TO.C,R1*%
X116762742Y-72877500D02*
X117237258Y-72877500D01*
X116762742Y-73922500D02*
X117237258Y-73922500D01*
%TO.C,C3*%
X109665000Y-91261252D02*
X109665000Y-90738748D01*
X111135000Y-91261252D02*
X111135000Y-90738748D01*
%TO.C,U1*%
X100290000Y-85340000D02*
X102110000Y-85340000D01*
X100290000Y-85390000D02*
X100290000Y-85340000D01*
X100290000Y-88460000D02*
X100290000Y-88410000D01*
X102110000Y-85340000D02*
X102110000Y-85390000D01*
X102110000Y-88410000D02*
X102110000Y-88460000D01*
X102110000Y-88460000D02*
X100290000Y-88460000D01*
X102650000Y-88410000D02*
X102890000Y-88740000D01*
X102410000Y-88740000D01*
X102650000Y-88410000D01*
G36*
X102890000Y-88740000D02*
G01*
X102410000Y-88740000D01*
X102650000Y-88410000D01*
X102890000Y-88740000D01*
G37*
%TO.C,C1*%
X117459420Y-81290000D02*
X117740580Y-81290000D01*
X117459420Y-82310000D02*
X117740580Y-82310000D01*
%TO.C,R8*%
X111777500Y-92137258D02*
X111777500Y-91662742D01*
X112822500Y-92137258D02*
X112822500Y-91662742D01*
%TO.C,R15*%
X111162742Y-81077500D02*
X111637258Y-81077500D01*
X111162742Y-82122500D02*
X111637258Y-82122500D01*
%TO.C,R7*%
X111777500Y-89037258D02*
X111777500Y-88562742D01*
X112822500Y-89037258D02*
X112822500Y-88562742D01*
%TO.C,R14*%
X122862742Y-84977500D02*
X123337258Y-84977500D01*
X122862742Y-86022500D02*
X123337258Y-86022500D01*
%TO.C,R6*%
X90337500Y-56837258D02*
X90337500Y-56362742D01*
X91382500Y-56837258D02*
X91382500Y-56362742D01*
%TO.C,C9*%
X111059420Y-79290000D02*
X111340580Y-79290000D01*
X111059420Y-80310000D02*
X111340580Y-80310000D01*
%TO.C,J4*%
X72700000Y-72930000D02*
X72700000Y-80170000D01*
X78920000Y-72930000D02*
X78920000Y-80170000D01*
%TO.C,J3*%
X101620000Y-90020000D02*
X103000000Y-90020000D01*
X101620000Y-91400000D02*
X101620000Y-90020000D01*
X101620000Y-92670000D02*
X101620000Y-97860000D01*
X101620000Y-92670000D02*
X104380000Y-92670000D01*
X101620000Y-97860000D02*
X104380000Y-97860000D01*
X104380000Y-92670000D02*
X104380000Y-97860000D01*
%TO.C,R13*%
X106762742Y-89877500D02*
X107237258Y-89877500D01*
X106762742Y-90922500D02*
X107237258Y-90922500D01*
%TO.C,U4*%
X115340000Y-84740000D02*
X119460000Y-84740000D01*
X115340000Y-84835000D02*
X115340000Y-84740000D01*
X115340000Y-89860000D02*
X115340000Y-89765000D01*
X119460000Y-84740000D02*
X119460000Y-84835000D01*
X119460000Y-89765000D02*
X119460000Y-89860000D01*
X119460000Y-89860000D02*
X115340000Y-89860000D01*
X114800000Y-84830000D02*
X114560000Y-84500000D01*
X115040000Y-84500000D01*
X114800000Y-84830000D01*
G36*
X114800000Y-84830000D02*
G01*
X114560000Y-84500000D01*
X115040000Y-84500000D01*
X114800000Y-84830000D01*
G37*
%TO.C,R9*%
X113197500Y-56837258D02*
X113197500Y-56362742D01*
X114242500Y-56837258D02*
X114242500Y-56362742D01*
%TO.C,R10*%
X110657500Y-56837258D02*
X110657500Y-56362742D01*
X111702500Y-56837258D02*
X111702500Y-56362742D01*
%TO.C,C2*%
X116090000Y-93940580D02*
X116090000Y-93659420D01*
X117110000Y-93940580D02*
X117110000Y-93659420D01*
%TD*%
M02*
