%TF.GenerationSoftware,KiCad,Pcbnew,10.0.6*%
%TF.CreationDate,2026-09-22T14:46:25+02:00*%
%TF.ProjectId,mie1001_daq_board,6d696531-3030-4315-9f64-61715f626f61,rev?*%
%TF.SameCoordinates,Original*%
%TF.FileFunction,Copper,L2,Bot*%
%TF.FilePolarity,Positive*%
%FSLAX46Y46*%
G04 Gerber Fmt 4.6, Leading zero omitted, Abs format (unit mm)*
G04 Created by KiCad (PCBNEW 10.0.6) date 2026-09-22 14:46:25*
%MOMM*%
%LPD*%
G01*
G04 APERTURE LIST*
G04 Aperture macros list*
%AMRoundRect*
0 Rectangle with rounded corners*
0 $1 Rounding radius*
0 $2 $3 $4 $5 $6 $7 $8 $9 X,Y pos of 4 corners*
0 Add a 4 corners polygon primitive as box body*
4,1,4,$2,$3,$4,$5,$6,$7,$8,$9,$2,$3,0*
0 Add four circle primitives for the rounded corners*
1,1,$1+$1,$2,$3*
1,1,$1+$1,$4,$5*
1,1,$1+$1,$6,$7*
1,1,$1+$1,$8,$9*
0 Add four rect primitives between the rounded corners*
20,1,$1+$1,$2,$3,$4,$5,0*
20,1,$1+$1,$4,$5,$6,$7,0*
20,1,$1+$1,$6,$7,$8,$9,0*
20,1,$1+$1,$8,$9,$2,$3,0*%
G04 Aperture macros list end*
%TA.AperFunction,ComponentPad*%
%ADD10RoundRect,0.250001X-0.949999X0.949999X-0.949999X-0.949999X0.949999X-0.949999X0.949999X0.949999X0*%
%TD*%
%TA.AperFunction,ComponentPad*%
%ADD11C,2.400000*%
%TD*%
%TA.AperFunction,ComponentPad*%
%ADD12O,7.000000X3.500000*%
%TD*%
%TA.AperFunction,ComponentPad*%
%ADD13RoundRect,0.400000X-0.400000X0.400000X-0.400000X-0.400000X0.400000X-0.400000X0.400000X0.400000X0*%
%TD*%
%TA.AperFunction,ComponentPad*%
%ADD14C,1.600000*%
%TD*%
%TA.AperFunction,ComponentPad*%
%ADD15R,1.700000X1.700000*%
%TD*%
%TA.AperFunction,ComponentPad*%
%ADD16C,1.700000*%
%TD*%
%TA.AperFunction,ComponentPad*%
%ADD17R,1.600000X1.600000*%
%TD*%
%TA.AperFunction,ComponentPad*%
%ADD18O,1.600000X1.600000*%
%TD*%
%TA.AperFunction,ViaPad*%
%ADD19C,0.600000*%
%TD*%
%TA.AperFunction,Conductor*%
%ADD20C,0.200000*%
%TD*%
G04 APERTURE END LIST*
D10*
%TO.P,J2,1*%
%TO.N,/QPS_OUT*%
X75700000Y-83600000D03*
D11*
%TO.P,J2,2*%
%TO.N,GND*%
X75700000Y-87100000D03*
%TD*%
D12*
%TO.P,J1,*%
%TO.N,*%
X135080000Y-80420000D03*
X134980000Y-90580000D03*
D13*
%TO.P,J1,1*%
%TO.N,/BNC_IN*%
X126190000Y-85500000D03*
D14*
%TO.P,J1,2*%
%TO.N,GND*%
X126190000Y-82960000D03*
%TO.P,J1,3*%
X128730000Y-85500000D03*
%TO.P,J1,4*%
X126190000Y-88040000D03*
%TD*%
D15*
%TO.P,JP1,1*%
%TO.N,/RF_2M2*%
X121000000Y-73400000D03*
D16*
%TO.P,JP1,2*%
%TO.N,/TIA_IN*%
X121000000Y-75940000D03*
%TO.P,JP1,3*%
%TO.N,/RF_100M*%
X121000000Y-78480000D03*
%TD*%
D10*
%TO.P,J4,1*%
%TO.N,/TRIG_EXT*%
X75700000Y-74800000D03*
D11*
%TO.P,J4,2*%
%TO.N,GND*%
X75700000Y-78300000D03*
%TD*%
D15*
%TO.P,J3,1*%
%TO.N,/VREF*%
X103000000Y-91400000D03*
D16*
%TO.P,J3,2*%
%TO.N,/AIN3*%
X103000000Y-93940000D03*
%TO.P,J3,3*%
%TO.N,GND*%
X103000000Y-96480000D03*
%TD*%
D17*
%TO.P,A1,1*%
%TO.N,N/C*%
X100000000Y-100000000D03*
D18*
%TO.P,A1,2*%
X102540000Y-100000000D03*
%TO.P,A1,3*%
X105080000Y-100000000D03*
%TO.P,A1,4*%
X107620000Y-100000000D03*
%TO.P,A1,5*%
%TO.N,+5V*%
X110160000Y-100000000D03*
%TO.P,A1,6*%
%TO.N,GND*%
X112700000Y-100000000D03*
%TO.P,A1,7*%
X115240000Y-100000000D03*
%TO.P,A1,8*%
%TO.N,N/C*%
X117780000Y-100000000D03*
%TO.P,A1,9*%
X122860000Y-100000000D03*
%TO.P,A1,10*%
X125400000Y-100000000D03*
%TO.P,A1,11*%
X127940000Y-100000000D03*
%TO.P,A1,12*%
X130480000Y-100000000D03*
%TO.P,A1,13*%
X133020000Y-100000000D03*
%TO.P,A1,14*%
X135560000Y-100000000D03*
%TO.P,A1,15*%
X135560000Y-51740000D03*
%TO.P,A1,16*%
X133020000Y-51740000D03*
%TO.P,A1,17*%
%TO.N,/RDY*%
X130480000Y-51740000D03*
%TO.P,A1,18*%
%TO.N,N/C*%
X127940000Y-51740000D03*
%TO.P,A1,19*%
X125400000Y-51740000D03*
%TO.P,A1,20*%
X122860000Y-51740000D03*
%TO.P,A1,21*%
X120320000Y-51740000D03*
%TO.P,A1,22*%
X117780000Y-51740000D03*
%TO.P,A1,23*%
%TO.N,/TRIG*%
X113720000Y-51740000D03*
%TO.P,A1,24*%
%TO.N,N/C*%
X111180000Y-51740000D03*
%TO.P,A1,25*%
X108640000Y-51740000D03*
%TO.P,A1,26*%
X106100000Y-51740000D03*
%TO.P,A1,27*%
X103560000Y-51740000D03*
%TO.P,A1,28*%
X101020000Y-51740000D03*
%TO.P,A1,29*%
%TO.N,GND*%
X98480000Y-51740000D03*
%TO.P,A1,30*%
%TO.N,N/C*%
X95940000Y-51740000D03*
%TO.P,A1,31*%
%TO.N,/SDA*%
X93400000Y-51740000D03*
%TO.P,A1,32*%
%TO.N,/SCL*%
X90860000Y-51740000D03*
%TD*%
D19*
%TO.N,+5V*%
X110000000Y-89000000D03*
X108600000Y-88900000D03*
X93500000Y-60000000D03*
X107000000Y-86300000D03*
X107600000Y-95500000D03*
X108900000Y-98800000D03*
X94900000Y-60000000D03*
X107900000Y-87200000D03*
X99500000Y-67500000D03*
X107900000Y-97800000D03*
X91000000Y-60000000D03*
X92400000Y-60000000D03*
X123500000Y-93300000D03*
X122600000Y-92400000D03*
X107600000Y-94100000D03*
X100400000Y-68400000D03*
%TO.N,GND*%
X111800000Y-91400000D03*
X101500000Y-84000000D03*
X108100000Y-93400000D03*
X113900000Y-97600000D03*
X101800000Y-86800000D03*
X116100000Y-93400000D03*
X112500000Y-87000000D03*
X105500000Y-96200000D03*
X99600000Y-88200000D03*
X110700000Y-56100000D03*
X108600000Y-82000000D03*
X101200000Y-85400000D03*
X110000000Y-90600000D03*
X111500000Y-80000000D03*
X103800000Y-88200000D03*
X121100000Y-93000000D03*
X113400000Y-96400000D03*
X119900000Y-94300000D03*
%TO.N,/SDA*%
X99500000Y-82700000D03*
X100200000Y-91100000D03*
X98600000Y-81800000D03*
X101100000Y-90200000D03*
%TO.N,/SCL*%
X99600000Y-86800000D03*
X97700000Y-83200000D03*
X97700000Y-81800000D03*
X98200000Y-86800000D03*
%TO.N,/VREF*%
X115600000Y-86400000D03*
X113800000Y-72500000D03*
X113800000Y-90300000D03*
X117000000Y-86400000D03*
X124700000Y-79400000D03*
X124700000Y-72500000D03*
X113800000Y-81000000D03*
X124200000Y-90800000D03*
%TO.N,/TRIG_EXT*%
X94900000Y-73000000D03*
X93000000Y-73000000D03*
%TO.N,/VREF_BUF*%
X110300000Y-85200000D03*
X110300000Y-86600000D03*
%TO.N,/DAC_OUT*%
X103600000Y-86900000D03*
X103000000Y-87800000D03*
%TD*%
%TO.N,+5V*%
D20*
X108700000Y-89000000D02*
X108600000Y-88900000D01*
X100400000Y-68400000D02*
X99500000Y-67500000D01*
X110000000Y-89000000D02*
X108700000Y-89000000D01*
X92400000Y-60000000D02*
X91000000Y-60000000D01*
X107600000Y-95500000D02*
X107600000Y-94100000D01*
X94900000Y-60000000D02*
X93500000Y-60000000D01*
X108900000Y-98800000D02*
X107900000Y-97800000D01*
X107900000Y-87200000D02*
X107000000Y-86300000D01*
X123500000Y-93300000D02*
X122600000Y-92400000D01*
%TO.N,GND*%
X101800000Y-86800000D02*
X101800000Y-86000000D01*
X101800000Y-86000000D02*
X101200000Y-85400000D01*
%TO.N,/SDA*%
X101100000Y-90200000D02*
X100200000Y-91100000D01*
X98600000Y-81800000D02*
X99500000Y-82700000D01*
%TO.N,/SCL*%
X98200000Y-86800000D02*
X99600000Y-86800000D01*
X97700000Y-81800000D02*
X97700000Y-83200000D01*
%TO.N,/VREF*%
X115600000Y-86400000D02*
X117000000Y-86400000D01*
%TO.N,/TRIG_EXT*%
X93000000Y-73000000D02*
X94900000Y-73000000D01*
%TO.N,/VREF_BUF*%
X110300000Y-85200000D02*
X110300000Y-86600000D01*
%TO.N,/DAC_OUT*%
X103000000Y-87500000D02*
X103600000Y-86900000D01*
X103000000Y-87800000D02*
X103000000Y-87500000D01*
%TD*%
%TA.AperFunction,Conductor*%
%TO.N,/VREF*%
G36*
X125159191Y-72018907D02*
G01*
X125195155Y-72068407D01*
X125200000Y-72099000D01*
X125200000Y-82585289D01*
X125192465Y-82623173D01*
X125179869Y-82653581D01*
X125139500Y-82856532D01*
X125139500Y-82856535D01*
X125139500Y-83063465D01*
X125179870Y-83266420D01*
X125192464Y-83296826D01*
X125200000Y-83334709D01*
X125200000Y-83700000D01*
X125403360Y-83700000D01*
X125461551Y-83718907D01*
X125473363Y-83728996D01*
X125512775Y-83768407D01*
X125520345Y-83775977D01*
X125692402Y-83890941D01*
X125883580Y-83970130D01*
X126086535Y-84010500D01*
X126086536Y-84010500D01*
X126293464Y-84010500D01*
X126293465Y-84010500D01*
X126496420Y-83970130D01*
X126687598Y-83890941D01*
X126859655Y-83775977D01*
X126883145Y-83752486D01*
X126906637Y-83728996D01*
X126961154Y-83701219D01*
X126976640Y-83700000D01*
X127901000Y-83700000D01*
X127959191Y-83718907D01*
X127995155Y-83768407D01*
X128000000Y-83799000D01*
X128000000Y-84703360D01*
X127981093Y-84761551D01*
X127971004Y-84773363D01*
X127914022Y-84830345D01*
X127799058Y-85002402D01*
X127719869Y-85193581D01*
X127679500Y-85396532D01*
X127679500Y-85603467D01*
X127719869Y-85806418D01*
X127799058Y-85997597D01*
X127914020Y-86169651D01*
X127914023Y-86169655D01*
X127971005Y-86226637D01*
X127998781Y-86281152D01*
X128000000Y-86296639D01*
X128000000Y-87201000D01*
X127981093Y-87259191D01*
X127931593Y-87295155D01*
X127901000Y-87300000D01*
X126976640Y-87300000D01*
X126918449Y-87281093D01*
X126906637Y-87271004D01*
X126859654Y-87224022D01*
X126687597Y-87109058D01*
X126496418Y-87029869D01*
X126293467Y-86989500D01*
X126293465Y-86989500D01*
X126086535Y-86989500D01*
X126086532Y-86989500D01*
X125883581Y-87029869D01*
X125692402Y-87109058D01*
X125520345Y-87224022D01*
X125473363Y-87271004D01*
X125418846Y-87298781D01*
X125403360Y-87300000D01*
X125200000Y-87300000D01*
X125200000Y-87300001D01*
X125200000Y-87665289D01*
X125192465Y-87703173D01*
X125179869Y-87733581D01*
X125139500Y-87936532D01*
X125139500Y-87936535D01*
X125139500Y-88143465D01*
X125179870Y-88346420D01*
X125192464Y-88376826D01*
X125200000Y-88414709D01*
X125200000Y-91601000D01*
X125181093Y-91659191D01*
X125131593Y-91695155D01*
X125101000Y-91700000D01*
X112699000Y-91700000D01*
X112640809Y-91681093D01*
X112604845Y-91631593D01*
X112600000Y-91601000D01*
X112600000Y-87619089D01*
X112618907Y-87560898D01*
X112668407Y-87524934D01*
X112673349Y-87523470D01*
X112712485Y-87512984D01*
X112838015Y-87440509D01*
X112940509Y-87338015D01*
X112940512Y-87338010D01*
X113012982Y-87212489D01*
X113012982Y-87212487D01*
X113012984Y-87212485D01*
X113050500Y-87072475D01*
X113050500Y-86927525D01*
X113012984Y-86787515D01*
X113012982Y-86787512D01*
X113012982Y-86787510D01*
X112940512Y-86661989D01*
X112940510Y-86661987D01*
X112940509Y-86661985D01*
X112838015Y-86559491D01*
X112838012Y-86559489D01*
X112838010Y-86559487D01*
X112712488Y-86487017D01*
X112712487Y-86487016D01*
X112673374Y-86476535D01*
X112622061Y-86443209D01*
X112600136Y-86386087D01*
X112600000Y-86380909D01*
X112600000Y-85034311D01*
X125139500Y-85034311D01*
X125139500Y-85965688D01*
X125142401Y-86002565D01*
X125142401Y-86002568D01*
X125142402Y-86002569D01*
X125188256Y-86160398D01*
X125271919Y-86301865D01*
X125388135Y-86418081D01*
X125529602Y-86501744D01*
X125687431Y-86547598D01*
X125724306Y-86550500D01*
X125724311Y-86550500D01*
X126655689Y-86550500D01*
X126655694Y-86550500D01*
X126692569Y-86547598D01*
X126850398Y-86501744D01*
X126991865Y-86418081D01*
X127108081Y-86301865D01*
X127191744Y-86160398D01*
X127237598Y-86002569D01*
X127240500Y-85965694D01*
X127240500Y-85034306D01*
X127237598Y-84997431D01*
X127191744Y-84839602D01*
X127108081Y-84698135D01*
X126991865Y-84581919D01*
X126850398Y-84498256D01*
X126692569Y-84452402D01*
X126692568Y-84452401D01*
X126692565Y-84452401D01*
X126669140Y-84450558D01*
X126655694Y-84449500D01*
X125724306Y-84449500D01*
X125711773Y-84450486D01*
X125687434Y-84452401D01*
X125687427Y-84452403D01*
X125529602Y-84498256D01*
X125388136Y-84581918D01*
X125271918Y-84698136D01*
X125188256Y-84839602D01*
X125142403Y-84997427D01*
X125142401Y-84997434D01*
X125139500Y-85034311D01*
X112600000Y-85034311D01*
X112600000Y-78393385D01*
X119899500Y-78393385D01*
X119899500Y-78566614D01*
X119926597Y-78737702D01*
X119926598Y-78737706D01*
X119980123Y-78902438D01*
X119980125Y-78902441D01*
X119980126Y-78902444D01*
X119980127Y-78902445D01*
X120058768Y-79056788D01*
X120160586Y-79196928D01*
X120283072Y-79319414D01*
X120423212Y-79421232D01*
X120577555Y-79499873D01*
X120577557Y-79499873D01*
X120577558Y-79499874D01*
X120577561Y-79499876D01*
X120742293Y-79553401D01*
X120742297Y-79553402D01*
X120913386Y-79580500D01*
X120913389Y-79580500D01*
X121086614Y-79580500D01*
X121257702Y-79553402D01*
X121257706Y-79553401D01*
X121422438Y-79499876D01*
X121422440Y-79499874D01*
X121422445Y-79499873D01*
X121576788Y-79421232D01*
X121716928Y-79319414D01*
X121839414Y-79196928D01*
X121941232Y-79056788D01*
X122019873Y-78902445D01*
X122019874Y-78902440D01*
X122019876Y-78902438D01*
X122073401Y-78737706D01*
X122073402Y-78737702D01*
X122100500Y-78566614D01*
X122100500Y-78393385D01*
X122073402Y-78222297D01*
X122073401Y-78222293D01*
X122019876Y-78057561D01*
X122019874Y-78057558D01*
X122019873Y-78057557D01*
X122019873Y-78057555D01*
X121941232Y-77903212D01*
X121839414Y-77763072D01*
X121716928Y-77640586D01*
X121576788Y-77538768D01*
X121576787Y-77538767D01*
X121576785Y-77538766D01*
X121422441Y-77460125D01*
X121422438Y-77460123D01*
X121257706Y-77406598D01*
X121257702Y-77406597D01*
X121086614Y-77379500D01*
X121086611Y-77379500D01*
X120913389Y-77379500D01*
X120913386Y-77379500D01*
X120742297Y-77406597D01*
X120742293Y-77406598D01*
X120577561Y-77460123D01*
X120577558Y-77460125D01*
X120423214Y-77538766D01*
X120283073Y-77640585D01*
X120160585Y-77763073D01*
X120058766Y-77903214D01*
X119980125Y-78057558D01*
X119980123Y-78057561D01*
X119926598Y-78222293D01*
X119926597Y-78222297D01*
X119899500Y-78393385D01*
X112600000Y-78393385D01*
X112600000Y-75853385D01*
X119899500Y-75853385D01*
X119899500Y-76026614D01*
X119926597Y-76197702D01*
X119926598Y-76197706D01*
X119980123Y-76362438D01*
X119980125Y-76362441D01*
X119980126Y-76362444D01*
X119980127Y-76362445D01*
X120058768Y-76516788D01*
X120160586Y-76656928D01*
X120283072Y-76779414D01*
X120423212Y-76881232D01*
X120577555Y-76959873D01*
X120577557Y-76959873D01*
X120577558Y-76959874D01*
X120577561Y-76959876D01*
X120742293Y-77013401D01*
X120742297Y-77013402D01*
X120913386Y-77040500D01*
X120913389Y-77040500D01*
X121086614Y-77040500D01*
X121257702Y-77013402D01*
X121257706Y-77013401D01*
X121422438Y-76959876D01*
X121422440Y-76959874D01*
X121422445Y-76959873D01*
X121576788Y-76881232D01*
X121716928Y-76779414D01*
X121839414Y-76656928D01*
X121941232Y-76516788D01*
X122019873Y-76362445D01*
X122019874Y-76362440D01*
X122019876Y-76362438D01*
X122073401Y-76197706D01*
X122073402Y-76197702D01*
X122100500Y-76026614D01*
X122100500Y-75853385D01*
X122073402Y-75682297D01*
X122073401Y-75682293D01*
X122019876Y-75517561D01*
X122019874Y-75517558D01*
X122019873Y-75517557D01*
X122019873Y-75517555D01*
X121941232Y-75363212D01*
X121839414Y-75223072D01*
X121716928Y-75100586D01*
X121576788Y-74998768D01*
X121576787Y-74998767D01*
X121576785Y-74998766D01*
X121422441Y-74920125D01*
X121422438Y-74920123D01*
X121257706Y-74866598D01*
X121257702Y-74866597D01*
X121086614Y-74839500D01*
X121086611Y-74839500D01*
X120913389Y-74839500D01*
X120913386Y-74839500D01*
X120742297Y-74866597D01*
X120742293Y-74866598D01*
X120577561Y-74920123D01*
X120577558Y-74920125D01*
X120423214Y-74998766D01*
X120283073Y-75100585D01*
X120160585Y-75223073D01*
X120058766Y-75363214D01*
X119980125Y-75517558D01*
X119980123Y-75517561D01*
X119926598Y-75682293D01*
X119926597Y-75682297D01*
X119899500Y-75853385D01*
X112600000Y-75853385D01*
X112600000Y-72525327D01*
X119899500Y-72525327D01*
X119899500Y-74274672D01*
X119899501Y-74274684D01*
X119914033Y-74347736D01*
X119914035Y-74347742D01*
X119969397Y-74430599D01*
X119969399Y-74430601D01*
X120052260Y-74485966D01*
X120107808Y-74497015D01*
X120125315Y-74500498D01*
X120125320Y-74500498D01*
X120125326Y-74500500D01*
X120125327Y-74500500D01*
X121874673Y-74500500D01*
X121874674Y-74500500D01*
X121947740Y-74485966D01*
X122030601Y-74430601D01*
X122085966Y-74347740D01*
X122100500Y-74274674D01*
X122100500Y-72525326D01*
X122085966Y-72452260D01*
X122030601Y-72369399D01*
X122030599Y-72369397D01*
X121947742Y-72314035D01*
X121947740Y-72314034D01*
X121947737Y-72314033D01*
X121947736Y-72314033D01*
X121874684Y-72299501D01*
X121874674Y-72299500D01*
X120125326Y-72299500D01*
X120125325Y-72299500D01*
X120125315Y-72299501D01*
X120052263Y-72314033D01*
X120052257Y-72314035D01*
X119969400Y-72369397D01*
X119969397Y-72369400D01*
X119914035Y-72452257D01*
X119914033Y-72452263D01*
X119899501Y-72525315D01*
X119899500Y-72525327D01*
X112600000Y-72525327D01*
X112600000Y-72099000D01*
X112618907Y-72040809D01*
X112668407Y-72004845D01*
X112699000Y-72000000D01*
X125101000Y-72000000D01*
X125159191Y-72018907D01*
G37*
%TD.AperFunction*%
%TD*%
%TA.AperFunction,Conductor*%
%TO.N,GND*%
G36*
X136346588Y-49705345D02*
G01*
X136358925Y-49709353D01*
X136369814Y-49712891D01*
X136409227Y-49737042D01*
X137559417Y-50887230D01*
X137577622Y-50912288D01*
X137588709Y-50934047D01*
X137599500Y-50978993D01*
X137599500Y-62084108D01*
X137599500Y-62215892D01*
X137629579Y-62328151D01*
X137629580Y-62328153D01*
X137633609Y-62343191D01*
X137633610Y-62343193D01*
X137699494Y-62457307D01*
X137699496Y-62457309D01*
X137699498Y-62457311D01*
X137699500Y-62457314D01*
X140099418Y-64857232D01*
X140117623Y-64882290D01*
X140128709Y-64904047D01*
X140139500Y-64948993D01*
X140139500Y-66768178D01*
X140134651Y-66798783D01*
X140133314Y-66802896D01*
X140097343Y-66852391D01*
X140039150Y-66871291D01*
X139980962Y-66852376D01*
X139947174Y-66808881D01*
X139946891Y-66808172D01*
X139940732Y-66784514D01*
X139940136Y-66779987D01*
X139937473Y-66759765D01*
X139918838Y-66618210D01*
X139856054Y-66383899D01*
X139763224Y-66159787D01*
X139641936Y-65949710D01*
X139494265Y-65757261D01*
X139322738Y-65585734D01*
X139322733Y-65585730D01*
X139322731Y-65585728D01*
X139130292Y-65438065D01*
X139130289Y-65438063D01*
X138920212Y-65316775D01*
X138920208Y-65316773D01*
X138920204Y-65316771D01*
X138920194Y-65316766D01*
X138701718Y-65226272D01*
X138697840Y-65224380D01*
X138696932Y-65224153D01*
X138695320Y-65223736D01*
X138464655Y-65161929D01*
X138462454Y-65161268D01*
X138457394Y-65160447D01*
X138455350Y-65160313D01*
X138221290Y-65129499D01*
X138221289Y-65129499D01*
X138221288Y-65129499D01*
X137978712Y-65129499D01*
X137978710Y-65129499D01*
X137978708Y-65129499D01*
X137744652Y-65160313D01*
X137744640Y-65160313D01*
X137738217Y-65161159D01*
X137738213Y-65161160D01*
X137738210Y-65161161D01*
X137503885Y-65223949D01*
X137279802Y-65316767D01*
X137069703Y-65438067D01*
X136877271Y-65585725D01*
X136705726Y-65757270D01*
X136558068Y-65949702D01*
X136436768Y-66159801D01*
X136343950Y-66383884D01*
X136281160Y-66618216D01*
X136280314Y-66624645D01*
X136280314Y-66624650D01*
X136249500Y-66858707D01*
X136249500Y-67101289D01*
X136280314Y-67335346D01*
X136280314Y-67335352D01*
X136281160Y-67341780D01*
X136281161Y-67341783D01*
X136281161Y-67341785D01*
X136343944Y-67576091D01*
X136343948Y-67576104D01*
X136343949Y-67576108D01*
X136343950Y-67576109D01*
X136436769Y-67800197D01*
X136436772Y-67800203D01*
X136436774Y-67800207D01*
X136436776Y-67800211D01*
X136558064Y-68010288D01*
X136558066Y-68010291D01*
X136705729Y-68202730D01*
X136705731Y-68202732D01*
X136705735Y-68202737D01*
X136877262Y-68374264D01*
X136877266Y-68374267D01*
X136877271Y-68374272D01*
X136877294Y-68374292D01*
X136877670Y-68374577D01*
X136892804Y-68386190D01*
X137069711Y-68521935D01*
X137279788Y-68643223D01*
X137503900Y-68736053D01*
X137738211Y-68798837D01*
X137978712Y-68830499D01*
X137978713Y-68830499D01*
X138221287Y-68830499D01*
X138221288Y-68830499D01*
X138461789Y-68798837D01*
X138696100Y-68736053D01*
X138920212Y-68643223D01*
X139130289Y-68521935D01*
X139322738Y-68374264D01*
X139494265Y-68202737D01*
X139641936Y-68010288D01*
X139763224Y-67800211D01*
X139856054Y-67576099D01*
X139918838Y-67341788D01*
X139940300Y-67178760D01*
X139949096Y-67149066D01*
X139950957Y-67145164D01*
X139993072Y-67100781D01*
X140053233Y-67089629D01*
X140108459Y-67115968D01*
X140136257Y-67163370D01*
X140136443Y-67164101D01*
X140139500Y-67188513D01*
X140139500Y-97195997D01*
X140134654Y-97226590D01*
X140127107Y-97249817D01*
X140102957Y-97289228D01*
X137821683Y-99570503D01*
X137821676Y-99570506D01*
X137699504Y-99692680D01*
X137699497Y-99692688D01*
X137633610Y-99806805D01*
X137633609Y-99806809D01*
X137601222Y-99927685D01*
X137599500Y-99934110D01*
X137599500Y-101924819D01*
X137594654Y-101955412D01*
X137590532Y-101968098D01*
X137554580Y-102017589D01*
X137550459Y-102020584D01*
X137492271Y-102039500D01*
X86241819Y-102039500D01*
X86211215Y-102034651D01*
X86209115Y-102033968D01*
X86207101Y-102033314D01*
X86157606Y-101997343D01*
X86138706Y-101939150D01*
X86157621Y-101880962D01*
X86201114Y-101847175D01*
X86201827Y-101846890D01*
X86225481Y-101840732D01*
X86391789Y-101818838D01*
X86626100Y-101756054D01*
X86850212Y-101663224D01*
X87060289Y-101541936D01*
X87252738Y-101394265D01*
X87424265Y-101222738D01*
X87571936Y-101030289D01*
X87693224Y-100820212D01*
X87786054Y-100596100D01*
X87848838Y-100361789D01*
X87880500Y-100121288D01*
X87880500Y-99878712D01*
X87848838Y-99638211D01*
X87786054Y-99403900D01*
X87755587Y-99330345D01*
X87733879Y-99277937D01*
X87706217Y-99211154D01*
X87706216Y-99211153D01*
X87706216Y-99211152D01*
X87705055Y-99208350D01*
X87705054Y-99208347D01*
X87694562Y-99183017D01*
X87694004Y-99181522D01*
X87693829Y-99181133D01*
X87693020Y-99179260D01*
X87691619Y-99177006D01*
X87690646Y-99175320D01*
X98949500Y-99175320D01*
X98949500Y-100824678D01*
X98949500Y-100824682D01*
X98949501Y-100824684D01*
X98964033Y-100897736D01*
X98964035Y-100897742D01*
X99019397Y-100980599D01*
X99019399Y-100980601D01*
X99019402Y-100980603D01*
X99019404Y-100980605D01*
X99102260Y-101035966D01*
X99157807Y-101047015D01*
X99157808Y-101047015D01*
X99169240Y-101049289D01*
X99171405Y-101049863D01*
X99173579Y-101050216D01*
X99175152Y-101050500D01*
X99175326Y-101050500D01*
X99175327Y-101050500D01*
X100824673Y-101050500D01*
X100824674Y-101050500D01*
X100897740Y-101035966D01*
X100980601Y-100980601D01*
X101035966Y-100897740D01*
X101050500Y-100824674D01*
X101050500Y-99896529D01*
X101489500Y-99896529D01*
X101489500Y-100103469D01*
X101529869Y-100306417D01*
X101529869Y-100306419D01*
X101609056Y-100497594D01*
X101661797Y-100576528D01*
X101724020Y-100669651D01*
X101724023Y-100669655D01*
X101870345Y-100815977D01*
X102042402Y-100930941D01*
X102233580Y-101010130D01*
X102436535Y-101050500D01*
X102436536Y-101050500D01*
X102643464Y-101050500D01*
X102643465Y-101050500D01*
X102846420Y-101010130D01*
X103037598Y-100930941D01*
X103209655Y-100815977D01*
X103355977Y-100669655D01*
X103470941Y-100497598D01*
X103550130Y-100306420D01*
X103590500Y-100103465D01*
X103590500Y-99896535D01*
X103590499Y-99896532D01*
X103590498Y-99896529D01*
X104029500Y-99896529D01*
X104029500Y-100103469D01*
X104069869Y-100306417D01*
X104069869Y-100306419D01*
X104149056Y-100497594D01*
X104201797Y-100576528D01*
X104264020Y-100669651D01*
X104264023Y-100669655D01*
X104410345Y-100815977D01*
X104582402Y-100930941D01*
X104773580Y-101010130D01*
X104976535Y-101050500D01*
X104976536Y-101050500D01*
X105183464Y-101050500D01*
X105183465Y-101050500D01*
X105386420Y-101010130D01*
X105577598Y-100930941D01*
X105749655Y-100815977D01*
X105895977Y-100669655D01*
X106010941Y-100497598D01*
X106090130Y-100306420D01*
X106130500Y-100103465D01*
X106130500Y-99896535D01*
X106130499Y-99896532D01*
X106130498Y-99896529D01*
X106569500Y-99896529D01*
X106569500Y-100103469D01*
X106609869Y-100306417D01*
X106609869Y-100306419D01*
X106689056Y-100497594D01*
X106741797Y-100576528D01*
X106804020Y-100669651D01*
X106804023Y-100669655D01*
X106950345Y-100815977D01*
X107122402Y-100930941D01*
X107313580Y-101010130D01*
X107516535Y-101050500D01*
X107516536Y-101050500D01*
X107723464Y-101050500D01*
X107723465Y-101050500D01*
X107926420Y-101010130D01*
X108117598Y-100930941D01*
X108289655Y-100815977D01*
X108435977Y-100669655D01*
X108550941Y-100497598D01*
X108630130Y-100306420D01*
X108670500Y-100103465D01*
X108670500Y-99896535D01*
X108630130Y-99693580D01*
X108550941Y-99502402D01*
X108503706Y-99431710D01*
X108490740Y-99403581D01*
X108488502Y-99395645D01*
X108490906Y-99334508D01*
X108528788Y-99286459D01*
X108587674Y-99269853D01*
X108588796Y-99269897D01*
X108590221Y-99269954D01*
X108635824Y-99283140D01*
X108687515Y-99312984D01*
X108827525Y-99350500D01*
X108827526Y-99350500D01*
X108972474Y-99350500D01*
X108972475Y-99350500D01*
X109112485Y-99312984D01*
X109127044Y-99304577D01*
X109155956Y-99293477D01*
X109164026Y-99291762D01*
X109224874Y-99298156D01*
X109270345Y-99339096D01*
X109283067Y-99398944D01*
X109283065Y-99398966D01*
X109282799Y-99401492D01*
X109266659Y-99446124D01*
X109229059Y-99502397D01*
X109229058Y-99502398D01*
X109149869Y-99693579D01*
X109149869Y-99693581D01*
X109109500Y-99896529D01*
X109109500Y-100103469D01*
X109149869Y-100306417D01*
X109149869Y-100306419D01*
X109229056Y-100497594D01*
X109281797Y-100576528D01*
X109344020Y-100669651D01*
X109344023Y-100669655D01*
X109490345Y-100815977D01*
X109662402Y-100930941D01*
X109853580Y-101010130D01*
X110056535Y-101050500D01*
X110056536Y-101050500D01*
X110263464Y-101050500D01*
X110263465Y-101050500D01*
X110466420Y-101010130D01*
X110657598Y-100930941D01*
X110829655Y-100815977D01*
X110975977Y-100669655D01*
X111090941Y-100497598D01*
X111170130Y-100306420D01*
X111210500Y-100103465D01*
X111210500Y-99896535D01*
X111206955Y-99878712D01*
X111205999Y-99873904D01*
X111196271Y-99824999D01*
X111614005Y-99824999D01*
X111614006Y-99824999D01*
X111614006Y-99825000D01*
X112101485Y-99825000D01*
X112159676Y-99843907D01*
X112195640Y-99893407D01*
X112198790Y-99927685D01*
X112200000Y-99927685D01*
X112200000Y-100072315D01*
X112197927Y-100072315D01*
X112188486Y-100123242D01*
X112144102Y-100165358D01*
X112101485Y-100175000D01*
X111614006Y-100175000D01*
X111627082Y-100257574D01*
X111680588Y-100422248D01*
X111759055Y-100576250D01*
X111759188Y-100576515D01*
X111759199Y-100576533D01*
X111826857Y-100669655D01*
X111860962Y-100716596D01*
X111983403Y-100839037D01*
X111983406Y-100839039D01*
X112123465Y-100940799D01*
X112123480Y-100940808D01*
X112123730Y-100940934D01*
X112277751Y-101019411D01*
X112442420Y-101072915D01*
X112504355Y-101082724D01*
X112524999Y-101085994D01*
X112524999Y-101085993D01*
X112525000Y-101085994D01*
X112525000Y-100598514D01*
X112543907Y-100540323D01*
X112593407Y-100504359D01*
X112627685Y-100501213D01*
X112627685Y-100500000D01*
X112772315Y-100500000D01*
X112772315Y-100502077D01*
X112823219Y-100511500D01*
X112865346Y-100555873D01*
X112875000Y-100598514D01*
X112875000Y-101085993D01*
X112957574Y-101072916D01*
X112957575Y-101072915D01*
X112957579Y-101072915D01*
X113122248Y-101019411D01*
X113276524Y-100940804D01*
X113276528Y-100940802D01*
X113276529Y-100940801D01*
X113276533Y-100940799D01*
X113335803Y-100897736D01*
X113416596Y-100839037D01*
X113539037Y-100716596D01*
X113598960Y-100634118D01*
X113640799Y-100576533D01*
X113640804Y-100576524D01*
X113640809Y-100576515D01*
X113719411Y-100422248D01*
X113772915Y-100257579D01*
X113782070Y-100199779D01*
X113785994Y-100175000D01*
X113298515Y-100175000D01*
X113240324Y-100156093D01*
X113204360Y-100106593D01*
X113201210Y-100072315D01*
X113200000Y-100072315D01*
X113200000Y-99927685D01*
X113202073Y-99927685D01*
X113211514Y-99876758D01*
X113255898Y-99834642D01*
X113298515Y-99825000D01*
X113785993Y-99825000D01*
X113785994Y-99825000D01*
X113785994Y-99824999D01*
X114154005Y-99824999D01*
X114154006Y-99824999D01*
X114154006Y-99825000D01*
X114641485Y-99825000D01*
X114699676Y-99843907D01*
X114735640Y-99893407D01*
X114738790Y-99927685D01*
X114740000Y-99927685D01*
X114740000Y-100072315D01*
X114737927Y-100072315D01*
X114728486Y-100123242D01*
X114684102Y-100165358D01*
X114641485Y-100175000D01*
X114154006Y-100175000D01*
X114167082Y-100257574D01*
X114220588Y-100422248D01*
X114299055Y-100576250D01*
X114299188Y-100576515D01*
X114299199Y-100576533D01*
X114366857Y-100669655D01*
X114400962Y-100716596D01*
X114523403Y-100839037D01*
X114523406Y-100839039D01*
X114663465Y-100940799D01*
X114663480Y-100940808D01*
X114663730Y-100940934D01*
X114817751Y-101019411D01*
X114982420Y-101072915D01*
X115044355Y-101082724D01*
X115064999Y-101085994D01*
X115064999Y-101085993D01*
X115065000Y-101085994D01*
X115065000Y-100598514D01*
X115083907Y-100540323D01*
X115133407Y-100504359D01*
X115167685Y-100501213D01*
X115167685Y-100500000D01*
X115312315Y-100500000D01*
X115312315Y-100502077D01*
X115363219Y-100511500D01*
X115405346Y-100555873D01*
X115415000Y-100598514D01*
X115415000Y-101085993D01*
X115497574Y-101072916D01*
X115497575Y-101072915D01*
X115497579Y-101072915D01*
X115662248Y-101019411D01*
X115816524Y-100940804D01*
X115816528Y-100940802D01*
X115816529Y-100940801D01*
X115816533Y-100940799D01*
X115875803Y-100897736D01*
X115956596Y-100839037D01*
X116079037Y-100716596D01*
X116138960Y-100634118D01*
X116180799Y-100576533D01*
X116180804Y-100576524D01*
X116180809Y-100576515D01*
X116259411Y-100422248D01*
X116312915Y-100257579D01*
X116322070Y-100199779D01*
X116325994Y-100175000D01*
X115838515Y-100175000D01*
X115780324Y-100156093D01*
X115744360Y-100106593D01*
X115741210Y-100072315D01*
X115740000Y-100072315D01*
X115740000Y-99927685D01*
X115742073Y-99927685D01*
X115747849Y-99896529D01*
X116729500Y-99896529D01*
X116729500Y-100103469D01*
X116769869Y-100306417D01*
X116769869Y-100306419D01*
X116849056Y-100497594D01*
X116901797Y-100576528D01*
X116964020Y-100669651D01*
X116964023Y-100669655D01*
X117110345Y-100815977D01*
X117282402Y-100930941D01*
X117473580Y-101010130D01*
X117676535Y-101050500D01*
X117676536Y-101050500D01*
X117883464Y-101050500D01*
X117883465Y-101050500D01*
X118086420Y-101010130D01*
X118277598Y-100930941D01*
X118449655Y-100815977D01*
X118595977Y-100669655D01*
X118710941Y-100497598D01*
X118790130Y-100306420D01*
X118830500Y-100103465D01*
X118830500Y-99896535D01*
X118830499Y-99896532D01*
X118830498Y-99896529D01*
X121809500Y-99896529D01*
X121809500Y-100103469D01*
X121849869Y-100306417D01*
X121849869Y-100306419D01*
X121929056Y-100497594D01*
X121981797Y-100576528D01*
X122044020Y-100669651D01*
X122044023Y-100669655D01*
X122190345Y-100815977D01*
X122362402Y-100930941D01*
X122553580Y-101010130D01*
X122756535Y-101050500D01*
X122756536Y-101050500D01*
X122963464Y-101050500D01*
X122963465Y-101050500D01*
X123166420Y-101010130D01*
X123357598Y-100930941D01*
X123529655Y-100815977D01*
X123675977Y-100669655D01*
X123790941Y-100497598D01*
X123870130Y-100306420D01*
X123910500Y-100103465D01*
X123910500Y-99896535D01*
X123910499Y-99896532D01*
X123910498Y-99896529D01*
X124349500Y-99896529D01*
X124349500Y-100103469D01*
X124389869Y-100306417D01*
X124389869Y-100306419D01*
X124469056Y-100497594D01*
X124521797Y-100576528D01*
X124584020Y-100669651D01*
X124584023Y-100669655D01*
X124730345Y-100815977D01*
X124902402Y-100930941D01*
X125093580Y-101010130D01*
X125296535Y-101050500D01*
X125296536Y-101050500D01*
X125503464Y-101050500D01*
X125503465Y-101050500D01*
X125706420Y-101010130D01*
X125897598Y-100930941D01*
X126069655Y-100815977D01*
X126215977Y-100669655D01*
X126330941Y-100497598D01*
X126410130Y-100306420D01*
X126450500Y-100103465D01*
X126450500Y-99896535D01*
X126450499Y-99896532D01*
X126450498Y-99896529D01*
X126889500Y-99896529D01*
X126889500Y-100103469D01*
X126929869Y-100306417D01*
X126929869Y-100306419D01*
X127009056Y-100497594D01*
X127061797Y-100576528D01*
X127124020Y-100669651D01*
X127124023Y-100669655D01*
X127270345Y-100815977D01*
X127442402Y-100930941D01*
X127633580Y-101010130D01*
X127836535Y-101050500D01*
X127836536Y-101050500D01*
X128043464Y-101050500D01*
X128043465Y-101050500D01*
X128246420Y-101010130D01*
X128437598Y-100930941D01*
X128609655Y-100815977D01*
X128755977Y-100669655D01*
X128870941Y-100497598D01*
X128950130Y-100306420D01*
X128990500Y-100103465D01*
X128990500Y-99896535D01*
X128990499Y-99896532D01*
X128990498Y-99896529D01*
X129429500Y-99896529D01*
X129429500Y-100103469D01*
X129469869Y-100306417D01*
X129469869Y-100306419D01*
X129549056Y-100497594D01*
X129601797Y-100576528D01*
X129664020Y-100669651D01*
X129664023Y-100669655D01*
X129810345Y-100815977D01*
X129982402Y-100930941D01*
X130173580Y-101010130D01*
X130376535Y-101050500D01*
X130376536Y-101050500D01*
X130583464Y-101050500D01*
X130583465Y-101050500D01*
X130786420Y-101010130D01*
X130977598Y-100930941D01*
X131149655Y-100815977D01*
X131295977Y-100669655D01*
X131410941Y-100497598D01*
X131490130Y-100306420D01*
X131530500Y-100103465D01*
X131530500Y-99896535D01*
X131530499Y-99896532D01*
X131530498Y-99896529D01*
X131969500Y-99896529D01*
X131969500Y-100103469D01*
X132009869Y-100306417D01*
X132009869Y-100306419D01*
X132089056Y-100497594D01*
X132141797Y-100576528D01*
X132204020Y-100669651D01*
X132204023Y-100669655D01*
X132350345Y-100815977D01*
X132522402Y-100930941D01*
X132713580Y-101010130D01*
X132916535Y-101050500D01*
X132916536Y-101050500D01*
X133123464Y-101050500D01*
X133123465Y-101050500D01*
X133326420Y-101010130D01*
X133517598Y-100930941D01*
X133689655Y-100815977D01*
X133835977Y-100669655D01*
X133950941Y-100497598D01*
X134030130Y-100306420D01*
X134070500Y-100103465D01*
X134070500Y-99896535D01*
X134070499Y-99896532D01*
X134070498Y-99896529D01*
X134509500Y-99896529D01*
X134509500Y-100103469D01*
X134549869Y-100306417D01*
X134549869Y-100306419D01*
X134629056Y-100497594D01*
X134681797Y-100576528D01*
X134744020Y-100669651D01*
X134744023Y-100669655D01*
X134890345Y-100815977D01*
X135062402Y-100930941D01*
X135253580Y-101010130D01*
X135456535Y-101050500D01*
X135456536Y-101050500D01*
X135663464Y-101050500D01*
X135663465Y-101050500D01*
X135866420Y-101010130D01*
X136057598Y-100930941D01*
X136229655Y-100815977D01*
X136375977Y-100669655D01*
X136490941Y-100497598D01*
X136570130Y-100306420D01*
X136610500Y-100103465D01*
X136610500Y-99896535D01*
X136570130Y-99693580D01*
X136490941Y-99502402D01*
X136375977Y-99330345D01*
X136229655Y-99184023D01*
X136229651Y-99184020D01*
X136228187Y-99183042D01*
X136057594Y-99069056D01*
X135866418Y-98989869D01*
X135663469Y-98949500D01*
X135663467Y-98949500D01*
X135663465Y-98949500D01*
X135456535Y-98949500D01*
X135456532Y-98949500D01*
X135456529Y-98949500D01*
X135253581Y-98989869D01*
X135253579Y-98989869D01*
X135062404Y-99069056D01*
X134890351Y-99184017D01*
X134744017Y-99330351D01*
X134629056Y-99502404D01*
X134549869Y-99693579D01*
X134549869Y-99693581D01*
X134509500Y-99896529D01*
X134070498Y-99896529D01*
X134037190Y-99729075D01*
X134030130Y-99693580D01*
X133950941Y-99502402D01*
X133835977Y-99330345D01*
X133689655Y-99184023D01*
X133689651Y-99184020D01*
X133688187Y-99183042D01*
X133517594Y-99069056D01*
X133326418Y-98989869D01*
X133123469Y-98949500D01*
X133123467Y-98949500D01*
X133123465Y-98949500D01*
X132916535Y-98949500D01*
X132916532Y-98949500D01*
X132916529Y-98949500D01*
X132713581Y-98989869D01*
X132713579Y-98989869D01*
X132522404Y-99069056D01*
X132350351Y-99184017D01*
X132204017Y-99330351D01*
X132089056Y-99502404D01*
X132009869Y-99693579D01*
X132009869Y-99693581D01*
X131969500Y-99896529D01*
X131530498Y-99896529D01*
X131497190Y-99729075D01*
X131490130Y-99693580D01*
X131410941Y-99502402D01*
X131295977Y-99330345D01*
X131149655Y-99184023D01*
X131149651Y-99184020D01*
X131148187Y-99183042D01*
X130977594Y-99069056D01*
X130786418Y-98989869D01*
X130583469Y-98949500D01*
X130583467Y-98949500D01*
X130583465Y-98949500D01*
X130376535Y-98949500D01*
X130376532Y-98949500D01*
X130376529Y-98949500D01*
X130173581Y-98989869D01*
X130173579Y-98989869D01*
X129982404Y-99069056D01*
X129810351Y-99184017D01*
X129664017Y-99330351D01*
X129549056Y-99502404D01*
X129469869Y-99693579D01*
X129469869Y-99693581D01*
X129429500Y-99896529D01*
X128990498Y-99896529D01*
X128957190Y-99729075D01*
X128950130Y-99693580D01*
X128870941Y-99502402D01*
X128755977Y-99330345D01*
X128609655Y-99184023D01*
X128609651Y-99184020D01*
X128608187Y-99183042D01*
X128437594Y-99069056D01*
X128246418Y-98989869D01*
X128043469Y-98949500D01*
X128043467Y-98949500D01*
X128043465Y-98949500D01*
X127836535Y-98949500D01*
X127836532Y-98949500D01*
X127836529Y-98949500D01*
X127633581Y-98989869D01*
X127633579Y-98989869D01*
X127442404Y-99069056D01*
X127270351Y-99184017D01*
X127124017Y-99330351D01*
X127009056Y-99502404D01*
X126929869Y-99693579D01*
X126929869Y-99693581D01*
X126889500Y-99896529D01*
X126450498Y-99896529D01*
X126417190Y-99729075D01*
X126410130Y-99693580D01*
X126330941Y-99502402D01*
X126215977Y-99330345D01*
X126069655Y-99184023D01*
X126069651Y-99184020D01*
X126068187Y-99183042D01*
X125897594Y-99069056D01*
X125706418Y-98989869D01*
X125503469Y-98949500D01*
X125503467Y-98949500D01*
X125503465Y-98949500D01*
X125296535Y-98949500D01*
X125296532Y-98949500D01*
X125296529Y-98949500D01*
X125093581Y-98989869D01*
X125093579Y-98989869D01*
X124902404Y-99069056D01*
X124730351Y-99184017D01*
X124584017Y-99330351D01*
X124469056Y-99502404D01*
X124389869Y-99693579D01*
X124389869Y-99693581D01*
X124349500Y-99896529D01*
X123910498Y-99896529D01*
X123877190Y-99729075D01*
X123870130Y-99693580D01*
X123790941Y-99502402D01*
X123675977Y-99330345D01*
X123529655Y-99184023D01*
X123529651Y-99184020D01*
X123528187Y-99183042D01*
X123357594Y-99069056D01*
X123166418Y-98989869D01*
X122963469Y-98949500D01*
X122963467Y-98949500D01*
X122963465Y-98949500D01*
X122756535Y-98949500D01*
X122756532Y-98949500D01*
X122756529Y-98949500D01*
X122553581Y-98989869D01*
X122553579Y-98989869D01*
X122362404Y-99069056D01*
X122190351Y-99184017D01*
X122044017Y-99330351D01*
X121929056Y-99502404D01*
X121849869Y-99693579D01*
X121849869Y-99693581D01*
X121809500Y-99896529D01*
X118830498Y-99896529D01*
X118797190Y-99729075D01*
X118790130Y-99693580D01*
X118710941Y-99502402D01*
X118595977Y-99330345D01*
X118449655Y-99184023D01*
X118449651Y-99184020D01*
X118448187Y-99183042D01*
X118277594Y-99069056D01*
X118086418Y-98989869D01*
X117883469Y-98949500D01*
X117883467Y-98949500D01*
X117883465Y-98949500D01*
X117676535Y-98949500D01*
X117676532Y-98949500D01*
X117676529Y-98949500D01*
X117473581Y-98989869D01*
X117473579Y-98989869D01*
X117282404Y-99069056D01*
X117110351Y-99184017D01*
X116964017Y-99330351D01*
X116849056Y-99502404D01*
X116769869Y-99693579D01*
X116769869Y-99693581D01*
X116729500Y-99896529D01*
X115747849Y-99896529D01*
X115751514Y-99876758D01*
X115795898Y-99834642D01*
X115838515Y-99825000D01*
X116325993Y-99825000D01*
X116325994Y-99825000D01*
X116325994Y-99824999D01*
X116325994Y-99824995D01*
X116312916Y-99742424D01*
X116312915Y-99742420D01*
X116259411Y-99577751D01*
X116180934Y-99423730D01*
X116180808Y-99423480D01*
X116180799Y-99423465D01*
X116081257Y-99286459D01*
X116079037Y-99283403D01*
X115956596Y-99160962D01*
X115954845Y-99159690D01*
X115816533Y-99059199D01*
X115816515Y-99059188D01*
X115816250Y-99059055D01*
X115662248Y-98980588D01*
X115628766Y-98969709D01*
X115497587Y-98927086D01*
X115497581Y-98927085D01*
X115497578Y-98927084D01*
X115415000Y-98914004D01*
X115415000Y-99401485D01*
X115396093Y-99459676D01*
X115346593Y-99495640D01*
X115312315Y-99498790D01*
X115312315Y-99500000D01*
X115167685Y-99500000D01*
X115167685Y-99497927D01*
X115116758Y-99488486D01*
X115074642Y-99444102D01*
X115065000Y-99401485D01*
X115065000Y-98914006D01*
X115065000Y-98914005D01*
X115064999Y-98914005D01*
X115064996Y-98914005D01*
X114982419Y-98927084D01*
X114982413Y-98927085D01*
X114982412Y-98927086D01*
X114913429Y-98949500D01*
X114817747Y-98980589D01*
X114663747Y-99059055D01*
X114663492Y-99059183D01*
X114663465Y-99059199D01*
X114523406Y-99160959D01*
X114400959Y-99283406D01*
X114299199Y-99423465D01*
X114299183Y-99423492D01*
X114299055Y-99423747D01*
X114220589Y-99577747D01*
X114167082Y-99742424D01*
X114154005Y-99824999D01*
X113785994Y-99824999D01*
X113772915Y-99742420D01*
X113719411Y-99577751D01*
X113640934Y-99423730D01*
X113640808Y-99423480D01*
X113640799Y-99423465D01*
X113541257Y-99286459D01*
X113539037Y-99283403D01*
X113416596Y-99160962D01*
X113414845Y-99159690D01*
X113276533Y-99059199D01*
X113276515Y-99059188D01*
X113276250Y-99059055D01*
X113122248Y-98980588D01*
X113088766Y-98969709D01*
X112957587Y-98927086D01*
X112957581Y-98927085D01*
X112957578Y-98927084D01*
X112875000Y-98914004D01*
X112875000Y-99401485D01*
X112856093Y-99459676D01*
X112806593Y-99495640D01*
X112772315Y-99498790D01*
X112772315Y-99500000D01*
X112627685Y-99500000D01*
X112627685Y-99497927D01*
X112576758Y-99488486D01*
X112534642Y-99444102D01*
X112525000Y-99401485D01*
X112525000Y-98914006D01*
X112525000Y-98914005D01*
X112524999Y-98914005D01*
X112524996Y-98914005D01*
X112442419Y-98927084D01*
X112442413Y-98927085D01*
X112442412Y-98927086D01*
X112373429Y-98949500D01*
X112277747Y-98980589D01*
X112123747Y-99059055D01*
X112123492Y-99059183D01*
X112123465Y-99059199D01*
X111983406Y-99160959D01*
X111860959Y-99283406D01*
X111759199Y-99423465D01*
X111759183Y-99423492D01*
X111759055Y-99423747D01*
X111680589Y-99577747D01*
X111627082Y-99742424D01*
X111614005Y-99824999D01*
X111196271Y-99824999D01*
X111170130Y-99693581D01*
X111169886Y-99692993D01*
X111169760Y-99692690D01*
X111090942Y-99502404D01*
X111090937Y-99502397D01*
X110975977Y-99330345D01*
X110829655Y-99184023D01*
X110829651Y-99184020D01*
X110828187Y-99183042D01*
X110657594Y-99069056D01*
X110466418Y-98989869D01*
X110263469Y-98949500D01*
X110263467Y-98949500D01*
X110263465Y-98949500D01*
X110056535Y-98949500D01*
X110056532Y-98949500D01*
X110056529Y-98949500D01*
X109853581Y-98989869D01*
X109853579Y-98989869D01*
X109662404Y-99069056D01*
X109569225Y-99131316D01*
X109541093Y-99144284D01*
X109533160Y-99146521D01*
X109472022Y-99144117D01*
X109423973Y-99106235D01*
X109407367Y-99047354D01*
X109407520Y-99043452D01*
X109416810Y-99005309D01*
X109419897Y-98998724D01*
X109419330Y-98988807D01*
X109419406Y-98988516D01*
X109450500Y-98872475D01*
X109450500Y-98727525D01*
X109412984Y-98587515D01*
X109412982Y-98587512D01*
X109412982Y-98587510D01*
X109412981Y-98587508D01*
X109412890Y-98587168D01*
X109411397Y-98584764D01*
X109341985Y-98464539D01*
X109340805Y-98462347D01*
X109340617Y-98462094D01*
X109340510Y-98461987D01*
X109340509Y-98461985D01*
X109238015Y-98359491D01*
X109238012Y-98359489D01*
X109238010Y-98359487D01*
X109169774Y-98320091D01*
X109148741Y-98296731D01*
X109082897Y-98279087D01*
X109082896Y-98279087D01*
X108972475Y-98249500D01*
X108972474Y-98249500D01*
X108972473Y-98249500D01*
X108901870Y-98249500D01*
X108871277Y-98244654D01*
X108848050Y-98237107D01*
X108808639Y-98212957D01*
X108490582Y-97894900D01*
X108472376Y-97869841D01*
X108461288Y-97848079D01*
X108450500Y-97803137D01*
X108450500Y-97727527D01*
X108450500Y-97727525D01*
X108412984Y-97587515D01*
X108412982Y-97587512D01*
X108412982Y-97587510D01*
X108412981Y-97587508D01*
X108412890Y-97587168D01*
X108411397Y-97584764D01*
X108341985Y-97464539D01*
X108340805Y-97462347D01*
X108340617Y-97462094D01*
X108340510Y-97461987D01*
X108340509Y-97461985D01*
X108238015Y-97359491D01*
X108238012Y-97359489D01*
X108238010Y-97359487D01*
X108238009Y-97359486D01*
X108169775Y-97320091D01*
X108148741Y-97296730D01*
X108048492Y-97269869D01*
X108034202Y-97266040D01*
X107972475Y-97249500D01*
X107972474Y-97249500D01*
X107827523Y-97249500D01*
X107765788Y-97266041D01*
X107765787Y-97266040D01*
X107687512Y-97287015D01*
X107687506Y-97287018D01*
X107561993Y-97359483D01*
X107459483Y-97461993D01*
X107387018Y-97587506D01*
X107387016Y-97587510D01*
X107375631Y-97629999D01*
X107375632Y-97630000D01*
X107349500Y-97727525D01*
X107349500Y-97872475D01*
X107379087Y-97982896D01*
X107383665Y-97999982D01*
X107387017Y-98012491D01*
X107387018Y-98012492D01*
X107459485Y-98138008D01*
X107459487Y-98138010D01*
X107459489Y-98138012D01*
X107459491Y-98138015D01*
X107561985Y-98240509D01*
X107561987Y-98240510D01*
X107562094Y-98240617D01*
X107562345Y-98240803D01*
X107564538Y-98241984D01*
X107577557Y-98249500D01*
X107684757Y-98311392D01*
X107687170Y-98312890D01*
X107687508Y-98312980D01*
X107687511Y-98312982D01*
X107687512Y-98312982D01*
X107687515Y-98312984D01*
X107827525Y-98350500D01*
X107898130Y-98350500D01*
X107928721Y-98355345D01*
X107941058Y-98359353D01*
X107951947Y-98362891D01*
X107991360Y-98387042D01*
X108309417Y-98705099D01*
X108327622Y-98730157D01*
X108338709Y-98751916D01*
X108349500Y-98796862D01*
X108349500Y-98872474D01*
X108387017Y-99012489D01*
X108387017Y-99012490D01*
X108387018Y-99012491D01*
X108389269Y-99016389D01*
X108400370Y-99045310D01*
X108401311Y-99049740D01*
X108402084Y-99053373D01*
X108395685Y-99114222D01*
X108354742Y-99159690D01*
X108294921Y-99172411D01*
X108292394Y-99172146D01*
X108247719Y-99156002D01*
X108117597Y-99069058D01*
X108117596Y-99069057D01*
X108117594Y-99069056D01*
X107926418Y-98989869D01*
X107723469Y-98949500D01*
X107723467Y-98949500D01*
X107723465Y-98949500D01*
X107516535Y-98949500D01*
X107516532Y-98949500D01*
X107516529Y-98949500D01*
X107313581Y-98989869D01*
X107313579Y-98989869D01*
X107122404Y-99069056D01*
X106950351Y-99184017D01*
X106804017Y-99330351D01*
X106689056Y-99502404D01*
X106609869Y-99693579D01*
X106609869Y-99693581D01*
X106569500Y-99896529D01*
X106130498Y-99896529D01*
X106097190Y-99729075D01*
X106090130Y-99693580D01*
X106010941Y-99502402D01*
X105895977Y-99330345D01*
X105749655Y-99184023D01*
X105749651Y-99184020D01*
X105748187Y-99183042D01*
X105577594Y-99069056D01*
X105386418Y-98989869D01*
X105183469Y-98949500D01*
X105183467Y-98949500D01*
X105183465Y-98949500D01*
X104976535Y-98949500D01*
X104976532Y-98949500D01*
X104976529Y-98949500D01*
X104773581Y-98989869D01*
X104773579Y-98989869D01*
X104582404Y-99069056D01*
X104410351Y-99184017D01*
X104264017Y-99330351D01*
X104149056Y-99502404D01*
X104069869Y-99693579D01*
X104069869Y-99693581D01*
X104029500Y-99896529D01*
X103590498Y-99896529D01*
X103557190Y-99729075D01*
X103550130Y-99693580D01*
X103470941Y-99502402D01*
X103355977Y-99330345D01*
X103209655Y-99184023D01*
X103209651Y-99184020D01*
X103208187Y-99183042D01*
X103037594Y-99069056D01*
X102846418Y-98989869D01*
X102643469Y-98949500D01*
X102643467Y-98949500D01*
X102643465Y-98949500D01*
X102436535Y-98949500D01*
X102436532Y-98949500D01*
X102436529Y-98949500D01*
X102233581Y-98989869D01*
X102233579Y-98989869D01*
X102042404Y-99069056D01*
X101870351Y-99184017D01*
X101724017Y-99330351D01*
X101609056Y-99502404D01*
X101529869Y-99693579D01*
X101529869Y-99693581D01*
X101489500Y-99896529D01*
X101050500Y-99896529D01*
X101050500Y-99175326D01*
X101050496Y-99175308D01*
X101049423Y-99169913D01*
X101049420Y-99169900D01*
X101042569Y-99135456D01*
X101038345Y-99114222D01*
X101035966Y-99102260D01*
X101007193Y-99059197D01*
X100996675Y-99043456D01*
X100980604Y-99019403D01*
X100980602Y-99019400D01*
X100980599Y-99019397D01*
X100980595Y-99019394D01*
X100980593Y-99019392D01*
X100897748Y-98964038D01*
X100897737Y-98964032D01*
X100897534Y-98963964D01*
X100895997Y-98963687D01*
X100824694Y-98949503D01*
X100824684Y-98949501D01*
X100824679Y-98949500D01*
X100824676Y-98949500D01*
X100824674Y-98949500D01*
X99175326Y-98949500D01*
X99175325Y-98949500D01*
X99175322Y-98949500D01*
X99175318Y-98949500D01*
X99175315Y-98949501D01*
X99139039Y-98956717D01*
X99102261Y-98964033D01*
X99102256Y-98964035D01*
X99019403Y-99019394D01*
X99019394Y-99019403D01*
X98964035Y-99102256D01*
X98964033Y-99102261D01*
X98949500Y-99175320D01*
X87690646Y-99175320D01*
X87571937Y-98969713D01*
X87571936Y-98969711D01*
X87539229Y-98927086D01*
X87424555Y-98777640D01*
X87424292Y-98777293D01*
X87424273Y-98777271D01*
X87424268Y-98777266D01*
X87424265Y-98777262D01*
X87252738Y-98605735D01*
X87252733Y-98605731D01*
X87252731Y-98605729D01*
X87060292Y-98458066D01*
X87060289Y-98458064D01*
X86850212Y-98336776D01*
X86850208Y-98336774D01*
X86850204Y-98336772D01*
X86850194Y-98336767D01*
X86631718Y-98246273D01*
X86627840Y-98244381D01*
X86626932Y-98244154D01*
X86625320Y-98243737D01*
X86538614Y-98220504D01*
X86394653Y-98181929D01*
X86392454Y-98181269D01*
X86387394Y-98180448D01*
X86385350Y-98180314D01*
X86151290Y-98149500D01*
X86151289Y-98149500D01*
X86151288Y-98149500D01*
X85908712Y-98149500D01*
X85908710Y-98149500D01*
X85908708Y-98149500D01*
X85674652Y-98180314D01*
X85674640Y-98180314D01*
X85668217Y-98181160D01*
X85668213Y-98181161D01*
X85445630Y-98240803D01*
X85433885Y-98243950D01*
X85209802Y-98336768D01*
X84999703Y-98458068D01*
X84807271Y-98605726D01*
X84635726Y-98777271D01*
X84488068Y-98969703D01*
X84488064Y-98969709D01*
X84390893Y-99138014D01*
X84390894Y-99138015D01*
X84369363Y-99175308D01*
X84369362Y-99175307D01*
X84366774Y-99179790D01*
X84366773Y-99179792D01*
X84274943Y-99401492D01*
X84273948Y-99403894D01*
X84273944Y-99403907D01*
X84227362Y-99577751D01*
X84211160Y-99638217D01*
X84210314Y-99644646D01*
X84210314Y-99644652D01*
X84199199Y-99729075D01*
X84190403Y-99758770D01*
X84188542Y-99762672D01*
X84146427Y-99807055D01*
X84086266Y-99818207D01*
X84031040Y-99791868D01*
X84003211Y-99744343D01*
X84003026Y-99743612D01*
X84000000Y-99719323D01*
X84000000Y-96389485D01*
X101850000Y-96389485D01*
X101850000Y-96570513D01*
X101878315Y-96749286D01*
X101922587Y-96885546D01*
X101934250Y-96921440D01*
X102016431Y-97082730D01*
X102016435Y-97082736D01*
X102016437Y-97082739D01*
X102016441Y-97082745D01*
X102072544Y-97159963D01*
X102072545Y-97159964D01*
X102453042Y-96779465D01*
X102507557Y-96751689D01*
X102567989Y-96761260D01*
X102594457Y-96783273D01*
X102595313Y-96782418D01*
X102599899Y-96787004D01*
X102599901Y-96787007D01*
X102692993Y-96880099D01*
X102692995Y-96880100D01*
X102697582Y-96884687D01*
X102696113Y-96886155D01*
X102725446Y-96928828D01*
X102723849Y-96989993D01*
X102700529Y-97026955D01*
X102320034Y-97407451D01*
X102320034Y-97407453D01*
X102395239Y-97462094D01*
X102397263Y-97463564D01*
X102397269Y-97463568D01*
X102558559Y-97545749D01*
X102730710Y-97601683D01*
X102775405Y-97608762D01*
X102909487Y-97630000D01*
X103090510Y-97630000D01*
X103090513Y-97630000D01*
X103197777Y-97613009D01*
X103269289Y-97601683D01*
X103441440Y-97545749D01*
X103602733Y-97463566D01*
X103679964Y-97407453D01*
X103499101Y-97226590D01*
X103299468Y-97026956D01*
X103271691Y-96972440D01*
X103281262Y-96912008D01*
X103303277Y-96885546D01*
X103302418Y-96884687D01*
X103307004Y-96880100D01*
X103307007Y-96880099D01*
X103400099Y-96787007D01*
X103400100Y-96787004D01*
X103404687Y-96782418D01*
X103406158Y-96783889D01*
X103448803Y-96754559D01*
X103509968Y-96756139D01*
X103546956Y-96779468D01*
X103927452Y-97159963D01*
X103927453Y-97159964D01*
X103983566Y-97082733D01*
X104065749Y-96921440D01*
X104121683Y-96749289D01*
X104150000Y-96570510D01*
X104150000Y-96389489D01*
X104149999Y-96389485D01*
X104121683Y-96210711D01*
X104111877Y-96180529D01*
X104065749Y-96038559D01*
X103983568Y-95877269D01*
X103983564Y-95877263D01*
X103983557Y-95877253D01*
X103927454Y-95800034D01*
X103927453Y-95800034D01*
X103927452Y-95800034D01*
X103927451Y-95800034D01*
X103546955Y-96180529D01*
X103492439Y-96208306D01*
X103432007Y-96198735D01*
X103405544Y-96176724D01*
X103404687Y-96177582D01*
X103400100Y-96172995D01*
X103400099Y-96172993D01*
X103307007Y-96079901D01*
X103307004Y-96079899D01*
X103302418Y-96075313D01*
X103303884Y-96073846D01*
X103274548Y-96031165D01*
X103276147Y-95970000D01*
X103299466Y-95933042D01*
X103679964Y-95552545D01*
X103679963Y-95552544D01*
X103602745Y-95496441D01*
X103602739Y-95496437D01*
X103602733Y-95496433D01*
X103602730Y-95496431D01*
X103441440Y-95414250D01*
X103441439Y-95414249D01*
X103441438Y-95414249D01*
X103269286Y-95358315D01*
X103090513Y-95330000D01*
X103090510Y-95330000D01*
X102909490Y-95330000D01*
X102909487Y-95330000D01*
X102730712Y-95358315D01*
X102558559Y-95414249D01*
X102397542Y-95496291D01*
X102397283Y-95496421D01*
X102397276Y-95496425D01*
X102320034Y-95552545D01*
X102700531Y-95933042D01*
X102728308Y-95987559D01*
X102718737Y-96047991D01*
X102696725Y-96074456D01*
X102697582Y-96075313D01*
X102692995Y-96079899D01*
X102692993Y-96079901D01*
X102599901Y-96172993D01*
X102599899Y-96172995D01*
X102595313Y-96177582D01*
X102593846Y-96176115D01*
X102551160Y-96205451D01*
X102489996Y-96203847D01*
X102453042Y-96180531D01*
X102072545Y-95800034D01*
X102016425Y-95877276D01*
X102016421Y-95877283D01*
X102016291Y-95877542D01*
X101934249Y-96038559D01*
X101878315Y-96210712D01*
X101850000Y-96389485D01*
X84000000Y-96389485D01*
X84000000Y-93853381D01*
X101899500Y-93853381D01*
X101899500Y-94026617D01*
X101926595Y-94197696D01*
X101926596Y-94197699D01*
X101926597Y-94197702D01*
X101926598Y-94197706D01*
X101979801Y-94361448D01*
X101980123Y-94362437D01*
X101982001Y-94366314D01*
X101982751Y-94367595D01*
X102018630Y-94438015D01*
X102018631Y-94438015D01*
X102058765Y-94516784D01*
X102058768Y-94516788D01*
X102160586Y-94656928D01*
X102283072Y-94779414D01*
X102423212Y-94881232D01*
X102572414Y-94957253D01*
X102573683Y-94957996D01*
X102576651Y-94959434D01*
X102578246Y-94960226D01*
X102581227Y-94961067D01*
X102742293Y-95013401D01*
X102742297Y-95013402D01*
X102742303Y-95013403D01*
X102913383Y-95040500D01*
X103086614Y-95040500D01*
X103086617Y-95040500D01*
X103225843Y-95018447D01*
X103257702Y-95013402D01*
X103257706Y-95013401D01*
X103416960Y-94961655D01*
X103418379Y-94961285D01*
X103421448Y-94960219D01*
X103423174Y-94959638D01*
X103425899Y-94958113D01*
X103576782Y-94881235D01*
X103576784Y-94881234D01*
X103576783Y-94881234D01*
X103576788Y-94881232D01*
X103716928Y-94779414D01*
X103839414Y-94656928D01*
X103941232Y-94516788D01*
X104018114Y-94365896D01*
X104019638Y-94363174D01*
X104020219Y-94361448D01*
X104021285Y-94358379D01*
X104021655Y-94356960D01*
X104073401Y-94197706D01*
X104073402Y-94197702D01*
X104073401Y-94197702D01*
X104073403Y-94197699D01*
X104073403Y-94197695D01*
X104100356Y-94027525D01*
X107049500Y-94027525D01*
X107049500Y-94033540D01*
X107049500Y-94172476D01*
X107056259Y-94197699D01*
X107056259Y-94197702D01*
X107056260Y-94197702D01*
X107087018Y-94312493D01*
X107159486Y-94438010D01*
X107209418Y-94487943D01*
X107227623Y-94513000D01*
X107238709Y-94534757D01*
X107249500Y-94579703D01*
X107249500Y-95015287D01*
X107244654Y-95045881D01*
X107237107Y-95069107D01*
X107212958Y-95108515D01*
X107159496Y-95161978D01*
X107159488Y-95161987D01*
X107087018Y-95287507D01*
X107087017Y-95287509D01*
X107087017Y-95287510D01*
X107049500Y-95427525D01*
X107049500Y-95572474D01*
X107082585Y-95695949D01*
X107087018Y-95712493D01*
X107159485Y-95838008D01*
X107159487Y-95838010D01*
X107159489Y-95838012D01*
X107159491Y-95838015D01*
X107261985Y-95940509D01*
X107261987Y-95940510D01*
X107262094Y-95940617D01*
X107262345Y-95940803D01*
X107264538Y-95941984D01*
X107313064Y-95970000D01*
X107384757Y-96011392D01*
X107387170Y-96012890D01*
X107387508Y-96012980D01*
X107387511Y-96012982D01*
X107387512Y-96012982D01*
X107387515Y-96012984D01*
X107527525Y-96050500D01*
X107527526Y-96050500D01*
X107672474Y-96050500D01*
X107672475Y-96050500D01*
X107812485Y-96012984D01*
X107812486Y-96012983D01*
X107812488Y-96012982D01*
X107812489Y-96012982D01*
X107931880Y-95944051D01*
X107934768Y-95942648D01*
X107935554Y-95942131D01*
X107940563Y-95939037D01*
X107941862Y-95938286D01*
X107947220Y-95931303D01*
X108040509Y-95838015D01*
X108040512Y-95838010D01*
X108112982Y-95712489D01*
X108112982Y-95712487D01*
X108112984Y-95712485D01*
X108150500Y-95572475D01*
X108150500Y-95427525D01*
X108112984Y-95287515D01*
X108112982Y-95287512D01*
X108112982Y-95287510D01*
X108112980Y-95287507D01*
X108112890Y-95287169D01*
X108111396Y-95284763D01*
X108040514Y-95161992D01*
X108040511Y-95161988D01*
X108040510Y-95161987D01*
X108040508Y-95161984D01*
X107990583Y-95112058D01*
X107972378Y-95087000D01*
X107961288Y-95065236D01*
X107950500Y-95020294D01*
X107950500Y-94584711D01*
X107955345Y-94554120D01*
X107962892Y-94530891D01*
X107987043Y-94491479D01*
X108040509Y-94438015D01*
X108040512Y-94438010D01*
X108112982Y-94312489D01*
X108112982Y-94312487D01*
X108112984Y-94312485D01*
X108150500Y-94172475D01*
X108150500Y-94027525D01*
X108112984Y-93887515D01*
X108112982Y-93887512D01*
X108112982Y-93887510D01*
X108112981Y-93887508D01*
X108112890Y-93887168D01*
X108111397Y-93884764D01*
X108041985Y-93764539D01*
X108040805Y-93762347D01*
X108040617Y-93762094D01*
X108040510Y-93761987D01*
X108040509Y-93761985D01*
X107938015Y-93659491D01*
X107938012Y-93659489D01*
X107938010Y-93659487D01*
X107869774Y-93620091D01*
X107848741Y-93596731D01*
X107782897Y-93579087D01*
X107782896Y-93579087D01*
X107672475Y-93549500D01*
X107672473Y-93549500D01*
X107527523Y-93549500D01*
X107465788Y-93566041D01*
X107465787Y-93566040D01*
X107387512Y-93587015D01*
X107387509Y-93587017D01*
X107261993Y-93659483D01*
X107159483Y-93761993D01*
X107087016Y-93887510D01*
X107086739Y-93888244D01*
X107086449Y-93889483D01*
X107086456Y-93889580D01*
X107086303Y-93890174D01*
X107049500Y-94027525D01*
X104100356Y-94027525D01*
X104100500Y-94026617D01*
X104100500Y-93853381D01*
X104073403Y-93682303D01*
X104073402Y-93682297D01*
X104065991Y-93659487D01*
X104021067Y-93521227D01*
X104020226Y-93518246D01*
X104019434Y-93516651D01*
X104017996Y-93513683D01*
X104017250Y-93512408D01*
X103941232Y-93363212D01*
X103839414Y-93223072D01*
X103716928Y-93100586D01*
X103716924Y-93100583D01*
X103716922Y-93100581D01*
X103583089Y-93003345D01*
X103582821Y-93003116D01*
X103576788Y-92998768D01*
X103576787Y-92998767D01*
X103576785Y-92998766D01*
X103576784Y-92998765D01*
X103576778Y-92998761D01*
X103576522Y-92998632D01*
X103427591Y-92922749D01*
X103426311Y-92922000D01*
X103422440Y-92920124D01*
X103422438Y-92920123D01*
X103346005Y-92895288D01*
X103257701Y-92866596D01*
X103257696Y-92866595D01*
X103086617Y-92839500D01*
X103086614Y-92839500D01*
X103086611Y-92839500D01*
X102913389Y-92839500D01*
X102913386Y-92839500D01*
X102913383Y-92839500D01*
X102742302Y-92866595D01*
X102742297Y-92866596D01*
X102577561Y-92920123D01*
X102573685Y-92922000D01*
X102572407Y-92922749D01*
X102423209Y-92998768D01*
X102283078Y-93100580D01*
X102160580Y-93223078D01*
X102058768Y-93363209D01*
X101982749Y-93512407D01*
X101982000Y-93513685D01*
X101980123Y-93517561D01*
X101926596Y-93682297D01*
X101926595Y-93682302D01*
X101899500Y-93853381D01*
X84000000Y-93853381D01*
X84000000Y-91027525D01*
X99649500Y-91027525D01*
X99649500Y-91172475D01*
X99663418Y-91224417D01*
X99663418Y-91224419D01*
X99663419Y-91224419D01*
X99687018Y-91312493D01*
X99759485Y-91438008D01*
X99759487Y-91438010D01*
X99759489Y-91438012D01*
X99759491Y-91438015D01*
X99861985Y-91540509D01*
X99861987Y-91540510D01*
X99862094Y-91540617D01*
X99862345Y-91540803D01*
X99864538Y-91541984D01*
X99966745Y-91600993D01*
X99984757Y-91611392D01*
X99987170Y-91612890D01*
X99987508Y-91612980D01*
X99987511Y-91612982D01*
X99987512Y-91612982D01*
X99987515Y-91612984D01*
X100127525Y-91650500D01*
X100127526Y-91650500D01*
X100272474Y-91650500D01*
X100272475Y-91650500D01*
X100412485Y-91612984D01*
X100412486Y-91612983D01*
X100412488Y-91612982D01*
X100412489Y-91612982D01*
X100531880Y-91544051D01*
X100534768Y-91542648D01*
X100535554Y-91542131D01*
X100540563Y-91539037D01*
X100541862Y-91538286D01*
X100547220Y-91531303D01*
X100640509Y-91438015D01*
X100640513Y-91438008D01*
X100712982Y-91312489D01*
X100712982Y-91312487D01*
X100712984Y-91312485D01*
X100750500Y-91172475D01*
X100750500Y-91101870D01*
X100755344Y-91071281D01*
X100762891Y-91048050D01*
X100787040Y-91008641D01*
X101005102Y-90790579D01*
X101030154Y-90772378D01*
X101051921Y-90761288D01*
X101096862Y-90750500D01*
X101172474Y-90750500D01*
X101172475Y-90750500D01*
X101312485Y-90712984D01*
X101312486Y-90712983D01*
X101312488Y-90712982D01*
X101312489Y-90712982D01*
X101431880Y-90644051D01*
X101434768Y-90642648D01*
X101435554Y-90642131D01*
X101440563Y-90639037D01*
X101441862Y-90638286D01*
X101447220Y-90631303D01*
X101540509Y-90538015D01*
X101540512Y-90538010D01*
X101547839Y-90525320D01*
X101899500Y-90525320D01*
X101899500Y-90525326D01*
X101899500Y-90525327D01*
X101899500Y-92274672D01*
X101899501Y-92274684D01*
X101914033Y-92347736D01*
X101914035Y-92347742D01*
X101969397Y-92430599D01*
X101969399Y-92430601D01*
X101969402Y-92430603D01*
X101969404Y-92430605D01*
X102052260Y-92485966D01*
X102107807Y-92497015D01*
X102107808Y-92497015D01*
X102119240Y-92499289D01*
X102121405Y-92499863D01*
X102123579Y-92500216D01*
X102125152Y-92500500D01*
X102125326Y-92500500D01*
X102125327Y-92500500D01*
X103874673Y-92500500D01*
X103874674Y-92500500D01*
X103947740Y-92485966D01*
X104030601Y-92430601D01*
X104085966Y-92347740D01*
X104093257Y-92311084D01*
X104100499Y-92274683D01*
X104100500Y-92274671D01*
X104100500Y-90525327D01*
X104100498Y-90525315D01*
X104090244Y-90473769D01*
X104085966Y-90452260D01*
X104059390Y-90412485D01*
X104030602Y-90369400D01*
X104030599Y-90369397D01*
X104030595Y-90369394D01*
X104030593Y-90369392D01*
X103947748Y-90314038D01*
X103947737Y-90314032D01*
X103947534Y-90313964D01*
X103945997Y-90313687D01*
X103874694Y-90299503D01*
X103874684Y-90299501D01*
X103874679Y-90299500D01*
X103874676Y-90299500D01*
X103874674Y-90299500D01*
X102125326Y-90299500D01*
X102125325Y-90299500D01*
X102125322Y-90299500D01*
X102125318Y-90299500D01*
X102125315Y-90299501D01*
X102089039Y-90306717D01*
X102052261Y-90314033D01*
X102052256Y-90314035D01*
X101969403Y-90369394D01*
X101969394Y-90369403D01*
X101914035Y-90452256D01*
X101914033Y-90452261D01*
X101899500Y-90525320D01*
X101547839Y-90525320D01*
X101579223Y-90470962D01*
X101612982Y-90412489D01*
X101612982Y-90412487D01*
X101612984Y-90412485D01*
X101650500Y-90272475D01*
X101650500Y-90127525D01*
X101612984Y-89987515D01*
X101612982Y-89987512D01*
X101612982Y-89987510D01*
X101612981Y-89987508D01*
X101612890Y-89987168D01*
X101611397Y-89984764D01*
X101541985Y-89864539D01*
X101540805Y-89862347D01*
X101540617Y-89862094D01*
X101540510Y-89861987D01*
X101540509Y-89861985D01*
X101438015Y-89759491D01*
X101438012Y-89759489D01*
X101438010Y-89759487D01*
X101369774Y-89720091D01*
X101348741Y-89696731D01*
X101282897Y-89679087D01*
X101282896Y-89679087D01*
X101172475Y-89649500D01*
X101172473Y-89649500D01*
X101027523Y-89649500D01*
X100965788Y-89666041D01*
X100965787Y-89666040D01*
X100887512Y-89687015D01*
X100887506Y-89687018D01*
X100761993Y-89759483D01*
X100659483Y-89861993D01*
X100587018Y-89987505D01*
X100549500Y-90127526D01*
X100549500Y-90198129D01*
X100544654Y-90228722D01*
X100537107Y-90251949D01*
X100512957Y-90291360D01*
X100294900Y-90509417D01*
X100269843Y-90527621D01*
X100248085Y-90538708D01*
X100203138Y-90549500D01*
X100127523Y-90549500D01*
X100065788Y-90566041D01*
X100065787Y-90566040D01*
X99987512Y-90587015D01*
X99987506Y-90587018D01*
X99861993Y-90659483D01*
X99759483Y-90761993D01*
X99687018Y-90887505D01*
X99664615Y-90971116D01*
X99649500Y-91027525D01*
X84000000Y-91027525D01*
X84000000Y-89500001D01*
X84000000Y-89500000D01*
X83999999Y-89500000D01*
X72675180Y-89500000D01*
X72644587Y-89495154D01*
X72631901Y-89491032D01*
X72582401Y-89455068D01*
X72582394Y-89455058D01*
X72579400Y-89450936D01*
X72560500Y-89392756D01*
X72560500Y-88827525D01*
X108049500Y-88827525D01*
X108049500Y-88972474D01*
X108076295Y-89072474D01*
X108087018Y-89112493D01*
X108159485Y-89238008D01*
X108159487Y-89238010D01*
X108159489Y-89238012D01*
X108159491Y-89238015D01*
X108261985Y-89340509D01*
X108261987Y-89340510D01*
X108262094Y-89340617D01*
X108262345Y-89340803D01*
X108264538Y-89341984D01*
X108366758Y-89401000D01*
X108384757Y-89411392D01*
X108387170Y-89412890D01*
X108387508Y-89412980D01*
X108387511Y-89412982D01*
X108387512Y-89412982D01*
X108387515Y-89412984D01*
X108527525Y-89450500D01*
X108527526Y-89450500D01*
X108672474Y-89450500D01*
X108672475Y-89450500D01*
X108812485Y-89412984D01*
X108886451Y-89370278D01*
X108910324Y-89360390D01*
X108925682Y-89356275D01*
X108934653Y-89353872D01*
X108960271Y-89350500D01*
X109515288Y-89350500D01*
X109545879Y-89355345D01*
X109558216Y-89359353D01*
X109569105Y-89362891D01*
X109608517Y-89387042D01*
X109652775Y-89431299D01*
X109661984Y-89440508D01*
X109661989Y-89440512D01*
X109784779Y-89511404D01*
X109787171Y-89512891D01*
X109787512Y-89512982D01*
X109787515Y-89512984D01*
X109927525Y-89550500D01*
X109927526Y-89550500D01*
X110072474Y-89550500D01*
X110072475Y-89550500D01*
X110212485Y-89512984D01*
X110212486Y-89512983D01*
X110212488Y-89512982D01*
X110212489Y-89512982D01*
X110331880Y-89444051D01*
X110334768Y-89442648D01*
X110335554Y-89442131D01*
X110340563Y-89439037D01*
X110341862Y-89438286D01*
X110347220Y-89431303D01*
X110440509Y-89338015D01*
X110440512Y-89338010D01*
X110512982Y-89212489D01*
X110512982Y-89212487D01*
X110512984Y-89212485D01*
X110550500Y-89072475D01*
X110550500Y-88927525D01*
X110512984Y-88787515D01*
X110512982Y-88787512D01*
X110512982Y-88787510D01*
X110512981Y-88787508D01*
X110512890Y-88787168D01*
X110511397Y-88784764D01*
X110441985Y-88664539D01*
X110440805Y-88662347D01*
X110440617Y-88662094D01*
X110440510Y-88661987D01*
X110440509Y-88661985D01*
X110338015Y-88559491D01*
X110338012Y-88559489D01*
X110338010Y-88559487D01*
X110338009Y-88559486D01*
X110269775Y-88520091D01*
X110248741Y-88496730D01*
X110109762Y-88459491D01*
X110109761Y-88459491D01*
X110072475Y-88449500D01*
X110072473Y-88449500D01*
X109927526Y-88449500D01*
X109927525Y-88449500D01*
X109890239Y-88459491D01*
X109787510Y-88487017D01*
X109787509Y-88487017D01*
X109787507Y-88487018D01*
X109661987Y-88559488D01*
X109661978Y-88559496D01*
X109612055Y-88609418D01*
X109587000Y-88627621D01*
X109565242Y-88638708D01*
X109520295Y-88649500D01*
X109163873Y-88649500D01*
X109133279Y-88644654D01*
X109115229Y-88638789D01*
X109072247Y-88610874D01*
X109069410Y-88607723D01*
X109057258Y-88590995D01*
X109041149Y-88563094D01*
X109041141Y-88563058D01*
X109041131Y-88563064D01*
X109040509Y-88561985D01*
X108938015Y-88459491D01*
X108938012Y-88459489D01*
X108938010Y-88459487D01*
X108869774Y-88420091D01*
X108848741Y-88396731D01*
X108782897Y-88379087D01*
X108782896Y-88379087D01*
X108672475Y-88349500D01*
X108672473Y-88349500D01*
X108527523Y-88349500D01*
X108465788Y-88366041D01*
X108465787Y-88366040D01*
X108387512Y-88387015D01*
X108387506Y-88387018D01*
X108261993Y-88459483D01*
X108159483Y-88561993D01*
X108087018Y-88687505D01*
X108087017Y-88687510D01*
X108049500Y-88827525D01*
X72560500Y-88827525D01*
X72560500Y-86981939D01*
X74200000Y-86981939D01*
X74200000Y-87218059D01*
X74236932Y-87451246D01*
X74236933Y-87451251D01*
X74265123Y-87538008D01*
X74305895Y-87663493D01*
X74309892Y-87675792D01*
X74311769Y-87679666D01*
X74312518Y-87680946D01*
X74417082Y-87886167D01*
X74417086Y-87886173D01*
X74521973Y-88030536D01*
X74521974Y-88030537D01*
X75081988Y-87470521D01*
X75136505Y-87442745D01*
X75196937Y-87452316D01*
X75221992Y-87470519D01*
X75329476Y-87578003D01*
X75357252Y-87632518D01*
X75347681Y-87692950D01*
X75329475Y-87718008D01*
X74769461Y-88278023D01*
X74769460Y-88278024D01*
X74769461Y-88278025D01*
X74913814Y-88382905D01*
X74913821Y-88382910D01*
X74913823Y-88382911D01*
X74913829Y-88382915D01*
X75119058Y-88487483D01*
X75120334Y-88488230D01*
X75124184Y-88490095D01*
X75124203Y-88490105D01*
X75124206Y-88490107D01*
X75348743Y-88563064D01*
X75348747Y-88563065D01*
X75348753Y-88563066D01*
X75581941Y-88600000D01*
X75818056Y-88600000D01*
X75818059Y-88600000D01*
X76051037Y-88563099D01*
X76051252Y-88563065D01*
X76051256Y-88563064D01*
X76275793Y-88490107D01*
X76275796Y-88490105D01*
X76275833Y-88490086D01*
X76279664Y-88488231D01*
X76280933Y-88487487D01*
X76486170Y-88382915D01*
X76486176Y-88382911D01*
X76630537Y-88278025D01*
X76630537Y-88278024D01*
X76070523Y-87718010D01*
X76042746Y-87663493D01*
X76052317Y-87603061D01*
X76070517Y-87578009D01*
X76178006Y-87470520D01*
X76232519Y-87442746D01*
X76292951Y-87452317D01*
X76318009Y-87470522D01*
X76878024Y-88030537D01*
X76878025Y-88030537D01*
X76982911Y-87886176D01*
X76982915Y-87886170D01*
X77063749Y-87727525D01*
X102449500Y-87727525D01*
X102449500Y-87872474D01*
X102453174Y-87886185D01*
X102487018Y-88012493D01*
X102559485Y-88138008D01*
X102559487Y-88138010D01*
X102559489Y-88138012D01*
X102559491Y-88138015D01*
X102661985Y-88240509D01*
X102661987Y-88240510D01*
X102662094Y-88240617D01*
X102662345Y-88240803D01*
X102664538Y-88241984D01*
X102777107Y-88306975D01*
X102784757Y-88311392D01*
X102787170Y-88312890D01*
X102787508Y-88312980D01*
X102787511Y-88312982D01*
X102787512Y-88312982D01*
X102787515Y-88312984D01*
X102927525Y-88350500D01*
X102927526Y-88350500D01*
X103072474Y-88350500D01*
X103072475Y-88350500D01*
X103212485Y-88312984D01*
X103212486Y-88312983D01*
X103212488Y-88312982D01*
X103212489Y-88312982D01*
X103331880Y-88244051D01*
X103334768Y-88242648D01*
X103335554Y-88242131D01*
X103340563Y-88239037D01*
X103341862Y-88238286D01*
X103347220Y-88231303D01*
X103440509Y-88138015D01*
X103440513Y-88138008D01*
X103512982Y-88012489D01*
X103512982Y-88012487D01*
X103512984Y-88012485D01*
X103550500Y-87872475D01*
X103550500Y-87727525D01*
X103515272Y-87596056D01*
X103512207Y-87578218D01*
X103510805Y-87560381D01*
X103525094Y-87500893D01*
X103571620Y-87461163D01*
X103579189Y-87458028D01*
X103617058Y-87450500D01*
X103672474Y-87450500D01*
X103672475Y-87450500D01*
X103812485Y-87412984D01*
X103812486Y-87412983D01*
X103812488Y-87412982D01*
X103812489Y-87412982D01*
X103931880Y-87344051D01*
X103934768Y-87342648D01*
X103935554Y-87342131D01*
X103940563Y-87339037D01*
X103941862Y-87338286D01*
X103947220Y-87331303D01*
X104040509Y-87238015D01*
X104040512Y-87238010D01*
X104112982Y-87112489D01*
X104112982Y-87112487D01*
X104112984Y-87112485D01*
X104150500Y-86972475D01*
X104150500Y-86827525D01*
X104112984Y-86687515D01*
X104112982Y-86687512D01*
X104112982Y-86687510D01*
X104112981Y-86687508D01*
X104112890Y-86687168D01*
X104111397Y-86684764D01*
X104041985Y-86564539D01*
X104040805Y-86562347D01*
X104040617Y-86562094D01*
X104040510Y-86561987D01*
X104040509Y-86561985D01*
X103938015Y-86459491D01*
X103938012Y-86459489D01*
X103938010Y-86459487D01*
X103938009Y-86459486D01*
X103869775Y-86420091D01*
X103848741Y-86396730D01*
X103709762Y-86359491D01*
X103709761Y-86359491D01*
X103672475Y-86349500D01*
X103672473Y-86349500D01*
X103527526Y-86349500D01*
X103527525Y-86349500D01*
X103490269Y-86359483D01*
X103490239Y-86359491D01*
X103387505Y-86387018D01*
X103261993Y-86459483D01*
X103159483Y-86561993D01*
X103087018Y-86687505D01*
X103070608Y-86748748D01*
X103052141Y-86817671D01*
X103049500Y-86827526D01*
X103049500Y-86898129D01*
X103044654Y-86928723D01*
X103037107Y-86951949D01*
X103012957Y-86991358D01*
X102719532Y-87284784D01*
X102719530Y-87284787D01*
X102703385Y-87312751D01*
X102687657Y-87333249D01*
X102670408Y-87350500D01*
X102645885Y-87375024D01*
X102639973Y-87381502D01*
X102559487Y-87461988D01*
X102559483Y-87461993D01*
X102487018Y-87587505D01*
X102473210Y-87639037D01*
X102449500Y-87727525D01*
X77063749Y-87727525D01*
X77089956Y-87676091D01*
X77089957Y-87676089D01*
X77090102Y-87675805D01*
X77090107Y-87675793D01*
X77163064Y-87451256D01*
X77163065Y-87451252D01*
X77171980Y-87394965D01*
X77200000Y-87218059D01*
X77200000Y-86981940D01*
X77163065Y-86748748D01*
X77163061Y-86748732D01*
X77162949Y-86748391D01*
X77162719Y-86747683D01*
X77156170Y-86727526D01*
X97649500Y-86727526D01*
X97649500Y-86872477D01*
X97660575Y-86913808D01*
X97660575Y-86913809D01*
X97660576Y-86913809D01*
X97660576Y-86913810D01*
X97687017Y-87012489D01*
X97687018Y-87012491D01*
X97687019Y-87012494D01*
X97759485Y-87138008D01*
X97759487Y-87138010D01*
X97759489Y-87138012D01*
X97759491Y-87138015D01*
X97861985Y-87240509D01*
X97861987Y-87240510D01*
X97862094Y-87240617D01*
X97862345Y-87240803D01*
X97864538Y-87241984D01*
X97973911Y-87305130D01*
X97984757Y-87311392D01*
X97987170Y-87312890D01*
X97987508Y-87312980D01*
X97987511Y-87312982D01*
X97987512Y-87312982D01*
X97987515Y-87312984D01*
X98127525Y-87350500D01*
X98127526Y-87350500D01*
X98272474Y-87350500D01*
X98272475Y-87350500D01*
X98412485Y-87312984D01*
X98412486Y-87312983D01*
X98412488Y-87312982D01*
X98412489Y-87312982D01*
X98531880Y-87244051D01*
X98534768Y-87242648D01*
X98535554Y-87242131D01*
X98540563Y-87239037D01*
X98541862Y-87238286D01*
X98547222Y-87231301D01*
X98568522Y-87210002D01*
X98587944Y-87190580D01*
X98612995Y-87172379D01*
X98634764Y-87161288D01*
X98679705Y-87150500D01*
X99115288Y-87150500D01*
X99145879Y-87155345D01*
X99158216Y-87159353D01*
X99169105Y-87162891D01*
X99208517Y-87187042D01*
X99237817Y-87216341D01*
X99261984Y-87240508D01*
X99261989Y-87240512D01*
X99384779Y-87311404D01*
X99387171Y-87312891D01*
X99387512Y-87312982D01*
X99387515Y-87312984D01*
X99527525Y-87350500D01*
X99527526Y-87350500D01*
X99672474Y-87350500D01*
X99672475Y-87350500D01*
X99812485Y-87312984D01*
X99812486Y-87312983D01*
X99812488Y-87312982D01*
X99812489Y-87312982D01*
X99931880Y-87244051D01*
X99934768Y-87242648D01*
X99935554Y-87242131D01*
X99940563Y-87239037D01*
X99941862Y-87238286D01*
X99947220Y-87231303D01*
X100040509Y-87138015D01*
X100040512Y-87138010D01*
X100112982Y-87012489D01*
X100112982Y-87012487D01*
X100112984Y-87012485D01*
X100150500Y-86872475D01*
X100150500Y-86727525D01*
X100112984Y-86587515D01*
X100112982Y-86587512D01*
X100112982Y-86587510D01*
X100112981Y-86587508D01*
X100112890Y-86587168D01*
X100111397Y-86584764D01*
X100041985Y-86464539D01*
X100040805Y-86462347D01*
X100040617Y-86462094D01*
X100040510Y-86461987D01*
X100040509Y-86461985D01*
X99938015Y-86359491D01*
X99938012Y-86359489D01*
X99938010Y-86359487D01*
X99846708Y-86306773D01*
X99846705Y-86306773D01*
X99846504Y-86306657D01*
X99846314Y-86306545D01*
X99835434Y-86300263D01*
X99835418Y-86300256D01*
X99812486Y-86287016D01*
X99812483Y-86287015D01*
X99812484Y-86287015D01*
X99719065Y-86261984D01*
X99719064Y-86261983D01*
X99684958Y-86252844D01*
X99672475Y-86249500D01*
X99672474Y-86249500D01*
X99527526Y-86249500D01*
X99527525Y-86249500D01*
X99519397Y-86251677D01*
X99480934Y-86261983D01*
X99480935Y-86261984D01*
X99387506Y-86287018D01*
X99261987Y-86359488D01*
X99261978Y-86359496D01*
X99212055Y-86409418D01*
X99187000Y-86427621D01*
X99165242Y-86438708D01*
X99120295Y-86449500D01*
X98684712Y-86449500D01*
X98654119Y-86444654D01*
X98630892Y-86437107D01*
X98591482Y-86412957D01*
X98538019Y-86359495D01*
X98538015Y-86359491D01*
X98538010Y-86359487D01*
X98469774Y-86320091D01*
X98448741Y-86296731D01*
X98382897Y-86279087D01*
X98382896Y-86279087D01*
X98272475Y-86249500D01*
X98272473Y-86249500D01*
X98127526Y-86249500D01*
X98127525Y-86249500D01*
X98119397Y-86251677D01*
X98080934Y-86261983D01*
X98080935Y-86261984D01*
X97987510Y-86287017D01*
X97987508Y-86287017D01*
X97987504Y-86287019D01*
X97861993Y-86359483D01*
X97759483Y-86461993D01*
X97687018Y-86587506D01*
X97687016Y-86587510D01*
X97675472Y-86630592D01*
X97675473Y-86630593D01*
X97660224Y-86687505D01*
X97649500Y-86727526D01*
X77156170Y-86727526D01*
X77090107Y-86524206D01*
X77090105Y-86524203D01*
X77090095Y-86524184D01*
X77088230Y-86520334D01*
X77087480Y-86519052D01*
X77084136Y-86512489D01*
X76982915Y-86313829D01*
X76982911Y-86313823D01*
X76982910Y-86313821D01*
X76982905Y-86313814D01*
X76920212Y-86227525D01*
X106449500Y-86227525D01*
X106449500Y-86372475D01*
X106454945Y-86392795D01*
X106476294Y-86472473D01*
X106487017Y-86512490D01*
X106487018Y-86512492D01*
X106559485Y-86638008D01*
X106559487Y-86638010D01*
X106559489Y-86638012D01*
X106559491Y-86638015D01*
X106661985Y-86740509D01*
X106661987Y-86740510D01*
X106662094Y-86740617D01*
X106662345Y-86740803D01*
X106664538Y-86741984D01*
X106694862Y-86759491D01*
X106784757Y-86811392D01*
X106787170Y-86812890D01*
X106787508Y-86812980D01*
X106787511Y-86812982D01*
X106787512Y-86812982D01*
X106787515Y-86812984D01*
X106927525Y-86850500D01*
X106998130Y-86850500D01*
X107028721Y-86855345D01*
X107041058Y-86859353D01*
X107051947Y-86862891D01*
X107091360Y-86887042D01*
X107309417Y-87105099D01*
X107327622Y-87130157D01*
X107331626Y-87138015D01*
X107338608Y-87151719D01*
X107338709Y-87151916D01*
X107349500Y-87196862D01*
X107349500Y-87272475D01*
X107351505Y-87279957D01*
X107363316Y-87324037D01*
X107363315Y-87324037D01*
X107387016Y-87412488D01*
X107387018Y-87412492D01*
X107459485Y-87538008D01*
X107459487Y-87538010D01*
X107459489Y-87538012D01*
X107459491Y-87538015D01*
X107561985Y-87640509D01*
X107561987Y-87640510D01*
X107562094Y-87640617D01*
X107562345Y-87640803D01*
X107564538Y-87641984D01*
X107677107Y-87706975D01*
X107684757Y-87711392D01*
X107687170Y-87712890D01*
X107687508Y-87712980D01*
X107687511Y-87712982D01*
X107687512Y-87712982D01*
X107687515Y-87712984D01*
X107827525Y-87750500D01*
X107827526Y-87750500D01*
X107972474Y-87750500D01*
X107972475Y-87750500D01*
X108112485Y-87712984D01*
X108112486Y-87712983D01*
X108112488Y-87712982D01*
X108112489Y-87712982D01*
X108231880Y-87644051D01*
X108234768Y-87642648D01*
X108235554Y-87642131D01*
X108240563Y-87639037D01*
X108241862Y-87638286D01*
X108247220Y-87631303D01*
X108340509Y-87538015D01*
X108340512Y-87538010D01*
X108412982Y-87412489D01*
X108412982Y-87412487D01*
X108412984Y-87412485D01*
X108450500Y-87272475D01*
X108450500Y-87127525D01*
X108412984Y-86987515D01*
X108412982Y-86987512D01*
X108412982Y-86987510D01*
X108412981Y-86987508D01*
X108412890Y-86987168D01*
X108411397Y-86984764D01*
X108341985Y-86864539D01*
X108340805Y-86862347D01*
X108340617Y-86862094D01*
X108340510Y-86861987D01*
X108340509Y-86861985D01*
X108238015Y-86759491D01*
X108238012Y-86759489D01*
X108238010Y-86759487D01*
X108238009Y-86759486D01*
X108169775Y-86720091D01*
X108148741Y-86696730D01*
X108058214Y-86672474D01*
X108002282Y-86657487D01*
X107972475Y-86649500D01*
X107972474Y-86649500D01*
X107901870Y-86649500D01*
X107871277Y-86644654D01*
X107848050Y-86637107D01*
X107808639Y-86612957D01*
X107590582Y-86394900D01*
X107572376Y-86369841D01*
X107561288Y-86348079D01*
X107550500Y-86303137D01*
X107550500Y-86227524D01*
X107545406Y-86208515D01*
X107539779Y-86187515D01*
X107539779Y-86187513D01*
X107521767Y-86120294D01*
X107512984Y-86087515D01*
X107512982Y-86087512D01*
X107512982Y-86087510D01*
X107512981Y-86087509D01*
X107512891Y-86087171D01*
X107511397Y-86084764D01*
X107441985Y-85964539D01*
X107440805Y-85962347D01*
X107440617Y-85962094D01*
X107440510Y-85961987D01*
X107440509Y-85961985D01*
X107338015Y-85859491D01*
X107338012Y-85859489D01*
X107338010Y-85859487D01*
X107269774Y-85820091D01*
X107248741Y-85796731D01*
X107182897Y-85779087D01*
X107182896Y-85779087D01*
X107072475Y-85749500D01*
X107072473Y-85749500D01*
X106927523Y-85749500D01*
X106865788Y-85766041D01*
X106865787Y-85766040D01*
X106787512Y-85787015D01*
X106787506Y-85787018D01*
X106661993Y-85859483D01*
X106559483Y-85961993D01*
X106487018Y-86087506D01*
X106487016Y-86087510D01*
X106471222Y-86146453D01*
X106471223Y-86146454D01*
X106449500Y-86227525D01*
X76920212Y-86227525D01*
X76878025Y-86169461D01*
X76878024Y-86169461D01*
X76878023Y-86169461D01*
X76318008Y-86729475D01*
X76263492Y-86757252D01*
X76203060Y-86747681D01*
X76178004Y-86729477D01*
X76070520Y-86621993D01*
X76042745Y-86567479D01*
X76052316Y-86507047D01*
X76070522Y-86481988D01*
X76303010Y-86249500D01*
X76630537Y-85921974D01*
X76630536Y-85921973D01*
X76486173Y-85817086D01*
X76486167Y-85817082D01*
X76280946Y-85712518D01*
X76279666Y-85711769D01*
X76275795Y-85709893D01*
X76275793Y-85709892D01*
X76104146Y-85654120D01*
X76051251Y-85636933D01*
X76051246Y-85636932D01*
X75818059Y-85600000D01*
X75818056Y-85600000D01*
X75581944Y-85600000D01*
X75581941Y-85600000D01*
X75348752Y-85636932D01*
X75348747Y-85636933D01*
X75124206Y-85709892D01*
X75120330Y-85711769D01*
X75119052Y-85712518D01*
X74914102Y-85816944D01*
X74913843Y-85817073D01*
X74913819Y-85817088D01*
X74769461Y-85921972D01*
X74769461Y-85921973D01*
X75075014Y-86227526D01*
X75329477Y-86481988D01*
X75357254Y-86536505D01*
X75347683Y-86596937D01*
X75329477Y-86621996D01*
X75221996Y-86729477D01*
X75167479Y-86757254D01*
X75107047Y-86747683D01*
X75081988Y-86729477D01*
X74834499Y-86481988D01*
X74521973Y-86169461D01*
X74521972Y-86169461D01*
X74417088Y-86313819D01*
X74417073Y-86313843D01*
X74416944Y-86314102D01*
X74312518Y-86519052D01*
X74311769Y-86520330D01*
X74309892Y-86524206D01*
X74236933Y-86748747D01*
X74236932Y-86748752D01*
X74200000Y-86981939D01*
X72560500Y-86981939D01*
X72560500Y-85127525D01*
X109749500Y-85127525D01*
X109749500Y-85272474D01*
X109782585Y-85395949D01*
X109787018Y-85412493D01*
X109859486Y-85538010D01*
X109909418Y-85587943D01*
X109927623Y-85613000D01*
X109938709Y-85634757D01*
X109949500Y-85679703D01*
X109949500Y-86115287D01*
X109944654Y-86145881D01*
X109937107Y-86169107D01*
X109912958Y-86208515D01*
X109859496Y-86261978D01*
X109859491Y-86261984D01*
X109859488Y-86261987D01*
X109787018Y-86387507D01*
X109787017Y-86387509D01*
X109787017Y-86387510D01*
X109775473Y-86430593D01*
X109764251Y-86472475D01*
X109749500Y-86527525D01*
X109749500Y-86672477D01*
X109753395Y-86687011D01*
X109753395Y-86687017D01*
X109753397Y-86687017D01*
X109787018Y-86812493D01*
X109859485Y-86938008D01*
X109859487Y-86938010D01*
X109859489Y-86938012D01*
X109859491Y-86938015D01*
X109961985Y-87040509D01*
X109961987Y-87040510D01*
X109962094Y-87040617D01*
X109962345Y-87040803D01*
X109964538Y-87041984D01*
X110073857Y-87105099D01*
X110084757Y-87111392D01*
X110087170Y-87112890D01*
X110087508Y-87112980D01*
X110087511Y-87112982D01*
X110087512Y-87112982D01*
X110087515Y-87112984D01*
X110227525Y-87150500D01*
X110227526Y-87150500D01*
X110372474Y-87150500D01*
X110372475Y-87150500D01*
X110512485Y-87112984D01*
X110512486Y-87112983D01*
X110512488Y-87112982D01*
X110512489Y-87112982D01*
X110631880Y-87044051D01*
X110634768Y-87042648D01*
X110635554Y-87042131D01*
X110640563Y-87039037D01*
X110641862Y-87038286D01*
X110647220Y-87031303D01*
X110740509Y-86938015D01*
X110791036Y-86850500D01*
X110812982Y-86812489D01*
X110812982Y-86812487D01*
X110812984Y-86812485D01*
X110850500Y-86672475D01*
X110850500Y-86527525D01*
X110812984Y-86387515D01*
X110812982Y-86387512D01*
X110812982Y-86387510D01*
X110812980Y-86387507D01*
X110812890Y-86387169D01*
X110811396Y-86384763D01*
X110740514Y-86261992D01*
X110740508Y-86261984D01*
X110740503Y-86261979D01*
X110690583Y-86212058D01*
X110672378Y-86187000D01*
X110661288Y-86165236D01*
X110650500Y-86120294D01*
X110650500Y-85684711D01*
X110655345Y-85654120D01*
X110662892Y-85630891D01*
X110687043Y-85591479D01*
X110740509Y-85538015D01*
X110740510Y-85538012D01*
X110740512Y-85538011D01*
X110812982Y-85412489D01*
X110812982Y-85412487D01*
X110812984Y-85412485D01*
X110850500Y-85272475D01*
X110850500Y-85127525D01*
X110812984Y-84987515D01*
X110812982Y-84987512D01*
X110812982Y-84987510D01*
X110812981Y-84987508D01*
X110812890Y-84987168D01*
X110811397Y-84984764D01*
X110741985Y-84864539D01*
X110740805Y-84862347D01*
X110740617Y-84862094D01*
X110740510Y-84861987D01*
X110740509Y-84861985D01*
X110638015Y-84759491D01*
X110638012Y-84759489D01*
X110638010Y-84759487D01*
X110569774Y-84720091D01*
X110548741Y-84696731D01*
X110482897Y-84679087D01*
X110482896Y-84679087D01*
X110372475Y-84649500D01*
X110372473Y-84649500D01*
X110227523Y-84649500D01*
X110165788Y-84666041D01*
X110165787Y-84666040D01*
X110087512Y-84687015D01*
X110087506Y-84687018D01*
X109961993Y-84759483D01*
X109859483Y-84861993D01*
X109787018Y-84987505D01*
X109785332Y-84993797D01*
X109749500Y-85127525D01*
X72560500Y-85127525D01*
X72560500Y-84597865D01*
X74249499Y-84597865D01*
X74255908Y-84657476D01*
X74255908Y-84657477D01*
X74255912Y-84657493D01*
X74306200Y-84792326D01*
X74358347Y-84861985D01*
X74392520Y-84907634D01*
X74392700Y-84907809D01*
X74394605Y-84909156D01*
X74454528Y-84954014D01*
X74507669Y-84993796D01*
X74507670Y-84993796D01*
X74507671Y-84993797D01*
X74641545Y-85043728D01*
X74642986Y-85044285D01*
X74644248Y-85044466D01*
X74647768Y-85044655D01*
X74702128Y-85050500D01*
X74702131Y-85050500D01*
X76697869Y-85050500D01*
X76697872Y-85050500D01*
X76757482Y-85044091D01*
X76799879Y-85028278D01*
X76890683Y-84994410D01*
X76894007Y-84993237D01*
X76897581Y-84992047D01*
X76905166Y-84984186D01*
X77007546Y-84907546D01*
X77093796Y-84792330D01*
X77093798Y-84792326D01*
X77144089Y-84657487D01*
X77144088Y-84657487D01*
X77144091Y-84657482D01*
X77150500Y-84597872D01*
X77150500Y-82602128D01*
X77144091Y-82542518D01*
X77144089Y-82542512D01*
X77098582Y-82420500D01*
X77093798Y-82407672D01*
X77065153Y-82369407D01*
X77009156Y-82294605D01*
X77007810Y-82292701D01*
X77007636Y-82292521D01*
X76963513Y-82259491D01*
X76892326Y-82206200D01*
X76762427Y-82157752D01*
X76758938Y-82156234D01*
X76758024Y-82155996D01*
X76755926Y-82155540D01*
X76752205Y-82155341D01*
X76735311Y-82153524D01*
X76726248Y-82152550D01*
X76726247Y-82152549D01*
X76697875Y-82149500D01*
X76697872Y-82149500D01*
X74702128Y-82149500D01*
X74699751Y-82149755D01*
X74677637Y-82152132D01*
X74677637Y-82152133D01*
X74668858Y-82153076D01*
X74642520Y-82155908D01*
X74642514Y-82155909D01*
X74642512Y-82155910D01*
X74642509Y-82155910D01*
X74642505Y-82155912D01*
X74507672Y-82206200D01*
X74392460Y-82292448D01*
X74392448Y-82292460D01*
X74306200Y-82407672D01*
X74255912Y-82542505D01*
X74255910Y-82542509D01*
X74255910Y-82542512D01*
X74255908Y-82542523D01*
X74249501Y-82602128D01*
X74249500Y-82602133D01*
X74249500Y-84597865D01*
X74249499Y-84597865D01*
X72560500Y-84597865D01*
X72560500Y-81727525D01*
X97149500Y-81727525D01*
X97149500Y-81733540D01*
X97149500Y-81872477D01*
X97164185Y-81927280D01*
X97164185Y-81927282D01*
X97164186Y-81927282D01*
X97187018Y-82012493D01*
X97259486Y-82138010D01*
X97309418Y-82187943D01*
X97327623Y-82213000D01*
X97338709Y-82234757D01*
X97349500Y-82279703D01*
X97349500Y-82715287D01*
X97344654Y-82745881D01*
X97337107Y-82769107D01*
X97312958Y-82808515D01*
X97259496Y-82861978D01*
X97259488Y-82861987D01*
X97187018Y-82987507D01*
X97187017Y-82987509D01*
X97187017Y-82987510D01*
X97149500Y-83127525D01*
X97149500Y-83272474D01*
X97166176Y-83334709D01*
X97187018Y-83412493D01*
X97259485Y-83538008D01*
X97259487Y-83538010D01*
X97259489Y-83538012D01*
X97259491Y-83538015D01*
X97361985Y-83640509D01*
X97361987Y-83640510D01*
X97362094Y-83640617D01*
X97362345Y-83640803D01*
X97364538Y-83641984D01*
X97477107Y-83706975D01*
X97484757Y-83711392D01*
X97487170Y-83712890D01*
X97487508Y-83712980D01*
X97487511Y-83712982D01*
X97487512Y-83712982D01*
X97487515Y-83712984D01*
X97627525Y-83750500D01*
X97627526Y-83750500D01*
X97772474Y-83750500D01*
X97772475Y-83750500D01*
X97912485Y-83712984D01*
X97912486Y-83712983D01*
X97912488Y-83712982D01*
X97912489Y-83712982D01*
X98031880Y-83644051D01*
X98034768Y-83642648D01*
X98035554Y-83642131D01*
X98040563Y-83639037D01*
X98041862Y-83638286D01*
X98047220Y-83631303D01*
X98140509Y-83538015D01*
X98148239Y-83524626D01*
X98212982Y-83412489D01*
X98212982Y-83412487D01*
X98212984Y-83412485D01*
X98250500Y-83272475D01*
X98250500Y-83127525D01*
X98212984Y-82987515D01*
X98212982Y-82987512D01*
X98212982Y-82987510D01*
X98212980Y-82987507D01*
X98212890Y-82987169D01*
X98211396Y-82984763D01*
X98140514Y-82861992D01*
X98140511Y-82861988D01*
X98140510Y-82861987D01*
X98140508Y-82861984D01*
X98090583Y-82812058D01*
X98072378Y-82787000D01*
X98061288Y-82765236D01*
X98050500Y-82720294D01*
X98050500Y-82284711D01*
X98055343Y-82254125D01*
X98055532Y-82253544D01*
X98058852Y-82243323D01*
X98094812Y-82193823D01*
X98153001Y-82174912D01*
X98168503Y-82176133D01*
X98171331Y-82176581D01*
X98225830Y-82204355D01*
X98262090Y-82240614D01*
X98262345Y-82240803D01*
X98264538Y-82241984D01*
X98352383Y-82292701D01*
X98384757Y-82311392D01*
X98387170Y-82312890D01*
X98387508Y-82312980D01*
X98387511Y-82312982D01*
X98387512Y-82312982D01*
X98387515Y-82312984D01*
X98527525Y-82350500D01*
X98598130Y-82350500D01*
X98628721Y-82355345D01*
X98641058Y-82359353D01*
X98651947Y-82362891D01*
X98691360Y-82387042D01*
X98909417Y-82605099D01*
X98927622Y-82630157D01*
X98938709Y-82651916D01*
X98949500Y-82696862D01*
X98949500Y-82772475D01*
X98979087Y-82882896D01*
X98983665Y-82899982D01*
X98987017Y-82912491D01*
X98987018Y-82912492D01*
X99059485Y-83038008D01*
X99059487Y-83038010D01*
X99059489Y-83038012D01*
X99059491Y-83038015D01*
X99161985Y-83140509D01*
X99161987Y-83140510D01*
X99162094Y-83140617D01*
X99162345Y-83140803D01*
X99164538Y-83141984D01*
X99234415Y-83182327D01*
X99284757Y-83211392D01*
X99287170Y-83212890D01*
X99287508Y-83212980D01*
X99287511Y-83212982D01*
X99287512Y-83212982D01*
X99287515Y-83212984D01*
X99427525Y-83250500D01*
X99427526Y-83250500D01*
X99572474Y-83250500D01*
X99572475Y-83250500D01*
X99712485Y-83212984D01*
X99712486Y-83212983D01*
X99712488Y-83212982D01*
X99712489Y-83212982D01*
X99831880Y-83144051D01*
X99834768Y-83142648D01*
X99835554Y-83142131D01*
X99840563Y-83139037D01*
X99841862Y-83138286D01*
X99847220Y-83131303D01*
X99940509Y-83038015D01*
X100012984Y-82912485D01*
X100050500Y-82772475D01*
X100050500Y-82627525D01*
X100012984Y-82487515D01*
X100012982Y-82487512D01*
X100012982Y-82487510D01*
X100012981Y-82487508D01*
X100012890Y-82487168D01*
X100011397Y-82484764D01*
X99941985Y-82364539D01*
X99940805Y-82362347D01*
X99940617Y-82362094D01*
X99940510Y-82361987D01*
X99940509Y-82361985D01*
X99838015Y-82259491D01*
X99838012Y-82259489D01*
X99838010Y-82259487D01*
X99838009Y-82259486D01*
X99769775Y-82220091D01*
X99748741Y-82196730D01*
X99651780Y-82170750D01*
X99597606Y-82156234D01*
X99572475Y-82149500D01*
X99572474Y-82149500D01*
X99501870Y-82149500D01*
X99471277Y-82144654D01*
X99448050Y-82137107D01*
X99408639Y-82112957D01*
X99190582Y-81894900D01*
X99172376Y-81869841D01*
X99161288Y-81848079D01*
X99150500Y-81803137D01*
X99150500Y-81727527D01*
X99150500Y-81727525D01*
X99112984Y-81587515D01*
X99112982Y-81587512D01*
X99112982Y-81587510D01*
X99112981Y-81587508D01*
X99112890Y-81587168D01*
X99111397Y-81584764D01*
X99041985Y-81464539D01*
X99040805Y-81462347D01*
X99040617Y-81462094D01*
X99040510Y-81461987D01*
X99040509Y-81461985D01*
X98938015Y-81359491D01*
X98938012Y-81359489D01*
X98938010Y-81359487D01*
X98869774Y-81320091D01*
X98848741Y-81296731D01*
X98782897Y-81279087D01*
X98782896Y-81279087D01*
X98672475Y-81249500D01*
X98672473Y-81249500D01*
X98527523Y-81249500D01*
X98465788Y-81266041D01*
X98465787Y-81266040D01*
X98387512Y-81287015D01*
X98387506Y-81287018D01*
X98259775Y-81360764D01*
X98259243Y-81361317D01*
X98256694Y-81363016D01*
X98251616Y-81369859D01*
X98231088Y-81390386D01*
X98206033Y-81408590D01*
X98194148Y-81414646D01*
X98133716Y-81424218D01*
X98133712Y-81424217D01*
X98128676Y-81423420D01*
X98074169Y-81395644D01*
X98038014Y-81359490D01*
X98038011Y-81359488D01*
X98038010Y-81359487D01*
X97969774Y-81320091D01*
X97958412Y-81307472D01*
X97943943Y-81298589D01*
X97942482Y-81295054D01*
X97882897Y-81279087D01*
X97882896Y-81279087D01*
X97772475Y-81249500D01*
X97772473Y-81249500D01*
X97627523Y-81249500D01*
X97565788Y-81266041D01*
X97565787Y-81266040D01*
X97487512Y-81287015D01*
X97487506Y-81287018D01*
X97361993Y-81359483D01*
X97259483Y-81461993D01*
X97187016Y-81587510D01*
X97186739Y-81588244D01*
X97186449Y-81589483D01*
X97186456Y-81589580D01*
X97186303Y-81590174D01*
X97149500Y-81727525D01*
X72560500Y-81727525D01*
X72560500Y-78181939D01*
X74200000Y-78181939D01*
X74200000Y-78418059D01*
X74236932Y-78651246D01*
X74236933Y-78651251D01*
X74261584Y-78727117D01*
X74305895Y-78863493D01*
X74309892Y-78875792D01*
X74311769Y-78879666D01*
X74312518Y-78880946D01*
X74417082Y-79086167D01*
X74417086Y-79086173D01*
X74521973Y-79230536D01*
X74521974Y-79230537D01*
X75081988Y-78670521D01*
X75136505Y-78642745D01*
X75196937Y-78652316D01*
X75221992Y-78670519D01*
X75329476Y-78778003D01*
X75357252Y-78832518D01*
X75347681Y-78892950D01*
X75329475Y-78918008D01*
X74769461Y-79478023D01*
X74769461Y-79478025D01*
X74913814Y-79582905D01*
X74913821Y-79582910D01*
X74913823Y-79582911D01*
X74913829Y-79582915D01*
X75119058Y-79687483D01*
X75120334Y-79688230D01*
X75124184Y-79690095D01*
X75124203Y-79690105D01*
X75124206Y-79690107D01*
X75348743Y-79763064D01*
X75348747Y-79763065D01*
X75348753Y-79763066D01*
X75581941Y-79800000D01*
X75818056Y-79800000D01*
X75818059Y-79800000D01*
X76007830Y-79769942D01*
X76051252Y-79763065D01*
X76051256Y-79763064D01*
X76275793Y-79690107D01*
X76275796Y-79690105D01*
X76275833Y-79690086D01*
X76279664Y-79688231D01*
X76280933Y-79687487D01*
X76486170Y-79582915D01*
X76486176Y-79582911D01*
X76630537Y-79478025D01*
X76630537Y-79478024D01*
X76070523Y-78918010D01*
X76042746Y-78863493D01*
X76052317Y-78803061D01*
X76070517Y-78778009D01*
X76178006Y-78670520D01*
X76232519Y-78642746D01*
X76292951Y-78652317D01*
X76318009Y-78670522D01*
X76878024Y-79230537D01*
X76878025Y-79230537D01*
X76982911Y-79086176D01*
X76982915Y-79086170D01*
X77087487Y-78880933D01*
X77088231Y-78879664D01*
X77090086Y-78875833D01*
X77090105Y-78875796D01*
X77090107Y-78875793D01*
X77163064Y-78651256D01*
X77163065Y-78651252D01*
X77171183Y-78599999D01*
X77200000Y-78418059D01*
X77200000Y-78181939D01*
X77163066Y-77948753D01*
X77163065Y-77948747D01*
X77163064Y-77948743D01*
X77090107Y-77724206D01*
X77090105Y-77724203D01*
X77090095Y-77724184D01*
X77088230Y-77720334D01*
X77087480Y-77719052D01*
X76982915Y-77513829D01*
X76982911Y-77513823D01*
X76982910Y-77513821D01*
X76982905Y-77513814D01*
X76878025Y-77369461D01*
X76878024Y-77369461D01*
X76878023Y-77369461D01*
X76318008Y-77929475D01*
X76263492Y-77957252D01*
X76203060Y-77947681D01*
X76178004Y-77929477D01*
X76070520Y-77821993D01*
X76042745Y-77767479D01*
X76052316Y-77707047D01*
X76070522Y-77681988D01*
X76238696Y-77513814D01*
X76630537Y-77121974D01*
X76630536Y-77121973D01*
X76486173Y-77017086D01*
X76486167Y-77017082D01*
X76280946Y-76912518D01*
X76279666Y-76911769D01*
X76275795Y-76909893D01*
X76275793Y-76909892D01*
X76171612Y-76876041D01*
X76051251Y-76836933D01*
X76051246Y-76836932D01*
X75818059Y-76800000D01*
X75818056Y-76800000D01*
X75581944Y-76800000D01*
X75581941Y-76800000D01*
X75348752Y-76836932D01*
X75348747Y-76836933D01*
X75124206Y-76909892D01*
X75120330Y-76911769D01*
X75119052Y-76912518D01*
X74914102Y-77016944D01*
X74913843Y-77017073D01*
X74913819Y-77017088D01*
X74769461Y-77121972D01*
X74769461Y-77121973D01*
X75329477Y-77681988D01*
X75357254Y-77736505D01*
X75347683Y-77796937D01*
X75329477Y-77821996D01*
X75221996Y-77929477D01*
X75167479Y-77957254D01*
X75107047Y-77947683D01*
X75081988Y-77929477D01*
X74834499Y-77681988D01*
X74521973Y-77369461D01*
X74521972Y-77369461D01*
X74417088Y-77513819D01*
X74417073Y-77513843D01*
X74416944Y-77514102D01*
X74312518Y-77719052D01*
X74311769Y-77720330D01*
X74309892Y-77724206D01*
X74236933Y-77948747D01*
X74236932Y-77948752D01*
X74200000Y-78181939D01*
X72560500Y-78181939D01*
X72560500Y-75797865D01*
X74249499Y-75797865D01*
X74255908Y-75857476D01*
X74255908Y-75857477D01*
X74255912Y-75857493D01*
X74306200Y-75992326D01*
X74392451Y-76107543D01*
X74392525Y-76107635D01*
X74392802Y-76107882D01*
X74394606Y-76109156D01*
X74461129Y-76158956D01*
X74507669Y-76193796D01*
X74507670Y-76193796D01*
X74507671Y-76193797D01*
X74641545Y-76243728D01*
X74642986Y-76244285D01*
X74644248Y-76244466D01*
X74647768Y-76244655D01*
X74702128Y-76250500D01*
X74702131Y-76250500D01*
X76697869Y-76250500D01*
X76697872Y-76250500D01*
X76757482Y-76244091D01*
X76804304Y-76226627D01*
X76890717Y-76194397D01*
X76894023Y-76193232D01*
X76897581Y-76192047D01*
X76905166Y-76184186D01*
X77007546Y-76107546D01*
X77093796Y-75992330D01*
X77093798Y-75992326D01*
X77144089Y-75857487D01*
X77144088Y-75857487D01*
X77144091Y-75857482D01*
X77150500Y-75797872D01*
X77150500Y-73802128D01*
X77144091Y-73742518D01*
X77144089Y-73742512D01*
X77142818Y-73739104D01*
X77093798Y-73607672D01*
X77050999Y-73550500D01*
X77009156Y-73494605D01*
X77007810Y-73492701D01*
X77007636Y-73492521D01*
X76938155Y-73440508D01*
X76892326Y-73406200D01*
X76762427Y-73357752D01*
X76758938Y-73356234D01*
X76758024Y-73355996D01*
X76755926Y-73355540D01*
X76752205Y-73355341D01*
X76735311Y-73353524D01*
X76726248Y-73352550D01*
X76726247Y-73352549D01*
X76697875Y-73349500D01*
X76697872Y-73349500D01*
X74702128Y-73349500D01*
X74699751Y-73349755D01*
X74677637Y-73352132D01*
X74677637Y-73352133D01*
X74668858Y-73353076D01*
X74642520Y-73355908D01*
X74642514Y-73355909D01*
X74642512Y-73355910D01*
X74642509Y-73355910D01*
X74642505Y-73355912D01*
X74507672Y-73406200D01*
X74392460Y-73492448D01*
X74392448Y-73492460D01*
X74306200Y-73607672D01*
X74255912Y-73742505D01*
X74255910Y-73742509D01*
X74255910Y-73742512D01*
X74255908Y-73742523D01*
X74249501Y-73802128D01*
X74249500Y-73802133D01*
X74249500Y-75797865D01*
X74249499Y-75797865D01*
X72560500Y-75797865D01*
X72560500Y-72927525D01*
X92449500Y-72927525D01*
X92449500Y-73072474D01*
X92482585Y-73195949D01*
X92487018Y-73212493D01*
X92559485Y-73338008D01*
X92559487Y-73338010D01*
X92559489Y-73338012D01*
X92559491Y-73338015D01*
X92661985Y-73440509D01*
X92661987Y-73440510D01*
X92662094Y-73440617D01*
X92662345Y-73440803D01*
X92664538Y-73441984D01*
X92752383Y-73492701D01*
X92784757Y-73511392D01*
X92787170Y-73512890D01*
X92787508Y-73512980D01*
X92787511Y-73512982D01*
X92787512Y-73512982D01*
X92787515Y-73512984D01*
X92927525Y-73550500D01*
X92927526Y-73550500D01*
X93072474Y-73550500D01*
X93072475Y-73550500D01*
X93212485Y-73512984D01*
X93212486Y-73512983D01*
X93212488Y-73512982D01*
X93212489Y-73512982D01*
X93331880Y-73444051D01*
X93334768Y-73442648D01*
X93335554Y-73442131D01*
X93340563Y-73439037D01*
X93341862Y-73438286D01*
X93347221Y-73431302D01*
X93372322Y-73406202D01*
X93387948Y-73390576D01*
X93412994Y-73372380D01*
X93434766Y-73361287D01*
X93479705Y-73350500D01*
X94415288Y-73350500D01*
X94445879Y-73355345D01*
X94453288Y-73357752D01*
X94469105Y-73362891D01*
X94508517Y-73387042D01*
X94561984Y-73440508D01*
X94561989Y-73440512D01*
X94684779Y-73511404D01*
X94687171Y-73512891D01*
X94687512Y-73512982D01*
X94687515Y-73512984D01*
X94827525Y-73550500D01*
X94827526Y-73550500D01*
X94972474Y-73550500D01*
X94972475Y-73550500D01*
X95112485Y-73512984D01*
X95112486Y-73512983D01*
X95112488Y-73512982D01*
X95112489Y-73512982D01*
X95231880Y-73444051D01*
X95234768Y-73442648D01*
X95235554Y-73442131D01*
X95240563Y-73439037D01*
X95241862Y-73438286D01*
X95247220Y-73431303D01*
X95340509Y-73338015D01*
X95340513Y-73338008D01*
X95412982Y-73212489D01*
X95412982Y-73212487D01*
X95412984Y-73212485D01*
X95450500Y-73072475D01*
X95450500Y-72927525D01*
X95412984Y-72787515D01*
X95412982Y-72787512D01*
X95412982Y-72787510D01*
X95412981Y-72787508D01*
X95412890Y-72787168D01*
X95411397Y-72784764D01*
X95341985Y-72664539D01*
X95340805Y-72662347D01*
X95340617Y-72662094D01*
X95340510Y-72661987D01*
X95340509Y-72661985D01*
X95238015Y-72559491D01*
X95238012Y-72559489D01*
X95238010Y-72559487D01*
X95169774Y-72520091D01*
X95148741Y-72496731D01*
X95082897Y-72479087D01*
X95082896Y-72479087D01*
X94972475Y-72449500D01*
X94972473Y-72449500D01*
X94827525Y-72449500D01*
X94817224Y-72452259D01*
X94817225Y-72452260D01*
X94687510Y-72487017D01*
X94687509Y-72487017D01*
X94687507Y-72487018D01*
X94561987Y-72559488D01*
X94561978Y-72559496D01*
X94512055Y-72609418D01*
X94487000Y-72627621D01*
X94465242Y-72638708D01*
X94420295Y-72649500D01*
X93484712Y-72649500D01*
X93454119Y-72644654D01*
X93430892Y-72637107D01*
X93391482Y-72612957D01*
X93338019Y-72559495D01*
X93338015Y-72559491D01*
X93338010Y-72559487D01*
X93269774Y-72520091D01*
X93248741Y-72496731D01*
X93182897Y-72479087D01*
X93182896Y-72479087D01*
X93072475Y-72449500D01*
X93072473Y-72449500D01*
X92927525Y-72449500D01*
X92917224Y-72452259D01*
X92917225Y-72452260D01*
X92787505Y-72487018D01*
X92661993Y-72559483D01*
X92559483Y-72661993D01*
X92487018Y-72787505D01*
X92466042Y-72865787D01*
X92449500Y-72927525D01*
X72560500Y-72927525D01*
X72560500Y-72098996D01*
X112344500Y-72098996D01*
X112344500Y-86380946D01*
X112344586Y-86387563D01*
X112344724Y-86392796D01*
X112361603Y-86477642D01*
X112383527Y-86534762D01*
X112383531Y-86534770D01*
X112411279Y-86587515D01*
X112411491Y-86587917D01*
X112469728Y-86644654D01*
X112482899Y-86657486D01*
X112482900Y-86657487D01*
X112534208Y-86690809D01*
X112534210Y-86690810D01*
X112541262Y-86693949D01*
X112586734Y-86734887D01*
X112600000Y-86784392D01*
X112600000Y-87216341D01*
X112581093Y-87274532D01*
X112544789Y-87305130D01*
X112518229Y-87318228D01*
X112518216Y-87318236D01*
X112468734Y-87354188D01*
X112468727Y-87354193D01*
X112424622Y-87394965D01*
X112424621Y-87394966D01*
X112375913Y-87481944D01*
X112357003Y-87540141D01*
X112344500Y-87619085D01*
X112344500Y-87619089D01*
X112344500Y-91601000D01*
X112347645Y-91640965D01*
X112352490Y-91671558D01*
X112352492Y-91671570D01*
X112356405Y-91691240D01*
X112398138Y-91781768D01*
X112398141Y-91781773D01*
X112434101Y-91831269D01*
X112434104Y-91831272D01*
X112434105Y-91831273D01*
X112474876Y-91875378D01*
X112561857Y-91924088D01*
X112620048Y-91942995D01*
X112620049Y-91942995D01*
X112620052Y-91942996D01*
X112698997Y-91955500D01*
X112699000Y-91955500D01*
X122049495Y-91955500D01*
X122107686Y-91974407D01*
X122143650Y-92023907D01*
X122143650Y-92085093D01*
X122135231Y-92104000D01*
X122087019Y-92187504D01*
X122087017Y-92187508D01*
X122087017Y-92187510D01*
X122087016Y-92187515D01*
X122063659Y-92274684D01*
X122049500Y-92327525D01*
X122049500Y-92472477D01*
X122069273Y-92546268D01*
X122069273Y-92546270D01*
X122069274Y-92546270D01*
X122087018Y-92612493D01*
X122159485Y-92738008D01*
X122159487Y-92738010D01*
X122159489Y-92738012D01*
X122159491Y-92738015D01*
X122261985Y-92840509D01*
X122261987Y-92840510D01*
X122262094Y-92840617D01*
X122262345Y-92840803D01*
X122264538Y-92841984D01*
X122377107Y-92906975D01*
X122384757Y-92911392D01*
X122387170Y-92912890D01*
X122387508Y-92912980D01*
X122387511Y-92912982D01*
X122387512Y-92912982D01*
X122387515Y-92912984D01*
X122527525Y-92950500D01*
X122598130Y-92950500D01*
X122628721Y-92955345D01*
X122641058Y-92959353D01*
X122651947Y-92962891D01*
X122691360Y-92987042D01*
X122909417Y-93205099D01*
X122927622Y-93230157D01*
X122938709Y-93251916D01*
X122949500Y-93296862D01*
X122949500Y-93372474D01*
X122982585Y-93495949D01*
X122987018Y-93512493D01*
X123059485Y-93638008D01*
X123059487Y-93638010D01*
X123059489Y-93638012D01*
X123059491Y-93638015D01*
X123161985Y-93740509D01*
X123161987Y-93740510D01*
X123162094Y-93740617D01*
X123162345Y-93740803D01*
X123164538Y-93741984D01*
X123203605Y-93764539D01*
X123284757Y-93811392D01*
X123287170Y-93812890D01*
X123287508Y-93812980D01*
X123287511Y-93812982D01*
X123287512Y-93812982D01*
X123287515Y-93812984D01*
X123427525Y-93850500D01*
X123427526Y-93850500D01*
X123572474Y-93850500D01*
X123572475Y-93850500D01*
X123712485Y-93812984D01*
X123712486Y-93812983D01*
X123712488Y-93812982D01*
X123712489Y-93812982D01*
X123831880Y-93744051D01*
X123834768Y-93742648D01*
X123835554Y-93742131D01*
X123840563Y-93739037D01*
X123841862Y-93738286D01*
X123847220Y-93731303D01*
X123940509Y-93638015D01*
X123969953Y-93587017D01*
X124012982Y-93512489D01*
X124012982Y-93512487D01*
X124012984Y-93512485D01*
X124050500Y-93372475D01*
X124050500Y-93227525D01*
X124012984Y-93087515D01*
X124012982Y-93087512D01*
X124012982Y-93087510D01*
X124012981Y-93087508D01*
X124012890Y-93087168D01*
X124011397Y-93084764D01*
X123941985Y-92964539D01*
X123940805Y-92962347D01*
X123940617Y-92962094D01*
X123940510Y-92961987D01*
X123940509Y-92961985D01*
X123838015Y-92859491D01*
X123838012Y-92859489D01*
X123838010Y-92859487D01*
X123769774Y-92820091D01*
X123748741Y-92796731D01*
X123682897Y-92779087D01*
X123682896Y-92779087D01*
X123572475Y-92749500D01*
X123572474Y-92749500D01*
X123572473Y-92749500D01*
X123501870Y-92749500D01*
X123471277Y-92744654D01*
X123448050Y-92737107D01*
X123408639Y-92712957D01*
X123190582Y-92494900D01*
X123172376Y-92469841D01*
X123161288Y-92448079D01*
X123150500Y-92403137D01*
X123150500Y-92327526D01*
X123150500Y-92327525D01*
X123136339Y-92274674D01*
X123136338Y-92274671D01*
X123136338Y-92274670D01*
X123112892Y-92187172D01*
X123111404Y-92184777D01*
X123064766Y-92103999D01*
X123052046Y-92044152D01*
X123076933Y-91988256D01*
X123129921Y-91957663D01*
X123150504Y-91955500D01*
X125100994Y-91955500D01*
X125101000Y-91955500D01*
X125140965Y-91952355D01*
X125171558Y-91947510D01*
X125191239Y-91943595D01*
X125281773Y-91901859D01*
X125331273Y-91865895D01*
X125375378Y-91825124D01*
X125424088Y-91738143D01*
X125442995Y-91679952D01*
X125453602Y-91612983D01*
X125455500Y-91601003D01*
X125455500Y-90448880D01*
X131229500Y-90448880D01*
X131229500Y-90711120D01*
X131263730Y-90971116D01*
X131317684Y-91172475D01*
X131317683Y-91172475D01*
X131331598Y-91224407D01*
X131331600Y-91224413D01*
X131331608Y-91224433D01*
X131431948Y-91466679D01*
X131431964Y-91466710D01*
X131469255Y-91531299D01*
X131474572Y-91540509D01*
X131561595Y-91691239D01*
X131563077Y-91693805D01*
X131620321Y-91768407D01*
X131620322Y-91768407D01*
X131722718Y-91901851D01*
X131908149Y-92087282D01*
X132116197Y-92246924D01*
X132343303Y-92378043D01*
X132585581Y-92478398D01*
X132838884Y-92546270D01*
X133098880Y-92580500D01*
X133098881Y-92580500D01*
X136861119Y-92580500D01*
X136861120Y-92580500D01*
X137121116Y-92546270D01*
X137374419Y-92478398D01*
X137616697Y-92378043D01*
X137843803Y-92246924D01*
X138051851Y-92087282D01*
X138237282Y-91901851D01*
X138396924Y-91693803D01*
X138528043Y-91466697D01*
X138628398Y-91224419D01*
X138696270Y-90971116D01*
X138730500Y-90711120D01*
X138730500Y-90448880D01*
X138696270Y-90188884D01*
X138628398Y-89935581D01*
X138528043Y-89693303D01*
X138396924Y-89466197D01*
X138237282Y-89258149D01*
X138051851Y-89072718D01*
X137921213Y-88972475D01*
X137921213Y-88972474D01*
X137843805Y-88913077D01*
X137751630Y-88859860D01*
X137616710Y-88781964D01*
X137616701Y-88781959D01*
X137616697Y-88781957D01*
X137616693Y-88781955D01*
X137616689Y-88781953D01*
X137616687Y-88781952D01*
X137616683Y-88781950D01*
X137380034Y-88683927D01*
X137376161Y-88682037D01*
X137375244Y-88681808D01*
X137373639Y-88681392D01*
X137121106Y-88613727D01*
X137120809Y-88613668D01*
X137119532Y-88613521D01*
X136861120Y-88579500D01*
X133098880Y-88579500D01*
X133098879Y-88579500D01*
X133098878Y-88579500D01*
X132845322Y-88612882D01*
X132841378Y-88613140D01*
X132831357Y-88615506D01*
X132829202Y-88616324D01*
X132705388Y-88649500D01*
X132585580Y-88681602D01*
X132585565Y-88681608D01*
X132343317Y-88781949D01*
X132343310Y-88781952D01*
X132343310Y-88781953D01*
X132208370Y-88859860D01*
X132116194Y-88913077D01*
X131908155Y-89072712D01*
X131722712Y-89258155D01*
X131563077Y-89466194D01*
X131563075Y-89466197D01*
X131536063Y-89512984D01*
X131431949Y-89693317D01*
X131331608Y-89935565D01*
X131331602Y-89935580D01*
X131263729Y-90188888D01*
X131239965Y-90369392D01*
X131234291Y-90412489D01*
X131229500Y-90448880D01*
X125455500Y-90448880D01*
X125455500Y-88414710D01*
X125450591Y-88364869D01*
X125450590Y-88364867D01*
X125450590Y-88364860D01*
X125443054Y-88326977D01*
X125428517Y-88279054D01*
X125428511Y-88279041D01*
X125427695Y-88276758D01*
X125428004Y-88276647D01*
X125423649Y-88262335D01*
X125396902Y-88127861D01*
X125395000Y-88108548D01*
X125395000Y-87971447D01*
X125396902Y-87952134D01*
X125423646Y-87817676D01*
X125428000Y-87803356D01*
X125427694Y-87803247D01*
X125428512Y-87800961D01*
X125428512Y-87800958D01*
X125428515Y-87800953D01*
X125443056Y-87753015D01*
X125450591Y-87715131D01*
X125454084Y-87679666D01*
X125455500Y-87665295D01*
X125455500Y-87623751D01*
X125474407Y-87565560D01*
X125523907Y-87529596D01*
X125527620Y-87528470D01*
X125534838Y-87526435D01*
X125589355Y-87498658D01*
X125654029Y-87451670D01*
X125676323Y-87429374D01*
X125689519Y-87419211D01*
X125691320Y-87417066D01*
X125805327Y-87340890D01*
X125822434Y-87331747D01*
X125843769Y-87322909D01*
X125880886Y-87307536D01*
X125918771Y-87300000D01*
X126461227Y-87300000D01*
X126499113Y-87307536D01*
X126557563Y-87331747D01*
X126574674Y-87340893D01*
X126688682Y-87417070D01*
X126703670Y-87429369D01*
X126725973Y-87451672D01*
X126740697Y-87465283D01*
X126746831Y-87470522D01*
X126752510Y-87475373D01*
X126752509Y-87475373D01*
X126752516Y-87475378D01*
X126839497Y-87524088D01*
X126897688Y-87542995D01*
X126897689Y-87542995D01*
X126897692Y-87542996D01*
X126976637Y-87555500D01*
X126976640Y-87555500D01*
X127900994Y-87555500D01*
X127901000Y-87555500D01*
X127940965Y-87552355D01*
X127971558Y-87547510D01*
X127991239Y-87543595D01*
X128081773Y-87501859D01*
X128131273Y-87465895D01*
X128175378Y-87425124D01*
X128224088Y-87338143D01*
X128242995Y-87279952D01*
X128243190Y-87278723D01*
X128255500Y-87201003D01*
X128255500Y-86296649D01*
X128255500Y-86296639D01*
X128254712Y-86276590D01*
X128253493Y-86261103D01*
X128226434Y-86165160D01*
X128198658Y-86110645D01*
X128181851Y-86087512D01*
X128151674Y-86045975D01*
X128151673Y-86045974D01*
X128151671Y-86045971D01*
X128119374Y-86013674D01*
X128107063Y-85998672D01*
X128082555Y-85961993D01*
X128030893Y-85884674D01*
X128021746Y-85867560D01*
X128007536Y-85833253D01*
X128000000Y-85795368D01*
X128000000Y-85204628D01*
X128007536Y-85166742D01*
X128021749Y-85132430D01*
X128030890Y-85115327D01*
X128107065Y-85001322D01*
X128119372Y-84986325D01*
X128151670Y-84954029D01*
X128165283Y-84939303D01*
X128175372Y-84927491D01*
X128175378Y-84927484D01*
X128224088Y-84840503D01*
X128242995Y-84782312D01*
X128255500Y-84703360D01*
X128255500Y-83799000D01*
X128252355Y-83759035D01*
X128247510Y-83728442D01*
X128243595Y-83708761D01*
X128212813Y-83641988D01*
X128201861Y-83618231D01*
X128201858Y-83618226D01*
X128165898Y-83568730D01*
X128165895Y-83568727D01*
X128147033Y-83548323D01*
X128125124Y-83524622D01*
X128038143Y-83475912D01*
X128000745Y-83463761D01*
X127979947Y-83457003D01*
X127901003Y-83444500D01*
X127901000Y-83444500D01*
X126976640Y-83444500D01*
X126962855Y-83445041D01*
X126956585Y-83445288D01*
X126941101Y-83446507D01*
X126845164Y-83473564D01*
X126845158Y-83473566D01*
X126790643Y-83501342D01*
X126725981Y-83548320D01*
X126703991Y-83570307D01*
X126703981Y-83570297D01*
X126703887Y-83570412D01*
X126703567Y-83570731D01*
X126690456Y-83580811D01*
X126688674Y-83582934D01*
X126574677Y-83659103D01*
X126557563Y-83668251D01*
X126529461Y-83679891D01*
X126499108Y-83692464D01*
X126461223Y-83700000D01*
X125918776Y-83700000D01*
X125880890Y-83692464D01*
X125822436Y-83668251D01*
X125805322Y-83659103D01*
X125691321Y-83582932D01*
X125676322Y-83570624D01*
X125654026Y-83548328D01*
X125639303Y-83534717D01*
X125627491Y-83524628D01*
X125627484Y-83524622D01*
X125627483Y-83524621D01*
X125540501Y-83475911D01*
X125523906Y-83470519D01*
X125474407Y-83434555D01*
X125455500Y-83376365D01*
X125455500Y-83334710D01*
X125450591Y-83284869D01*
X125450590Y-83284867D01*
X125450590Y-83284860D01*
X125443054Y-83246977D01*
X125428517Y-83199054D01*
X125428511Y-83199041D01*
X125427695Y-83196758D01*
X125428004Y-83196647D01*
X125423649Y-83182335D01*
X125396902Y-83047861D01*
X125395000Y-83028548D01*
X125395000Y-82891447D01*
X125396902Y-82872134D01*
X125398922Y-82861978D01*
X125423646Y-82737676D01*
X125428000Y-82723356D01*
X125427694Y-82723247D01*
X125428512Y-82720961D01*
X125428512Y-82720958D01*
X125428515Y-82720953D01*
X125443056Y-82673015D01*
X125450591Y-82635131D01*
X125453841Y-82602133D01*
X125455500Y-82585295D01*
X125455500Y-80288880D01*
X131329500Y-80288880D01*
X131329500Y-80551120D01*
X131363730Y-80811116D01*
X131394922Y-80927525D01*
X131431602Y-81064418D01*
X131431608Y-81064433D01*
X131531948Y-81306679D01*
X131531964Y-81306710D01*
X131586675Y-81401471D01*
X131586676Y-81401473D01*
X131631101Y-81478422D01*
X131663073Y-81533799D01*
X131663075Y-81533802D01*
X131663076Y-81533803D01*
X131822718Y-81741851D01*
X132008149Y-81927282D01*
X132216197Y-82086924D01*
X132443303Y-82218043D01*
X132685581Y-82318398D01*
X132938884Y-82386270D01*
X133198880Y-82420500D01*
X133198881Y-82420500D01*
X136961119Y-82420500D01*
X136961120Y-82420500D01*
X137221116Y-82386270D01*
X137474419Y-82318398D01*
X137716697Y-82218043D01*
X137943803Y-82086924D01*
X138151851Y-81927282D01*
X138337282Y-81741851D01*
X138496924Y-81533803D01*
X138628043Y-81306697D01*
X138728398Y-81064419D01*
X138796270Y-80811116D01*
X138830500Y-80551120D01*
X138830500Y-80288880D01*
X138796270Y-80028884D01*
X138728398Y-79775581D01*
X138628043Y-79533303D01*
X138496924Y-79306197D01*
X138337282Y-79098149D01*
X138151851Y-78912718D01*
X137988124Y-78787085D01*
X137966801Y-78764612D01*
X137961848Y-78757404D01*
X137944475Y-78698737D01*
X137964904Y-78641063D01*
X138014092Y-78606788D01*
X138021627Y-78604448D01*
X138050971Y-78600000D01*
X139899999Y-78600000D01*
X139900000Y-78600000D01*
X139900000Y-70400000D01*
X139899999Y-70400000D01*
X134000001Y-70400000D01*
X134000000Y-70400000D01*
X134000000Y-70400001D01*
X134000000Y-78304819D01*
X133995154Y-78335412D01*
X133991032Y-78348098D01*
X133955080Y-78397589D01*
X133950959Y-78400584D01*
X133892771Y-78419500D01*
X133198878Y-78419500D01*
X132945322Y-78452882D01*
X132941378Y-78453140D01*
X132931356Y-78455506D01*
X132929203Y-78456323D01*
X132753464Y-78503412D01*
X132753463Y-78503411D01*
X132685585Y-78521600D01*
X132685565Y-78521608D01*
X132443317Y-78621949D01*
X132443310Y-78621952D01*
X132443310Y-78621953D01*
X132261159Y-78727117D01*
X132216194Y-78753077D01*
X132008155Y-78912712D01*
X131822712Y-79098155D01*
X131663077Y-79306194D01*
X131531950Y-79533314D01*
X131436785Y-79763066D01*
X131431603Y-79775577D01*
X131431602Y-79775581D01*
X131363730Y-80028884D01*
X131329500Y-80288880D01*
X125455500Y-80288880D01*
X125455500Y-72099006D01*
X125455500Y-72099000D01*
X125452355Y-72059035D01*
X125447510Y-72028442D01*
X125443595Y-72008761D01*
X125401859Y-71918227D01*
X125392868Y-71905852D01*
X125365898Y-71868730D01*
X125365895Y-71868727D01*
X125325124Y-71824622D01*
X125238143Y-71775912D01*
X125200745Y-71763761D01*
X125179947Y-71757003D01*
X125101003Y-71744500D01*
X125101000Y-71744500D01*
X112699000Y-71744500D01*
X112659035Y-71747645D01*
X112630545Y-71752156D01*
X112628429Y-71752492D01*
X112608759Y-71756405D01*
X112518231Y-71798138D01*
X112518226Y-71798141D01*
X112468730Y-71834101D01*
X112468727Y-71834104D01*
X112424622Y-71874876D01*
X112424621Y-71874877D01*
X112375913Y-71961855D01*
X112357003Y-72020052D01*
X112344500Y-72098996D01*
X72560500Y-72098996D01*
X72560500Y-71314680D01*
X72565343Y-71284094D01*
X72569465Y-71271405D01*
X72605423Y-71221906D01*
X72606022Y-71221471D01*
X72609563Y-71218900D01*
X72667743Y-71200000D01*
X82599999Y-71200000D01*
X82600000Y-71200000D01*
X82600000Y-67427525D01*
X98949500Y-67427525D01*
X98949500Y-67572475D01*
X98979087Y-67682896D01*
X98983665Y-67699982D01*
X98987017Y-67712491D01*
X98987018Y-67712492D01*
X99059485Y-67838008D01*
X99059487Y-67838010D01*
X99059489Y-67838012D01*
X99059491Y-67838015D01*
X99161985Y-67940509D01*
X99161987Y-67940510D01*
X99162094Y-67940617D01*
X99162345Y-67940803D01*
X99164538Y-67941984D01*
X99194862Y-67959491D01*
X99284757Y-68011392D01*
X99287170Y-68012890D01*
X99287508Y-68012980D01*
X99287511Y-68012982D01*
X99287512Y-68012982D01*
X99287515Y-68012984D01*
X99427525Y-68050500D01*
X99498130Y-68050500D01*
X99528721Y-68055345D01*
X99541058Y-68059353D01*
X99551947Y-68062891D01*
X99591360Y-68087042D01*
X99809417Y-68305099D01*
X99827622Y-68330157D01*
X99838709Y-68351916D01*
X99849500Y-68396862D01*
X99849500Y-68472474D01*
X99862753Y-68521935D01*
X99887018Y-68612493D01*
X99959485Y-68738008D01*
X99959487Y-68738010D01*
X99959489Y-68738012D01*
X99959491Y-68738015D01*
X100061985Y-68840509D01*
X100061987Y-68840510D01*
X100062094Y-68840617D01*
X100062345Y-68840803D01*
X100064538Y-68841984D01*
X100177107Y-68906975D01*
X100184757Y-68911392D01*
X100187170Y-68912890D01*
X100187508Y-68912980D01*
X100187511Y-68912982D01*
X100187512Y-68912982D01*
X100187515Y-68912984D01*
X100327525Y-68950500D01*
X100327526Y-68950500D01*
X100472474Y-68950500D01*
X100472475Y-68950500D01*
X100612485Y-68912984D01*
X100612486Y-68912983D01*
X100612488Y-68912982D01*
X100612489Y-68912982D01*
X100731880Y-68844051D01*
X100734768Y-68842648D01*
X100735554Y-68842131D01*
X100740563Y-68839037D01*
X100741862Y-68838286D01*
X100747220Y-68831303D01*
X100840509Y-68738015D01*
X100841642Y-68736053D01*
X100912982Y-68612489D01*
X100912982Y-68612487D01*
X100912984Y-68612485D01*
X100950500Y-68472475D01*
X100950500Y-68327525D01*
X100912984Y-68187515D01*
X100912982Y-68187512D01*
X100912982Y-68187510D01*
X100912981Y-68187508D01*
X100912890Y-68187168D01*
X100911397Y-68184764D01*
X100841985Y-68064539D01*
X100840805Y-68062347D01*
X100840617Y-68062094D01*
X100840510Y-68061987D01*
X100840509Y-68061985D01*
X100738015Y-67959491D01*
X100738012Y-67959489D01*
X100738010Y-67959487D01*
X100669774Y-67920091D01*
X100648741Y-67896731D01*
X100582897Y-67879087D01*
X100582896Y-67879087D01*
X100472475Y-67849500D01*
X100472474Y-67849500D01*
X100472473Y-67849500D01*
X100401870Y-67849500D01*
X100371277Y-67844654D01*
X100348050Y-67837107D01*
X100308639Y-67812957D01*
X100090582Y-67594900D01*
X100072376Y-67569841D01*
X100061288Y-67548079D01*
X100050500Y-67503137D01*
X100050500Y-67427527D01*
X100050500Y-67427526D01*
X100050500Y-67427525D01*
X100012984Y-67287515D01*
X100012982Y-67287512D01*
X100012982Y-67287510D01*
X100012981Y-67287508D01*
X100012890Y-67287168D01*
X100011397Y-67284764D01*
X99941985Y-67164539D01*
X99940805Y-67162347D01*
X99940617Y-67162094D01*
X99940510Y-67161987D01*
X99940509Y-67161985D01*
X99838015Y-67059491D01*
X99838012Y-67059489D01*
X99838010Y-67059487D01*
X99769774Y-67020091D01*
X99748741Y-66996731D01*
X99682897Y-66979087D01*
X99682896Y-66979087D01*
X99572475Y-66949500D01*
X99572473Y-66949500D01*
X99427523Y-66949500D01*
X99365788Y-66966041D01*
X99365787Y-66966040D01*
X99287512Y-66987015D01*
X99287506Y-66987018D01*
X99161993Y-67059483D01*
X99059483Y-67161993D01*
X98987018Y-67287506D01*
X98987016Y-67287510D01*
X98972473Y-67341784D01*
X98972474Y-67341785D01*
X98949500Y-67427525D01*
X82600000Y-67427525D01*
X82600000Y-59600000D01*
X86400000Y-59600000D01*
X90408125Y-59600000D01*
X90438713Y-59604843D01*
X90449550Y-59608365D01*
X90499050Y-59644326D01*
X90517960Y-59702516D01*
X90517960Y-59707390D01*
X90504697Y-59756890D01*
X90487016Y-59787513D01*
X90449500Y-59927525D01*
X90449500Y-60072474D01*
X90482585Y-60195949D01*
X90487018Y-60212493D01*
X90559485Y-60338008D01*
X90559487Y-60338010D01*
X90559489Y-60338012D01*
X90559491Y-60338015D01*
X90661985Y-60440509D01*
X90661987Y-60440510D01*
X90662094Y-60440617D01*
X90662345Y-60440803D01*
X90664538Y-60441984D01*
X90777107Y-60506975D01*
X90784757Y-60511392D01*
X90787170Y-60512890D01*
X90787508Y-60512980D01*
X90787511Y-60512982D01*
X90787512Y-60512982D01*
X90787515Y-60512984D01*
X90927525Y-60550500D01*
X90927526Y-60550500D01*
X91072474Y-60550500D01*
X91072475Y-60550500D01*
X91212485Y-60512984D01*
X91212486Y-60512983D01*
X91212488Y-60512982D01*
X91212489Y-60512982D01*
X91331880Y-60444051D01*
X91334768Y-60442648D01*
X91335554Y-60442131D01*
X91340563Y-60439037D01*
X91341862Y-60438286D01*
X91347222Y-60431301D01*
X91368522Y-60410002D01*
X91387944Y-60390580D01*
X91412995Y-60372379D01*
X91434764Y-60361288D01*
X91479705Y-60350500D01*
X91915288Y-60350500D01*
X91945879Y-60355345D01*
X91958216Y-60359353D01*
X91969105Y-60362891D01*
X92008517Y-60387042D01*
X92052773Y-60431297D01*
X92061984Y-60440508D01*
X92061989Y-60440512D01*
X92184779Y-60511404D01*
X92187171Y-60512891D01*
X92187512Y-60512982D01*
X92187515Y-60512984D01*
X92327525Y-60550500D01*
X92327526Y-60550500D01*
X92472474Y-60550500D01*
X92472475Y-60550500D01*
X92612485Y-60512984D01*
X92612486Y-60512983D01*
X92612488Y-60512982D01*
X92612489Y-60512982D01*
X92731880Y-60444051D01*
X92734768Y-60442648D01*
X92735554Y-60442131D01*
X92740563Y-60439037D01*
X92740865Y-60438862D01*
X92743474Y-60435262D01*
X92745289Y-60433234D01*
X92840509Y-60338015D01*
X92858581Y-60306712D01*
X92867653Y-60296581D01*
X92875919Y-60286376D01*
X92884386Y-60278753D01*
X92907703Y-60268372D01*
X92929777Y-60255547D01*
X92935253Y-60256107D01*
X92940282Y-60253869D01*
X92965273Y-60259179D01*
X92990644Y-60261776D01*
X92994736Y-60265440D01*
X93000112Y-60266582D01*
X93004334Y-60269020D01*
X93040580Y-60305261D01*
X93059491Y-60338015D01*
X93161985Y-60440509D01*
X93161987Y-60440510D01*
X93162094Y-60440617D01*
X93162345Y-60440803D01*
X93164538Y-60441984D01*
X93277107Y-60506975D01*
X93284757Y-60511392D01*
X93287170Y-60512890D01*
X93287508Y-60512980D01*
X93287511Y-60512982D01*
X93287512Y-60512982D01*
X93287515Y-60512984D01*
X93427525Y-60550500D01*
X93427526Y-60550500D01*
X93572474Y-60550500D01*
X93572475Y-60550500D01*
X93712485Y-60512984D01*
X93712486Y-60512983D01*
X93712488Y-60512982D01*
X93712489Y-60512982D01*
X93831880Y-60444051D01*
X93834768Y-60442648D01*
X93835554Y-60442131D01*
X93840563Y-60439037D01*
X93841862Y-60438286D01*
X93847222Y-60431301D01*
X93868522Y-60410002D01*
X93887944Y-60390580D01*
X93912995Y-60372379D01*
X93934764Y-60361288D01*
X93979705Y-60350500D01*
X94415288Y-60350500D01*
X94445879Y-60355345D01*
X94458216Y-60359353D01*
X94469105Y-60362891D01*
X94508517Y-60387042D01*
X94552773Y-60431297D01*
X94561984Y-60440508D01*
X94561989Y-60440512D01*
X94684779Y-60511404D01*
X94687171Y-60512891D01*
X94687512Y-60512982D01*
X94687515Y-60512984D01*
X94827525Y-60550500D01*
X94827526Y-60550500D01*
X94972474Y-60550500D01*
X94972475Y-60550500D01*
X95112485Y-60512984D01*
X95112486Y-60512983D01*
X95112488Y-60512982D01*
X95112489Y-60512982D01*
X95231880Y-60444051D01*
X95234768Y-60442648D01*
X95235554Y-60442131D01*
X95240563Y-60439037D01*
X95241862Y-60438286D01*
X95247220Y-60431303D01*
X95340509Y-60338015D01*
X95340513Y-60338008D01*
X95412982Y-60212489D01*
X95412982Y-60212487D01*
X95412984Y-60212485D01*
X95450500Y-60072475D01*
X95450500Y-59927525D01*
X95412984Y-59787515D01*
X95412982Y-59787512D01*
X95412982Y-59787510D01*
X95412981Y-59787508D01*
X95412890Y-59787168D01*
X95411397Y-59784764D01*
X95341985Y-59664539D01*
X95340805Y-59662347D01*
X95340617Y-59662094D01*
X95340510Y-59661987D01*
X95340509Y-59661985D01*
X95238015Y-59559491D01*
X95238012Y-59559489D01*
X95238010Y-59559487D01*
X95238009Y-59559486D01*
X95163077Y-59516224D01*
X95139007Y-59496733D01*
X95126309Y-59482630D01*
X95103040Y-59436955D01*
X95102158Y-59432806D01*
X95100000Y-59412243D01*
X95100000Y-53400001D01*
X95100000Y-53400000D01*
X95099999Y-53400000D01*
X86400001Y-53400000D01*
X86400000Y-53400000D01*
X86400000Y-59600000D01*
X82600000Y-59600000D01*
X82600000Y-57700000D01*
X82599999Y-57700000D01*
X72675180Y-57700000D01*
X72644587Y-57695154D01*
X72631901Y-57691032D01*
X72582401Y-57655068D01*
X72582394Y-57655058D01*
X72579400Y-57650936D01*
X72560500Y-57592756D01*
X72560500Y-51636529D01*
X89809500Y-51636529D01*
X89809500Y-51843469D01*
X89849869Y-52046417D01*
X89849869Y-52046419D01*
X89929055Y-52237593D01*
X89929057Y-52237595D01*
X89929058Y-52237597D01*
X89929059Y-52237598D01*
X90044023Y-52409655D01*
X90190345Y-52555977D01*
X90362402Y-52670941D01*
X90553580Y-52750130D01*
X90756535Y-52790500D01*
X90756536Y-52790500D01*
X90963464Y-52790500D01*
X90963465Y-52790500D01*
X91166420Y-52750130D01*
X91357598Y-52670941D01*
X91529655Y-52555977D01*
X91675977Y-52409655D01*
X91790941Y-52237598D01*
X91870130Y-52046420D01*
X91910500Y-51843465D01*
X91910500Y-51636535D01*
X91910499Y-51636532D01*
X91910498Y-51636529D01*
X92349500Y-51636529D01*
X92349500Y-51843469D01*
X92389869Y-52046417D01*
X92389869Y-52046419D01*
X92469055Y-52237593D01*
X92469057Y-52237595D01*
X92469058Y-52237597D01*
X92469059Y-52237598D01*
X92584023Y-52409655D01*
X92730345Y-52555977D01*
X92902402Y-52670941D01*
X93093580Y-52750130D01*
X93296535Y-52790500D01*
X93296536Y-52790500D01*
X93503464Y-52790500D01*
X93503465Y-52790500D01*
X93706420Y-52750130D01*
X93897598Y-52670941D01*
X94069655Y-52555977D01*
X94215977Y-52409655D01*
X94330941Y-52237598D01*
X94410130Y-52046420D01*
X94450500Y-51843465D01*
X94450500Y-51636535D01*
X94450499Y-51636532D01*
X94450498Y-51636529D01*
X94889500Y-51636529D01*
X94889500Y-51843469D01*
X94929869Y-52046417D01*
X94929869Y-52046419D01*
X95009055Y-52237593D01*
X95009057Y-52237595D01*
X95009058Y-52237597D01*
X95009059Y-52237598D01*
X95124023Y-52409655D01*
X95270345Y-52555977D01*
X95442402Y-52670941D01*
X95633580Y-52750130D01*
X95836535Y-52790500D01*
X95836536Y-52790500D01*
X96043464Y-52790500D01*
X96043465Y-52790500D01*
X96246420Y-52750130D01*
X96437598Y-52670941D01*
X96609655Y-52555977D01*
X96755977Y-52409655D01*
X96870941Y-52237598D01*
X96950130Y-52046420D01*
X96990500Y-51843465D01*
X96990500Y-51636535D01*
X96990499Y-51636529D01*
X96985999Y-51613904D01*
X96976271Y-51564999D01*
X97394005Y-51564999D01*
X97394006Y-51564999D01*
X97394006Y-51565000D01*
X97881485Y-51565000D01*
X97939676Y-51583907D01*
X97975640Y-51633407D01*
X97978790Y-51667685D01*
X97980000Y-51667685D01*
X97980000Y-51812315D01*
X97977927Y-51812315D01*
X97968486Y-51863242D01*
X97924102Y-51905358D01*
X97881485Y-51915000D01*
X97394006Y-51915000D01*
X97407082Y-51997574D01*
X97460588Y-52162248D01*
X97539055Y-52316250D01*
X97539188Y-52316515D01*
X97539199Y-52316533D01*
X97606857Y-52409655D01*
X97640962Y-52456596D01*
X97763403Y-52579037D01*
X97763406Y-52579039D01*
X97903465Y-52680799D01*
X97903480Y-52680808D01*
X97903730Y-52680934D01*
X98057751Y-52759411D01*
X98222420Y-52812915D01*
X98284355Y-52822724D01*
X98304999Y-52825994D01*
X98304999Y-52825993D01*
X98305000Y-52825994D01*
X98305000Y-52338514D01*
X98323907Y-52280323D01*
X98373407Y-52244359D01*
X98407685Y-52241213D01*
X98407685Y-52240000D01*
X98552315Y-52240000D01*
X98552315Y-52242077D01*
X98603219Y-52251500D01*
X98645346Y-52295873D01*
X98655000Y-52338514D01*
X98655000Y-52825993D01*
X98737574Y-52812916D01*
X98737575Y-52812915D01*
X98737579Y-52812915D01*
X98902248Y-52759411D01*
X99056524Y-52680804D01*
X99056528Y-52680802D01*
X99056529Y-52680801D01*
X99056533Y-52680799D01*
X99114118Y-52638960D01*
X99196596Y-52579037D01*
X99319037Y-52456596D01*
X99378960Y-52374118D01*
X99420799Y-52316533D01*
X99420804Y-52316524D01*
X99420809Y-52316515D01*
X99499411Y-52162248D01*
X99552915Y-51997579D01*
X99565994Y-51915000D01*
X99078515Y-51915000D01*
X99020324Y-51896093D01*
X98984360Y-51846593D01*
X98981210Y-51812315D01*
X98980000Y-51812315D01*
X98980000Y-51667685D01*
X98982073Y-51667685D01*
X98987849Y-51636529D01*
X99969500Y-51636529D01*
X99969500Y-51843469D01*
X100009869Y-52046417D01*
X100009869Y-52046419D01*
X100089055Y-52237593D01*
X100089057Y-52237595D01*
X100089058Y-52237597D01*
X100089059Y-52237598D01*
X100204023Y-52409655D01*
X100350345Y-52555977D01*
X100522402Y-52670941D01*
X100713580Y-52750130D01*
X100916535Y-52790500D01*
X100916536Y-52790500D01*
X101123464Y-52790500D01*
X101123465Y-52790500D01*
X101326420Y-52750130D01*
X101517598Y-52670941D01*
X101689655Y-52555977D01*
X101835977Y-52409655D01*
X101950941Y-52237598D01*
X102030130Y-52046420D01*
X102070500Y-51843465D01*
X102070500Y-51636535D01*
X102070499Y-51636532D01*
X102070498Y-51636529D01*
X102509500Y-51636529D01*
X102509500Y-51843469D01*
X102549869Y-52046417D01*
X102549869Y-52046419D01*
X102629055Y-52237593D01*
X102629057Y-52237595D01*
X102629058Y-52237597D01*
X102629059Y-52237598D01*
X102744023Y-52409655D01*
X102890345Y-52555977D01*
X103062402Y-52670941D01*
X103253580Y-52750130D01*
X103456535Y-52790500D01*
X103456536Y-52790500D01*
X103663464Y-52790500D01*
X103663465Y-52790500D01*
X103866420Y-52750130D01*
X104057598Y-52670941D01*
X104229655Y-52555977D01*
X104375977Y-52409655D01*
X104490941Y-52237598D01*
X104570130Y-52046420D01*
X104610500Y-51843465D01*
X104610500Y-51636535D01*
X104610499Y-51636532D01*
X104610498Y-51636529D01*
X105049500Y-51636529D01*
X105049500Y-51843469D01*
X105089869Y-52046417D01*
X105089869Y-52046419D01*
X105169055Y-52237593D01*
X105169057Y-52237595D01*
X105169058Y-52237597D01*
X105169059Y-52237598D01*
X105284023Y-52409655D01*
X105430345Y-52555977D01*
X105602402Y-52670941D01*
X105793580Y-52750130D01*
X105996535Y-52790500D01*
X105996536Y-52790500D01*
X106203464Y-52790500D01*
X106203465Y-52790500D01*
X106406420Y-52750130D01*
X106597598Y-52670941D01*
X106769655Y-52555977D01*
X106915977Y-52409655D01*
X107030941Y-52237598D01*
X107110130Y-52046420D01*
X107150500Y-51843465D01*
X107150500Y-51636535D01*
X107150499Y-51636532D01*
X107150498Y-51636529D01*
X107589500Y-51636529D01*
X107589500Y-51843469D01*
X107629869Y-52046417D01*
X107629869Y-52046419D01*
X107709055Y-52237593D01*
X107709057Y-52237595D01*
X107709058Y-52237597D01*
X107709059Y-52237598D01*
X107824023Y-52409655D01*
X107970345Y-52555977D01*
X108142402Y-52670941D01*
X108333580Y-52750130D01*
X108536535Y-52790500D01*
X108536536Y-52790500D01*
X108743464Y-52790500D01*
X108743465Y-52790500D01*
X108946420Y-52750130D01*
X109137598Y-52670941D01*
X109309655Y-52555977D01*
X109455977Y-52409655D01*
X109570941Y-52237598D01*
X109650130Y-52046420D01*
X109690500Y-51843465D01*
X109690500Y-51636535D01*
X109690499Y-51636532D01*
X109690498Y-51636529D01*
X110129500Y-51636529D01*
X110129500Y-51843469D01*
X110169869Y-52046417D01*
X110169869Y-52046419D01*
X110249055Y-52237593D01*
X110249057Y-52237595D01*
X110249058Y-52237597D01*
X110249059Y-52237598D01*
X110364023Y-52409655D01*
X110510345Y-52555977D01*
X110682402Y-52670941D01*
X110873580Y-52750130D01*
X111076535Y-52790500D01*
X111076536Y-52790500D01*
X111283464Y-52790500D01*
X111283465Y-52790500D01*
X111486420Y-52750130D01*
X111677598Y-52670941D01*
X111849655Y-52555977D01*
X111995977Y-52409655D01*
X112110941Y-52237598D01*
X112190130Y-52046420D01*
X112230500Y-51843465D01*
X112230500Y-51636535D01*
X112230499Y-51636532D01*
X112230498Y-51636529D01*
X112669500Y-51636529D01*
X112669500Y-51843469D01*
X112709869Y-52046417D01*
X112709869Y-52046419D01*
X112789055Y-52237593D01*
X112789057Y-52237595D01*
X112789058Y-52237597D01*
X112789059Y-52237598D01*
X112904023Y-52409655D01*
X113050345Y-52555977D01*
X113222402Y-52670941D01*
X113413580Y-52750130D01*
X113616535Y-52790500D01*
X113616536Y-52790500D01*
X113823464Y-52790500D01*
X113823465Y-52790500D01*
X114026420Y-52750130D01*
X114217598Y-52670941D01*
X114389655Y-52555977D01*
X114535977Y-52409655D01*
X114650941Y-52237598D01*
X114730130Y-52046420D01*
X114770500Y-51843465D01*
X114770500Y-51636535D01*
X114770499Y-51636532D01*
X114770498Y-51636529D01*
X116729500Y-51636529D01*
X116729500Y-51843469D01*
X116769869Y-52046417D01*
X116769869Y-52046419D01*
X116849055Y-52237593D01*
X116849057Y-52237595D01*
X116849058Y-52237597D01*
X116849059Y-52237598D01*
X116964023Y-52409655D01*
X117110345Y-52555977D01*
X117282402Y-52670941D01*
X117473580Y-52750130D01*
X117676535Y-52790500D01*
X117676536Y-52790500D01*
X117883464Y-52790500D01*
X117883465Y-52790500D01*
X118086420Y-52750130D01*
X118277598Y-52670941D01*
X118449655Y-52555977D01*
X118595977Y-52409655D01*
X118710941Y-52237598D01*
X118790130Y-52046420D01*
X118830500Y-51843465D01*
X118830500Y-51636535D01*
X118830499Y-51636532D01*
X118830498Y-51636529D01*
X119269500Y-51636529D01*
X119269500Y-51843469D01*
X119309869Y-52046417D01*
X119309869Y-52046419D01*
X119389055Y-52237593D01*
X119389057Y-52237595D01*
X119389058Y-52237597D01*
X119389059Y-52237598D01*
X119504023Y-52409655D01*
X119650345Y-52555977D01*
X119822402Y-52670941D01*
X120013580Y-52750130D01*
X120216535Y-52790500D01*
X120216536Y-52790500D01*
X120423464Y-52790500D01*
X120423465Y-52790500D01*
X120626420Y-52750130D01*
X120817598Y-52670941D01*
X120989655Y-52555977D01*
X121135977Y-52409655D01*
X121250941Y-52237598D01*
X121330130Y-52046420D01*
X121370500Y-51843465D01*
X121370500Y-51636535D01*
X121370499Y-51636532D01*
X121370498Y-51636529D01*
X121809500Y-51636529D01*
X121809500Y-51843469D01*
X121849869Y-52046417D01*
X121849869Y-52046419D01*
X121929055Y-52237593D01*
X121929057Y-52237595D01*
X121929058Y-52237597D01*
X121929059Y-52237598D01*
X122044023Y-52409655D01*
X122190345Y-52555977D01*
X122362402Y-52670941D01*
X122553580Y-52750130D01*
X122756535Y-52790500D01*
X122756536Y-52790500D01*
X122963464Y-52790500D01*
X122963465Y-52790500D01*
X123166420Y-52750130D01*
X123357598Y-52670941D01*
X123529655Y-52555977D01*
X123675977Y-52409655D01*
X123790941Y-52237598D01*
X123870130Y-52046420D01*
X123910500Y-51843465D01*
X123910500Y-51636535D01*
X123910499Y-51636532D01*
X123910498Y-51636529D01*
X124349500Y-51636529D01*
X124349500Y-51843469D01*
X124389869Y-52046417D01*
X124389869Y-52046419D01*
X124469055Y-52237593D01*
X124469057Y-52237595D01*
X124469058Y-52237597D01*
X124469059Y-52237598D01*
X124584023Y-52409655D01*
X124730345Y-52555977D01*
X124902402Y-52670941D01*
X125093580Y-52750130D01*
X125296535Y-52790500D01*
X125296536Y-52790500D01*
X125503464Y-52790500D01*
X125503465Y-52790500D01*
X125706420Y-52750130D01*
X125897598Y-52670941D01*
X126069655Y-52555977D01*
X126215977Y-52409655D01*
X126330941Y-52237598D01*
X126410130Y-52046420D01*
X126450500Y-51843465D01*
X126450500Y-51636535D01*
X126450499Y-51636532D01*
X126450498Y-51636529D01*
X126889500Y-51636529D01*
X126889500Y-51843469D01*
X126929869Y-52046417D01*
X126929869Y-52046419D01*
X127009055Y-52237593D01*
X127009057Y-52237595D01*
X127009058Y-52237597D01*
X127009059Y-52237598D01*
X127124023Y-52409655D01*
X127270345Y-52555977D01*
X127442402Y-52670941D01*
X127633580Y-52750130D01*
X127836535Y-52790500D01*
X127836536Y-52790500D01*
X128043464Y-52790500D01*
X128043465Y-52790500D01*
X128246420Y-52750130D01*
X128437598Y-52670941D01*
X128609655Y-52555977D01*
X128755977Y-52409655D01*
X128870941Y-52237598D01*
X128950130Y-52046420D01*
X128990500Y-51843465D01*
X128990500Y-51636535D01*
X128990499Y-51636532D01*
X128990498Y-51636529D01*
X129429500Y-51636529D01*
X129429500Y-51843469D01*
X129469869Y-52046417D01*
X129469869Y-52046419D01*
X129549055Y-52237593D01*
X129549057Y-52237595D01*
X129549058Y-52237597D01*
X129549059Y-52237598D01*
X129664023Y-52409655D01*
X129810345Y-52555977D01*
X129982402Y-52670941D01*
X130173580Y-52750130D01*
X130376535Y-52790500D01*
X130376536Y-52790500D01*
X130583464Y-52790500D01*
X130583465Y-52790500D01*
X130786420Y-52750130D01*
X130977598Y-52670941D01*
X131149655Y-52555977D01*
X131295977Y-52409655D01*
X131410941Y-52237598D01*
X131490130Y-52046420D01*
X131530500Y-51843465D01*
X131530500Y-51636535D01*
X131530499Y-51636532D01*
X131530498Y-51636529D01*
X131969500Y-51636529D01*
X131969500Y-51843469D01*
X132009869Y-52046417D01*
X132009869Y-52046419D01*
X132089055Y-52237593D01*
X132089057Y-52237595D01*
X132089058Y-52237597D01*
X132089059Y-52237598D01*
X132204023Y-52409655D01*
X132350345Y-52555977D01*
X132522402Y-52670941D01*
X132713580Y-52750130D01*
X132916535Y-52790500D01*
X132916536Y-52790500D01*
X133123464Y-52790500D01*
X133123465Y-52790500D01*
X133326420Y-52750130D01*
X133517598Y-52670941D01*
X133689655Y-52555977D01*
X133835977Y-52409655D01*
X133950941Y-52237598D01*
X134030130Y-52046420D01*
X134070500Y-51843465D01*
X134070500Y-51636535D01*
X134070499Y-51636532D01*
X134070498Y-51636529D01*
X134509500Y-51636529D01*
X134509500Y-51843469D01*
X134549869Y-52046417D01*
X134549869Y-52046419D01*
X134629055Y-52237593D01*
X134629057Y-52237595D01*
X134629058Y-52237597D01*
X134629059Y-52237598D01*
X134744023Y-52409655D01*
X134890345Y-52555977D01*
X135062402Y-52670941D01*
X135253580Y-52750130D01*
X135456535Y-52790500D01*
X135456536Y-52790500D01*
X135663464Y-52790500D01*
X135663465Y-52790500D01*
X135866420Y-52750130D01*
X136057598Y-52670941D01*
X136229655Y-52555977D01*
X136375977Y-52409655D01*
X136490941Y-52237598D01*
X136570130Y-52046420D01*
X136610500Y-51843465D01*
X136610500Y-51636535D01*
X136570130Y-51433580D01*
X136490941Y-51242402D01*
X136375977Y-51070345D01*
X136229655Y-50924023D01*
X136229651Y-50924020D01*
X136114738Y-50847238D01*
X136102232Y-50831375D01*
X136057604Y-50809061D01*
X136033785Y-50799195D01*
X135866418Y-50729869D01*
X135866416Y-50729868D01*
X135663469Y-50689500D01*
X135663467Y-50689500D01*
X135663465Y-50689500D01*
X135456535Y-50689500D01*
X135456532Y-50689500D01*
X135456529Y-50689500D01*
X135253581Y-50729869D01*
X135253579Y-50729869D01*
X135062404Y-50809056D01*
X134890351Y-50924017D01*
X134744017Y-51070351D01*
X134629056Y-51242404D01*
X134549869Y-51433579D01*
X134549869Y-51433581D01*
X134509500Y-51636529D01*
X134070498Y-51636529D01*
X134030130Y-51433581D01*
X134030129Y-51433579D01*
X133950941Y-51242402D01*
X133835977Y-51070345D01*
X133689655Y-50924023D01*
X133689651Y-50924020D01*
X133574738Y-50847238D01*
X133562232Y-50831375D01*
X133517604Y-50809061D01*
X133493785Y-50799195D01*
X133326418Y-50729869D01*
X133326416Y-50729868D01*
X133123469Y-50689500D01*
X133123467Y-50689500D01*
X133123465Y-50689500D01*
X132916535Y-50689500D01*
X132916532Y-50689500D01*
X132916529Y-50689500D01*
X132713581Y-50729869D01*
X132713579Y-50729869D01*
X132522404Y-50809056D01*
X132350351Y-50924017D01*
X132204017Y-51070351D01*
X132089056Y-51242404D01*
X132009869Y-51433579D01*
X132009869Y-51433581D01*
X131969500Y-51636529D01*
X131530498Y-51636529D01*
X131490130Y-51433581D01*
X131490129Y-51433579D01*
X131410941Y-51242402D01*
X131295977Y-51070345D01*
X131149655Y-50924023D01*
X131149651Y-50924020D01*
X131034738Y-50847238D01*
X131022232Y-50831375D01*
X130977604Y-50809061D01*
X130953785Y-50799195D01*
X130786418Y-50729869D01*
X130786416Y-50729868D01*
X130583469Y-50689500D01*
X130583467Y-50689500D01*
X130583465Y-50689500D01*
X130376535Y-50689500D01*
X130376532Y-50689500D01*
X130376529Y-50689500D01*
X130173581Y-50729869D01*
X130173579Y-50729869D01*
X129982404Y-50809056D01*
X129810351Y-50924017D01*
X129664017Y-51070351D01*
X129549056Y-51242404D01*
X129469869Y-51433579D01*
X129469869Y-51433581D01*
X129429500Y-51636529D01*
X128990498Y-51636529D01*
X128950130Y-51433581D01*
X128950129Y-51433579D01*
X128870941Y-51242402D01*
X128755977Y-51070345D01*
X128609655Y-50924023D01*
X128609651Y-50924020D01*
X128494738Y-50847238D01*
X128482232Y-50831375D01*
X128437604Y-50809061D01*
X128413785Y-50799195D01*
X128246418Y-50729869D01*
X128246416Y-50729868D01*
X128043469Y-50689500D01*
X128043467Y-50689500D01*
X128043465Y-50689500D01*
X127836535Y-50689500D01*
X127836532Y-50689500D01*
X127836529Y-50689500D01*
X127633581Y-50729869D01*
X127633579Y-50729869D01*
X127442404Y-50809056D01*
X127270351Y-50924017D01*
X127124017Y-51070351D01*
X127009056Y-51242404D01*
X126929869Y-51433579D01*
X126929869Y-51433581D01*
X126889500Y-51636529D01*
X126450498Y-51636529D01*
X126410130Y-51433581D01*
X126410129Y-51433579D01*
X126330941Y-51242402D01*
X126215977Y-51070345D01*
X126069655Y-50924023D01*
X126069651Y-50924020D01*
X125954738Y-50847238D01*
X125942232Y-50831375D01*
X125897604Y-50809061D01*
X125873785Y-50799195D01*
X125706418Y-50729869D01*
X125706416Y-50729868D01*
X125503469Y-50689500D01*
X125503467Y-50689500D01*
X125503465Y-50689500D01*
X125296535Y-50689500D01*
X125296532Y-50689500D01*
X125296529Y-50689500D01*
X125093581Y-50729869D01*
X125093579Y-50729869D01*
X124902404Y-50809056D01*
X124730351Y-50924017D01*
X124584017Y-51070351D01*
X124469056Y-51242404D01*
X124389869Y-51433579D01*
X124389869Y-51433581D01*
X124349500Y-51636529D01*
X123910498Y-51636529D01*
X123870130Y-51433581D01*
X123870129Y-51433579D01*
X123790941Y-51242402D01*
X123675977Y-51070345D01*
X123529655Y-50924023D01*
X123529651Y-50924020D01*
X123414738Y-50847238D01*
X123402232Y-50831375D01*
X123357604Y-50809061D01*
X123333785Y-50799195D01*
X123166418Y-50729869D01*
X123166416Y-50729868D01*
X122963469Y-50689500D01*
X122963467Y-50689500D01*
X122963465Y-50689500D01*
X122756535Y-50689500D01*
X122756532Y-50689500D01*
X122756529Y-50689500D01*
X122553581Y-50729869D01*
X122553579Y-50729869D01*
X122362404Y-50809056D01*
X122190351Y-50924017D01*
X122044017Y-51070351D01*
X121929056Y-51242404D01*
X121849869Y-51433579D01*
X121849869Y-51433581D01*
X121809500Y-51636529D01*
X121370498Y-51636529D01*
X121330130Y-51433581D01*
X121330129Y-51433579D01*
X121250941Y-51242402D01*
X121135977Y-51070345D01*
X120989655Y-50924023D01*
X120989651Y-50924020D01*
X120874738Y-50847238D01*
X120862232Y-50831375D01*
X120817604Y-50809061D01*
X120793785Y-50799195D01*
X120626418Y-50729869D01*
X120626416Y-50729868D01*
X120423469Y-50689500D01*
X120423467Y-50689500D01*
X120423465Y-50689500D01*
X120216535Y-50689500D01*
X120216532Y-50689500D01*
X120216529Y-50689500D01*
X120013581Y-50729869D01*
X120013579Y-50729869D01*
X119822404Y-50809056D01*
X119650351Y-50924017D01*
X119504017Y-51070351D01*
X119389056Y-51242404D01*
X119309869Y-51433579D01*
X119309869Y-51433581D01*
X119269500Y-51636529D01*
X118830498Y-51636529D01*
X118790130Y-51433581D01*
X118790129Y-51433579D01*
X118710941Y-51242402D01*
X118595977Y-51070345D01*
X118449655Y-50924023D01*
X118449651Y-50924020D01*
X118334738Y-50847238D01*
X118322232Y-50831375D01*
X118277604Y-50809061D01*
X118253785Y-50799195D01*
X118086418Y-50729869D01*
X118086416Y-50729868D01*
X117883469Y-50689500D01*
X117883467Y-50689500D01*
X117883465Y-50689500D01*
X117676535Y-50689500D01*
X117676532Y-50689500D01*
X117676529Y-50689500D01*
X117473581Y-50729869D01*
X117473579Y-50729869D01*
X117282404Y-50809056D01*
X117110351Y-50924017D01*
X116964017Y-51070351D01*
X116849056Y-51242404D01*
X116769869Y-51433579D01*
X116769869Y-51433581D01*
X116729500Y-51636529D01*
X114770498Y-51636529D01*
X114730130Y-51433581D01*
X114730129Y-51433579D01*
X114650941Y-51242402D01*
X114535977Y-51070345D01*
X114389655Y-50924023D01*
X114389651Y-50924020D01*
X114274738Y-50847238D01*
X114262232Y-50831375D01*
X114217604Y-50809061D01*
X114193785Y-50799195D01*
X114026418Y-50729869D01*
X114026416Y-50729868D01*
X113823469Y-50689500D01*
X113823467Y-50689500D01*
X113823465Y-50689500D01*
X113616535Y-50689500D01*
X113616532Y-50689500D01*
X113616529Y-50689500D01*
X113413581Y-50729869D01*
X113413579Y-50729869D01*
X113222404Y-50809056D01*
X113050351Y-50924017D01*
X112904017Y-51070351D01*
X112789056Y-51242404D01*
X112709869Y-51433579D01*
X112709869Y-51433581D01*
X112669500Y-51636529D01*
X112230498Y-51636529D01*
X112190130Y-51433581D01*
X112190129Y-51433579D01*
X112110941Y-51242402D01*
X111995977Y-51070345D01*
X111849655Y-50924023D01*
X111849651Y-50924020D01*
X111734738Y-50847238D01*
X111722232Y-50831375D01*
X111677604Y-50809061D01*
X111653785Y-50799195D01*
X111486418Y-50729869D01*
X111486416Y-50729868D01*
X111283469Y-50689500D01*
X111283467Y-50689500D01*
X111283465Y-50689500D01*
X111076535Y-50689500D01*
X111076532Y-50689500D01*
X111076529Y-50689500D01*
X110873581Y-50729869D01*
X110873579Y-50729869D01*
X110682404Y-50809056D01*
X110510351Y-50924017D01*
X110364017Y-51070351D01*
X110249056Y-51242404D01*
X110169869Y-51433579D01*
X110169869Y-51433581D01*
X110129500Y-51636529D01*
X109690498Y-51636529D01*
X109650130Y-51433581D01*
X109650129Y-51433579D01*
X109570941Y-51242402D01*
X109455977Y-51070345D01*
X109309655Y-50924023D01*
X109309651Y-50924020D01*
X109194738Y-50847238D01*
X109182232Y-50831375D01*
X109137604Y-50809061D01*
X109113785Y-50799195D01*
X108946418Y-50729869D01*
X108946416Y-50729868D01*
X108743469Y-50689500D01*
X108743467Y-50689500D01*
X108743465Y-50689500D01*
X108536535Y-50689500D01*
X108536532Y-50689500D01*
X108536529Y-50689500D01*
X108333581Y-50729869D01*
X108333579Y-50729869D01*
X108142404Y-50809056D01*
X107970351Y-50924017D01*
X107824017Y-51070351D01*
X107709056Y-51242404D01*
X107629869Y-51433579D01*
X107629869Y-51433581D01*
X107589500Y-51636529D01*
X107150498Y-51636529D01*
X107110130Y-51433581D01*
X107110129Y-51433579D01*
X107030941Y-51242402D01*
X106915977Y-51070345D01*
X106769655Y-50924023D01*
X106769651Y-50924020D01*
X106654738Y-50847238D01*
X106642232Y-50831375D01*
X106597604Y-50809061D01*
X106573785Y-50799195D01*
X106406418Y-50729869D01*
X106406416Y-50729868D01*
X106203469Y-50689500D01*
X106203467Y-50689500D01*
X106203465Y-50689500D01*
X105996535Y-50689500D01*
X105996532Y-50689500D01*
X105996529Y-50689500D01*
X105793581Y-50729869D01*
X105793579Y-50729869D01*
X105602404Y-50809056D01*
X105430351Y-50924017D01*
X105284017Y-51070351D01*
X105169056Y-51242404D01*
X105089869Y-51433579D01*
X105089869Y-51433581D01*
X105049500Y-51636529D01*
X104610498Y-51636529D01*
X104570130Y-51433581D01*
X104570129Y-51433579D01*
X104490941Y-51242402D01*
X104375977Y-51070345D01*
X104229655Y-50924023D01*
X104229651Y-50924020D01*
X104114738Y-50847238D01*
X104102232Y-50831375D01*
X104057604Y-50809061D01*
X104033785Y-50799195D01*
X103866418Y-50729869D01*
X103866416Y-50729868D01*
X103663469Y-50689500D01*
X103663467Y-50689500D01*
X103663465Y-50689500D01*
X103456535Y-50689500D01*
X103456532Y-50689500D01*
X103456529Y-50689500D01*
X103253581Y-50729869D01*
X103253579Y-50729869D01*
X103062404Y-50809056D01*
X102890351Y-50924017D01*
X102744017Y-51070351D01*
X102629056Y-51242404D01*
X102549869Y-51433579D01*
X102549869Y-51433581D01*
X102509500Y-51636529D01*
X102070498Y-51636529D01*
X102030130Y-51433581D01*
X102030129Y-51433579D01*
X101950941Y-51242402D01*
X101835977Y-51070345D01*
X101689655Y-50924023D01*
X101689651Y-50924020D01*
X101574738Y-50847238D01*
X101562232Y-50831375D01*
X101517604Y-50809061D01*
X101493785Y-50799195D01*
X101326418Y-50729869D01*
X101326416Y-50729868D01*
X101123469Y-50689500D01*
X101123467Y-50689500D01*
X101123465Y-50689500D01*
X100916535Y-50689500D01*
X100916532Y-50689500D01*
X100916529Y-50689500D01*
X100713581Y-50729869D01*
X100713579Y-50729869D01*
X100522404Y-50809056D01*
X100350351Y-50924017D01*
X100204017Y-51070351D01*
X100089056Y-51242404D01*
X100009869Y-51433579D01*
X100009869Y-51433581D01*
X99969500Y-51636529D01*
X98987849Y-51636529D01*
X98991514Y-51616758D01*
X99035898Y-51574642D01*
X99078515Y-51565000D01*
X99565993Y-51565000D01*
X99565994Y-51565000D01*
X99565994Y-51564999D01*
X99565994Y-51564995D01*
X99552916Y-51482424D01*
X99552915Y-51482420D01*
X99499411Y-51317751D01*
X99420934Y-51163730D01*
X99420808Y-51163480D01*
X99420799Y-51163465D01*
X99319039Y-51023406D01*
X99319037Y-51023403D01*
X99196596Y-50900962D01*
X99196592Y-50900959D01*
X99056533Y-50799199D01*
X99056515Y-50799188D01*
X99056250Y-50799055D01*
X98902248Y-50720588D01*
X98737587Y-50667086D01*
X98737581Y-50667085D01*
X98737578Y-50667084D01*
X98655000Y-50654004D01*
X98655000Y-51141485D01*
X98636093Y-51199676D01*
X98586593Y-51235640D01*
X98552315Y-51238790D01*
X98552315Y-51240000D01*
X98407685Y-51240000D01*
X98407685Y-51237927D01*
X98356758Y-51228486D01*
X98314642Y-51184102D01*
X98305000Y-51141485D01*
X98305000Y-50654006D01*
X98305000Y-50654005D01*
X98304999Y-50654005D01*
X98304996Y-50654005D01*
X98222419Y-50667084D01*
X98222413Y-50667085D01*
X98222412Y-50667086D01*
X98153429Y-50689500D01*
X98057747Y-50720589D01*
X97903747Y-50799055D01*
X97903492Y-50799183D01*
X97903465Y-50799199D01*
X97763406Y-50900959D01*
X97640959Y-51023406D01*
X97539199Y-51163465D01*
X97539183Y-51163492D01*
X97539055Y-51163747D01*
X97460589Y-51317747D01*
X97407082Y-51482424D01*
X97394005Y-51564999D01*
X96976271Y-51564999D01*
X96950130Y-51433581D01*
X96949886Y-51432993D01*
X96902151Y-51317751D01*
X96870942Y-51242404D01*
X96868527Y-51238790D01*
X96755977Y-51070345D01*
X96609655Y-50924023D01*
X96609651Y-50924020D01*
X96494738Y-50847238D01*
X96482232Y-50831375D01*
X96437604Y-50809061D01*
X96413785Y-50799195D01*
X96246418Y-50729869D01*
X96246416Y-50729868D01*
X96043469Y-50689500D01*
X96043467Y-50689500D01*
X96043465Y-50689500D01*
X95836535Y-50689500D01*
X95836532Y-50689500D01*
X95836529Y-50689500D01*
X95633581Y-50729869D01*
X95633579Y-50729869D01*
X95442404Y-50809056D01*
X95270351Y-50924017D01*
X95124017Y-51070351D01*
X95009056Y-51242404D01*
X94929869Y-51433579D01*
X94929869Y-51433581D01*
X94889500Y-51636529D01*
X94450498Y-51636529D01*
X94410130Y-51433581D01*
X94410129Y-51433579D01*
X94330941Y-51242402D01*
X94215977Y-51070345D01*
X94069655Y-50924023D01*
X94069651Y-50924020D01*
X93954738Y-50847238D01*
X93942232Y-50831375D01*
X93897604Y-50809061D01*
X93873785Y-50799195D01*
X93706418Y-50729869D01*
X93706416Y-50729868D01*
X93503469Y-50689500D01*
X93503467Y-50689500D01*
X93503465Y-50689500D01*
X93296535Y-50689500D01*
X93296532Y-50689500D01*
X93296529Y-50689500D01*
X93093581Y-50729869D01*
X93093579Y-50729869D01*
X92902404Y-50809056D01*
X92730351Y-50924017D01*
X92584017Y-51070351D01*
X92469056Y-51242404D01*
X92389869Y-51433579D01*
X92389869Y-51433581D01*
X92349500Y-51636529D01*
X91910498Y-51636529D01*
X91870130Y-51433581D01*
X91870129Y-51433579D01*
X91790941Y-51242402D01*
X91675977Y-51070345D01*
X91529655Y-50924023D01*
X91529651Y-50924020D01*
X91414738Y-50847238D01*
X91402232Y-50831375D01*
X91357604Y-50809061D01*
X91333785Y-50799195D01*
X91166418Y-50729869D01*
X91166416Y-50729868D01*
X90963469Y-50689500D01*
X90963467Y-50689500D01*
X90963465Y-50689500D01*
X90756535Y-50689500D01*
X90756532Y-50689500D01*
X90756529Y-50689500D01*
X90553581Y-50729869D01*
X90553579Y-50729869D01*
X90362404Y-50809056D01*
X90190351Y-50924017D01*
X90044017Y-51070351D01*
X89929056Y-51242404D01*
X89849869Y-51433579D01*
X89849869Y-51433581D01*
X89809500Y-51636529D01*
X72560500Y-51636529D01*
X72560500Y-49815180D01*
X72565343Y-49784594D01*
X72569465Y-49771905D01*
X72605423Y-49722406D01*
X72606022Y-49721971D01*
X72609563Y-49719400D01*
X72667743Y-49700500D01*
X136315997Y-49700500D01*
X136346588Y-49705345D01*
G37*
%TD.AperFunction*%
%TD*%
M02*
