%TF.GenerationSoftware,KiCad,Pcbnew,10.0.6*%
%TF.CreationDate,2026-09-22T14:46:25+02:00*%
%TF.ProjectId,mie1001_daq_board,6d696531-3030-4315-9f64-61715f626f61,rev?*%
%TF.SameCoordinates,Original*%
%TF.FileFunction,Soldermask,Bot*%
%TF.FilePolarity,Negative*%
%FSLAX46Y46*%
G04 Gerber Fmt 4.6, Leading zero omitted, Abs format (unit mm)*
G04 Created by KiCad (PCBNEW 10.0.6) date 2026-09-22 14:46:25*
%MOMM*%
%LPD*%
G01*
G04 APERTURE LIST*
G04 Aperture macros list*
%AMRoundRect*
0 Rectangle with rounded corners*
0 $1 Rounding radius*
0 $2 $3 $4 $5 $6 $7 $8 $9 X,Y pos of 4 corners*
0 Add a 4 corners polygon primitive as box body*
4,1,4,$2,$3,$4,$5,$6,$7,$8,$9,$2,$3,0*
0 Add four circle primitives for the rounded corners*
1,1,$1+$1,$2,$3*
1,1,$1+$1,$4,$5*
1,1,$1+$1,$6,$7*
1,1,$1+$1,$8,$9*
0 Add four rect primitives between the rounded corners*
20,1,$1+$1,$2,$3,$4,$5,0*
20,1,$1+$1,$4,$5,$6,$7,0*
20,1,$1+$1,$6,$7,$8,$9,0*
20,1,$1+$1,$8,$9,$2,$3,0*%
G04 Aperture macros list end*
%ADD10C,3.200000*%
%ADD11RoundRect,0.250001X-0.949999X0.949999X-0.949999X-0.949999X0.949999X-0.949999X0.949999X0.949999X0*%
%ADD12C,2.400000*%
%ADD13O,7.000000X3.500000*%
%ADD14RoundRect,0.400000X-0.400000X0.400000X-0.400000X-0.400000X0.400000X-0.400000X0.400000X0.400000X0*%
%ADD15C,1.600000*%
%ADD16R,1.700000X1.700000*%
%ADD17C,1.700000*%
%ADD18R,1.600000X1.600000*%
%ADD19O,1.600000X1.600000*%
G04 APERTURE END LIST*
D10*
%TO.C,H1*%
X86030000Y-100000000D03*
%TD*%
D11*
%TO.C,J2*%
X75700000Y-83600000D03*
D12*
X75700000Y-87100000D03*
%TD*%
D13*
%TO.C,J1*%
X135080000Y-80420000D03*
X134980000Y-90580000D03*
D14*
X126190000Y-85500000D03*
D15*
X126190000Y-82960000D03*
X128730000Y-85500000D03*
X126190000Y-88040000D03*
%TD*%
D16*
%TO.C,JP1*%
X121000000Y-73400000D03*
D17*
X121000000Y-75940000D03*
X121000000Y-78480000D03*
%TD*%
D10*
%TO.C,H2*%
X138100000Y-66979999D03*
%TD*%
D11*
%TO.C,J4*%
X75700000Y-74800000D03*
D12*
X75700000Y-78300000D03*
%TD*%
D16*
%TO.C,J3*%
X103000000Y-91400000D03*
D17*
X103000000Y-93940000D03*
X103000000Y-96480000D03*
%TD*%
D18*
%TO.C,A1*%
X100000000Y-100000000D03*
D19*
X102540000Y-100000000D03*
X105080000Y-100000000D03*
X107620000Y-100000000D03*
X110160000Y-100000000D03*
X112700000Y-100000000D03*
X115240000Y-100000000D03*
X117780000Y-100000000D03*
X122860000Y-100000000D03*
X125400000Y-100000000D03*
X127940000Y-100000000D03*
X130480000Y-100000000D03*
X133020000Y-100000000D03*
X135560000Y-100000000D03*
X135560000Y-51740000D03*
X133020000Y-51740000D03*
X130480000Y-51740000D03*
X127940000Y-51740000D03*
X125400000Y-51740000D03*
X122860000Y-51740000D03*
X120320000Y-51740000D03*
X117780000Y-51740000D03*
X113720000Y-51740000D03*
X111180000Y-51740000D03*
X108640000Y-51740000D03*
X106100000Y-51740000D03*
X103560000Y-51740000D03*
X101020000Y-51740000D03*
X98480000Y-51740000D03*
X95940000Y-51740000D03*
X93400000Y-51740000D03*
X90860000Y-51740000D03*
%TD*%
M02*
