%TF.GenerationSoftware,KiCad,Pcbnew,10.0.6*%
%TF.CreationDate,2026-09-24T16:02:01+02:00*%
%TF.ProjectId,mie1001_daq_simple,6d696531-3030-4315-9f64-61715f73696d,rev?*%
%TF.SameCoordinates,Original*%
%TF.FileFunction,Soldermask,Top*%
%TF.FilePolarity,Negative*%
%FSLAX46Y46*%
G04 Gerber Fmt 4.6, Leading zero omitted, Abs format (unit mm)*
G04 Created by KiCad (PCBNEW 10.0.6) date 2026-09-24 16:02:01*
%MOMM*%
%LPD*%
G01*
G04 APERTURE LIST*
G04 Aperture macros list*
%AMRoundRect*
0 Rectangle with rounded corners*
0 $1 Rounding radius*
0 $2 $3 $4 $5 $6 $7 $8 $9 X,Y pos of 4 corners*
0 Add a 4 corners polygon primitive as box body*
4,1,4,$2,$3,$4,$5,$6,$7,$8,$9,$2,$3,0*
0 Add four circle primitives for the rounded corners*
1,1,$1+$1,$2,$3*
1,1,$1+$1,$4,$5*
1,1,$1+$1,$6,$7*
1,1,$1+$1,$8,$9*
0 Add four rect primitives between the rounded corners*
20,1,$1+$1,$2,$3,$4,$5,0*
20,1,$1+$1,$4,$5,$6,$7,0*
20,1,$1+$1,$6,$7,$8,$9,0*
20,1,$1+$1,$8,$9,$2,$3,0*%
G04 Aperture macros list end*
%ADD10RoundRect,0.150000X0.150000X-0.587500X0.150000X0.587500X-0.150000X0.587500X-0.150000X-0.587500X0*%
%ADD11RoundRect,0.250000X0.312500X0.625000X-0.312500X0.625000X-0.312500X-0.625000X0.312500X-0.625000X0*%
%ADD12C,1.600000*%
%ADD13RoundRect,0.225000X-0.225000X-0.250000X0.225000X-0.250000X0.225000X0.250000X-0.225000X0.250000X0*%
%ADD14RoundRect,0.225000X-0.250000X0.225000X-0.250000X-0.225000X0.250000X-0.225000X0.250000X0.225000X0*%
%ADD15RoundRect,0.250000X0.550000X0.550000X-0.550000X0.550000X-0.550000X-0.550000X0.550000X-0.550000X0*%
%ADD16RoundRect,0.250001X0.949999X-0.949999X0.949999X0.949999X-0.949999X0.949999X-0.949999X-0.949999X0*%
%ADD17C,2.400000*%
%ADD18RoundRect,0.225000X0.225000X0.250000X-0.225000X0.250000X-0.225000X-0.250000X0.225000X-0.250000X0*%
%ADD19RoundRect,0.200000X-0.200000X-0.275000X0.200000X-0.275000X0.200000X0.275000X-0.200000X0.275000X0*%
%ADD20RoundRect,0.200000X0.200000X0.275000X-0.200000X0.275000X-0.200000X-0.275000X0.200000X-0.275000X0*%
%ADD21RoundRect,0.150000X-0.825000X-0.150000X0.825000X-0.150000X0.825000X0.150000X-0.825000X0.150000X0*%
%ADD22C,3.200000*%
%ADD23R,1.700000X1.700000*%
%ADD24C,1.700000*%
%ADD25RoundRect,0.250001X-0.949999X0.949999X-0.949999X-0.949999X0.949999X-0.949999X0.949999X0.949999X0*%
%ADD26C,2.050000*%
%ADD27C,2.250000*%
%ADD28RoundRect,0.250000X-0.550000X-0.550000X0.550000X-0.550000X0.550000X0.550000X-0.550000X0.550000X0*%
%ADD29RoundRect,0.250000X-0.475000X0.250000X-0.475000X-0.250000X0.475000X-0.250000X0.475000X0.250000X0*%
%ADD30R,1.600000X1.600000*%
%ADD31O,1.600000X1.600000*%
G04 APERTURE END LIST*
D10*
%TO.C,CR3*%
X122050000Y-63737500D03*
X123950000Y-63737500D03*
X123000000Y-61862500D03*
%TD*%
D11*
%TO.C,R6*%
X115862500Y-56400000D03*
X112937500Y-56400000D03*
%TD*%
D12*
%TO.C,R3*%
X107000000Y-70400000D03*
X109540000Y-70400000D03*
%TD*%
%TO.C,R4*%
X124600000Y-59000000D03*
X122060000Y-59000000D03*
%TD*%
D13*
%TO.C,C5*%
X103825000Y-54400000D03*
X105375000Y-54400000D03*
%TD*%
D14*
%TO.C,C3*%
X120000000Y-61625000D03*
X120000000Y-63175000D03*
%TD*%
D15*
%TO.C,CR1*%
X98000000Y-96400000D03*
D12*
X90380000Y-96400000D03*
%TD*%
D16*
%TO.C,J2*%
X137000000Y-88000000D03*
D17*
X137000000Y-84500000D03*
%TD*%
D12*
%TO.C,R1*%
X88000000Y-70400000D03*
X98160000Y-70400000D03*
%TD*%
%TO.C,R2*%
X88000000Y-66599999D03*
X98160000Y-66599999D03*
%TD*%
D18*
%TO.C,C2*%
X115175000Y-58300000D03*
X113625000Y-58300000D03*
%TD*%
D19*
%TO.C,R10*%
X100375000Y-54400000D03*
X102025000Y-54400000D03*
%TD*%
D20*
%TO.C,R11*%
X110025000Y-63700000D03*
X108375000Y-63700000D03*
%TD*%
D21*
%TO.C,U3*%
X111925000Y-59895000D03*
X111925000Y-61165000D03*
X111925000Y-62435000D03*
X111925000Y-63705000D03*
X116875000Y-63705000D03*
X116875000Y-62435000D03*
X116875000Y-61165000D03*
X116875000Y-59895000D03*
%TD*%
D22*
%TO.C,H1*%
X86030000Y-100000000D03*
%TD*%
D19*
%TO.C,R7*%
X108375000Y-59600000D03*
X110025000Y-59600000D03*
%TD*%
D14*
%TO.C,C7*%
X107800000Y-56025000D03*
X107800000Y-57575000D03*
%TD*%
D23*
%TO.C,J4*%
X116000000Y-88000000D03*
D24*
X118540000Y-88000000D03*
X121080000Y-88000000D03*
X123620000Y-88000000D03*
%TD*%
D25*
%TO.C,J1*%
X75700000Y-83600000D03*
D17*
X75700000Y-87100000D03*
%TD*%
D19*
%TO.C,R8*%
X99575000Y-62100000D03*
X101225000Y-62100000D03*
%TD*%
D25*
%TO.C,J3*%
X75700000Y-74800000D03*
D17*
X75700000Y-78300000D03*
%TD*%
D12*
%TO.C,C1*%
X102500000Y-96400000D03*
X105000000Y-96400000D03*
%TD*%
D22*
%TO.C,H2*%
X138100000Y-94920000D03*
%TD*%
D23*
%TO.C,U1*%
X88000000Y-88000000D03*
D24*
X90540000Y-88000000D03*
X93080000Y-88000000D03*
X95620000Y-88000000D03*
X98160000Y-88000000D03*
X100700000Y-88000000D03*
X103240000Y-88000000D03*
X105780000Y-88000000D03*
X108320000Y-88000000D03*
X110860000Y-88000000D03*
%TD*%
D20*
%TO.C,R5*%
X119425000Y-58100000D03*
X117775000Y-58100000D03*
%TD*%
%TO.C,R9*%
X101225000Y-63900000D03*
X99575000Y-63900000D03*
%TD*%
D26*
%TO.C,J5*%
X130400000Y-59000000D03*
D27*
X127860000Y-56460000D03*
X127860000Y-61540000D03*
X132940000Y-56460000D03*
X132940000Y-61540000D03*
%TD*%
D28*
%TO.C,CR2*%
X108000000Y-96400000D03*
D12*
X115620000Y-96400000D03*
%TD*%
D29*
%TO.C,C4*%
X103800000Y-62050000D03*
X103800000Y-63950000D03*
%TD*%
D22*
%TO.C,H3*%
X138100000Y-66979999D03*
%TD*%
D23*
%TO.C,U2*%
X119500000Y-67000000D03*
D24*
X119500000Y-69540000D03*
X119500000Y-72080000D03*
X119500000Y-74620000D03*
X119500000Y-77160000D03*
X119500000Y-79700000D03*
%TD*%
D21*
%TO.C,U4*%
X100525000Y-56295000D03*
X100525000Y-57565000D03*
X100525000Y-58835000D03*
X100525000Y-60105000D03*
X105475000Y-60105000D03*
X105475000Y-58835000D03*
X105475000Y-57565000D03*
X105475000Y-56295000D03*
%TD*%
D14*
%TO.C,C6*%
X106400000Y-62325000D03*
X106400000Y-63875000D03*
%TD*%
D30*
%TO.C,ARD1*%
X100000000Y-100000000D03*
D31*
X102540000Y-100000000D03*
X105080000Y-100000000D03*
X107620000Y-100000000D03*
X110160000Y-100000000D03*
X112700000Y-100000000D03*
X115240000Y-100000000D03*
X117780000Y-100000000D03*
X122860000Y-100000000D03*
X125400000Y-100000000D03*
X127940000Y-100000000D03*
X130480000Y-100000000D03*
X133020000Y-100000000D03*
X135560000Y-100000000D03*
X135560000Y-51740000D03*
X133020000Y-51740000D03*
X130480000Y-51740000D03*
X127940000Y-51740000D03*
X125400000Y-51740000D03*
X122860000Y-51740000D03*
X120320000Y-51740000D03*
X117780000Y-51740000D03*
X113720000Y-51740000D03*
X111180000Y-51740000D03*
X108640000Y-51740000D03*
X106100000Y-51740000D03*
X103560000Y-51740000D03*
X101020000Y-51740000D03*
X98480000Y-51740000D03*
X95940000Y-51740000D03*
X93400000Y-51740000D03*
X90860000Y-51740000D03*
%TD*%
M02*
