%TF.GenerationSoftware,KiCad,Pcbnew,10.0.6*%
%TF.CreationDate,2026-09-24T16:02:01+02:00*%
%TF.ProjectId,mie1001_daq_simple,6d696531-3030-4315-9f64-61715f73696d,rev?*%
%TF.SameCoordinates,Original*%
%TF.FileFunction,Legend,Top*%
%TF.FilePolarity,Positive*%
%FSLAX46Y46*%
G04 Gerber Fmt 4.6, Leading zero omitted, Abs format (unit mm)*
G04 Created by KiCad (PCBNEW 10.0.6) date 2026-09-24 16:02:01*
%MOMM*%
%LPD*%
G01*
G04 APERTURE LIST*
%ADD10C,0.200000*%
%ADD11C,0.400000*%
%ADD12C,0.320000*%
%ADD13C,0.144000*%
%ADD14C,0.160000*%
%ADD15C,0.220000*%
%ADD16C,0.264000*%
%ADD17C,0.308000*%
%ADD18C,0.180000*%
%ADD19C,0.150000*%
%ADD20C,0.120000*%
G04 APERTURE END LIST*
D10*
X88000000Y-94700000D02*
X88700000Y-96000000D01*
X87300000Y-96000000D01*
X88000000Y-94700000D01*
G36*
X88700000Y-96000000D02*
G01*
X87300000Y-96000000D01*
X88000000Y-94700000D01*
X88700000Y-96000000D01*
G37*
X119500000Y-65300000D02*
X118800000Y-64000000D01*
X120200000Y-64000000D01*
X119500000Y-65300000D01*
G36*
X119500000Y-65300000D02*
G01*
X118800000Y-64000000D01*
X120200000Y-64000000D01*
X119500000Y-65300000D01*
G37*
X85460000Y-72760000D02*
X85460000Y-90030000D01*
X85460000Y-90030000D02*
X113400000Y-90030000D01*
X113400000Y-72760000D02*
X85460000Y-72760000D01*
X113400000Y-90030000D02*
X113400000Y-72760000D01*
D11*
X119600000Y-93800000D02*
G75*
G02*
X119200000Y-93800000I-200000J0D01*
G01*
X119200000Y-93800000D02*
G75*
G02*
X119600000Y-93800000I200000J0D01*
G01*
D10*
X119400000Y-93800000D02*
X121100000Y-94600000D01*
X119700000Y-93700000D02*
X118600000Y-93300000D01*
X119700000Y-93900000D02*
X118600000Y-94200000D01*
X121100000Y-94600000D02*
X122900000Y-95300000D01*
X121400000Y-65729999D02*
X133470000Y-65729999D01*
X121400000Y-92400000D02*
X119400000Y-93800000D01*
D12*
X121760000Y-93200000D02*
G75*
G02*
X121440000Y-93200000I-160000J0D01*
G01*
X121440000Y-93200000D02*
G75*
G02*
X121760000Y-93200000I160000J0D01*
G01*
D10*
X122400000Y-92100000D02*
X121400000Y-92400000D01*
X122600000Y-92200000D02*
X122800000Y-91300000D01*
X122800000Y-91300000D02*
X123400000Y-91500000D01*
X122803303Y-94304832D02*
X122875315Y-94852468D01*
X122875315Y-94852468D02*
X123163300Y-95376413D01*
X122951034Y-93762178D02*
X122803303Y-94304832D01*
X123100000Y-92800000D02*
X122400000Y-92100000D01*
X123163300Y-95376413D02*
X123652178Y-95849232D01*
X123310772Y-93252921D02*
X122951034Y-93762178D01*
X123400000Y-91500000D02*
X123300000Y-92400000D01*
X123652178Y-95849232D02*
X124316352Y-96246168D01*
X123863682Y-92803727D02*
X123310772Y-93252921D01*
X124200000Y-97800000D02*
X123700000Y-97800000D01*
X124316352Y-96246168D02*
X125121044Y-96546437D01*
X124580813Y-92438115D02*
X123863682Y-92803727D01*
X124700000Y-96500000D02*
X124200000Y-97800000D01*
X125121044Y-96546437D02*
X126024120Y-96734316D01*
X125424615Y-92175229D02*
X124580813Y-92438115D01*
X125900000Y-97800000D02*
X125400000Y-97800000D01*
X126000000Y-96500000D02*
X125900000Y-97800000D01*
X126024120Y-96734316D02*
X126978293Y-96799967D01*
X126350905Y-92028834D02*
X125424615Y-92175229D01*
X126978293Y-96799967D02*
X127933604Y-96739955D01*
X127311183Y-92006596D02*
X126350905Y-92028834D01*
X127933604Y-96739955D02*
X128840030Y-96557420D01*
X128255167Y-92109679D02*
X127311183Y-92006596D01*
X128500000Y-97800000D02*
X128000000Y-97800000D01*
X128800000Y-96500000D02*
X128500000Y-97800000D01*
X128840030Y-96557420D02*
X129650110Y-96261920D01*
X129133429Y-92332685D02*
X128255167Y-92109679D01*
X129650110Y-96261920D02*
X130321428Y-95868928D01*
X129899982Y-92663938D02*
X129133429Y-92332685D01*
X130000000Y-96500000D02*
X130500000Y-97800000D01*
X130321428Y-95868928D02*
X130818832Y-95399022D01*
X130500000Y-97800000D02*
X130000000Y-97800000D01*
X130514690Y-93086093D02*
X129899982Y-92663938D01*
X130818832Y-95399022D02*
X131116279Y-94876806D01*
X130945365Y-93577045D02*
X130514690Y-93086093D01*
X131100000Y-93800000D02*
X132400000Y-93400000D01*
X132400000Y-93400000D02*
X133600000Y-93900000D01*
X132500000Y-95400000D02*
X133000000Y-95000000D01*
X132800000Y-96100000D02*
X132500000Y-95400000D01*
X133470000Y-65729999D02*
X133470000Y-80970000D01*
X133470000Y-80970000D02*
X121400000Y-80970000D01*
X133600000Y-93900000D02*
X134100000Y-95000000D01*
X133699999Y-96000000D02*
X132800000Y-96100000D01*
X134100000Y-95000000D02*
X133699999Y-96000000D01*
D13*
X74809021Y-66408869D02*
X74809021Y-65508869D01*
X74809021Y-65508869D02*
X75323307Y-66408869D01*
X75323307Y-66408869D02*
X75323307Y-65508869D01*
X75751878Y-66323154D02*
X75794735Y-66366012D01*
X75794735Y-66366012D02*
X75751878Y-66408869D01*
X75751878Y-66408869D02*
X75709021Y-66366012D01*
X75709021Y-66366012D02*
X75751878Y-66323154D01*
X75751878Y-66323154D02*
X75751878Y-66408869D01*
X76180449Y-66408869D02*
X76180449Y-65508869D01*
X76180449Y-65508869D02*
X76394735Y-65508869D01*
X76394735Y-65508869D02*
X76523306Y-65551726D01*
X76523306Y-65551726D02*
X76609021Y-65637440D01*
X76609021Y-65637440D02*
X76651878Y-65723154D01*
X76651878Y-65723154D02*
X76694735Y-65894583D01*
X76694735Y-65894583D02*
X76694735Y-66023154D01*
X76694735Y-66023154D02*
X76651878Y-66194583D01*
X76651878Y-66194583D02*
X76609021Y-66280297D01*
X76609021Y-66280297D02*
X76523306Y-66366012D01*
X76523306Y-66366012D02*
X76394735Y-66408869D01*
X76394735Y-66408869D02*
X76180449Y-66408869D01*
D14*
X74748120Y-58654299D02*
X74986215Y-59654299D01*
X74986215Y-59654299D02*
X75176691Y-58940013D01*
X75176691Y-58940013D02*
X75367167Y-59654299D01*
X75367167Y-59654299D02*
X75605263Y-58654299D01*
X75986215Y-59130489D02*
X76319548Y-59130489D01*
X76462405Y-59654299D02*
X75986215Y-59654299D01*
X75986215Y-59654299D02*
X75986215Y-58654299D01*
X75986215Y-58654299D02*
X76462405Y-58654299D01*
X77652882Y-59654299D02*
X77652882Y-58654299D01*
X77652882Y-58654299D02*
X78033834Y-58654299D01*
X78033834Y-58654299D02*
X78129072Y-58701918D01*
X78129072Y-58701918D02*
X78176691Y-58749537D01*
X78176691Y-58749537D02*
X78224310Y-58844775D01*
X78224310Y-58844775D02*
X78224310Y-58987632D01*
X78224310Y-58987632D02*
X78176691Y-59082870D01*
X78176691Y-59082870D02*
X78129072Y-59130489D01*
X78129072Y-59130489D02*
X78033834Y-59178108D01*
X78033834Y-59178108D02*
X77652882Y-59178108D01*
X79224310Y-59654299D02*
X78890977Y-59178108D01*
X78652882Y-59654299D02*
X78652882Y-58654299D01*
X78652882Y-58654299D02*
X79033834Y-58654299D01*
X79033834Y-58654299D02*
X79129072Y-58701918D01*
X79129072Y-58701918D02*
X79176691Y-58749537D01*
X79176691Y-58749537D02*
X79224310Y-58844775D01*
X79224310Y-58844775D02*
X79224310Y-58987632D01*
X79224310Y-58987632D02*
X79176691Y-59082870D01*
X79176691Y-59082870D02*
X79129072Y-59130489D01*
X79129072Y-59130489D02*
X79033834Y-59178108D01*
X79033834Y-59178108D02*
X78652882Y-59178108D01*
X79605263Y-59368584D02*
X80081453Y-59368584D01*
X79510025Y-59654299D02*
X79843358Y-58654299D01*
X79843358Y-58654299D02*
X80176691Y-59654299D01*
X80700501Y-59178108D02*
X80700501Y-59654299D01*
X80367168Y-58654299D02*
X80700501Y-59178108D01*
X80700501Y-59178108D02*
X81033834Y-58654299D01*
X81986216Y-58654299D02*
X82557644Y-58654299D01*
X82271930Y-59654299D02*
X82271930Y-58654299D01*
X83081454Y-58654299D02*
X83271930Y-58654299D01*
X83271930Y-58654299D02*
X83367168Y-58701918D01*
X83367168Y-58701918D02*
X83462406Y-58797156D01*
X83462406Y-58797156D02*
X83510025Y-58987632D01*
X83510025Y-58987632D02*
X83510025Y-59320965D01*
X83510025Y-59320965D02*
X83462406Y-59511441D01*
X83462406Y-59511441D02*
X83367168Y-59606680D01*
X83367168Y-59606680D02*
X83271930Y-59654299D01*
X83271930Y-59654299D02*
X83081454Y-59654299D01*
X83081454Y-59654299D02*
X82986216Y-59606680D01*
X82986216Y-59606680D02*
X82890978Y-59511441D01*
X82890978Y-59511441D02*
X82843359Y-59320965D01*
X82843359Y-59320965D02*
X82843359Y-58987632D01*
X82843359Y-58987632D02*
X82890978Y-58797156D01*
X82890978Y-58797156D02*
X82986216Y-58701918D01*
X82986216Y-58701918D02*
X83081454Y-58654299D01*
X84557645Y-58654299D02*
X85129073Y-58654299D01*
X84843359Y-59654299D02*
X84843359Y-58654299D01*
X85462407Y-59654299D02*
X85462407Y-58654299D01*
X85462407Y-59130489D02*
X86033835Y-59130489D01*
X86033835Y-59654299D02*
X86033835Y-58654299D01*
X86510026Y-59130489D02*
X86843359Y-59130489D01*
X86986216Y-59654299D02*
X86510026Y-59654299D01*
X86510026Y-59654299D02*
X86510026Y-58654299D01*
X86510026Y-58654299D02*
X86986216Y-58654299D01*
X74843358Y-61254299D02*
X74843358Y-60254299D01*
X74843358Y-60254299D02*
X75176691Y-60968584D01*
X75176691Y-60968584D02*
X75510024Y-60254299D01*
X75510024Y-60254299D02*
X75510024Y-61254299D01*
X75986215Y-61254299D02*
X75986215Y-60254299D01*
X76986214Y-60301918D02*
X76890976Y-60254299D01*
X76890976Y-60254299D02*
X76748119Y-60254299D01*
X76748119Y-60254299D02*
X76605262Y-60301918D01*
X76605262Y-60301918D02*
X76510024Y-60397156D01*
X76510024Y-60397156D02*
X76462405Y-60492394D01*
X76462405Y-60492394D02*
X76414786Y-60682870D01*
X76414786Y-60682870D02*
X76414786Y-60825727D01*
X76414786Y-60825727D02*
X76462405Y-61016203D01*
X76462405Y-61016203D02*
X76510024Y-61111441D01*
X76510024Y-61111441D02*
X76605262Y-61206680D01*
X76605262Y-61206680D02*
X76748119Y-61254299D01*
X76748119Y-61254299D02*
X76843357Y-61254299D01*
X76843357Y-61254299D02*
X76986214Y-61206680D01*
X76986214Y-61206680D02*
X77033833Y-61159060D01*
X77033833Y-61159060D02*
X77033833Y-60825727D01*
X77033833Y-60825727D02*
X76843357Y-60825727D01*
X77462405Y-61254299D02*
X77462405Y-60254299D01*
X77462405Y-60730489D02*
X78033833Y-60730489D01*
X78033833Y-61254299D02*
X78033833Y-60254299D01*
X78367167Y-60254299D02*
X78938595Y-60254299D01*
X78652881Y-61254299D02*
X78652881Y-60254299D01*
X79462405Y-60778108D02*
X79462405Y-61254299D01*
X79129072Y-60254299D02*
X79462405Y-60778108D01*
X79462405Y-60778108D02*
X79795738Y-60254299D01*
X80890977Y-61254299D02*
X80890977Y-60254299D01*
X80890977Y-60254299D02*
X81224310Y-60968584D01*
X81224310Y-60968584D02*
X81557643Y-60254299D01*
X81557643Y-60254299D02*
X81557643Y-61254299D01*
X81986215Y-60968584D02*
X82462405Y-60968584D01*
X81890977Y-61254299D02*
X82224310Y-60254299D01*
X82224310Y-60254299D02*
X82557643Y-61254299D01*
X83462405Y-61159060D02*
X83414786Y-61206680D01*
X83414786Y-61206680D02*
X83271929Y-61254299D01*
X83271929Y-61254299D02*
X83176691Y-61254299D01*
X83176691Y-61254299D02*
X83033834Y-61206680D01*
X83033834Y-61206680D02*
X82938596Y-61111441D01*
X82938596Y-61111441D02*
X82890977Y-61016203D01*
X82890977Y-61016203D02*
X82843358Y-60825727D01*
X82843358Y-60825727D02*
X82843358Y-60682870D01*
X82843358Y-60682870D02*
X82890977Y-60492394D01*
X82890977Y-60492394D02*
X82938596Y-60397156D01*
X82938596Y-60397156D02*
X83033834Y-60301918D01*
X83033834Y-60301918D02*
X83176691Y-60254299D01*
X83176691Y-60254299D02*
X83271929Y-60254299D01*
X83271929Y-60254299D02*
X83414786Y-60301918D01*
X83414786Y-60301918D02*
X83462405Y-60349537D01*
X83890977Y-61254299D02*
X83890977Y-60254299D01*
X83890977Y-60730489D02*
X84462405Y-60730489D01*
X84462405Y-61254299D02*
X84462405Y-60254299D01*
X84938596Y-61254299D02*
X84938596Y-60254299D01*
X85414786Y-61254299D02*
X85414786Y-60254299D01*
X85414786Y-60254299D02*
X85986214Y-61254299D01*
X85986214Y-61254299D02*
X85986214Y-60254299D01*
X86462405Y-60730489D02*
X86795738Y-60730489D01*
X86938595Y-61254299D02*
X86462405Y-61254299D01*
X86462405Y-61254299D02*
X86462405Y-60254299D01*
X86462405Y-60254299D02*
X86938595Y-60254299D01*
X88652881Y-60301918D02*
X88557643Y-60254299D01*
X88557643Y-60254299D02*
X88414786Y-60254299D01*
X88414786Y-60254299D02*
X88271929Y-60301918D01*
X88271929Y-60301918D02*
X88176691Y-60397156D01*
X88176691Y-60397156D02*
X88129072Y-60492394D01*
X88129072Y-60492394D02*
X88081453Y-60682870D01*
X88081453Y-60682870D02*
X88081453Y-60825727D01*
X88081453Y-60825727D02*
X88129072Y-61016203D01*
X88129072Y-61016203D02*
X88176691Y-61111441D01*
X88176691Y-61111441D02*
X88271929Y-61206680D01*
X88271929Y-61206680D02*
X88414786Y-61254299D01*
X88414786Y-61254299D02*
X88510024Y-61254299D01*
X88510024Y-61254299D02*
X88652881Y-61206680D01*
X88652881Y-61206680D02*
X88700500Y-61159060D01*
X88700500Y-61159060D02*
X88700500Y-60825727D01*
X88700500Y-60825727D02*
X88510024Y-60825727D01*
X89319548Y-60254299D02*
X89510024Y-60254299D01*
X89510024Y-60254299D02*
X89605262Y-60301918D01*
X89605262Y-60301918D02*
X89700500Y-60397156D01*
X89700500Y-60397156D02*
X89748119Y-60587632D01*
X89748119Y-60587632D02*
X89748119Y-60920965D01*
X89748119Y-60920965D02*
X89700500Y-61111441D01*
X89700500Y-61111441D02*
X89605262Y-61206680D01*
X89605262Y-61206680D02*
X89510024Y-61254299D01*
X89510024Y-61254299D02*
X89319548Y-61254299D01*
X89319548Y-61254299D02*
X89224310Y-61206680D01*
X89224310Y-61206680D02*
X89129072Y-61111441D01*
X89129072Y-61111441D02*
X89081453Y-60920965D01*
X89081453Y-60920965D02*
X89081453Y-60587632D01*
X89081453Y-60587632D02*
X89129072Y-60397156D01*
X89129072Y-60397156D02*
X89224310Y-60301918D01*
X89224310Y-60301918D02*
X89319548Y-60254299D01*
X90176691Y-61254299D02*
X90176691Y-60254299D01*
X90176691Y-60254299D02*
X90414786Y-60254299D01*
X90414786Y-60254299D02*
X90557643Y-60301918D01*
X90557643Y-60301918D02*
X90652881Y-60397156D01*
X90652881Y-60397156D02*
X90700500Y-60492394D01*
X90700500Y-60492394D02*
X90748119Y-60682870D01*
X90748119Y-60682870D02*
X90748119Y-60825727D01*
X90748119Y-60825727D02*
X90700500Y-61016203D01*
X90700500Y-61016203D02*
X90652881Y-61111441D01*
X90652881Y-61111441D02*
X90557643Y-61206680D01*
X90557643Y-61206680D02*
X90414786Y-61254299D01*
X90414786Y-61254299D02*
X90176691Y-61254299D01*
X91129072Y-61206680D02*
X91271929Y-61254299D01*
X91271929Y-61254299D02*
X91510024Y-61254299D01*
X91510024Y-61254299D02*
X91605262Y-61206680D01*
X91605262Y-61206680D02*
X91652881Y-61159060D01*
X91652881Y-61159060D02*
X91700500Y-61063822D01*
X91700500Y-61063822D02*
X91700500Y-60968584D01*
X91700500Y-60968584D02*
X91652881Y-60873346D01*
X91652881Y-60873346D02*
X91605262Y-60825727D01*
X91605262Y-60825727D02*
X91510024Y-60778108D01*
X91510024Y-60778108D02*
X91319548Y-60730489D01*
X91319548Y-60730489D02*
X91224310Y-60682870D01*
X91224310Y-60682870D02*
X91176691Y-60635251D01*
X91176691Y-60635251D02*
X91129072Y-60540013D01*
X91129072Y-60540013D02*
X91129072Y-60444775D01*
X91129072Y-60444775D02*
X91176691Y-60349537D01*
X91176691Y-60349537D02*
X91224310Y-60301918D01*
X91224310Y-60301918D02*
X91319548Y-60254299D01*
X91319548Y-60254299D02*
X91557643Y-60254299D01*
X91557643Y-60254299D02*
X91700500Y-60301918D01*
X74795739Y-62968584D02*
X75271929Y-62968584D01*
X74700501Y-63254299D02*
X75033834Y-62254299D01*
X75033834Y-62254299D02*
X75367167Y-63254299D01*
X75700501Y-63254299D02*
X75700501Y-62254299D01*
X75700501Y-62254299D02*
X75938596Y-62254299D01*
X75938596Y-62254299D02*
X76081453Y-62301918D01*
X76081453Y-62301918D02*
X76176691Y-62397156D01*
X76176691Y-62397156D02*
X76224310Y-62492394D01*
X76224310Y-62492394D02*
X76271929Y-62682870D01*
X76271929Y-62682870D02*
X76271929Y-62825727D01*
X76271929Y-62825727D02*
X76224310Y-63016203D01*
X76224310Y-63016203D02*
X76176691Y-63111441D01*
X76176691Y-63111441D02*
X76081453Y-63206680D01*
X76081453Y-63206680D02*
X75938596Y-63254299D01*
X75938596Y-63254299D02*
X75700501Y-63254299D01*
X76652882Y-63206680D02*
X76795739Y-63254299D01*
X76795739Y-63254299D02*
X77033834Y-63254299D01*
X77033834Y-63254299D02*
X77129072Y-63206680D01*
X77129072Y-63206680D02*
X77176691Y-63159060D01*
X77176691Y-63159060D02*
X77224310Y-63063822D01*
X77224310Y-63063822D02*
X77224310Y-62968584D01*
X77224310Y-62968584D02*
X77176691Y-62873346D01*
X77176691Y-62873346D02*
X77129072Y-62825727D01*
X77129072Y-62825727D02*
X77033834Y-62778108D01*
X77033834Y-62778108D02*
X76843358Y-62730489D01*
X76843358Y-62730489D02*
X76748120Y-62682870D01*
X76748120Y-62682870D02*
X76700501Y-62635251D01*
X76700501Y-62635251D02*
X76652882Y-62540013D01*
X76652882Y-62540013D02*
X76652882Y-62444775D01*
X76652882Y-62444775D02*
X76700501Y-62349537D01*
X76700501Y-62349537D02*
X76748120Y-62301918D01*
X76748120Y-62301918D02*
X76843358Y-62254299D01*
X76843358Y-62254299D02*
X77081453Y-62254299D01*
X77081453Y-62254299D02*
X77224310Y-62301918D01*
X78605263Y-62254299D02*
X78700501Y-62254299D01*
X78700501Y-62254299D02*
X78795739Y-62301918D01*
X78795739Y-62301918D02*
X78843358Y-62349537D01*
X78843358Y-62349537D02*
X78890977Y-62444775D01*
X78890977Y-62444775D02*
X78938596Y-62635251D01*
X78938596Y-62635251D02*
X78938596Y-62873346D01*
X78938596Y-62873346D02*
X78890977Y-63063822D01*
X78890977Y-63063822D02*
X78843358Y-63159060D01*
X78843358Y-63159060D02*
X78795739Y-63206680D01*
X78795739Y-63206680D02*
X78700501Y-63254299D01*
X78700501Y-63254299D02*
X78605263Y-63254299D01*
X78605263Y-63254299D02*
X78510025Y-63206680D01*
X78510025Y-63206680D02*
X78462406Y-63159060D01*
X78462406Y-63159060D02*
X78414787Y-63063822D01*
X78414787Y-63063822D02*
X78367168Y-62873346D01*
X78367168Y-62873346D02*
X78367168Y-62635251D01*
X78367168Y-62635251D02*
X78414787Y-62444775D01*
X78414787Y-62444775D02*
X78462406Y-62349537D01*
X78462406Y-62349537D02*
X78510025Y-62301918D01*
X78510025Y-62301918D02*
X78605263Y-62254299D01*
X79271930Y-63254299D02*
X79795739Y-62587632D01*
X79271930Y-62587632D02*
X79795739Y-63254299D01*
X80605263Y-62587632D02*
X80605263Y-63254299D01*
X80367168Y-62206680D02*
X80129073Y-62920965D01*
X80129073Y-62920965D02*
X80748120Y-62920965D01*
X81271930Y-62682870D02*
X81176692Y-62635251D01*
X81176692Y-62635251D02*
X81129073Y-62587632D01*
X81129073Y-62587632D02*
X81081454Y-62492394D01*
X81081454Y-62492394D02*
X81081454Y-62444775D01*
X81081454Y-62444775D02*
X81129073Y-62349537D01*
X81129073Y-62349537D02*
X81176692Y-62301918D01*
X81176692Y-62301918D02*
X81271930Y-62254299D01*
X81271930Y-62254299D02*
X81462406Y-62254299D01*
X81462406Y-62254299D02*
X81557644Y-62301918D01*
X81557644Y-62301918D02*
X81605263Y-62349537D01*
X81605263Y-62349537D02*
X81652882Y-62444775D01*
X81652882Y-62444775D02*
X81652882Y-62492394D01*
X81652882Y-62492394D02*
X81605263Y-62587632D01*
X81605263Y-62587632D02*
X81557644Y-62635251D01*
X81557644Y-62635251D02*
X81462406Y-62682870D01*
X81462406Y-62682870D02*
X81271930Y-62682870D01*
X81271930Y-62682870D02*
X81176692Y-62730489D01*
X81176692Y-62730489D02*
X81129073Y-62778108D01*
X81129073Y-62778108D02*
X81081454Y-62873346D01*
X81081454Y-62873346D02*
X81081454Y-63063822D01*
X81081454Y-63063822D02*
X81129073Y-63159060D01*
X81129073Y-63159060D02*
X81176692Y-63206680D01*
X81176692Y-63206680D02*
X81271930Y-63254299D01*
X81271930Y-63254299D02*
X81462406Y-63254299D01*
X81462406Y-63254299D02*
X81557644Y-63206680D01*
X81557644Y-63206680D02*
X81605263Y-63159060D01*
X81605263Y-63159060D02*
X81652882Y-63063822D01*
X81652882Y-63063822D02*
X81652882Y-62873346D01*
X81652882Y-62873346D02*
X81605263Y-62778108D01*
X81605263Y-62778108D02*
X81557644Y-62730489D01*
X81557644Y-62730489D02*
X81462406Y-62682870D01*
X83605264Y-63254299D02*
X83605264Y-62254299D01*
X83605264Y-62254299D02*
X83938597Y-62968584D01*
X83938597Y-62968584D02*
X84271930Y-62254299D01*
X84271930Y-62254299D02*
X84271930Y-63254299D01*
X85319549Y-63159060D02*
X85271930Y-63206680D01*
X85271930Y-63206680D02*
X85129073Y-63254299D01*
X85129073Y-63254299D02*
X85033835Y-63254299D01*
X85033835Y-63254299D02*
X84890978Y-63206680D01*
X84890978Y-63206680D02*
X84795740Y-63111441D01*
X84795740Y-63111441D02*
X84748121Y-63016203D01*
X84748121Y-63016203D02*
X84700502Y-62825727D01*
X84700502Y-62825727D02*
X84700502Y-62682870D01*
X84700502Y-62682870D02*
X84748121Y-62492394D01*
X84748121Y-62492394D02*
X84795740Y-62397156D01*
X84795740Y-62397156D02*
X84890978Y-62301918D01*
X84890978Y-62301918D02*
X85033835Y-62254299D01*
X85033835Y-62254299D02*
X85129073Y-62254299D01*
X85129073Y-62254299D02*
X85271930Y-62301918D01*
X85271930Y-62301918D02*
X85319549Y-62349537D01*
X85748121Y-63254299D02*
X85748121Y-62254299D01*
X85748121Y-62254299D02*
X86129073Y-62254299D01*
X86129073Y-62254299D02*
X86224311Y-62301918D01*
X86224311Y-62301918D02*
X86271930Y-62349537D01*
X86271930Y-62349537D02*
X86319549Y-62444775D01*
X86319549Y-62444775D02*
X86319549Y-62587632D01*
X86319549Y-62587632D02*
X86271930Y-62682870D01*
X86271930Y-62682870D02*
X86224311Y-62730489D01*
X86224311Y-62730489D02*
X86129073Y-62778108D01*
X86129073Y-62778108D02*
X85748121Y-62778108D01*
X87700502Y-62254299D02*
X87795740Y-62254299D01*
X87795740Y-62254299D02*
X87890978Y-62301918D01*
X87890978Y-62301918D02*
X87938597Y-62349537D01*
X87938597Y-62349537D02*
X87986216Y-62444775D01*
X87986216Y-62444775D02*
X88033835Y-62635251D01*
X88033835Y-62635251D02*
X88033835Y-62873346D01*
X88033835Y-62873346D02*
X87986216Y-63063822D01*
X87986216Y-63063822D02*
X87938597Y-63159060D01*
X87938597Y-63159060D02*
X87890978Y-63206680D01*
X87890978Y-63206680D02*
X87795740Y-63254299D01*
X87795740Y-63254299D02*
X87700502Y-63254299D01*
X87700502Y-63254299D02*
X87605264Y-63206680D01*
X87605264Y-63206680D02*
X87557645Y-63159060D01*
X87557645Y-63159060D02*
X87510026Y-63063822D01*
X87510026Y-63063822D02*
X87462407Y-62873346D01*
X87462407Y-62873346D02*
X87462407Y-62635251D01*
X87462407Y-62635251D02*
X87510026Y-62444775D01*
X87510026Y-62444775D02*
X87557645Y-62349537D01*
X87557645Y-62349537D02*
X87605264Y-62301918D01*
X87605264Y-62301918D02*
X87700502Y-62254299D01*
X88367169Y-63254299D02*
X88890978Y-62587632D01*
X88367169Y-62587632D02*
X88890978Y-63254299D01*
X89700502Y-62254299D02*
X89510026Y-62254299D01*
X89510026Y-62254299D02*
X89414788Y-62301918D01*
X89414788Y-62301918D02*
X89367169Y-62349537D01*
X89367169Y-62349537D02*
X89271931Y-62492394D01*
X89271931Y-62492394D02*
X89224312Y-62682870D01*
X89224312Y-62682870D02*
X89224312Y-63063822D01*
X89224312Y-63063822D02*
X89271931Y-63159060D01*
X89271931Y-63159060D02*
X89319550Y-63206680D01*
X89319550Y-63206680D02*
X89414788Y-63254299D01*
X89414788Y-63254299D02*
X89605264Y-63254299D01*
X89605264Y-63254299D02*
X89700502Y-63206680D01*
X89700502Y-63206680D02*
X89748121Y-63159060D01*
X89748121Y-63159060D02*
X89795740Y-63063822D01*
X89795740Y-63063822D02*
X89795740Y-62825727D01*
X89795740Y-62825727D02*
X89748121Y-62730489D01*
X89748121Y-62730489D02*
X89700502Y-62682870D01*
X89700502Y-62682870D02*
X89605264Y-62635251D01*
X89605264Y-62635251D02*
X89414788Y-62635251D01*
X89414788Y-62635251D02*
X89319550Y-62682870D01*
X89319550Y-62682870D02*
X89271931Y-62730489D01*
X89271931Y-62730489D02*
X89224312Y-62825727D01*
X90414788Y-62254299D02*
X90510026Y-62254299D01*
X90510026Y-62254299D02*
X90605264Y-62301918D01*
X90605264Y-62301918D02*
X90652883Y-62349537D01*
X90652883Y-62349537D02*
X90700502Y-62444775D01*
X90700502Y-62444775D02*
X90748121Y-62635251D01*
X90748121Y-62635251D02*
X90748121Y-62873346D01*
X90748121Y-62873346D02*
X90700502Y-63063822D01*
X90700502Y-63063822D02*
X90652883Y-63159060D01*
X90652883Y-63159060D02*
X90605264Y-63206680D01*
X90605264Y-63206680D02*
X90510026Y-63254299D01*
X90510026Y-63254299D02*
X90414788Y-63254299D01*
X90414788Y-63254299D02*
X90319550Y-63206680D01*
X90319550Y-63206680D02*
X90271931Y-63159060D01*
X90271931Y-63159060D02*
X90224312Y-63063822D01*
X90224312Y-63063822D02*
X90176693Y-62873346D01*
X90176693Y-62873346D02*
X90176693Y-62635251D01*
X90176693Y-62635251D02*
X90224312Y-62444775D01*
X90224312Y-62444775D02*
X90271931Y-62349537D01*
X90271931Y-62349537D02*
X90319550Y-62301918D01*
X90319550Y-62301918D02*
X90414788Y-62254299D01*
X75414786Y-64854299D02*
X75081453Y-64378108D01*
X74843358Y-64854299D02*
X74843358Y-63854299D01*
X74843358Y-63854299D02*
X75224310Y-63854299D01*
X75224310Y-63854299D02*
X75319548Y-63901918D01*
X75319548Y-63901918D02*
X75367167Y-63949537D01*
X75367167Y-63949537D02*
X75414786Y-64044775D01*
X75414786Y-64044775D02*
X75414786Y-64187632D01*
X75414786Y-64187632D02*
X75367167Y-64282870D01*
X75367167Y-64282870D02*
X75319548Y-64330489D01*
X75319548Y-64330489D02*
X75224310Y-64378108D01*
X75224310Y-64378108D02*
X74843358Y-64378108D01*
X75843358Y-64854299D02*
X75843358Y-63854299D01*
X75843358Y-63854299D02*
X76081453Y-63854299D01*
X76081453Y-63854299D02*
X76224310Y-63901918D01*
X76224310Y-63901918D02*
X76319548Y-63997156D01*
X76319548Y-63997156D02*
X76367167Y-64092394D01*
X76367167Y-64092394D02*
X76414786Y-64282870D01*
X76414786Y-64282870D02*
X76414786Y-64425727D01*
X76414786Y-64425727D02*
X76367167Y-64616203D01*
X76367167Y-64616203D02*
X76319548Y-64711441D01*
X76319548Y-64711441D02*
X76224310Y-64806680D01*
X76224310Y-64806680D02*
X76081453Y-64854299D01*
X76081453Y-64854299D02*
X75843358Y-64854299D01*
X77033834Y-64378108D02*
X77033834Y-64854299D01*
X76700501Y-63854299D02*
X77033834Y-64378108D01*
X77033834Y-64378108D02*
X77367167Y-63854299D01*
X77700501Y-64473346D02*
X78462406Y-64473346D01*
X78938596Y-64187632D02*
X79700501Y-64473346D01*
X79700501Y-64473346D02*
X78938596Y-64759060D01*
X80176691Y-64854299D02*
X80176691Y-63854299D01*
X80176691Y-63854299D02*
X80414786Y-63854299D01*
X80414786Y-63854299D02*
X80557643Y-63901918D01*
X80557643Y-63901918D02*
X80652881Y-63997156D01*
X80652881Y-63997156D02*
X80700500Y-64092394D01*
X80700500Y-64092394D02*
X80748119Y-64282870D01*
X80748119Y-64282870D02*
X80748119Y-64425727D01*
X80748119Y-64425727D02*
X80700500Y-64616203D01*
X80700500Y-64616203D02*
X80652881Y-64711441D01*
X80652881Y-64711441D02*
X80557643Y-64806680D01*
X80557643Y-64806680D02*
X80414786Y-64854299D01*
X80414786Y-64854299D02*
X80176691Y-64854299D01*
X81129072Y-63949537D02*
X81176691Y-63901918D01*
X81176691Y-63901918D02*
X81271929Y-63854299D01*
X81271929Y-63854299D02*
X81510024Y-63854299D01*
X81510024Y-63854299D02*
X81605262Y-63901918D01*
X81605262Y-63901918D02*
X81652881Y-63949537D01*
X81652881Y-63949537D02*
X81700500Y-64044775D01*
X81700500Y-64044775D02*
X81700500Y-64140013D01*
X81700500Y-64140013D02*
X81652881Y-64282870D01*
X81652881Y-64282870D02*
X81081453Y-64854299D01*
X81081453Y-64854299D02*
X81700500Y-64854299D01*
X83510025Y-63854299D02*
X84081453Y-63854299D01*
X83795739Y-64854299D02*
X83795739Y-63854299D01*
X84986215Y-64854299D02*
X84652882Y-64378108D01*
X84414787Y-64854299D02*
X84414787Y-63854299D01*
X84414787Y-63854299D02*
X84795739Y-63854299D01*
X84795739Y-63854299D02*
X84890977Y-63901918D01*
X84890977Y-63901918D02*
X84938596Y-63949537D01*
X84938596Y-63949537D02*
X84986215Y-64044775D01*
X84986215Y-64044775D02*
X84986215Y-64187632D01*
X84986215Y-64187632D02*
X84938596Y-64282870D01*
X84938596Y-64282870D02*
X84890977Y-64330489D01*
X84890977Y-64330489D02*
X84795739Y-64378108D01*
X84795739Y-64378108D02*
X84414787Y-64378108D01*
X85414787Y-64854299D02*
X85414787Y-63854299D01*
X86414786Y-63901918D02*
X86319548Y-63854299D01*
X86319548Y-63854299D02*
X86176691Y-63854299D01*
X86176691Y-63854299D02*
X86033834Y-63901918D01*
X86033834Y-63901918D02*
X85938596Y-63997156D01*
X85938596Y-63997156D02*
X85890977Y-64092394D01*
X85890977Y-64092394D02*
X85843358Y-64282870D01*
X85843358Y-64282870D02*
X85843358Y-64425727D01*
X85843358Y-64425727D02*
X85890977Y-64616203D01*
X85890977Y-64616203D02*
X85938596Y-64711441D01*
X85938596Y-64711441D02*
X86033834Y-64806680D01*
X86033834Y-64806680D02*
X86176691Y-64854299D01*
X86176691Y-64854299D02*
X86271929Y-64854299D01*
X86271929Y-64854299D02*
X86414786Y-64806680D01*
X86414786Y-64806680D02*
X86462405Y-64759060D01*
X86462405Y-64759060D02*
X86462405Y-64425727D01*
X86462405Y-64425727D02*
X86271929Y-64425727D01*
X86890977Y-64473346D02*
X87652882Y-64473346D01*
X88129072Y-64187632D02*
X88890977Y-64473346D01*
X88890977Y-64473346D02*
X88129072Y-64759060D01*
X89367167Y-64854299D02*
X89367167Y-63854299D01*
X89367167Y-63854299D02*
X89605262Y-63854299D01*
X89605262Y-63854299D02*
X89748119Y-63901918D01*
X89748119Y-63901918D02*
X89843357Y-63997156D01*
X89843357Y-63997156D02*
X89890976Y-64092394D01*
X89890976Y-64092394D02*
X89938595Y-64282870D01*
X89938595Y-64282870D02*
X89938595Y-64425727D01*
X89938595Y-64425727D02*
X89890976Y-64616203D01*
X89890976Y-64616203D02*
X89843357Y-64711441D01*
X89843357Y-64711441D02*
X89748119Y-64806680D01*
X89748119Y-64806680D02*
X89605262Y-64854299D01*
X89605262Y-64854299D02*
X89367167Y-64854299D01*
X90510024Y-64282870D02*
X90414786Y-64235251D01*
X90414786Y-64235251D02*
X90367167Y-64187632D01*
X90367167Y-64187632D02*
X90319548Y-64092394D01*
X90319548Y-64092394D02*
X90319548Y-64044775D01*
X90319548Y-64044775D02*
X90367167Y-63949537D01*
X90367167Y-63949537D02*
X90414786Y-63901918D01*
X90414786Y-63901918D02*
X90510024Y-63854299D01*
X90510024Y-63854299D02*
X90700500Y-63854299D01*
X90700500Y-63854299D02*
X90795738Y-63901918D01*
X90795738Y-63901918D02*
X90843357Y-63949537D01*
X90843357Y-63949537D02*
X90890976Y-64044775D01*
X90890976Y-64044775D02*
X90890976Y-64092394D01*
X90890976Y-64092394D02*
X90843357Y-64187632D01*
X90843357Y-64187632D02*
X90795738Y-64235251D01*
X90795738Y-64235251D02*
X90700500Y-64282870D01*
X90700500Y-64282870D02*
X90510024Y-64282870D01*
X90510024Y-64282870D02*
X90414786Y-64330489D01*
X90414786Y-64330489D02*
X90367167Y-64378108D01*
X90367167Y-64378108D02*
X90319548Y-64473346D01*
X90319548Y-64473346D02*
X90319548Y-64663822D01*
X90319548Y-64663822D02*
X90367167Y-64759060D01*
X90367167Y-64759060D02*
X90414786Y-64806680D01*
X90414786Y-64806680D02*
X90510024Y-64854299D01*
X90510024Y-64854299D02*
X90700500Y-64854299D01*
X90700500Y-64854299D02*
X90795738Y-64806680D01*
X90795738Y-64806680D02*
X90843357Y-64759060D01*
X90843357Y-64759060D02*
X90890976Y-64663822D01*
X90890976Y-64663822D02*
X90890976Y-64473346D01*
X90890976Y-64473346D02*
X90843357Y-64378108D01*
X90843357Y-64378108D02*
X90795738Y-64330489D01*
X90795738Y-64330489D02*
X90700500Y-64282870D01*
X80143358Y-75254299D02*
X80143358Y-74254299D01*
X80619548Y-75254299D02*
X80619548Y-74254299D01*
X80619548Y-74254299D02*
X81190976Y-75254299D01*
X81190976Y-75254299D02*
X81190976Y-74254299D01*
X80667167Y-77801918D02*
X80571929Y-77754299D01*
X80571929Y-77754299D02*
X80429072Y-77754299D01*
X80429072Y-77754299D02*
X80286215Y-77801918D01*
X80286215Y-77801918D02*
X80190977Y-77897156D01*
X80190977Y-77897156D02*
X80143358Y-77992394D01*
X80143358Y-77992394D02*
X80095739Y-78182870D01*
X80095739Y-78182870D02*
X80095739Y-78325727D01*
X80095739Y-78325727D02*
X80143358Y-78516203D01*
X80143358Y-78516203D02*
X80190977Y-78611441D01*
X80190977Y-78611441D02*
X80286215Y-78706680D01*
X80286215Y-78706680D02*
X80429072Y-78754299D01*
X80429072Y-78754299D02*
X80524310Y-78754299D01*
X80524310Y-78754299D02*
X80667167Y-78706680D01*
X80667167Y-78706680D02*
X80714786Y-78659060D01*
X80714786Y-78659060D02*
X80714786Y-78325727D01*
X80714786Y-78325727D02*
X80524310Y-78325727D01*
X81143358Y-78754299D02*
X81143358Y-77754299D01*
X81143358Y-77754299D02*
X81714786Y-78754299D01*
X81714786Y-78754299D02*
X81714786Y-77754299D01*
X82190977Y-78754299D02*
X82190977Y-77754299D01*
X82190977Y-77754299D02*
X82429072Y-77754299D01*
X82429072Y-77754299D02*
X82571929Y-77801918D01*
X82571929Y-77801918D02*
X82667167Y-77897156D01*
X82667167Y-77897156D02*
X82714786Y-77992394D01*
X82714786Y-77992394D02*
X82762405Y-78182870D01*
X82762405Y-78182870D02*
X82762405Y-78325727D01*
X82762405Y-78325727D02*
X82714786Y-78516203D01*
X82714786Y-78516203D02*
X82667167Y-78611441D01*
X82667167Y-78611441D02*
X82571929Y-78706680D01*
X82571929Y-78706680D02*
X82429072Y-78754299D01*
X82429072Y-78754299D02*
X82190977Y-78754299D01*
X80143358Y-84054299D02*
X80143358Y-83054299D01*
X80619548Y-84054299D02*
X80619548Y-83054299D01*
X80619548Y-83054299D02*
X81190976Y-84054299D01*
X81190976Y-84054299D02*
X81190976Y-83054299D01*
X80667167Y-86601918D02*
X80571929Y-86554299D01*
X80571929Y-86554299D02*
X80429072Y-86554299D01*
X80429072Y-86554299D02*
X80286215Y-86601918D01*
X80286215Y-86601918D02*
X80190977Y-86697156D01*
X80190977Y-86697156D02*
X80143358Y-86792394D01*
X80143358Y-86792394D02*
X80095739Y-86982870D01*
X80095739Y-86982870D02*
X80095739Y-87125727D01*
X80095739Y-87125727D02*
X80143358Y-87316203D01*
X80143358Y-87316203D02*
X80190977Y-87411441D01*
X80190977Y-87411441D02*
X80286215Y-87506680D01*
X80286215Y-87506680D02*
X80429072Y-87554299D01*
X80429072Y-87554299D02*
X80524310Y-87554299D01*
X80524310Y-87554299D02*
X80667167Y-87506680D01*
X80667167Y-87506680D02*
X80714786Y-87459060D01*
X80714786Y-87459060D02*
X80714786Y-87125727D01*
X80714786Y-87125727D02*
X80524310Y-87125727D01*
X81143358Y-87554299D02*
X81143358Y-86554299D01*
X81143358Y-86554299D02*
X81714786Y-87554299D01*
X81714786Y-87554299D02*
X81714786Y-86554299D01*
X82190977Y-87554299D02*
X82190977Y-86554299D01*
X82190977Y-86554299D02*
X82429072Y-86554299D01*
X82429072Y-86554299D02*
X82571929Y-86601918D01*
X82571929Y-86601918D02*
X82667167Y-86697156D01*
X82667167Y-86697156D02*
X82714786Y-86792394D01*
X82714786Y-86792394D02*
X82762405Y-86982870D01*
X82762405Y-86982870D02*
X82762405Y-87125727D01*
X82762405Y-87125727D02*
X82714786Y-87316203D01*
X82714786Y-87316203D02*
X82667167Y-87411441D01*
X82667167Y-87411441D02*
X82571929Y-87506680D01*
X82571929Y-87506680D02*
X82429072Y-87554299D01*
X82429072Y-87554299D02*
X82190977Y-87554299D01*
X103771929Y-66387631D02*
X103771929Y-67054298D01*
X103533834Y-66006679D02*
X103295739Y-66720964D01*
X103295739Y-66720964D02*
X103914786Y-66720964D01*
X104295739Y-67054298D02*
X104295739Y-66054298D01*
X104390977Y-66673345D02*
X104676691Y-67054298D01*
X104676691Y-66387631D02*
X104295739Y-66768583D01*
X105010025Y-66054298D02*
X105676691Y-66054298D01*
X105676691Y-66054298D02*
X105248120Y-67054298D01*
X103867167Y-70854299D02*
X103295739Y-70854299D01*
X103581453Y-70854299D02*
X103581453Y-69854299D01*
X103581453Y-69854299D02*
X103486215Y-69997156D01*
X103486215Y-69997156D02*
X103390977Y-70092394D01*
X103390977Y-70092394D02*
X103295739Y-70140013D01*
X104295739Y-70854299D02*
X104295739Y-69854299D01*
X104390977Y-70473346D02*
X104676691Y-70854299D01*
X104676691Y-70187632D02*
X104295739Y-70568584D01*
X88542855Y-75568584D02*
X89019045Y-75568584D01*
X88447617Y-75854299D02*
X88780950Y-74854299D01*
X88780950Y-74854299D02*
X89114283Y-75854299D01*
X89447617Y-75854299D02*
X89447617Y-74854299D01*
X89447617Y-74854299D02*
X89685712Y-74854299D01*
X89685712Y-74854299D02*
X89828569Y-74901918D01*
X89828569Y-74901918D02*
X89923807Y-74997156D01*
X89923807Y-74997156D02*
X89971426Y-75092394D01*
X89971426Y-75092394D02*
X90019045Y-75282870D01*
X90019045Y-75282870D02*
X90019045Y-75425727D01*
X90019045Y-75425727D02*
X89971426Y-75616203D01*
X89971426Y-75616203D02*
X89923807Y-75711441D01*
X89923807Y-75711441D02*
X89828569Y-75806680D01*
X89828569Y-75806680D02*
X89685712Y-75854299D01*
X89685712Y-75854299D02*
X89447617Y-75854299D01*
X90399998Y-75806680D02*
X90542855Y-75854299D01*
X90542855Y-75854299D02*
X90780950Y-75854299D01*
X90780950Y-75854299D02*
X90876188Y-75806680D01*
X90876188Y-75806680D02*
X90923807Y-75759060D01*
X90923807Y-75759060D02*
X90971426Y-75663822D01*
X90971426Y-75663822D02*
X90971426Y-75568584D01*
X90971426Y-75568584D02*
X90923807Y-75473346D01*
X90923807Y-75473346D02*
X90876188Y-75425727D01*
X90876188Y-75425727D02*
X90780950Y-75378108D01*
X90780950Y-75378108D02*
X90590474Y-75330489D01*
X90590474Y-75330489D02*
X90495236Y-75282870D01*
X90495236Y-75282870D02*
X90447617Y-75235251D01*
X90447617Y-75235251D02*
X90399998Y-75140013D01*
X90399998Y-75140013D02*
X90399998Y-75044775D01*
X90399998Y-75044775D02*
X90447617Y-74949537D01*
X90447617Y-74949537D02*
X90495236Y-74901918D01*
X90495236Y-74901918D02*
X90590474Y-74854299D01*
X90590474Y-74854299D02*
X90828569Y-74854299D01*
X90828569Y-74854299D02*
X90971426Y-74901918D01*
X91923807Y-75854299D02*
X91352379Y-75854299D01*
X91638093Y-75854299D02*
X91638093Y-74854299D01*
X91638093Y-74854299D02*
X91542855Y-74997156D01*
X91542855Y-74997156D02*
X91447617Y-75092394D01*
X91447617Y-75092394D02*
X91352379Y-75140013D01*
X92876188Y-75854299D02*
X92304760Y-75854299D01*
X92590474Y-75854299D02*
X92590474Y-74854299D01*
X92590474Y-74854299D02*
X92495236Y-74997156D01*
X92495236Y-74997156D02*
X92399998Y-75092394D01*
X92399998Y-75092394D02*
X92304760Y-75140013D01*
X93828569Y-75854299D02*
X93257141Y-75854299D01*
X93542855Y-75854299D02*
X93542855Y-74854299D01*
X93542855Y-74854299D02*
X93447617Y-74997156D01*
X93447617Y-74997156D02*
X93352379Y-75092394D01*
X93352379Y-75092394D02*
X93257141Y-75140013D01*
X94733331Y-74854299D02*
X94257141Y-74854299D01*
X94257141Y-74854299D02*
X94209522Y-75330489D01*
X94209522Y-75330489D02*
X94257141Y-75282870D01*
X94257141Y-75282870D02*
X94352379Y-75235251D01*
X94352379Y-75235251D02*
X94590474Y-75235251D01*
X94590474Y-75235251D02*
X94685712Y-75282870D01*
X94685712Y-75282870D02*
X94733331Y-75330489D01*
X94733331Y-75330489D02*
X94780950Y-75425727D01*
X94780950Y-75425727D02*
X94780950Y-75663822D01*
X94780950Y-75663822D02*
X94733331Y-75759060D01*
X94733331Y-75759060D02*
X94685712Y-75806680D01*
X94685712Y-75806680D02*
X94590474Y-75854299D01*
X94590474Y-75854299D02*
X94352379Y-75854299D01*
X94352379Y-75854299D02*
X94257141Y-75806680D01*
X94257141Y-75806680D02*
X94209522Y-75759060D01*
X95971427Y-75854299D02*
X95971427Y-74854299D01*
X95971427Y-75235251D02*
X96066665Y-75187632D01*
X96066665Y-75187632D02*
X96257141Y-75187632D01*
X96257141Y-75187632D02*
X96352379Y-75235251D01*
X96352379Y-75235251D02*
X96399998Y-75282870D01*
X96399998Y-75282870D02*
X96447617Y-75378108D01*
X96447617Y-75378108D02*
X96447617Y-75663822D01*
X96447617Y-75663822D02*
X96399998Y-75759060D01*
X96399998Y-75759060D02*
X96352379Y-75806680D01*
X96352379Y-75806680D02*
X96257141Y-75854299D01*
X96257141Y-75854299D02*
X96066665Y-75854299D01*
X96066665Y-75854299D02*
X95971427Y-75806680D01*
X96876189Y-75854299D02*
X96876189Y-75187632D01*
X96876189Y-75378108D02*
X96923808Y-75282870D01*
X96923808Y-75282870D02*
X96971427Y-75235251D01*
X96971427Y-75235251D02*
X97066665Y-75187632D01*
X97066665Y-75187632D02*
X97161903Y-75187632D01*
X97876189Y-75806680D02*
X97780951Y-75854299D01*
X97780951Y-75854299D02*
X97590475Y-75854299D01*
X97590475Y-75854299D02*
X97495237Y-75806680D01*
X97495237Y-75806680D02*
X97447618Y-75711441D01*
X97447618Y-75711441D02*
X97447618Y-75330489D01*
X97447618Y-75330489D02*
X97495237Y-75235251D01*
X97495237Y-75235251D02*
X97590475Y-75187632D01*
X97590475Y-75187632D02*
X97780951Y-75187632D01*
X97780951Y-75187632D02*
X97876189Y-75235251D01*
X97876189Y-75235251D02*
X97923808Y-75330489D01*
X97923808Y-75330489D02*
X97923808Y-75425727D01*
X97923808Y-75425727D02*
X97447618Y-75520965D01*
X98780951Y-75854299D02*
X98780951Y-75330489D01*
X98780951Y-75330489D02*
X98733332Y-75235251D01*
X98733332Y-75235251D02*
X98638094Y-75187632D01*
X98638094Y-75187632D02*
X98447618Y-75187632D01*
X98447618Y-75187632D02*
X98352380Y-75235251D01*
X98780951Y-75806680D02*
X98685713Y-75854299D01*
X98685713Y-75854299D02*
X98447618Y-75854299D01*
X98447618Y-75854299D02*
X98352380Y-75806680D01*
X98352380Y-75806680D02*
X98304761Y-75711441D01*
X98304761Y-75711441D02*
X98304761Y-75616203D01*
X98304761Y-75616203D02*
X98352380Y-75520965D01*
X98352380Y-75520965D02*
X98447618Y-75473346D01*
X98447618Y-75473346D02*
X98685713Y-75473346D01*
X98685713Y-75473346D02*
X98780951Y-75425727D01*
X99257142Y-75854299D02*
X99257142Y-74854299D01*
X99352380Y-75473346D02*
X99638094Y-75854299D01*
X99638094Y-75187632D02*
X99257142Y-75568584D01*
X100209523Y-75854299D02*
X100114285Y-75806680D01*
X100114285Y-75806680D02*
X100066666Y-75759060D01*
X100066666Y-75759060D02*
X100019047Y-75663822D01*
X100019047Y-75663822D02*
X100019047Y-75378108D01*
X100019047Y-75378108D02*
X100066666Y-75282870D01*
X100066666Y-75282870D02*
X100114285Y-75235251D01*
X100114285Y-75235251D02*
X100209523Y-75187632D01*
X100209523Y-75187632D02*
X100352380Y-75187632D01*
X100352380Y-75187632D02*
X100447618Y-75235251D01*
X100447618Y-75235251D02*
X100495237Y-75282870D01*
X100495237Y-75282870D02*
X100542856Y-75378108D01*
X100542856Y-75378108D02*
X100542856Y-75663822D01*
X100542856Y-75663822D02*
X100495237Y-75759060D01*
X100495237Y-75759060D02*
X100447618Y-75806680D01*
X100447618Y-75806680D02*
X100352380Y-75854299D01*
X100352380Y-75854299D02*
X100209523Y-75854299D01*
X101399999Y-75187632D02*
X101399999Y-75854299D01*
X100971428Y-75187632D02*
X100971428Y-75711441D01*
X100971428Y-75711441D02*
X101019047Y-75806680D01*
X101019047Y-75806680D02*
X101114285Y-75854299D01*
X101114285Y-75854299D02*
X101257142Y-75854299D01*
X101257142Y-75854299D02*
X101352380Y-75806680D01*
X101352380Y-75806680D02*
X101399999Y-75759060D01*
X101733333Y-75187632D02*
X102114285Y-75187632D01*
X101876190Y-74854299D02*
X101876190Y-75711441D01*
X101876190Y-75711441D02*
X101923809Y-75806680D01*
X101923809Y-75806680D02*
X102019047Y-75854299D01*
X102019047Y-75854299D02*
X102114285Y-75854299D01*
X103638095Y-75187632D02*
X103638095Y-75997156D01*
X103638095Y-75997156D02*
X103590476Y-76092394D01*
X103590476Y-76092394D02*
X103542857Y-76140013D01*
X103542857Y-76140013D02*
X103447619Y-76187632D01*
X103447619Y-76187632D02*
X103304762Y-76187632D01*
X103304762Y-76187632D02*
X103209524Y-76140013D01*
X103638095Y-75806680D02*
X103542857Y-75854299D01*
X103542857Y-75854299D02*
X103352381Y-75854299D01*
X103352381Y-75854299D02*
X103257143Y-75806680D01*
X103257143Y-75806680D02*
X103209524Y-75759060D01*
X103209524Y-75759060D02*
X103161905Y-75663822D01*
X103161905Y-75663822D02*
X103161905Y-75378108D01*
X103161905Y-75378108D02*
X103209524Y-75282870D01*
X103209524Y-75282870D02*
X103257143Y-75235251D01*
X103257143Y-75235251D02*
X103352381Y-75187632D01*
X103352381Y-75187632D02*
X103542857Y-75187632D01*
X103542857Y-75187632D02*
X103638095Y-75235251D01*
X104257143Y-75854299D02*
X104161905Y-75806680D01*
X104161905Y-75806680D02*
X104114286Y-75759060D01*
X104114286Y-75759060D02*
X104066667Y-75663822D01*
X104066667Y-75663822D02*
X104066667Y-75378108D01*
X104066667Y-75378108D02*
X104114286Y-75282870D01*
X104114286Y-75282870D02*
X104161905Y-75235251D01*
X104161905Y-75235251D02*
X104257143Y-75187632D01*
X104257143Y-75187632D02*
X104400000Y-75187632D01*
X104400000Y-75187632D02*
X104495238Y-75235251D01*
X104495238Y-75235251D02*
X104542857Y-75282870D01*
X104542857Y-75282870D02*
X104590476Y-75378108D01*
X104590476Y-75378108D02*
X104590476Y-75663822D01*
X104590476Y-75663822D02*
X104542857Y-75759060D01*
X104542857Y-75759060D02*
X104495238Y-75806680D01*
X104495238Y-75806680D02*
X104400000Y-75854299D01*
X104400000Y-75854299D02*
X104257143Y-75854299D01*
X105400000Y-75806680D02*
X105304762Y-75854299D01*
X105304762Y-75854299D02*
X105114286Y-75854299D01*
X105114286Y-75854299D02*
X105019048Y-75806680D01*
X105019048Y-75806680D02*
X104971429Y-75711441D01*
X104971429Y-75711441D02*
X104971429Y-75330489D01*
X104971429Y-75330489D02*
X105019048Y-75235251D01*
X105019048Y-75235251D02*
X105114286Y-75187632D01*
X105114286Y-75187632D02*
X105304762Y-75187632D01*
X105304762Y-75187632D02*
X105400000Y-75235251D01*
X105400000Y-75235251D02*
X105447619Y-75330489D01*
X105447619Y-75330489D02*
X105447619Y-75425727D01*
X105447619Y-75425727D02*
X104971429Y-75520965D01*
X105828572Y-75806680D02*
X105923810Y-75854299D01*
X105923810Y-75854299D02*
X106114286Y-75854299D01*
X106114286Y-75854299D02*
X106209524Y-75806680D01*
X106209524Y-75806680D02*
X106257143Y-75711441D01*
X106257143Y-75711441D02*
X106257143Y-75663822D01*
X106257143Y-75663822D02*
X106209524Y-75568584D01*
X106209524Y-75568584D02*
X106114286Y-75520965D01*
X106114286Y-75520965D02*
X105971429Y-75520965D01*
X105971429Y-75520965D02*
X105876191Y-75473346D01*
X105876191Y-75473346D02*
X105828572Y-75378108D01*
X105828572Y-75378108D02*
X105828572Y-75330489D01*
X105828572Y-75330489D02*
X105876191Y-75235251D01*
X105876191Y-75235251D02*
X105971429Y-75187632D01*
X105971429Y-75187632D02*
X106114286Y-75187632D01*
X106114286Y-75187632D02*
X106209524Y-75235251D01*
X107447620Y-75854299D02*
X107447620Y-74854299D01*
X107876191Y-75854299D02*
X107876191Y-75330489D01*
X107876191Y-75330489D02*
X107828572Y-75235251D01*
X107828572Y-75235251D02*
X107733334Y-75187632D01*
X107733334Y-75187632D02*
X107590477Y-75187632D01*
X107590477Y-75187632D02*
X107495239Y-75235251D01*
X107495239Y-75235251D02*
X107447620Y-75282870D01*
X108733334Y-75806680D02*
X108638096Y-75854299D01*
X108638096Y-75854299D02*
X108447620Y-75854299D01*
X108447620Y-75854299D02*
X108352382Y-75806680D01*
X108352382Y-75806680D02*
X108304763Y-75711441D01*
X108304763Y-75711441D02*
X108304763Y-75330489D01*
X108304763Y-75330489D02*
X108352382Y-75235251D01*
X108352382Y-75235251D02*
X108447620Y-75187632D01*
X108447620Y-75187632D02*
X108638096Y-75187632D01*
X108638096Y-75187632D02*
X108733334Y-75235251D01*
X108733334Y-75235251D02*
X108780953Y-75330489D01*
X108780953Y-75330489D02*
X108780953Y-75425727D01*
X108780953Y-75425727D02*
X108304763Y-75520965D01*
X109209525Y-75854299D02*
X109209525Y-75187632D01*
X109209525Y-75378108D02*
X109257144Y-75282870D01*
X109257144Y-75282870D02*
X109304763Y-75235251D01*
X109304763Y-75235251D02*
X109400001Y-75187632D01*
X109400001Y-75187632D02*
X109495239Y-75187632D01*
X110209525Y-75806680D02*
X110114287Y-75854299D01*
X110114287Y-75854299D02*
X109923811Y-75854299D01*
X109923811Y-75854299D02*
X109828573Y-75806680D01*
X109828573Y-75806680D02*
X109780954Y-75711441D01*
X109780954Y-75711441D02*
X109780954Y-75330489D01*
X109780954Y-75330489D02*
X109828573Y-75235251D01*
X109828573Y-75235251D02*
X109923811Y-75187632D01*
X109923811Y-75187632D02*
X110114287Y-75187632D01*
X110114287Y-75187632D02*
X110209525Y-75235251D01*
X110209525Y-75235251D02*
X110257144Y-75330489D01*
X110257144Y-75330489D02*
X110257144Y-75425727D01*
X110257144Y-75425727D02*
X109780954Y-75520965D01*
X93495237Y-78235251D02*
X93447618Y-78187632D01*
X93447618Y-78187632D02*
X93352380Y-78044775D01*
X93352380Y-78044775D02*
X93304761Y-77949537D01*
X93304761Y-77949537D02*
X93257142Y-77806680D01*
X93257142Y-77806680D02*
X93209523Y-77568584D01*
X93209523Y-77568584D02*
X93209523Y-77378108D01*
X93209523Y-77378108D02*
X93257142Y-77140013D01*
X93257142Y-77140013D02*
X93304761Y-76997156D01*
X93304761Y-76997156D02*
X93352380Y-76901918D01*
X93352380Y-76901918D02*
X93447618Y-76759060D01*
X93447618Y-76759060D02*
X93495237Y-76711441D01*
X94304761Y-77806680D02*
X94209523Y-77854299D01*
X94209523Y-77854299D02*
X94019047Y-77854299D01*
X94019047Y-77854299D02*
X93923809Y-77806680D01*
X93923809Y-77806680D02*
X93876190Y-77759060D01*
X93876190Y-77759060D02*
X93828571Y-77663822D01*
X93828571Y-77663822D02*
X93828571Y-77378108D01*
X93828571Y-77378108D02*
X93876190Y-77282870D01*
X93876190Y-77282870D02*
X93923809Y-77235251D01*
X93923809Y-77235251D02*
X94019047Y-77187632D01*
X94019047Y-77187632D02*
X94209523Y-77187632D01*
X94209523Y-77187632D02*
X94304761Y-77235251D01*
X94876190Y-77854299D02*
X94780952Y-77806680D01*
X94780952Y-77806680D02*
X94733333Y-77759060D01*
X94733333Y-77759060D02*
X94685714Y-77663822D01*
X94685714Y-77663822D02*
X94685714Y-77378108D01*
X94685714Y-77378108D02*
X94733333Y-77282870D01*
X94733333Y-77282870D02*
X94780952Y-77235251D01*
X94780952Y-77235251D02*
X94876190Y-77187632D01*
X94876190Y-77187632D02*
X95019047Y-77187632D01*
X95019047Y-77187632D02*
X95114285Y-77235251D01*
X95114285Y-77235251D02*
X95161904Y-77282870D01*
X95161904Y-77282870D02*
X95209523Y-77378108D01*
X95209523Y-77378108D02*
X95209523Y-77663822D01*
X95209523Y-77663822D02*
X95161904Y-77759060D01*
X95161904Y-77759060D02*
X95114285Y-77806680D01*
X95114285Y-77806680D02*
X95019047Y-77854299D01*
X95019047Y-77854299D02*
X94876190Y-77854299D01*
X95638095Y-77854299D02*
X95638095Y-77187632D01*
X95638095Y-77282870D02*
X95685714Y-77235251D01*
X95685714Y-77235251D02*
X95780952Y-77187632D01*
X95780952Y-77187632D02*
X95923809Y-77187632D01*
X95923809Y-77187632D02*
X96019047Y-77235251D01*
X96019047Y-77235251D02*
X96066666Y-77330489D01*
X96066666Y-77330489D02*
X96066666Y-77854299D01*
X96066666Y-77330489D02*
X96114285Y-77235251D01*
X96114285Y-77235251D02*
X96209523Y-77187632D01*
X96209523Y-77187632D02*
X96352380Y-77187632D01*
X96352380Y-77187632D02*
X96447619Y-77235251D01*
X96447619Y-77235251D02*
X96495238Y-77330489D01*
X96495238Y-77330489D02*
X96495238Y-77854299D01*
X96971428Y-77187632D02*
X96971428Y-78187632D01*
X96971428Y-77235251D02*
X97066666Y-77187632D01*
X97066666Y-77187632D02*
X97257142Y-77187632D01*
X97257142Y-77187632D02*
X97352380Y-77235251D01*
X97352380Y-77235251D02*
X97399999Y-77282870D01*
X97399999Y-77282870D02*
X97447618Y-77378108D01*
X97447618Y-77378108D02*
X97447618Y-77663822D01*
X97447618Y-77663822D02*
X97399999Y-77759060D01*
X97399999Y-77759060D02*
X97352380Y-77806680D01*
X97352380Y-77806680D02*
X97257142Y-77854299D01*
X97257142Y-77854299D02*
X97066666Y-77854299D01*
X97066666Y-77854299D02*
X96971428Y-77806680D01*
X98019047Y-77854299D02*
X97923809Y-77806680D01*
X97923809Y-77806680D02*
X97876190Y-77759060D01*
X97876190Y-77759060D02*
X97828571Y-77663822D01*
X97828571Y-77663822D02*
X97828571Y-77378108D01*
X97828571Y-77378108D02*
X97876190Y-77282870D01*
X97876190Y-77282870D02*
X97923809Y-77235251D01*
X97923809Y-77235251D02*
X98019047Y-77187632D01*
X98019047Y-77187632D02*
X98161904Y-77187632D01*
X98161904Y-77187632D02*
X98257142Y-77235251D01*
X98257142Y-77235251D02*
X98304761Y-77282870D01*
X98304761Y-77282870D02*
X98352380Y-77378108D01*
X98352380Y-77378108D02*
X98352380Y-77663822D01*
X98352380Y-77663822D02*
X98304761Y-77759060D01*
X98304761Y-77759060D02*
X98257142Y-77806680D01*
X98257142Y-77806680D02*
X98161904Y-77854299D01*
X98161904Y-77854299D02*
X98019047Y-77854299D01*
X98780952Y-77187632D02*
X98780952Y-77854299D01*
X98780952Y-77282870D02*
X98828571Y-77235251D01*
X98828571Y-77235251D02*
X98923809Y-77187632D01*
X98923809Y-77187632D02*
X99066666Y-77187632D01*
X99066666Y-77187632D02*
X99161904Y-77235251D01*
X99161904Y-77235251D02*
X99209523Y-77330489D01*
X99209523Y-77330489D02*
X99209523Y-77854299D01*
X100066666Y-77806680D02*
X99971428Y-77854299D01*
X99971428Y-77854299D02*
X99780952Y-77854299D01*
X99780952Y-77854299D02*
X99685714Y-77806680D01*
X99685714Y-77806680D02*
X99638095Y-77711441D01*
X99638095Y-77711441D02*
X99638095Y-77330489D01*
X99638095Y-77330489D02*
X99685714Y-77235251D01*
X99685714Y-77235251D02*
X99780952Y-77187632D01*
X99780952Y-77187632D02*
X99971428Y-77187632D01*
X99971428Y-77187632D02*
X100066666Y-77235251D01*
X100066666Y-77235251D02*
X100114285Y-77330489D01*
X100114285Y-77330489D02*
X100114285Y-77425727D01*
X100114285Y-77425727D02*
X99638095Y-77520965D01*
X100542857Y-77187632D02*
X100542857Y-77854299D01*
X100542857Y-77282870D02*
X100590476Y-77235251D01*
X100590476Y-77235251D02*
X100685714Y-77187632D01*
X100685714Y-77187632D02*
X100828571Y-77187632D01*
X100828571Y-77187632D02*
X100923809Y-77235251D01*
X100923809Y-77235251D02*
X100971428Y-77330489D01*
X100971428Y-77330489D02*
X100971428Y-77854299D01*
X101304762Y-77187632D02*
X101685714Y-77187632D01*
X101447619Y-76854299D02*
X101447619Y-77711441D01*
X101447619Y-77711441D02*
X101495238Y-77806680D01*
X101495238Y-77806680D02*
X101590476Y-77854299D01*
X101590476Y-77854299D02*
X101685714Y-77854299D01*
X101971429Y-77806680D02*
X102066667Y-77854299D01*
X102066667Y-77854299D02*
X102257143Y-77854299D01*
X102257143Y-77854299D02*
X102352381Y-77806680D01*
X102352381Y-77806680D02*
X102400000Y-77711441D01*
X102400000Y-77711441D02*
X102400000Y-77663822D01*
X102400000Y-77663822D02*
X102352381Y-77568584D01*
X102352381Y-77568584D02*
X102257143Y-77520965D01*
X102257143Y-77520965D02*
X102114286Y-77520965D01*
X102114286Y-77520965D02*
X102019048Y-77473346D01*
X102019048Y-77473346D02*
X101971429Y-77378108D01*
X101971429Y-77378108D02*
X101971429Y-77330489D01*
X101971429Y-77330489D02*
X102019048Y-77235251D01*
X102019048Y-77235251D02*
X102114286Y-77187632D01*
X102114286Y-77187632D02*
X102257143Y-77187632D01*
X102257143Y-77187632D02*
X102352381Y-77235251D01*
X104019048Y-77187632D02*
X104019048Y-77854299D01*
X103590477Y-77187632D02*
X103590477Y-77711441D01*
X103590477Y-77711441D02*
X103638096Y-77806680D01*
X103638096Y-77806680D02*
X103733334Y-77854299D01*
X103733334Y-77854299D02*
X103876191Y-77854299D01*
X103876191Y-77854299D02*
X103971429Y-77806680D01*
X103971429Y-77806680D02*
X104019048Y-77759060D01*
X104495239Y-77187632D02*
X104495239Y-78187632D01*
X104495239Y-77235251D02*
X104590477Y-77187632D01*
X104590477Y-77187632D02*
X104780953Y-77187632D01*
X104780953Y-77187632D02*
X104876191Y-77235251D01*
X104876191Y-77235251D02*
X104923810Y-77282870D01*
X104923810Y-77282870D02*
X104971429Y-77378108D01*
X104971429Y-77378108D02*
X104971429Y-77663822D01*
X104971429Y-77663822D02*
X104923810Y-77759060D01*
X104923810Y-77759060D02*
X104876191Y-77806680D01*
X104876191Y-77806680D02*
X104780953Y-77854299D01*
X104780953Y-77854299D02*
X104590477Y-77854299D01*
X104590477Y-77854299D02*
X104495239Y-77806680D01*
X105304763Y-78235251D02*
X105352382Y-78187632D01*
X105352382Y-78187632D02*
X105447620Y-78044775D01*
X105447620Y-78044775D02*
X105495239Y-77949537D01*
X105495239Y-77949537D02*
X105542858Y-77806680D01*
X105542858Y-77806680D02*
X105590477Y-77568584D01*
X105590477Y-77568584D02*
X105590477Y-77378108D01*
X105590477Y-77378108D02*
X105542858Y-77140013D01*
X105542858Y-77140013D02*
X105495239Y-76997156D01*
X105495239Y-76997156D02*
X105447620Y-76901918D01*
X105447620Y-76901918D02*
X105352382Y-76759060D01*
X105352382Y-76759060D02*
X105304763Y-76711441D01*
X90899998Y-79854299D02*
X90899998Y-79187632D01*
X90899998Y-78854299D02*
X90852379Y-78901918D01*
X90852379Y-78901918D02*
X90899998Y-78949537D01*
X90899998Y-78949537D02*
X90947617Y-78901918D01*
X90947617Y-78901918D02*
X90899998Y-78854299D01*
X90899998Y-78854299D02*
X90899998Y-78949537D01*
X91233331Y-79187632D02*
X91614283Y-79187632D01*
X91376188Y-78854299D02*
X91376188Y-79711441D01*
X91376188Y-79711441D02*
X91423807Y-79806680D01*
X91423807Y-79806680D02*
X91519045Y-79854299D01*
X91519045Y-79854299D02*
X91614283Y-79854299D01*
X91899998Y-79806680D02*
X91995236Y-79854299D01*
X91995236Y-79854299D02*
X92185712Y-79854299D01*
X92185712Y-79854299D02*
X92280950Y-79806680D01*
X92280950Y-79806680D02*
X92328569Y-79711441D01*
X92328569Y-79711441D02*
X92328569Y-79663822D01*
X92328569Y-79663822D02*
X92280950Y-79568584D01*
X92280950Y-79568584D02*
X92185712Y-79520965D01*
X92185712Y-79520965D02*
X92042855Y-79520965D01*
X92042855Y-79520965D02*
X91947617Y-79473346D01*
X91947617Y-79473346D02*
X91899998Y-79378108D01*
X91899998Y-79378108D02*
X91899998Y-79330489D01*
X91899998Y-79330489D02*
X91947617Y-79235251D01*
X91947617Y-79235251D02*
X92042855Y-79187632D01*
X92042855Y-79187632D02*
X92185712Y-79187632D01*
X92185712Y-79187632D02*
X92280950Y-79235251D01*
X93376189Y-78854299D02*
X93709522Y-79854299D01*
X93709522Y-79854299D02*
X94042855Y-78854299D01*
X94376189Y-79854299D02*
X94376189Y-78854299D01*
X94376189Y-78854299D02*
X94614284Y-78854299D01*
X94614284Y-78854299D02*
X94757141Y-78901918D01*
X94757141Y-78901918D02*
X94852379Y-78997156D01*
X94852379Y-78997156D02*
X94899998Y-79092394D01*
X94899998Y-79092394D02*
X94947617Y-79282870D01*
X94947617Y-79282870D02*
X94947617Y-79425727D01*
X94947617Y-79425727D02*
X94899998Y-79616203D01*
X94899998Y-79616203D02*
X94852379Y-79711441D01*
X94852379Y-79711441D02*
X94757141Y-79806680D01*
X94757141Y-79806680D02*
X94614284Y-79854299D01*
X94614284Y-79854299D02*
X94376189Y-79854299D01*
X95376189Y-79854299D02*
X95376189Y-78854299D01*
X95376189Y-78854299D02*
X95614284Y-78854299D01*
X95614284Y-78854299D02*
X95757141Y-78901918D01*
X95757141Y-78901918D02*
X95852379Y-78997156D01*
X95852379Y-78997156D02*
X95899998Y-79092394D01*
X95899998Y-79092394D02*
X95947617Y-79282870D01*
X95947617Y-79282870D02*
X95947617Y-79425727D01*
X95947617Y-79425727D02*
X95899998Y-79616203D01*
X95899998Y-79616203D02*
X95852379Y-79711441D01*
X95852379Y-79711441D02*
X95757141Y-79806680D01*
X95757141Y-79806680D02*
X95614284Y-79854299D01*
X95614284Y-79854299D02*
X95376189Y-79854299D01*
X97138094Y-79187632D02*
X97138094Y-80187632D01*
X97138094Y-79235251D02*
X97233332Y-79187632D01*
X97233332Y-79187632D02*
X97423808Y-79187632D01*
X97423808Y-79187632D02*
X97519046Y-79235251D01*
X97519046Y-79235251D02*
X97566665Y-79282870D01*
X97566665Y-79282870D02*
X97614284Y-79378108D01*
X97614284Y-79378108D02*
X97614284Y-79663822D01*
X97614284Y-79663822D02*
X97566665Y-79759060D01*
X97566665Y-79759060D02*
X97519046Y-79806680D01*
X97519046Y-79806680D02*
X97423808Y-79854299D01*
X97423808Y-79854299D02*
X97233332Y-79854299D01*
X97233332Y-79854299D02*
X97138094Y-79806680D01*
X98042856Y-79854299D02*
X98042856Y-79187632D01*
X98042856Y-78854299D02*
X97995237Y-78901918D01*
X97995237Y-78901918D02*
X98042856Y-78949537D01*
X98042856Y-78949537D02*
X98090475Y-78901918D01*
X98090475Y-78901918D02*
X98042856Y-78854299D01*
X98042856Y-78854299D02*
X98042856Y-78949537D01*
X98519046Y-79187632D02*
X98519046Y-79854299D01*
X98519046Y-79282870D02*
X98566665Y-79235251D01*
X98566665Y-79235251D02*
X98661903Y-79187632D01*
X98661903Y-79187632D02*
X98804760Y-79187632D01*
X98804760Y-79187632D02*
X98899998Y-79235251D01*
X98899998Y-79235251D02*
X98947617Y-79330489D01*
X98947617Y-79330489D02*
X98947617Y-79854299D01*
X100328570Y-79854299D02*
X100233332Y-79806680D01*
X100233332Y-79806680D02*
X100185713Y-79759060D01*
X100185713Y-79759060D02*
X100138094Y-79663822D01*
X100138094Y-79663822D02*
X100138094Y-79378108D01*
X100138094Y-79378108D02*
X100185713Y-79282870D01*
X100185713Y-79282870D02*
X100233332Y-79235251D01*
X100233332Y-79235251D02*
X100328570Y-79187632D01*
X100328570Y-79187632D02*
X100471427Y-79187632D01*
X100471427Y-79187632D02*
X100566665Y-79235251D01*
X100566665Y-79235251D02*
X100614284Y-79282870D01*
X100614284Y-79282870D02*
X100661903Y-79378108D01*
X100661903Y-79378108D02*
X100661903Y-79663822D01*
X100661903Y-79663822D02*
X100614284Y-79759060D01*
X100614284Y-79759060D02*
X100566665Y-79806680D01*
X100566665Y-79806680D02*
X100471427Y-79854299D01*
X100471427Y-79854299D02*
X100328570Y-79854299D01*
X101090475Y-79187632D02*
X101090475Y-79854299D01*
X101090475Y-79282870D02*
X101138094Y-79235251D01*
X101138094Y-79235251D02*
X101233332Y-79187632D01*
X101233332Y-79187632D02*
X101376189Y-79187632D01*
X101376189Y-79187632D02*
X101471427Y-79235251D01*
X101471427Y-79235251D02*
X101519046Y-79330489D01*
X101519046Y-79330489D02*
X101519046Y-79854299D01*
X102614285Y-79187632D02*
X102995237Y-79187632D01*
X102757142Y-78854299D02*
X102757142Y-79711441D01*
X102757142Y-79711441D02*
X102804761Y-79806680D01*
X102804761Y-79806680D02*
X102899999Y-79854299D01*
X102899999Y-79854299D02*
X102995237Y-79854299D01*
X103328571Y-79854299D02*
X103328571Y-78854299D01*
X103757142Y-79854299D02*
X103757142Y-79330489D01*
X103757142Y-79330489D02*
X103709523Y-79235251D01*
X103709523Y-79235251D02*
X103614285Y-79187632D01*
X103614285Y-79187632D02*
X103471428Y-79187632D01*
X103471428Y-79187632D02*
X103376190Y-79235251D01*
X103376190Y-79235251D02*
X103328571Y-79282870D01*
X104614285Y-79806680D02*
X104519047Y-79854299D01*
X104519047Y-79854299D02*
X104328571Y-79854299D01*
X104328571Y-79854299D02*
X104233333Y-79806680D01*
X104233333Y-79806680D02*
X104185714Y-79711441D01*
X104185714Y-79711441D02*
X104185714Y-79330489D01*
X104185714Y-79330489D02*
X104233333Y-79235251D01*
X104233333Y-79235251D02*
X104328571Y-79187632D01*
X104328571Y-79187632D02*
X104519047Y-79187632D01*
X104519047Y-79187632D02*
X104614285Y-79235251D01*
X104614285Y-79235251D02*
X104661904Y-79330489D01*
X104661904Y-79330489D02*
X104661904Y-79425727D01*
X104661904Y-79425727D02*
X104185714Y-79520965D01*
X105995238Y-79854299D02*
X105900000Y-79806680D01*
X105900000Y-79806680D02*
X105852381Y-79711441D01*
X105852381Y-79711441D02*
X105852381Y-78854299D01*
X106757143Y-79806680D02*
X106661905Y-79854299D01*
X106661905Y-79854299D02*
X106471429Y-79854299D01*
X106471429Y-79854299D02*
X106376191Y-79806680D01*
X106376191Y-79806680D02*
X106328572Y-79711441D01*
X106328572Y-79711441D02*
X106328572Y-79330489D01*
X106328572Y-79330489D02*
X106376191Y-79235251D01*
X106376191Y-79235251D02*
X106471429Y-79187632D01*
X106471429Y-79187632D02*
X106661905Y-79187632D01*
X106661905Y-79187632D02*
X106757143Y-79235251D01*
X106757143Y-79235251D02*
X106804762Y-79330489D01*
X106804762Y-79330489D02*
X106804762Y-79425727D01*
X106804762Y-79425727D02*
X106328572Y-79520965D01*
X107090477Y-79187632D02*
X107471429Y-79187632D01*
X107233334Y-79854299D02*
X107233334Y-78997156D01*
X107233334Y-78997156D02*
X107280953Y-78901918D01*
X107280953Y-78901918D02*
X107376191Y-78854299D01*
X107376191Y-78854299D02*
X107471429Y-78854299D01*
X107661906Y-79187632D02*
X108042858Y-79187632D01*
X107804763Y-78854299D02*
X107804763Y-79711441D01*
X107804763Y-79711441D02*
X107852382Y-79806680D01*
X107852382Y-79806680D02*
X107947620Y-79854299D01*
X107947620Y-79854299D02*
X108042858Y-79854299D01*
X108928571Y-68654299D02*
X108357143Y-68654299D01*
X108642857Y-68654299D02*
X108642857Y-67654299D01*
X108642857Y-67654299D02*
X108547619Y-67797156D01*
X108547619Y-67797156D02*
X108452381Y-67892394D01*
X108452381Y-67892394D02*
X108357143Y-67940013D01*
X109547619Y-67654299D02*
X109642857Y-67654299D01*
X109642857Y-67654299D02*
X109738095Y-67701918D01*
X109738095Y-67701918D02*
X109785714Y-67749537D01*
X109785714Y-67749537D02*
X109833333Y-67844775D01*
X109833333Y-67844775D02*
X109880952Y-68035251D01*
X109880952Y-68035251D02*
X109880952Y-68273346D01*
X109880952Y-68273346D02*
X109833333Y-68463822D01*
X109833333Y-68463822D02*
X109785714Y-68559060D01*
X109785714Y-68559060D02*
X109738095Y-68606680D01*
X109738095Y-68606680D02*
X109642857Y-68654299D01*
X109642857Y-68654299D02*
X109547619Y-68654299D01*
X109547619Y-68654299D02*
X109452381Y-68606680D01*
X109452381Y-68606680D02*
X109404762Y-68559060D01*
X109404762Y-68559060D02*
X109357143Y-68463822D01*
X109357143Y-68463822D02*
X109309524Y-68273346D01*
X109309524Y-68273346D02*
X109309524Y-68035251D01*
X109309524Y-68035251D02*
X109357143Y-67844775D01*
X109357143Y-67844775D02*
X109404762Y-67749537D01*
X109404762Y-67749537D02*
X109452381Y-67701918D01*
X109452381Y-67701918D02*
X109547619Y-67654299D01*
X110500000Y-67654299D02*
X110595238Y-67654299D01*
X110595238Y-67654299D02*
X110690476Y-67701918D01*
X110690476Y-67701918D02*
X110738095Y-67749537D01*
X110738095Y-67749537D02*
X110785714Y-67844775D01*
X110785714Y-67844775D02*
X110833333Y-68035251D01*
X110833333Y-68035251D02*
X110833333Y-68273346D01*
X110833333Y-68273346D02*
X110785714Y-68463822D01*
X110785714Y-68463822D02*
X110738095Y-68559060D01*
X110738095Y-68559060D02*
X110690476Y-68606680D01*
X110690476Y-68606680D02*
X110595238Y-68654299D01*
X110595238Y-68654299D02*
X110500000Y-68654299D01*
X110500000Y-68654299D02*
X110404762Y-68606680D01*
X110404762Y-68606680D02*
X110357143Y-68559060D01*
X110357143Y-68559060D02*
X110309524Y-68463822D01*
X110309524Y-68463822D02*
X110261905Y-68273346D01*
X110261905Y-68273346D02*
X110261905Y-68035251D01*
X110261905Y-68035251D02*
X110309524Y-67844775D01*
X110309524Y-67844775D02*
X110357143Y-67749537D01*
X110357143Y-67749537D02*
X110404762Y-67701918D01*
X110404762Y-67701918D02*
X110500000Y-67654299D01*
X111261905Y-68654299D02*
X111261905Y-67654299D01*
X111357143Y-68273346D02*
X111642857Y-68654299D01*
X111642857Y-67987632D02*
X111261905Y-68368584D01*
X124876190Y-77554299D02*
X125066666Y-77554299D01*
X125066666Y-77554299D02*
X125161904Y-77601918D01*
X125161904Y-77601918D02*
X125257142Y-77697156D01*
X125257142Y-77697156D02*
X125304761Y-77887632D01*
X125304761Y-77887632D02*
X125304761Y-78220965D01*
X125304761Y-78220965D02*
X125257142Y-78411441D01*
X125257142Y-78411441D02*
X125161904Y-78506680D01*
X125161904Y-78506680D02*
X125066666Y-78554299D01*
X125066666Y-78554299D02*
X124876190Y-78554299D01*
X124876190Y-78554299D02*
X124780952Y-78506680D01*
X124780952Y-78506680D02*
X124685714Y-78411441D01*
X124685714Y-78411441D02*
X124638095Y-78220965D01*
X124638095Y-78220965D02*
X124638095Y-77887632D01*
X124638095Y-77887632D02*
X124685714Y-77697156D01*
X124685714Y-77697156D02*
X124780952Y-77601918D01*
X124780952Y-77601918D02*
X124876190Y-77554299D01*
X125733333Y-77554299D02*
X125733333Y-78363822D01*
X125733333Y-78363822D02*
X125780952Y-78459060D01*
X125780952Y-78459060D02*
X125828571Y-78506680D01*
X125828571Y-78506680D02*
X125923809Y-78554299D01*
X125923809Y-78554299D02*
X126114285Y-78554299D01*
X126114285Y-78554299D02*
X126209523Y-78506680D01*
X126209523Y-78506680D02*
X126257142Y-78459060D01*
X126257142Y-78459060D02*
X126304761Y-78363822D01*
X126304761Y-78363822D02*
X126304761Y-77554299D01*
X126638095Y-77554299D02*
X127209523Y-77554299D01*
X126923809Y-78554299D02*
X126923809Y-77554299D01*
X128304762Y-77887632D02*
X128304762Y-78887632D01*
X128304762Y-77935251D02*
X128400000Y-77887632D01*
X128400000Y-77887632D02*
X128590476Y-77887632D01*
X128590476Y-77887632D02*
X128685714Y-77935251D01*
X128685714Y-77935251D02*
X128733333Y-77982870D01*
X128733333Y-77982870D02*
X128780952Y-78078108D01*
X128780952Y-78078108D02*
X128780952Y-78363822D01*
X128780952Y-78363822D02*
X128733333Y-78459060D01*
X128733333Y-78459060D02*
X128685714Y-78506680D01*
X128685714Y-78506680D02*
X128590476Y-78554299D01*
X128590476Y-78554299D02*
X128400000Y-78554299D01*
X128400000Y-78554299D02*
X128304762Y-78506680D01*
X129209524Y-78554299D02*
X129209524Y-77887632D01*
X129209524Y-77554299D02*
X129161905Y-77601918D01*
X129161905Y-77601918D02*
X129209524Y-77649537D01*
X129209524Y-77649537D02*
X129257143Y-77601918D01*
X129257143Y-77601918D02*
X129209524Y-77554299D01*
X129209524Y-77554299D02*
X129209524Y-77649537D01*
X129685714Y-77887632D02*
X129685714Y-78554299D01*
X129685714Y-77982870D02*
X129733333Y-77935251D01*
X129733333Y-77935251D02*
X129828571Y-77887632D01*
X129828571Y-77887632D02*
X129971428Y-77887632D01*
X129971428Y-77887632D02*
X130066666Y-77935251D01*
X130066666Y-77935251D02*
X130114285Y-78030489D01*
X130114285Y-78030489D02*
X130114285Y-78554299D01*
X125304761Y-80154299D02*
X125209523Y-80106680D01*
X125209523Y-80106680D02*
X125161904Y-80059060D01*
X125161904Y-80059060D02*
X125114285Y-79963822D01*
X125114285Y-79963822D02*
X125114285Y-79678108D01*
X125114285Y-79678108D02*
X125161904Y-79582870D01*
X125161904Y-79582870D02*
X125209523Y-79535251D01*
X125209523Y-79535251D02*
X125304761Y-79487632D01*
X125304761Y-79487632D02*
X125447618Y-79487632D01*
X125447618Y-79487632D02*
X125542856Y-79535251D01*
X125542856Y-79535251D02*
X125590475Y-79582870D01*
X125590475Y-79582870D02*
X125638094Y-79678108D01*
X125638094Y-79678108D02*
X125638094Y-79963822D01*
X125638094Y-79963822D02*
X125590475Y-80059060D01*
X125590475Y-80059060D02*
X125542856Y-80106680D01*
X125542856Y-80106680D02*
X125447618Y-80154299D01*
X125447618Y-80154299D02*
X125304761Y-80154299D01*
X126066666Y-79487632D02*
X126066666Y-80154299D01*
X126066666Y-79582870D02*
X126114285Y-79535251D01*
X126114285Y-79535251D02*
X126209523Y-79487632D01*
X126209523Y-79487632D02*
X126352380Y-79487632D01*
X126352380Y-79487632D02*
X126447618Y-79535251D01*
X126447618Y-79535251D02*
X126495237Y-79630489D01*
X126495237Y-79630489D02*
X126495237Y-80154299D01*
X127590476Y-79487632D02*
X127971428Y-79487632D01*
X127733333Y-79154299D02*
X127733333Y-80011441D01*
X127733333Y-80011441D02*
X127780952Y-80106680D01*
X127780952Y-80106680D02*
X127876190Y-80154299D01*
X127876190Y-80154299D02*
X127971428Y-80154299D01*
X128447619Y-80154299D02*
X128352381Y-80106680D01*
X128352381Y-80106680D02*
X128304762Y-80059060D01*
X128304762Y-80059060D02*
X128257143Y-79963822D01*
X128257143Y-79963822D02*
X128257143Y-79678108D01*
X128257143Y-79678108D02*
X128304762Y-79582870D01*
X128304762Y-79582870D02*
X128352381Y-79535251D01*
X128352381Y-79535251D02*
X128447619Y-79487632D01*
X128447619Y-79487632D02*
X128590476Y-79487632D01*
X128590476Y-79487632D02*
X128685714Y-79535251D01*
X128685714Y-79535251D02*
X128733333Y-79582870D01*
X128733333Y-79582870D02*
X128780952Y-79678108D01*
X128780952Y-79678108D02*
X128780952Y-79963822D01*
X128780952Y-79963822D02*
X128733333Y-80059060D01*
X128733333Y-80059060D02*
X128685714Y-80106680D01*
X128685714Y-80106680D02*
X128590476Y-80154299D01*
X128590476Y-80154299D02*
X128447619Y-80154299D01*
X129209524Y-79487632D02*
X129209524Y-80487632D01*
X129209524Y-79535251D02*
X129304762Y-79487632D01*
X129304762Y-79487632D02*
X129495238Y-79487632D01*
X129495238Y-79487632D02*
X129590476Y-79535251D01*
X129590476Y-79535251D02*
X129638095Y-79582870D01*
X129638095Y-79582870D02*
X129685714Y-79678108D01*
X129685714Y-79678108D02*
X129685714Y-79963822D01*
X129685714Y-79963822D02*
X129638095Y-80059060D01*
X129638095Y-80059060D02*
X129590476Y-80106680D01*
X129590476Y-80106680D02*
X129495238Y-80154299D01*
X129495238Y-80154299D02*
X129304762Y-80154299D01*
X129304762Y-80154299D02*
X129209524Y-80106680D01*
X125599999Y-72254299D02*
X125599999Y-71254299D01*
X125599999Y-71635251D02*
X125695237Y-71587632D01*
X125695237Y-71587632D02*
X125885713Y-71587632D01*
X125885713Y-71587632D02*
X125980951Y-71635251D01*
X125980951Y-71635251D02*
X126028570Y-71682870D01*
X126028570Y-71682870D02*
X126076189Y-71778108D01*
X126076189Y-71778108D02*
X126076189Y-72063822D01*
X126076189Y-72063822D02*
X126028570Y-72159060D01*
X126028570Y-72159060D02*
X125980951Y-72206680D01*
X125980951Y-72206680D02*
X125885713Y-72254299D01*
X125885713Y-72254299D02*
X125695237Y-72254299D01*
X125695237Y-72254299D02*
X125599999Y-72206680D01*
X126504761Y-72254299D02*
X126504761Y-71587632D01*
X126504761Y-71778108D02*
X126552380Y-71682870D01*
X126552380Y-71682870D02*
X126599999Y-71635251D01*
X126599999Y-71635251D02*
X126695237Y-71587632D01*
X126695237Y-71587632D02*
X126790475Y-71587632D01*
X127504761Y-72206680D02*
X127409523Y-72254299D01*
X127409523Y-72254299D02*
X127219047Y-72254299D01*
X127219047Y-72254299D02*
X127123809Y-72206680D01*
X127123809Y-72206680D02*
X127076190Y-72111441D01*
X127076190Y-72111441D02*
X127076190Y-71730489D01*
X127076190Y-71730489D02*
X127123809Y-71635251D01*
X127123809Y-71635251D02*
X127219047Y-71587632D01*
X127219047Y-71587632D02*
X127409523Y-71587632D01*
X127409523Y-71587632D02*
X127504761Y-71635251D01*
X127504761Y-71635251D02*
X127552380Y-71730489D01*
X127552380Y-71730489D02*
X127552380Y-71825727D01*
X127552380Y-71825727D02*
X127076190Y-71920965D01*
X128409523Y-72254299D02*
X128409523Y-71730489D01*
X128409523Y-71730489D02*
X128361904Y-71635251D01*
X128361904Y-71635251D02*
X128266666Y-71587632D01*
X128266666Y-71587632D02*
X128076190Y-71587632D01*
X128076190Y-71587632D02*
X127980952Y-71635251D01*
X128409523Y-72206680D02*
X128314285Y-72254299D01*
X128314285Y-72254299D02*
X128076190Y-72254299D01*
X128076190Y-72254299D02*
X127980952Y-72206680D01*
X127980952Y-72206680D02*
X127933333Y-72111441D01*
X127933333Y-72111441D02*
X127933333Y-72016203D01*
X127933333Y-72016203D02*
X127980952Y-71920965D01*
X127980952Y-71920965D02*
X128076190Y-71873346D01*
X128076190Y-71873346D02*
X128314285Y-71873346D01*
X128314285Y-71873346D02*
X128409523Y-71825727D01*
X128885714Y-72254299D02*
X128885714Y-71254299D01*
X128980952Y-71873346D02*
X129266666Y-72254299D01*
X129266666Y-71587632D02*
X128885714Y-71968584D01*
X129838095Y-72254299D02*
X129742857Y-72206680D01*
X129742857Y-72206680D02*
X129695238Y-72159060D01*
X129695238Y-72159060D02*
X129647619Y-72063822D01*
X129647619Y-72063822D02*
X129647619Y-71778108D01*
X129647619Y-71778108D02*
X129695238Y-71682870D01*
X129695238Y-71682870D02*
X129742857Y-71635251D01*
X129742857Y-71635251D02*
X129838095Y-71587632D01*
X129838095Y-71587632D02*
X129980952Y-71587632D01*
X129980952Y-71587632D02*
X130076190Y-71635251D01*
X130076190Y-71635251D02*
X130123809Y-71682870D01*
X130123809Y-71682870D02*
X130171428Y-71778108D01*
X130171428Y-71778108D02*
X130171428Y-72063822D01*
X130171428Y-72063822D02*
X130123809Y-72159060D01*
X130123809Y-72159060D02*
X130076190Y-72206680D01*
X130076190Y-72206680D02*
X129980952Y-72254299D01*
X129980952Y-72254299D02*
X129838095Y-72254299D01*
X131028571Y-71587632D02*
X131028571Y-72254299D01*
X130600000Y-71587632D02*
X130600000Y-72111441D01*
X130600000Y-72111441D02*
X130647619Y-72206680D01*
X130647619Y-72206680D02*
X130742857Y-72254299D01*
X130742857Y-72254299D02*
X130885714Y-72254299D01*
X130885714Y-72254299D02*
X130980952Y-72206680D01*
X130980952Y-72206680D02*
X131028571Y-72159060D01*
X131361905Y-71587632D02*
X131742857Y-71587632D01*
X131504762Y-71254299D02*
X131504762Y-72111441D01*
X131504762Y-72111441D02*
X131552381Y-72206680D01*
X131552381Y-72206680D02*
X131647619Y-72254299D01*
X131647619Y-72254299D02*
X131742857Y-72254299D01*
X128161905Y-54254299D02*
X128161905Y-53254299D01*
X128161905Y-53254299D02*
X128400000Y-53254299D01*
X128400000Y-53254299D02*
X128542857Y-53301918D01*
X128542857Y-53301918D02*
X128638095Y-53397156D01*
X128638095Y-53397156D02*
X128685714Y-53492394D01*
X128685714Y-53492394D02*
X128733333Y-53682870D01*
X128733333Y-53682870D02*
X128733333Y-53825727D01*
X128733333Y-53825727D02*
X128685714Y-54016203D01*
X128685714Y-54016203D02*
X128638095Y-54111441D01*
X128638095Y-54111441D02*
X128542857Y-54206680D01*
X128542857Y-54206680D02*
X128400000Y-54254299D01*
X128400000Y-54254299D02*
X128161905Y-54254299D01*
X129161905Y-53730489D02*
X129495238Y-53730489D01*
X129638095Y-54254299D02*
X129161905Y-54254299D01*
X129161905Y-54254299D02*
X129161905Y-53254299D01*
X129161905Y-53254299D02*
X129638095Y-53254299D01*
X129923810Y-53254299D02*
X130495238Y-53254299D01*
X130209524Y-54254299D02*
X130209524Y-53254299D01*
X131590477Y-54254299D02*
X131590477Y-53254299D01*
X132066667Y-54254299D02*
X132066667Y-53254299D01*
X132066667Y-53254299D02*
X132638095Y-54254299D01*
X132638095Y-54254299D02*
X132638095Y-53254299D01*
X114366165Y-66454299D02*
X114556641Y-66454299D01*
X114556641Y-66454299D02*
X114651879Y-66501918D01*
X114651879Y-66501918D02*
X114747117Y-66597156D01*
X114747117Y-66597156D02*
X114794736Y-66787632D01*
X114794736Y-66787632D02*
X114794736Y-67120965D01*
X114794736Y-67120965D02*
X114747117Y-67311441D01*
X114747117Y-67311441D02*
X114651879Y-67406680D01*
X114651879Y-67406680D02*
X114556641Y-67454299D01*
X114556641Y-67454299D02*
X114366165Y-67454299D01*
X114366165Y-67454299D02*
X114270927Y-67406680D01*
X114270927Y-67406680D02*
X114175689Y-67311441D01*
X114175689Y-67311441D02*
X114128070Y-67120965D01*
X114128070Y-67120965D02*
X114128070Y-66787632D01*
X114128070Y-66787632D02*
X114175689Y-66597156D01*
X114175689Y-66597156D02*
X114270927Y-66501918D01*
X114270927Y-66501918D02*
X114366165Y-66454299D01*
X115223308Y-66454299D02*
X115223308Y-67263822D01*
X115223308Y-67263822D02*
X115270927Y-67359060D01*
X115270927Y-67359060D02*
X115318546Y-67406680D01*
X115318546Y-67406680D02*
X115413784Y-67454299D01*
X115413784Y-67454299D02*
X115604260Y-67454299D01*
X115604260Y-67454299D02*
X115699498Y-67406680D01*
X115699498Y-67406680D02*
X115747117Y-67359060D01*
X115747117Y-67359060D02*
X115794736Y-67263822D01*
X115794736Y-67263822D02*
X115794736Y-66454299D01*
X116128070Y-66454299D02*
X116699498Y-66454299D01*
X116413784Y-67454299D02*
X116413784Y-66454299D01*
X114509022Y-69041917D02*
X114413784Y-68994298D01*
X114413784Y-68994298D02*
X114270927Y-68994298D01*
X114270927Y-68994298D02*
X114128070Y-69041917D01*
X114128070Y-69041917D02*
X114032832Y-69137155D01*
X114032832Y-69137155D02*
X113985213Y-69232393D01*
X113985213Y-69232393D02*
X113937594Y-69422869D01*
X113937594Y-69422869D02*
X113937594Y-69565726D01*
X113937594Y-69565726D02*
X113985213Y-69756202D01*
X113985213Y-69756202D02*
X114032832Y-69851440D01*
X114032832Y-69851440D02*
X114128070Y-69946679D01*
X114128070Y-69946679D02*
X114270927Y-69994298D01*
X114270927Y-69994298D02*
X114366165Y-69994298D01*
X114366165Y-69994298D02*
X114509022Y-69946679D01*
X114509022Y-69946679D02*
X114556641Y-69899059D01*
X114556641Y-69899059D02*
X114556641Y-69565726D01*
X114556641Y-69565726D02*
X114366165Y-69565726D01*
X114985213Y-69994298D02*
X114985213Y-68994298D01*
X114985213Y-68994298D02*
X115556641Y-69994298D01*
X115556641Y-69994298D02*
X115556641Y-68994298D01*
X116032832Y-69994298D02*
X116032832Y-68994298D01*
X116032832Y-68994298D02*
X116270927Y-68994298D01*
X116270927Y-68994298D02*
X116413784Y-69041917D01*
X116413784Y-69041917D02*
X116509022Y-69137155D01*
X116509022Y-69137155D02*
X116556641Y-69232393D01*
X116556641Y-69232393D02*
X116604260Y-69422869D01*
X116604260Y-69422869D02*
X116604260Y-69565726D01*
X116604260Y-69565726D02*
X116556641Y-69756202D01*
X116556641Y-69756202D02*
X116509022Y-69851440D01*
X116509022Y-69851440D02*
X116413784Y-69946679D01*
X116413784Y-69946679D02*
X116270927Y-69994298D01*
X116270927Y-69994298D02*
X116032832Y-69994298D01*
X114223308Y-72486680D02*
X114366165Y-72534299D01*
X114366165Y-72534299D02*
X114604260Y-72534299D01*
X114604260Y-72534299D02*
X114699498Y-72486680D01*
X114699498Y-72486680D02*
X114747117Y-72439060D01*
X114747117Y-72439060D02*
X114794736Y-72343822D01*
X114794736Y-72343822D02*
X114794736Y-72248584D01*
X114794736Y-72248584D02*
X114747117Y-72153346D01*
X114747117Y-72153346D02*
X114699498Y-72105727D01*
X114699498Y-72105727D02*
X114604260Y-72058108D01*
X114604260Y-72058108D02*
X114413784Y-72010489D01*
X114413784Y-72010489D02*
X114318546Y-71962870D01*
X114318546Y-71962870D02*
X114270927Y-71915251D01*
X114270927Y-71915251D02*
X114223308Y-71820013D01*
X114223308Y-71820013D02*
X114223308Y-71724775D01*
X114223308Y-71724775D02*
X114270927Y-71629537D01*
X114270927Y-71629537D02*
X114318546Y-71581918D01*
X114318546Y-71581918D02*
X114413784Y-71534299D01*
X114413784Y-71534299D02*
X114651879Y-71534299D01*
X114651879Y-71534299D02*
X114794736Y-71581918D01*
X115794736Y-72439060D02*
X115747117Y-72486680D01*
X115747117Y-72486680D02*
X115604260Y-72534299D01*
X115604260Y-72534299D02*
X115509022Y-72534299D01*
X115509022Y-72534299D02*
X115366165Y-72486680D01*
X115366165Y-72486680D02*
X115270927Y-72391441D01*
X115270927Y-72391441D02*
X115223308Y-72296203D01*
X115223308Y-72296203D02*
X115175689Y-72105727D01*
X115175689Y-72105727D02*
X115175689Y-71962870D01*
X115175689Y-71962870D02*
X115223308Y-71772394D01*
X115223308Y-71772394D02*
X115270927Y-71677156D01*
X115270927Y-71677156D02*
X115366165Y-71581918D01*
X115366165Y-71581918D02*
X115509022Y-71534299D01*
X115509022Y-71534299D02*
X115604260Y-71534299D01*
X115604260Y-71534299D02*
X115747117Y-71581918D01*
X115747117Y-71581918D02*
X115794736Y-71629537D01*
X116699498Y-72534299D02*
X116223308Y-72534299D01*
X116223308Y-72534299D02*
X116223308Y-71534299D01*
X114175689Y-75026680D02*
X114318546Y-75074299D01*
X114318546Y-75074299D02*
X114556641Y-75074299D01*
X114556641Y-75074299D02*
X114651879Y-75026680D01*
X114651879Y-75026680D02*
X114699498Y-74979060D01*
X114699498Y-74979060D02*
X114747117Y-74883822D01*
X114747117Y-74883822D02*
X114747117Y-74788584D01*
X114747117Y-74788584D02*
X114699498Y-74693346D01*
X114699498Y-74693346D02*
X114651879Y-74645727D01*
X114651879Y-74645727D02*
X114556641Y-74598108D01*
X114556641Y-74598108D02*
X114366165Y-74550489D01*
X114366165Y-74550489D02*
X114270927Y-74502870D01*
X114270927Y-74502870D02*
X114223308Y-74455251D01*
X114223308Y-74455251D02*
X114175689Y-74360013D01*
X114175689Y-74360013D02*
X114175689Y-74264775D01*
X114175689Y-74264775D02*
X114223308Y-74169537D01*
X114223308Y-74169537D02*
X114270927Y-74121918D01*
X114270927Y-74121918D02*
X114366165Y-74074299D01*
X114366165Y-74074299D02*
X114604260Y-74074299D01*
X114604260Y-74074299D02*
X114747117Y-74121918D01*
X115175689Y-75074299D02*
X115175689Y-74074299D01*
X115175689Y-74074299D02*
X115413784Y-74074299D01*
X115413784Y-74074299D02*
X115556641Y-74121918D01*
X115556641Y-74121918D02*
X115651879Y-74217156D01*
X115651879Y-74217156D02*
X115699498Y-74312394D01*
X115699498Y-74312394D02*
X115747117Y-74502870D01*
X115747117Y-74502870D02*
X115747117Y-74645727D01*
X115747117Y-74645727D02*
X115699498Y-74836203D01*
X115699498Y-74836203D02*
X115651879Y-74931441D01*
X115651879Y-74931441D02*
X115556641Y-75026680D01*
X115556641Y-75026680D02*
X115413784Y-75074299D01*
X115413784Y-75074299D02*
X115175689Y-75074299D01*
X116128070Y-74788584D02*
X116604260Y-74788584D01*
X116032832Y-75074299D02*
X116366165Y-74074299D01*
X116366165Y-74074299D02*
X116699498Y-75074299D01*
X114032832Y-76614299D02*
X114366165Y-77614299D01*
X114366165Y-77614299D02*
X114699498Y-76614299D01*
X115604260Y-77519060D02*
X115556641Y-77566680D01*
X115556641Y-77566680D02*
X115413784Y-77614299D01*
X115413784Y-77614299D02*
X115318546Y-77614299D01*
X115318546Y-77614299D02*
X115175689Y-77566680D01*
X115175689Y-77566680D02*
X115080451Y-77471441D01*
X115080451Y-77471441D02*
X115032832Y-77376203D01*
X115032832Y-77376203D02*
X114985213Y-77185727D01*
X114985213Y-77185727D02*
X114985213Y-77042870D01*
X114985213Y-77042870D02*
X115032832Y-76852394D01*
X115032832Y-76852394D02*
X115080451Y-76757156D01*
X115080451Y-76757156D02*
X115175689Y-76661918D01*
X115175689Y-76661918D02*
X115318546Y-76614299D01*
X115318546Y-76614299D02*
X115413784Y-76614299D01*
X115413784Y-76614299D02*
X115556641Y-76661918D01*
X115556641Y-76661918D02*
X115604260Y-76709537D01*
X116604260Y-77519060D02*
X116556641Y-77566680D01*
X116556641Y-77566680D02*
X116413784Y-77614299D01*
X116413784Y-77614299D02*
X116318546Y-77614299D01*
X116318546Y-77614299D02*
X116175689Y-77566680D01*
X116175689Y-77566680D02*
X116080451Y-77471441D01*
X116080451Y-77471441D02*
X116032832Y-77376203D01*
X116032832Y-77376203D02*
X115985213Y-77185727D01*
X115985213Y-77185727D02*
X115985213Y-77042870D01*
X115985213Y-77042870D02*
X116032832Y-76852394D01*
X116032832Y-76852394D02*
X116080451Y-76757156D01*
X116080451Y-76757156D02*
X116175689Y-76661918D01*
X116175689Y-76661918D02*
X116318546Y-76614299D01*
X116318546Y-76614299D02*
X116413784Y-76614299D01*
X116413784Y-76614299D02*
X116556641Y-76661918D01*
X116556641Y-76661918D02*
X116604260Y-76709537D01*
X114509022Y-79201918D02*
X114413784Y-79154299D01*
X114413784Y-79154299D02*
X114270927Y-79154299D01*
X114270927Y-79154299D02*
X114128070Y-79201918D01*
X114128070Y-79201918D02*
X114032832Y-79297156D01*
X114032832Y-79297156D02*
X113985213Y-79392394D01*
X113985213Y-79392394D02*
X113937594Y-79582870D01*
X113937594Y-79582870D02*
X113937594Y-79725727D01*
X113937594Y-79725727D02*
X113985213Y-79916203D01*
X113985213Y-79916203D02*
X114032832Y-80011441D01*
X114032832Y-80011441D02*
X114128070Y-80106680D01*
X114128070Y-80106680D02*
X114270927Y-80154299D01*
X114270927Y-80154299D02*
X114366165Y-80154299D01*
X114366165Y-80154299D02*
X114509022Y-80106680D01*
X114509022Y-80106680D02*
X114556641Y-80059060D01*
X114556641Y-80059060D02*
X114556641Y-79725727D01*
X114556641Y-79725727D02*
X114366165Y-79725727D01*
X114985213Y-80154299D02*
X114985213Y-79154299D01*
X114985213Y-79154299D02*
X115556641Y-80154299D01*
X115556641Y-80154299D02*
X115556641Y-79154299D01*
X116032832Y-80154299D02*
X116032832Y-79154299D01*
X116032832Y-79154299D02*
X116270927Y-79154299D01*
X116270927Y-79154299D02*
X116413784Y-79201918D01*
X116413784Y-79201918D02*
X116509022Y-79297156D01*
X116509022Y-79297156D02*
X116556641Y-79392394D01*
X116556641Y-79392394D02*
X116604260Y-79582870D01*
X116604260Y-79582870D02*
X116604260Y-79725727D01*
X116604260Y-79725727D02*
X116556641Y-79916203D01*
X116556641Y-79916203D02*
X116509022Y-80011441D01*
X116509022Y-80011441D02*
X116413784Y-80106680D01*
X116413784Y-80106680D02*
X116270927Y-80154299D01*
X116270927Y-80154299D02*
X116032832Y-80154299D01*
X127580450Y-83349537D02*
X127485212Y-83301918D01*
X127485212Y-83301918D02*
X127389974Y-83206680D01*
X127389974Y-83206680D02*
X127247117Y-83063822D01*
X127247117Y-83063822D02*
X127151879Y-83016203D01*
X127151879Y-83016203D02*
X127056641Y-83016203D01*
X127104260Y-83254299D02*
X127009022Y-83206680D01*
X127009022Y-83206680D02*
X126913784Y-83111441D01*
X126913784Y-83111441D02*
X126866165Y-82920965D01*
X126866165Y-82920965D02*
X126866165Y-82587632D01*
X126866165Y-82587632D02*
X126913784Y-82397156D01*
X126913784Y-82397156D02*
X127009022Y-82301918D01*
X127009022Y-82301918D02*
X127104260Y-82254299D01*
X127104260Y-82254299D02*
X127294736Y-82254299D01*
X127294736Y-82254299D02*
X127389974Y-82301918D01*
X127389974Y-82301918D02*
X127485212Y-82397156D01*
X127485212Y-82397156D02*
X127532831Y-82587632D01*
X127532831Y-82587632D02*
X127532831Y-82920965D01*
X127532831Y-82920965D02*
X127485212Y-83111441D01*
X127485212Y-83111441D02*
X127389974Y-83206680D01*
X127389974Y-83206680D02*
X127294736Y-83254299D01*
X127294736Y-83254299D02*
X127104260Y-83254299D01*
X127961403Y-83254299D02*
X127961403Y-82254299D01*
X127961403Y-82254299D02*
X128342355Y-82254299D01*
X128342355Y-82254299D02*
X128437593Y-82301918D01*
X128437593Y-82301918D02*
X128485212Y-82349537D01*
X128485212Y-82349537D02*
X128532831Y-82444775D01*
X128532831Y-82444775D02*
X128532831Y-82587632D01*
X128532831Y-82587632D02*
X128485212Y-82682870D01*
X128485212Y-82682870D02*
X128437593Y-82730489D01*
X128437593Y-82730489D02*
X128342355Y-82778108D01*
X128342355Y-82778108D02*
X127961403Y-82778108D01*
X128913784Y-83206680D02*
X129056641Y-83254299D01*
X129056641Y-83254299D02*
X129294736Y-83254299D01*
X129294736Y-83254299D02*
X129389974Y-83206680D01*
X129389974Y-83206680D02*
X129437593Y-83159060D01*
X129437593Y-83159060D02*
X129485212Y-83063822D01*
X129485212Y-83063822D02*
X129485212Y-82968584D01*
X129485212Y-82968584D02*
X129437593Y-82873346D01*
X129437593Y-82873346D02*
X129389974Y-82825727D01*
X129389974Y-82825727D02*
X129294736Y-82778108D01*
X129294736Y-82778108D02*
X129104260Y-82730489D01*
X129104260Y-82730489D02*
X129009022Y-82682870D01*
X129009022Y-82682870D02*
X128961403Y-82635251D01*
X128961403Y-82635251D02*
X128913784Y-82540013D01*
X128913784Y-82540013D02*
X128913784Y-82444775D01*
X128913784Y-82444775D02*
X128961403Y-82349537D01*
X128961403Y-82349537D02*
X129009022Y-82301918D01*
X129009022Y-82301918D02*
X129104260Y-82254299D01*
X129104260Y-82254299D02*
X129342355Y-82254299D01*
X129342355Y-82254299D02*
X129485212Y-82301918D01*
X130866165Y-82254299D02*
X131056641Y-82254299D01*
X131056641Y-82254299D02*
X131151879Y-82301918D01*
X131151879Y-82301918D02*
X131247117Y-82397156D01*
X131247117Y-82397156D02*
X131294736Y-82587632D01*
X131294736Y-82587632D02*
X131294736Y-82920965D01*
X131294736Y-82920965D02*
X131247117Y-83111441D01*
X131247117Y-83111441D02*
X131151879Y-83206680D01*
X131151879Y-83206680D02*
X131056641Y-83254299D01*
X131056641Y-83254299D02*
X130866165Y-83254299D01*
X130866165Y-83254299D02*
X130770927Y-83206680D01*
X130770927Y-83206680D02*
X130675689Y-83111441D01*
X130675689Y-83111441D02*
X130628070Y-82920965D01*
X130628070Y-82920965D02*
X130628070Y-82587632D01*
X130628070Y-82587632D02*
X130675689Y-82397156D01*
X130675689Y-82397156D02*
X130770927Y-82301918D01*
X130770927Y-82301918D02*
X130866165Y-82254299D01*
X131723308Y-82254299D02*
X131723308Y-83063822D01*
X131723308Y-83063822D02*
X131770927Y-83159060D01*
X131770927Y-83159060D02*
X131818546Y-83206680D01*
X131818546Y-83206680D02*
X131913784Y-83254299D01*
X131913784Y-83254299D02*
X132104260Y-83254299D01*
X132104260Y-83254299D02*
X132199498Y-83206680D01*
X132199498Y-83206680D02*
X132247117Y-83159060D01*
X132247117Y-83159060D02*
X132294736Y-83063822D01*
X132294736Y-83063822D02*
X132294736Y-82254299D01*
X132628070Y-82254299D02*
X133199498Y-82254299D01*
X132913784Y-83254299D02*
X132913784Y-82254299D01*
X131009022Y-84001918D02*
X130913784Y-83954299D01*
X130913784Y-83954299D02*
X130770927Y-83954299D01*
X130770927Y-83954299D02*
X130628070Y-84001918D01*
X130628070Y-84001918D02*
X130532832Y-84097156D01*
X130532832Y-84097156D02*
X130485213Y-84192394D01*
X130485213Y-84192394D02*
X130437594Y-84382870D01*
X130437594Y-84382870D02*
X130437594Y-84525727D01*
X130437594Y-84525727D02*
X130485213Y-84716203D01*
X130485213Y-84716203D02*
X130532832Y-84811441D01*
X130532832Y-84811441D02*
X130628070Y-84906680D01*
X130628070Y-84906680D02*
X130770927Y-84954299D01*
X130770927Y-84954299D02*
X130866165Y-84954299D01*
X130866165Y-84954299D02*
X131009022Y-84906680D01*
X131009022Y-84906680D02*
X131056641Y-84859060D01*
X131056641Y-84859060D02*
X131056641Y-84525727D01*
X131056641Y-84525727D02*
X130866165Y-84525727D01*
X131485213Y-84954299D02*
X131485213Y-83954299D01*
X131485213Y-83954299D02*
X132056641Y-84954299D01*
X132056641Y-84954299D02*
X132056641Y-83954299D01*
X132532832Y-84954299D02*
X132532832Y-83954299D01*
X132532832Y-83954299D02*
X132770927Y-83954299D01*
X132770927Y-83954299D02*
X132913784Y-84001918D01*
X132913784Y-84001918D02*
X133009022Y-84097156D01*
X133009022Y-84097156D02*
X133056641Y-84192394D01*
X133056641Y-84192394D02*
X133104260Y-84382870D01*
X133104260Y-84382870D02*
X133104260Y-84525727D01*
X133104260Y-84525727D02*
X133056641Y-84716203D01*
X133056641Y-84716203D02*
X133009022Y-84811441D01*
X133009022Y-84811441D02*
X132913784Y-84906680D01*
X132913784Y-84906680D02*
X132770927Y-84954299D01*
X132770927Y-84954299D02*
X132532832Y-84954299D01*
X130866165Y-87454299D02*
X131056641Y-87454299D01*
X131056641Y-87454299D02*
X131151879Y-87501918D01*
X131151879Y-87501918D02*
X131247117Y-87597156D01*
X131247117Y-87597156D02*
X131294736Y-87787632D01*
X131294736Y-87787632D02*
X131294736Y-88120965D01*
X131294736Y-88120965D02*
X131247117Y-88311441D01*
X131247117Y-88311441D02*
X131151879Y-88406680D01*
X131151879Y-88406680D02*
X131056641Y-88454299D01*
X131056641Y-88454299D02*
X130866165Y-88454299D01*
X130866165Y-88454299D02*
X130770927Y-88406680D01*
X130770927Y-88406680D02*
X130675689Y-88311441D01*
X130675689Y-88311441D02*
X130628070Y-88120965D01*
X130628070Y-88120965D02*
X130628070Y-87787632D01*
X130628070Y-87787632D02*
X130675689Y-87597156D01*
X130675689Y-87597156D02*
X130770927Y-87501918D01*
X130770927Y-87501918D02*
X130866165Y-87454299D01*
X131723308Y-87454299D02*
X131723308Y-88263822D01*
X131723308Y-88263822D02*
X131770927Y-88359060D01*
X131770927Y-88359060D02*
X131818546Y-88406680D01*
X131818546Y-88406680D02*
X131913784Y-88454299D01*
X131913784Y-88454299D02*
X132104260Y-88454299D01*
X132104260Y-88454299D02*
X132199498Y-88406680D01*
X132199498Y-88406680D02*
X132247117Y-88359060D01*
X132247117Y-88359060D02*
X132294736Y-88263822D01*
X132294736Y-88263822D02*
X132294736Y-87454299D01*
X132628070Y-87454299D02*
X133199498Y-87454299D01*
X132913784Y-88454299D02*
X132913784Y-87454299D01*
X83654299Y-79266665D02*
X83654299Y-78695237D01*
X84654299Y-78980951D02*
X83654299Y-78980951D01*
X84654299Y-77790475D02*
X84178108Y-78123808D01*
X84654299Y-78361903D02*
X83654299Y-78361903D01*
X83654299Y-78361903D02*
X83654299Y-77980951D01*
X83654299Y-77980951D02*
X83701918Y-77885713D01*
X83701918Y-77885713D02*
X83749537Y-77838094D01*
X83749537Y-77838094D02*
X83844775Y-77790475D01*
X83844775Y-77790475D02*
X83987632Y-77790475D01*
X83987632Y-77790475D02*
X84082870Y-77838094D01*
X84082870Y-77838094D02*
X84130489Y-77885713D01*
X84130489Y-77885713D02*
X84178108Y-77980951D01*
X84178108Y-77980951D02*
X84178108Y-78361903D01*
X84654299Y-77361903D02*
X83654299Y-77361903D01*
X83701918Y-76361904D02*
X83654299Y-76457142D01*
X83654299Y-76457142D02*
X83654299Y-76599999D01*
X83654299Y-76599999D02*
X83701918Y-76742856D01*
X83701918Y-76742856D02*
X83797156Y-76838094D01*
X83797156Y-76838094D02*
X83892394Y-76885713D01*
X83892394Y-76885713D02*
X84082870Y-76933332D01*
X84082870Y-76933332D02*
X84225727Y-76933332D01*
X84225727Y-76933332D02*
X84416203Y-76885713D01*
X84416203Y-76885713D02*
X84511441Y-76838094D01*
X84511441Y-76838094D02*
X84606680Y-76742856D01*
X84606680Y-76742856D02*
X84654299Y-76599999D01*
X84654299Y-76599999D02*
X84654299Y-76504761D01*
X84654299Y-76504761D02*
X84606680Y-76361904D01*
X84606680Y-76361904D02*
X84559060Y-76314285D01*
X84559060Y-76314285D02*
X84225727Y-76314285D01*
X84225727Y-76314285D02*
X84225727Y-76504761D01*
X84654299Y-75123808D02*
X83654299Y-75123808D01*
X84654299Y-74647618D02*
X83654299Y-74647618D01*
X83654299Y-74647618D02*
X84654299Y-74076190D01*
X84654299Y-74076190D02*
X83654299Y-74076190D01*
X84606680Y-88923808D02*
X84654299Y-88780951D01*
X84654299Y-88780951D02*
X84654299Y-88542856D01*
X84654299Y-88542856D02*
X84606680Y-88447618D01*
X84606680Y-88447618D02*
X84559060Y-88399999D01*
X84559060Y-88399999D02*
X84463822Y-88352380D01*
X84463822Y-88352380D02*
X84368584Y-88352380D01*
X84368584Y-88352380D02*
X84273346Y-88399999D01*
X84273346Y-88399999D02*
X84225727Y-88447618D01*
X84225727Y-88447618D02*
X84178108Y-88542856D01*
X84178108Y-88542856D02*
X84130489Y-88733332D01*
X84130489Y-88733332D02*
X84082870Y-88828570D01*
X84082870Y-88828570D02*
X84035251Y-88876189D01*
X84035251Y-88876189D02*
X83940013Y-88923808D01*
X83940013Y-88923808D02*
X83844775Y-88923808D01*
X83844775Y-88923808D02*
X83749537Y-88876189D01*
X83749537Y-88876189D02*
X83701918Y-88828570D01*
X83701918Y-88828570D02*
X83654299Y-88733332D01*
X83654299Y-88733332D02*
X83654299Y-88495237D01*
X83654299Y-88495237D02*
X83701918Y-88352380D01*
X84654299Y-87923808D02*
X83654299Y-87923808D01*
X83701918Y-86923809D02*
X83654299Y-87019047D01*
X83654299Y-87019047D02*
X83654299Y-87161904D01*
X83654299Y-87161904D02*
X83701918Y-87304761D01*
X83701918Y-87304761D02*
X83797156Y-87399999D01*
X83797156Y-87399999D02*
X83892394Y-87447618D01*
X83892394Y-87447618D02*
X84082870Y-87495237D01*
X84082870Y-87495237D02*
X84225727Y-87495237D01*
X84225727Y-87495237D02*
X84416203Y-87447618D01*
X84416203Y-87447618D02*
X84511441Y-87399999D01*
X84511441Y-87399999D02*
X84606680Y-87304761D01*
X84606680Y-87304761D02*
X84654299Y-87161904D01*
X84654299Y-87161904D02*
X84654299Y-87066666D01*
X84654299Y-87066666D02*
X84606680Y-86923809D01*
X84606680Y-86923809D02*
X84559060Y-86876190D01*
X84559060Y-86876190D02*
X84225727Y-86876190D01*
X84225727Y-86876190D02*
X84225727Y-87066666D01*
X84654299Y-86447618D02*
X83654299Y-86447618D01*
X83654299Y-86447618D02*
X84654299Y-85876190D01*
X84654299Y-85876190D02*
X83654299Y-85876190D01*
X84368584Y-85447618D02*
X84368584Y-84971428D01*
X84654299Y-85542856D02*
X83654299Y-85209523D01*
X83654299Y-85209523D02*
X84654299Y-84876190D01*
X84654299Y-84066666D02*
X84654299Y-84542856D01*
X84654299Y-84542856D02*
X83654299Y-84542856D01*
X84654299Y-82971427D02*
X83654299Y-82971427D01*
X84654299Y-82495237D02*
X83654299Y-82495237D01*
X83654299Y-82495237D02*
X84654299Y-81923809D01*
X84654299Y-81923809D02*
X83654299Y-81923809D01*
X87454299Y-93433332D02*
X88454299Y-93099999D01*
X88454299Y-93099999D02*
X87454299Y-92766666D01*
X88454299Y-92433332D02*
X87454299Y-92433332D01*
X87454299Y-92433332D02*
X87454299Y-92195237D01*
X87454299Y-92195237D02*
X87501918Y-92052380D01*
X87501918Y-92052380D02*
X87597156Y-91957142D01*
X87597156Y-91957142D02*
X87692394Y-91909523D01*
X87692394Y-91909523D02*
X87882870Y-91861904D01*
X87882870Y-91861904D02*
X88025727Y-91861904D01*
X88025727Y-91861904D02*
X88216203Y-91909523D01*
X88216203Y-91909523D02*
X88311441Y-91957142D01*
X88311441Y-91957142D02*
X88406680Y-92052380D01*
X88406680Y-92052380D02*
X88454299Y-92195237D01*
X88454299Y-92195237D02*
X88454299Y-92433332D01*
X88454299Y-91433332D02*
X87454299Y-91433332D01*
X87454299Y-91433332D02*
X87454299Y-91195237D01*
X87454299Y-91195237D02*
X87501918Y-91052380D01*
X87501918Y-91052380D02*
X87597156Y-90957142D01*
X87597156Y-90957142D02*
X87692394Y-90909523D01*
X87692394Y-90909523D02*
X87882870Y-90861904D01*
X87882870Y-90861904D02*
X88025727Y-90861904D01*
X88025727Y-90861904D02*
X88216203Y-90909523D01*
X88216203Y-90909523D02*
X88311441Y-90957142D01*
X88311441Y-90957142D02*
X88406680Y-91052380D01*
X88406680Y-91052380D02*
X88454299Y-91195237D01*
X88454299Y-91195237D02*
X88454299Y-91433332D01*
X90041917Y-92861904D02*
X89994298Y-92957142D01*
X89994298Y-92957142D02*
X89994298Y-93099999D01*
X89994298Y-93099999D02*
X90041917Y-93242856D01*
X90041917Y-93242856D02*
X90137155Y-93338094D01*
X90137155Y-93338094D02*
X90232393Y-93385713D01*
X90232393Y-93385713D02*
X90422869Y-93433332D01*
X90422869Y-93433332D02*
X90565726Y-93433332D01*
X90565726Y-93433332D02*
X90756202Y-93385713D01*
X90756202Y-93385713D02*
X90851440Y-93338094D01*
X90851440Y-93338094D02*
X90946679Y-93242856D01*
X90946679Y-93242856D02*
X90994298Y-93099999D01*
X90994298Y-93099999D02*
X90994298Y-93004761D01*
X90994298Y-93004761D02*
X90946679Y-92861904D01*
X90946679Y-92861904D02*
X90899059Y-92814285D01*
X90899059Y-92814285D02*
X90565726Y-92814285D01*
X90565726Y-92814285D02*
X90565726Y-93004761D01*
X90994298Y-92385713D02*
X89994298Y-92385713D01*
X89994298Y-92385713D02*
X90994298Y-91814285D01*
X90994298Y-91814285D02*
X89994298Y-91814285D01*
X90994298Y-91338094D02*
X89994298Y-91338094D01*
X89994298Y-91338094D02*
X89994298Y-91099999D01*
X89994298Y-91099999D02*
X90041917Y-90957142D01*
X90041917Y-90957142D02*
X90137155Y-90861904D01*
X90137155Y-90861904D02*
X90232393Y-90814285D01*
X90232393Y-90814285D02*
X90422869Y-90766666D01*
X90422869Y-90766666D02*
X90565726Y-90766666D01*
X90565726Y-90766666D02*
X90756202Y-90814285D01*
X90756202Y-90814285D02*
X90851440Y-90861904D01*
X90851440Y-90861904D02*
X90946679Y-90957142D01*
X90946679Y-90957142D02*
X90994298Y-91099999D01*
X90994298Y-91099999D02*
X90994298Y-91338094D01*
X93486680Y-93290475D02*
X93534299Y-93147618D01*
X93534299Y-93147618D02*
X93534299Y-92909523D01*
X93534299Y-92909523D02*
X93486680Y-92814285D01*
X93486680Y-92814285D02*
X93439060Y-92766666D01*
X93439060Y-92766666D02*
X93343822Y-92719047D01*
X93343822Y-92719047D02*
X93248584Y-92719047D01*
X93248584Y-92719047D02*
X93153346Y-92766666D01*
X93153346Y-92766666D02*
X93105727Y-92814285D01*
X93105727Y-92814285D02*
X93058108Y-92909523D01*
X93058108Y-92909523D02*
X93010489Y-93099999D01*
X93010489Y-93099999D02*
X92962870Y-93195237D01*
X92962870Y-93195237D02*
X92915251Y-93242856D01*
X92915251Y-93242856D02*
X92820013Y-93290475D01*
X92820013Y-93290475D02*
X92724775Y-93290475D01*
X92724775Y-93290475D02*
X92629537Y-93242856D01*
X92629537Y-93242856D02*
X92581918Y-93195237D01*
X92581918Y-93195237D02*
X92534299Y-93099999D01*
X92534299Y-93099999D02*
X92534299Y-92861904D01*
X92534299Y-92861904D02*
X92581918Y-92719047D01*
X93439060Y-91719047D02*
X93486680Y-91766666D01*
X93486680Y-91766666D02*
X93534299Y-91909523D01*
X93534299Y-91909523D02*
X93534299Y-92004761D01*
X93534299Y-92004761D02*
X93486680Y-92147618D01*
X93486680Y-92147618D02*
X93391441Y-92242856D01*
X93391441Y-92242856D02*
X93296203Y-92290475D01*
X93296203Y-92290475D02*
X93105727Y-92338094D01*
X93105727Y-92338094D02*
X92962870Y-92338094D01*
X92962870Y-92338094D02*
X92772394Y-92290475D01*
X92772394Y-92290475D02*
X92677156Y-92242856D01*
X92677156Y-92242856D02*
X92581918Y-92147618D01*
X92581918Y-92147618D02*
X92534299Y-92004761D01*
X92534299Y-92004761D02*
X92534299Y-91909523D01*
X92534299Y-91909523D02*
X92581918Y-91766666D01*
X92581918Y-91766666D02*
X92629537Y-91719047D01*
X93534299Y-90814285D02*
X93534299Y-91290475D01*
X93534299Y-91290475D02*
X92534299Y-91290475D01*
X96026680Y-93314285D02*
X96074299Y-93171428D01*
X96074299Y-93171428D02*
X96074299Y-92933333D01*
X96074299Y-92933333D02*
X96026680Y-92838095D01*
X96026680Y-92838095D02*
X95979060Y-92790476D01*
X95979060Y-92790476D02*
X95883822Y-92742857D01*
X95883822Y-92742857D02*
X95788584Y-92742857D01*
X95788584Y-92742857D02*
X95693346Y-92790476D01*
X95693346Y-92790476D02*
X95645727Y-92838095D01*
X95645727Y-92838095D02*
X95598108Y-92933333D01*
X95598108Y-92933333D02*
X95550489Y-93123809D01*
X95550489Y-93123809D02*
X95502870Y-93219047D01*
X95502870Y-93219047D02*
X95455251Y-93266666D01*
X95455251Y-93266666D02*
X95360013Y-93314285D01*
X95360013Y-93314285D02*
X95264775Y-93314285D01*
X95264775Y-93314285D02*
X95169537Y-93266666D01*
X95169537Y-93266666D02*
X95121918Y-93219047D01*
X95121918Y-93219047D02*
X95074299Y-93123809D01*
X95074299Y-93123809D02*
X95074299Y-92885714D01*
X95074299Y-92885714D02*
X95121918Y-92742857D01*
X96074299Y-92314285D02*
X95074299Y-92314285D01*
X95074299Y-92314285D02*
X95074299Y-92076190D01*
X95074299Y-92076190D02*
X95121918Y-91933333D01*
X95121918Y-91933333D02*
X95217156Y-91838095D01*
X95217156Y-91838095D02*
X95312394Y-91790476D01*
X95312394Y-91790476D02*
X95502870Y-91742857D01*
X95502870Y-91742857D02*
X95645727Y-91742857D01*
X95645727Y-91742857D02*
X95836203Y-91790476D01*
X95836203Y-91790476D02*
X95931441Y-91838095D01*
X95931441Y-91838095D02*
X96026680Y-91933333D01*
X96026680Y-91933333D02*
X96074299Y-92076190D01*
X96074299Y-92076190D02*
X96074299Y-92314285D01*
X95788584Y-91361904D02*
X95788584Y-90885714D01*
X96074299Y-91457142D02*
X95074299Y-91123809D01*
X95074299Y-91123809D02*
X96074299Y-90790476D01*
X98328584Y-93838094D02*
X98328584Y-93361904D01*
X98614299Y-93933332D02*
X97614299Y-93599999D01*
X97614299Y-93599999D02*
X98614299Y-93266666D01*
X98614299Y-92933332D02*
X97614299Y-92933332D01*
X97614299Y-92933332D02*
X97614299Y-92695237D01*
X97614299Y-92695237D02*
X97661918Y-92552380D01*
X97661918Y-92552380D02*
X97757156Y-92457142D01*
X97757156Y-92457142D02*
X97852394Y-92409523D01*
X97852394Y-92409523D02*
X98042870Y-92361904D01*
X98042870Y-92361904D02*
X98185727Y-92361904D01*
X98185727Y-92361904D02*
X98376203Y-92409523D01*
X98376203Y-92409523D02*
X98471441Y-92457142D01*
X98471441Y-92457142D02*
X98566680Y-92552380D01*
X98566680Y-92552380D02*
X98614299Y-92695237D01*
X98614299Y-92695237D02*
X98614299Y-92933332D01*
X98614299Y-91933332D02*
X97614299Y-91933332D01*
X97614299Y-91933332D02*
X97614299Y-91695237D01*
X97614299Y-91695237D02*
X97661918Y-91552380D01*
X97661918Y-91552380D02*
X97757156Y-91457142D01*
X97757156Y-91457142D02*
X97852394Y-91409523D01*
X97852394Y-91409523D02*
X98042870Y-91361904D01*
X98042870Y-91361904D02*
X98185727Y-91361904D01*
X98185727Y-91361904D02*
X98376203Y-91409523D01*
X98376203Y-91409523D02*
X98471441Y-91457142D01*
X98471441Y-91457142D02*
X98566680Y-91552380D01*
X98566680Y-91552380D02*
X98614299Y-91695237D01*
X98614299Y-91695237D02*
X98614299Y-91933332D01*
X98614299Y-90361904D02*
X98138108Y-90695237D01*
X98614299Y-90933332D02*
X97614299Y-90933332D01*
X97614299Y-90933332D02*
X97614299Y-90552380D01*
X97614299Y-90552380D02*
X97661918Y-90457142D01*
X97661918Y-90457142D02*
X97709537Y-90409523D01*
X97709537Y-90409523D02*
X97804775Y-90361904D01*
X97804775Y-90361904D02*
X97947632Y-90361904D01*
X97947632Y-90361904D02*
X98042870Y-90409523D01*
X98042870Y-90409523D02*
X98090489Y-90457142D01*
X98090489Y-90457142D02*
X98138108Y-90552380D01*
X98138108Y-90552380D02*
X98138108Y-90933332D01*
X100868584Y-93623809D02*
X100868584Y-93147619D01*
X101154299Y-93719047D02*
X100154299Y-93385714D01*
X100154299Y-93385714D02*
X101154299Y-93052381D01*
X101154299Y-92242857D02*
X101154299Y-92719047D01*
X101154299Y-92719047D02*
X100154299Y-92719047D01*
X101154299Y-91338095D02*
X100678108Y-91671428D01*
X101154299Y-91909523D02*
X100154299Y-91909523D01*
X100154299Y-91909523D02*
X100154299Y-91528571D01*
X100154299Y-91528571D02*
X100201918Y-91433333D01*
X100201918Y-91433333D02*
X100249537Y-91385714D01*
X100249537Y-91385714D02*
X100344775Y-91338095D01*
X100344775Y-91338095D02*
X100487632Y-91338095D01*
X100487632Y-91338095D02*
X100582870Y-91385714D01*
X100582870Y-91385714D02*
X100630489Y-91433333D01*
X100630489Y-91433333D02*
X100678108Y-91528571D01*
X100678108Y-91528571D02*
X100678108Y-91909523D01*
X100154299Y-91052380D02*
X100154299Y-90480952D01*
X101154299Y-90766666D02*
X100154299Y-90766666D01*
X103408584Y-92814285D02*
X103408584Y-92338095D01*
X103694299Y-92909523D02*
X102694299Y-92576190D01*
X102694299Y-92576190D02*
X103694299Y-92242857D01*
X102694299Y-91719047D02*
X102694299Y-91623809D01*
X102694299Y-91623809D02*
X102741918Y-91528571D01*
X102741918Y-91528571D02*
X102789537Y-91480952D01*
X102789537Y-91480952D02*
X102884775Y-91433333D01*
X102884775Y-91433333D02*
X103075251Y-91385714D01*
X103075251Y-91385714D02*
X103313346Y-91385714D01*
X103313346Y-91385714D02*
X103503822Y-91433333D01*
X103503822Y-91433333D02*
X103599060Y-91480952D01*
X103599060Y-91480952D02*
X103646680Y-91528571D01*
X103646680Y-91528571D02*
X103694299Y-91623809D01*
X103694299Y-91623809D02*
X103694299Y-91719047D01*
X103694299Y-91719047D02*
X103646680Y-91814285D01*
X103646680Y-91814285D02*
X103599060Y-91861904D01*
X103599060Y-91861904D02*
X103503822Y-91909523D01*
X103503822Y-91909523D02*
X103313346Y-91957142D01*
X103313346Y-91957142D02*
X103075251Y-91957142D01*
X103075251Y-91957142D02*
X102884775Y-91909523D01*
X102884775Y-91909523D02*
X102789537Y-91861904D01*
X102789537Y-91861904D02*
X102741918Y-91814285D01*
X102741918Y-91814285D02*
X102694299Y-91719047D01*
X105948584Y-92814285D02*
X105948584Y-92338095D01*
X106234299Y-92909523D02*
X105234299Y-92576190D01*
X105234299Y-92576190D02*
X106234299Y-92242857D01*
X106234299Y-91385714D02*
X106234299Y-91957142D01*
X106234299Y-91671428D02*
X105234299Y-91671428D01*
X105234299Y-91671428D02*
X105377156Y-91766666D01*
X105377156Y-91766666D02*
X105472394Y-91861904D01*
X105472394Y-91861904D02*
X105520013Y-91957142D01*
X108488584Y-92814285D02*
X108488584Y-92338095D01*
X108774299Y-92909523D02*
X107774299Y-92576190D01*
X107774299Y-92576190D02*
X108774299Y-92242857D01*
X107869537Y-91957142D02*
X107821918Y-91909523D01*
X107821918Y-91909523D02*
X107774299Y-91814285D01*
X107774299Y-91814285D02*
X107774299Y-91576190D01*
X107774299Y-91576190D02*
X107821918Y-91480952D01*
X107821918Y-91480952D02*
X107869537Y-91433333D01*
X107869537Y-91433333D02*
X107964775Y-91385714D01*
X107964775Y-91385714D02*
X108060013Y-91385714D01*
X108060013Y-91385714D02*
X108202870Y-91433333D01*
X108202870Y-91433333D02*
X108774299Y-92004761D01*
X108774299Y-92004761D02*
X108774299Y-91385714D01*
X111028584Y-92814285D02*
X111028584Y-92338095D01*
X111314299Y-92909523D02*
X110314299Y-92576190D01*
X110314299Y-92576190D02*
X111314299Y-92242857D01*
X110314299Y-92004761D02*
X110314299Y-91385714D01*
X110314299Y-91385714D02*
X110695251Y-91719047D01*
X110695251Y-91719047D02*
X110695251Y-91576190D01*
X110695251Y-91576190D02*
X110742870Y-91480952D01*
X110742870Y-91480952D02*
X110790489Y-91433333D01*
X110790489Y-91433333D02*
X110885727Y-91385714D01*
X110885727Y-91385714D02*
X111123822Y-91385714D01*
X111123822Y-91385714D02*
X111219060Y-91433333D01*
X111219060Y-91433333D02*
X111266680Y-91480952D01*
X111266680Y-91480952D02*
X111314299Y-91576190D01*
X111314299Y-91576190D02*
X111314299Y-91861904D01*
X111314299Y-91861904D02*
X111266680Y-91957142D01*
X111266680Y-91957142D02*
X111219060Y-92004761D01*
X116454299Y-85814285D02*
X115454299Y-85814285D01*
X115454299Y-85814285D02*
X115454299Y-85433333D01*
X115454299Y-85433333D02*
X115501918Y-85338095D01*
X115501918Y-85338095D02*
X115549537Y-85290476D01*
X115549537Y-85290476D02*
X115644775Y-85242857D01*
X115644775Y-85242857D02*
X115787632Y-85242857D01*
X115787632Y-85242857D02*
X115882870Y-85290476D01*
X115882870Y-85290476D02*
X115930489Y-85338095D01*
X115930489Y-85338095D02*
X115978108Y-85433333D01*
X115978108Y-85433333D02*
X115978108Y-85814285D01*
X116454299Y-84242857D02*
X115978108Y-84576190D01*
X116454299Y-84814285D02*
X115454299Y-84814285D01*
X115454299Y-84814285D02*
X115454299Y-84433333D01*
X115454299Y-84433333D02*
X115501918Y-84338095D01*
X115501918Y-84338095D02*
X115549537Y-84290476D01*
X115549537Y-84290476D02*
X115644775Y-84242857D01*
X115644775Y-84242857D02*
X115787632Y-84242857D01*
X115787632Y-84242857D02*
X115882870Y-84290476D01*
X115882870Y-84290476D02*
X115930489Y-84338095D01*
X115930489Y-84338095D02*
X115978108Y-84433333D01*
X115978108Y-84433333D02*
X115978108Y-84814285D01*
X115930489Y-83814285D02*
X115930489Y-83480952D01*
X116454299Y-83338095D02*
X116454299Y-83814285D01*
X116454299Y-83814285D02*
X115454299Y-83814285D01*
X115454299Y-83814285D02*
X115454299Y-83338095D01*
X118708583Y-85314285D02*
X118708583Y-84838095D01*
X118994298Y-85409523D02*
X117994298Y-85076190D01*
X117994298Y-85076190D02*
X118994298Y-84742857D01*
X118089536Y-84457142D02*
X118041917Y-84409523D01*
X118041917Y-84409523D02*
X117994298Y-84314285D01*
X117994298Y-84314285D02*
X117994298Y-84076190D01*
X117994298Y-84076190D02*
X118041917Y-83980952D01*
X118041917Y-83980952D02*
X118089536Y-83933333D01*
X118089536Y-83933333D02*
X118184774Y-83885714D01*
X118184774Y-83885714D02*
X118280012Y-83885714D01*
X118280012Y-83885714D02*
X118422869Y-83933333D01*
X118422869Y-83933333D02*
X118994298Y-84504761D01*
X118994298Y-84504761D02*
X118994298Y-83885714D01*
X120534299Y-86314285D02*
X121534299Y-85980952D01*
X121534299Y-85980952D02*
X120534299Y-85647619D01*
X121534299Y-84742857D02*
X121058108Y-85076190D01*
X121534299Y-85314285D02*
X120534299Y-85314285D01*
X120534299Y-85314285D02*
X120534299Y-84933333D01*
X120534299Y-84933333D02*
X120581918Y-84838095D01*
X120581918Y-84838095D02*
X120629537Y-84790476D01*
X120629537Y-84790476D02*
X120724775Y-84742857D01*
X120724775Y-84742857D02*
X120867632Y-84742857D01*
X120867632Y-84742857D02*
X120962870Y-84790476D01*
X120962870Y-84790476D02*
X121010489Y-84838095D01*
X121010489Y-84838095D02*
X121058108Y-84933333D01*
X121058108Y-84933333D02*
X121058108Y-85314285D01*
X121010489Y-84314285D02*
X121010489Y-83980952D01*
X121534299Y-83838095D02*
X121534299Y-84314285D01*
X121534299Y-84314285D02*
X120534299Y-84314285D01*
X120534299Y-84314285D02*
X120534299Y-83838095D01*
X121010489Y-83076190D02*
X121010489Y-83409523D01*
X121534299Y-83409523D02*
X120534299Y-83409523D01*
X120534299Y-83409523D02*
X120534299Y-82933333D01*
X123121918Y-85361904D02*
X123074299Y-85457142D01*
X123074299Y-85457142D02*
X123074299Y-85599999D01*
X123074299Y-85599999D02*
X123121918Y-85742856D01*
X123121918Y-85742856D02*
X123217156Y-85838094D01*
X123217156Y-85838094D02*
X123312394Y-85885713D01*
X123312394Y-85885713D02*
X123502870Y-85933332D01*
X123502870Y-85933332D02*
X123645727Y-85933332D01*
X123645727Y-85933332D02*
X123836203Y-85885713D01*
X123836203Y-85885713D02*
X123931441Y-85838094D01*
X123931441Y-85838094D02*
X124026680Y-85742856D01*
X124026680Y-85742856D02*
X124074299Y-85599999D01*
X124074299Y-85599999D02*
X124074299Y-85504761D01*
X124074299Y-85504761D02*
X124026680Y-85361904D01*
X124026680Y-85361904D02*
X123979060Y-85314285D01*
X123979060Y-85314285D02*
X123645727Y-85314285D01*
X123645727Y-85314285D02*
X123645727Y-85504761D01*
X124074299Y-84885713D02*
X123074299Y-84885713D01*
X123074299Y-84885713D02*
X124074299Y-84314285D01*
X124074299Y-84314285D02*
X123074299Y-84314285D01*
X124074299Y-83838094D02*
X123074299Y-83838094D01*
X123074299Y-83838094D02*
X123074299Y-83599999D01*
X123074299Y-83599999D02*
X123121918Y-83457142D01*
X123121918Y-83457142D02*
X123217156Y-83361904D01*
X123217156Y-83361904D02*
X123312394Y-83314285D01*
X123312394Y-83314285D02*
X123502870Y-83266666D01*
X123502870Y-83266666D02*
X123645727Y-83266666D01*
X123645727Y-83266666D02*
X123836203Y-83314285D01*
X123836203Y-83314285D02*
X123931441Y-83361904D01*
X123931441Y-83361904D02*
X124026680Y-83457142D01*
X124026680Y-83457142D02*
X124074299Y-83599999D01*
X124074299Y-83599999D02*
X124074299Y-83838094D01*
D15*
X74135212Y-55003560D02*
X74230450Y-55051179D01*
X74230450Y-55051179D02*
X74420926Y-55051179D01*
X74420926Y-55051179D02*
X74516164Y-55003560D01*
X74516164Y-55003560D02*
X74563783Y-54908321D01*
X74563783Y-54908321D02*
X74563783Y-54860702D01*
X74563783Y-54860702D02*
X74516164Y-54765464D01*
X74516164Y-54765464D02*
X74420926Y-54717845D01*
X74420926Y-54717845D02*
X74278069Y-54717845D01*
X74278069Y-54717845D02*
X74182831Y-54670226D01*
X74182831Y-54670226D02*
X74135212Y-54574988D01*
X74135212Y-54574988D02*
X74135212Y-54527369D01*
X74135212Y-54527369D02*
X74182831Y-54432131D01*
X74182831Y-54432131D02*
X74278069Y-54384512D01*
X74278069Y-54384512D02*
X74420926Y-54384512D01*
X74420926Y-54384512D02*
X74516164Y-54432131D01*
X74992355Y-55051179D02*
X74992355Y-54384512D01*
X74992355Y-54051179D02*
X74944736Y-54098798D01*
X74944736Y-54098798D02*
X74992355Y-54146417D01*
X74992355Y-54146417D02*
X75039974Y-54098798D01*
X75039974Y-54098798D02*
X74992355Y-54051179D01*
X74992355Y-54051179D02*
X74992355Y-54146417D01*
X75468545Y-55051179D02*
X75468545Y-54384512D01*
X75468545Y-54479750D02*
X75516164Y-54432131D01*
X75516164Y-54432131D02*
X75611402Y-54384512D01*
X75611402Y-54384512D02*
X75754259Y-54384512D01*
X75754259Y-54384512D02*
X75849497Y-54432131D01*
X75849497Y-54432131D02*
X75897116Y-54527369D01*
X75897116Y-54527369D02*
X75897116Y-55051179D01*
X75897116Y-54527369D02*
X75944735Y-54432131D01*
X75944735Y-54432131D02*
X76039973Y-54384512D01*
X76039973Y-54384512D02*
X76182830Y-54384512D01*
X76182830Y-54384512D02*
X76278069Y-54432131D01*
X76278069Y-54432131D02*
X76325688Y-54527369D01*
X76325688Y-54527369D02*
X76325688Y-55051179D01*
X76801878Y-54384512D02*
X76801878Y-55384512D01*
X76801878Y-54432131D02*
X76897116Y-54384512D01*
X76897116Y-54384512D02*
X77087592Y-54384512D01*
X77087592Y-54384512D02*
X77182830Y-54432131D01*
X77182830Y-54432131D02*
X77230449Y-54479750D01*
X77230449Y-54479750D02*
X77278068Y-54574988D01*
X77278068Y-54574988D02*
X77278068Y-54860702D01*
X77278068Y-54860702D02*
X77230449Y-54955940D01*
X77230449Y-54955940D02*
X77182830Y-55003560D01*
X77182830Y-55003560D02*
X77087592Y-55051179D01*
X77087592Y-55051179D02*
X76897116Y-55051179D01*
X76897116Y-55051179D02*
X76801878Y-55003560D01*
X77849497Y-55051179D02*
X77754259Y-55003560D01*
X77754259Y-55003560D02*
X77706640Y-54908321D01*
X77706640Y-54908321D02*
X77706640Y-54051179D01*
X78611402Y-55003560D02*
X78516164Y-55051179D01*
X78516164Y-55051179D02*
X78325688Y-55051179D01*
X78325688Y-55051179D02*
X78230450Y-55003560D01*
X78230450Y-55003560D02*
X78182831Y-54908321D01*
X78182831Y-54908321D02*
X78182831Y-54527369D01*
X78182831Y-54527369D02*
X78230450Y-54432131D01*
X78230450Y-54432131D02*
X78325688Y-54384512D01*
X78325688Y-54384512D02*
X78516164Y-54384512D01*
X78516164Y-54384512D02*
X78611402Y-54432131D01*
X78611402Y-54432131D02*
X78659021Y-54527369D01*
X78659021Y-54527369D02*
X78659021Y-54622607D01*
X78659021Y-54622607D02*
X78182831Y-54717845D01*
X79849498Y-55051179D02*
X79849498Y-54051179D01*
X79849498Y-54051179D02*
X80087593Y-54051179D01*
X80087593Y-54051179D02*
X80230450Y-54098798D01*
X80230450Y-54098798D02*
X80325688Y-54194036D01*
X80325688Y-54194036D02*
X80373307Y-54289274D01*
X80373307Y-54289274D02*
X80420926Y-54479750D01*
X80420926Y-54479750D02*
X80420926Y-54622607D01*
X80420926Y-54622607D02*
X80373307Y-54813083D01*
X80373307Y-54813083D02*
X80325688Y-54908321D01*
X80325688Y-54908321D02*
X80230450Y-55003560D01*
X80230450Y-55003560D02*
X80087593Y-55051179D01*
X80087593Y-55051179D02*
X79849498Y-55051179D01*
X80801879Y-54765464D02*
X81278069Y-54765464D01*
X80706641Y-55051179D02*
X81039974Y-54051179D01*
X81039974Y-54051179D02*
X81373307Y-55051179D01*
X82373307Y-55146417D02*
X82278069Y-55098798D01*
X82278069Y-55098798D02*
X82182831Y-55003560D01*
X82182831Y-55003560D02*
X82039974Y-54860702D01*
X82039974Y-54860702D02*
X81944736Y-54813083D01*
X81944736Y-54813083D02*
X81849498Y-54813083D01*
X81897117Y-55051179D02*
X81801879Y-55003560D01*
X81801879Y-55003560D02*
X81706641Y-54908321D01*
X81706641Y-54908321D02*
X81659022Y-54717845D01*
X81659022Y-54717845D02*
X81659022Y-54384512D01*
X81659022Y-54384512D02*
X81706641Y-54194036D01*
X81706641Y-54194036D02*
X81801879Y-54098798D01*
X81801879Y-54098798D02*
X81897117Y-54051179D01*
X81897117Y-54051179D02*
X82087593Y-54051179D01*
X82087593Y-54051179D02*
X82182831Y-54098798D01*
X82182831Y-54098798D02*
X82278069Y-54194036D01*
X82278069Y-54194036D02*
X82325688Y-54384512D01*
X82325688Y-54384512D02*
X82325688Y-54717845D01*
X82325688Y-54717845D02*
X82278069Y-54908321D01*
X82278069Y-54908321D02*
X82182831Y-55003560D01*
X82182831Y-55003560D02*
X82087593Y-55051179D01*
X82087593Y-55051179D02*
X81897117Y-55051179D01*
X83468546Y-55003560D02*
X83563784Y-55051179D01*
X83563784Y-55051179D02*
X83754260Y-55051179D01*
X83754260Y-55051179D02*
X83849498Y-55003560D01*
X83849498Y-55003560D02*
X83897117Y-54908321D01*
X83897117Y-54908321D02*
X83897117Y-54860702D01*
X83897117Y-54860702D02*
X83849498Y-54765464D01*
X83849498Y-54765464D02*
X83754260Y-54717845D01*
X83754260Y-54717845D02*
X83611403Y-54717845D01*
X83611403Y-54717845D02*
X83516165Y-54670226D01*
X83516165Y-54670226D02*
X83468546Y-54574988D01*
X83468546Y-54574988D02*
X83468546Y-54527369D01*
X83468546Y-54527369D02*
X83516165Y-54432131D01*
X83516165Y-54432131D02*
X83611403Y-54384512D01*
X83611403Y-54384512D02*
X83754260Y-54384512D01*
X83754260Y-54384512D02*
X83849498Y-54432131D01*
X84325689Y-55051179D02*
X84325689Y-54051179D01*
X84754260Y-55051179D02*
X84754260Y-54527369D01*
X84754260Y-54527369D02*
X84706641Y-54432131D01*
X84706641Y-54432131D02*
X84611403Y-54384512D01*
X84611403Y-54384512D02*
X84468546Y-54384512D01*
X84468546Y-54384512D02*
X84373308Y-54432131D01*
X84373308Y-54432131D02*
X84325689Y-54479750D01*
X85230451Y-55051179D02*
X85230451Y-54384512D01*
X85230451Y-54051179D02*
X85182832Y-54098798D01*
X85182832Y-54098798D02*
X85230451Y-54146417D01*
X85230451Y-54146417D02*
X85278070Y-54098798D01*
X85278070Y-54098798D02*
X85230451Y-54051179D01*
X85230451Y-54051179D02*
X85230451Y-54146417D01*
X86087593Y-55003560D02*
X85992355Y-55051179D01*
X85992355Y-55051179D02*
X85801879Y-55051179D01*
X85801879Y-55051179D02*
X85706641Y-55003560D01*
X85706641Y-55003560D02*
X85659022Y-54908321D01*
X85659022Y-54908321D02*
X85659022Y-54527369D01*
X85659022Y-54527369D02*
X85706641Y-54432131D01*
X85706641Y-54432131D02*
X85801879Y-54384512D01*
X85801879Y-54384512D02*
X85992355Y-54384512D01*
X85992355Y-54384512D02*
X86087593Y-54432131D01*
X86087593Y-54432131D02*
X86135212Y-54527369D01*
X86135212Y-54527369D02*
X86135212Y-54622607D01*
X86135212Y-54622607D02*
X85659022Y-54717845D01*
X86706641Y-55051179D02*
X86611403Y-55003560D01*
X86611403Y-55003560D02*
X86563784Y-54908321D01*
X86563784Y-54908321D02*
X86563784Y-54051179D01*
X87516165Y-55051179D02*
X87516165Y-54051179D01*
X87516165Y-55003560D02*
X87420927Y-55051179D01*
X87420927Y-55051179D02*
X87230451Y-55051179D01*
X87230451Y-55051179D02*
X87135213Y-55003560D01*
X87135213Y-55003560D02*
X87087594Y-54955940D01*
X87087594Y-54955940D02*
X87039975Y-54860702D01*
X87039975Y-54860702D02*
X87039975Y-54574988D01*
X87039975Y-54574988D02*
X87087594Y-54479750D01*
X87087594Y-54479750D02*
X87135213Y-54432131D01*
X87135213Y-54432131D02*
X87230451Y-54384512D01*
X87230451Y-54384512D02*
X87420927Y-54384512D01*
X87420927Y-54384512D02*
X87516165Y-54432131D01*
X89516166Y-55051179D02*
X89516166Y-54384512D01*
X89516166Y-54574988D02*
X89563785Y-54479750D01*
X89563785Y-54479750D02*
X89611404Y-54432131D01*
X89611404Y-54432131D02*
X89706642Y-54384512D01*
X89706642Y-54384512D02*
X89801880Y-54384512D01*
X90516166Y-55003560D02*
X90420928Y-55051179D01*
X90420928Y-55051179D02*
X90230452Y-55051179D01*
X90230452Y-55051179D02*
X90135214Y-55003560D01*
X90135214Y-55003560D02*
X90087595Y-54908321D01*
X90087595Y-54908321D02*
X90087595Y-54527369D01*
X90087595Y-54527369D02*
X90135214Y-54432131D01*
X90135214Y-54432131D02*
X90230452Y-54384512D01*
X90230452Y-54384512D02*
X90420928Y-54384512D01*
X90420928Y-54384512D02*
X90516166Y-54432131D01*
X90516166Y-54432131D02*
X90563785Y-54527369D01*
X90563785Y-54527369D02*
X90563785Y-54622607D01*
X90563785Y-54622607D02*
X90087595Y-54717845D01*
X90897119Y-54384512D02*
X91135214Y-55051179D01*
X91135214Y-55051179D02*
X91373309Y-54384512D01*
X92516167Y-55051179D02*
X92516167Y-54051179D01*
X92516167Y-54051179D02*
X92754262Y-54051179D01*
X92754262Y-54051179D02*
X92897119Y-54098798D01*
X92897119Y-54098798D02*
X92992357Y-54194036D01*
X92992357Y-54194036D02*
X93039976Y-54289274D01*
X93039976Y-54289274D02*
X93087595Y-54479750D01*
X93087595Y-54479750D02*
X93087595Y-54622607D01*
X93087595Y-54622607D02*
X93039976Y-54813083D01*
X93039976Y-54813083D02*
X92992357Y-54908321D01*
X92992357Y-54908321D02*
X92897119Y-55003560D01*
X92897119Y-55003560D02*
X92754262Y-55051179D01*
X92754262Y-55051179D02*
X92516167Y-55051179D01*
X111685714Y-65851179D02*
X111685714Y-64851179D01*
X111685714Y-64851179D02*
X112066666Y-64851179D01*
X112066666Y-64851179D02*
X112161904Y-64898798D01*
X112161904Y-64898798D02*
X112209523Y-64946417D01*
X112209523Y-64946417D02*
X112257142Y-65041655D01*
X112257142Y-65041655D02*
X112257142Y-65184512D01*
X112257142Y-65184512D02*
X112209523Y-65279750D01*
X112209523Y-65279750D02*
X112161904Y-65327369D01*
X112161904Y-65327369D02*
X112066666Y-65374988D01*
X112066666Y-65374988D02*
X111685714Y-65374988D01*
X113257142Y-65851179D02*
X112923809Y-65374988D01*
X112685714Y-65851179D02*
X112685714Y-64851179D01*
X112685714Y-64851179D02*
X113066666Y-64851179D01*
X113066666Y-64851179D02*
X113161904Y-64898798D01*
X113161904Y-64898798D02*
X113209523Y-64946417D01*
X113209523Y-64946417D02*
X113257142Y-65041655D01*
X113257142Y-65041655D02*
X113257142Y-65184512D01*
X113257142Y-65184512D02*
X113209523Y-65279750D01*
X113209523Y-65279750D02*
X113161904Y-65327369D01*
X113161904Y-65327369D02*
X113066666Y-65374988D01*
X113066666Y-65374988D02*
X112685714Y-65374988D01*
X113685714Y-65327369D02*
X114019047Y-65327369D01*
X114161904Y-65851179D02*
X113685714Y-65851179D01*
X113685714Y-65851179D02*
X113685714Y-64851179D01*
X113685714Y-64851179D02*
X114161904Y-64851179D01*
X114542857Y-65565464D02*
X115019047Y-65565464D01*
X114447619Y-65851179D02*
X114780952Y-64851179D01*
X114780952Y-64851179D02*
X115114285Y-65851179D01*
X115447619Y-65851179D02*
X115447619Y-64851179D01*
X115447619Y-64851179D02*
X115780952Y-65565464D01*
X115780952Y-65565464D02*
X116114285Y-64851179D01*
X116114285Y-64851179D02*
X116114285Y-65851179D01*
X116590476Y-65851179D02*
X116590476Y-64851179D01*
X116590476Y-64851179D02*
X116971428Y-64851179D01*
X116971428Y-64851179D02*
X117066666Y-64898798D01*
X117066666Y-64898798D02*
X117114285Y-64946417D01*
X117114285Y-64946417D02*
X117161904Y-65041655D01*
X117161904Y-65041655D02*
X117161904Y-65184512D01*
X117161904Y-65184512D02*
X117114285Y-65279750D01*
X117114285Y-65279750D02*
X117066666Y-65327369D01*
X117066666Y-65327369D02*
X116971428Y-65374988D01*
X116971428Y-65374988D02*
X116590476Y-65374988D01*
D16*
X124714286Y-70341414D02*
X124714286Y-69141414D01*
X124714286Y-69141414D02*
X125114286Y-69998557D01*
X125114286Y-69998557D02*
X125514286Y-69141414D01*
X125514286Y-69141414D02*
X125514286Y-70341414D01*
X126771429Y-70227129D02*
X126714286Y-70284272D01*
X126714286Y-70284272D02*
X126542858Y-70341414D01*
X126542858Y-70341414D02*
X126428572Y-70341414D01*
X126428572Y-70341414D02*
X126257143Y-70284272D01*
X126257143Y-70284272D02*
X126142858Y-70169986D01*
X126142858Y-70169986D02*
X126085715Y-70055700D01*
X126085715Y-70055700D02*
X126028572Y-69827129D01*
X126028572Y-69827129D02*
X126028572Y-69655700D01*
X126028572Y-69655700D02*
X126085715Y-69427129D01*
X126085715Y-69427129D02*
X126142858Y-69312843D01*
X126142858Y-69312843D02*
X126257143Y-69198557D01*
X126257143Y-69198557D02*
X126428572Y-69141414D01*
X126428572Y-69141414D02*
X126542858Y-69141414D01*
X126542858Y-69141414D02*
X126714286Y-69198557D01*
X126714286Y-69198557D02*
X126771429Y-69255700D01*
X127285715Y-70341414D02*
X127285715Y-69141414D01*
X127285715Y-69141414D02*
X127742858Y-69141414D01*
X127742858Y-69141414D02*
X127857143Y-69198557D01*
X127857143Y-69198557D02*
X127914286Y-69255700D01*
X127914286Y-69255700D02*
X127971429Y-69369986D01*
X127971429Y-69369986D02*
X127971429Y-69541414D01*
X127971429Y-69541414D02*
X127914286Y-69655700D01*
X127914286Y-69655700D02*
X127857143Y-69712843D01*
X127857143Y-69712843D02*
X127742858Y-69769986D01*
X127742858Y-69769986D02*
X127285715Y-69769986D01*
X129000001Y-69541414D02*
X129000001Y-70341414D01*
X128714286Y-69084272D02*
X128428572Y-69941414D01*
X128428572Y-69941414D02*
X129171429Y-69941414D01*
X129514286Y-69141414D02*
X130314286Y-69141414D01*
X130314286Y-69141414D02*
X129800000Y-70341414D01*
X130714286Y-69255700D02*
X130771429Y-69198557D01*
X130771429Y-69198557D02*
X130885715Y-69141414D01*
X130885715Y-69141414D02*
X131171429Y-69141414D01*
X131171429Y-69141414D02*
X131285715Y-69198557D01*
X131285715Y-69198557D02*
X131342857Y-69255700D01*
X131342857Y-69255700D02*
X131400000Y-69369986D01*
X131400000Y-69369986D02*
X131400000Y-69484272D01*
X131400000Y-69484272D02*
X131342857Y-69655700D01*
X131342857Y-69655700D02*
X130657143Y-70341414D01*
X130657143Y-70341414D02*
X131400000Y-70341414D01*
X132485714Y-69141414D02*
X131914286Y-69141414D01*
X131914286Y-69141414D02*
X131857143Y-69712843D01*
X131857143Y-69712843D02*
X131914286Y-69655700D01*
X131914286Y-69655700D02*
X132028572Y-69598557D01*
X132028572Y-69598557D02*
X132314286Y-69598557D01*
X132314286Y-69598557D02*
X132428572Y-69655700D01*
X132428572Y-69655700D02*
X132485714Y-69712843D01*
X132485714Y-69712843D02*
X132542857Y-69827129D01*
X132542857Y-69827129D02*
X132542857Y-70112843D01*
X132542857Y-70112843D02*
X132485714Y-70227129D01*
X132485714Y-70227129D02*
X132428572Y-70284272D01*
X132428572Y-70284272D02*
X132314286Y-70341414D01*
X132314286Y-70341414D02*
X132028572Y-70341414D01*
X132028572Y-70341414D02*
X131914286Y-70284272D01*
X131914286Y-70284272D02*
X131857143Y-70227129D01*
D17*
X74335964Y-57631650D02*
X74335964Y-56231650D01*
X74335964Y-56231650D02*
X74802631Y-57231650D01*
X74802631Y-57231650D02*
X75269297Y-56231650D01*
X75269297Y-56231650D02*
X75269297Y-57631650D01*
X75935964Y-57631650D02*
X75935964Y-56231650D01*
X76602631Y-56898317D02*
X77069298Y-56898317D01*
X77269298Y-57631650D02*
X76602631Y-57631650D01*
X76602631Y-57631650D02*
X76602631Y-56231650D01*
X76602631Y-56231650D02*
X77269298Y-56231650D01*
X78602631Y-57631650D02*
X77802631Y-57631650D01*
X78202631Y-57631650D02*
X78202631Y-56231650D01*
X78202631Y-56231650D02*
X78069298Y-56431650D01*
X78069298Y-56431650D02*
X77935965Y-56564984D01*
X77935965Y-56564984D02*
X77802631Y-56631650D01*
X79469298Y-56231650D02*
X79602631Y-56231650D01*
X79602631Y-56231650D02*
X79735964Y-56298317D01*
X79735964Y-56298317D02*
X79802631Y-56364984D01*
X79802631Y-56364984D02*
X79869298Y-56498317D01*
X79869298Y-56498317D02*
X79935964Y-56764984D01*
X79935964Y-56764984D02*
X79935964Y-57098317D01*
X79935964Y-57098317D02*
X79869298Y-57364984D01*
X79869298Y-57364984D02*
X79802631Y-57498317D01*
X79802631Y-57498317D02*
X79735964Y-57564984D01*
X79735964Y-57564984D02*
X79602631Y-57631650D01*
X79602631Y-57631650D02*
X79469298Y-57631650D01*
X79469298Y-57631650D02*
X79335964Y-57564984D01*
X79335964Y-57564984D02*
X79269298Y-57498317D01*
X79269298Y-57498317D02*
X79202631Y-57364984D01*
X79202631Y-57364984D02*
X79135964Y-57098317D01*
X79135964Y-57098317D02*
X79135964Y-56764984D01*
X79135964Y-56764984D02*
X79202631Y-56498317D01*
X79202631Y-56498317D02*
X79269298Y-56364984D01*
X79269298Y-56364984D02*
X79335964Y-56298317D01*
X79335964Y-56298317D02*
X79469298Y-56231650D01*
X80802631Y-56231650D02*
X80935964Y-56231650D01*
X80935964Y-56231650D02*
X81069297Y-56298317D01*
X81069297Y-56298317D02*
X81135964Y-56364984D01*
X81135964Y-56364984D02*
X81202631Y-56498317D01*
X81202631Y-56498317D02*
X81269297Y-56764984D01*
X81269297Y-56764984D02*
X81269297Y-57098317D01*
X81269297Y-57098317D02*
X81202631Y-57364984D01*
X81202631Y-57364984D02*
X81135964Y-57498317D01*
X81135964Y-57498317D02*
X81069297Y-57564984D01*
X81069297Y-57564984D02*
X80935964Y-57631650D01*
X80935964Y-57631650D02*
X80802631Y-57631650D01*
X80802631Y-57631650D02*
X80669297Y-57564984D01*
X80669297Y-57564984D02*
X80602631Y-57498317D01*
X80602631Y-57498317D02*
X80535964Y-57364984D01*
X80535964Y-57364984D02*
X80469297Y-57098317D01*
X80469297Y-57098317D02*
X80469297Y-56764984D01*
X80469297Y-56764984D02*
X80535964Y-56498317D01*
X80535964Y-56498317D02*
X80602631Y-56364984D01*
X80602631Y-56364984D02*
X80669297Y-56298317D01*
X80669297Y-56298317D02*
X80802631Y-56231650D01*
X82602630Y-57631650D02*
X81802630Y-57631650D01*
X82202630Y-57631650D02*
X82202630Y-56231650D01*
X82202630Y-56231650D02*
X82069297Y-56431650D01*
X82069297Y-56431650D02*
X81935964Y-56564984D01*
X81935964Y-56564984D02*
X81802630Y-56631650D01*
X84202630Y-57564984D02*
X84402630Y-57631650D01*
X84402630Y-57631650D02*
X84735964Y-57631650D01*
X84735964Y-57631650D02*
X84869297Y-57564984D01*
X84869297Y-57564984D02*
X84935964Y-57498317D01*
X84935964Y-57498317D02*
X85002630Y-57364984D01*
X85002630Y-57364984D02*
X85002630Y-57231650D01*
X85002630Y-57231650D02*
X84935964Y-57098317D01*
X84935964Y-57098317D02*
X84869297Y-57031650D01*
X84869297Y-57031650D02*
X84735964Y-56964984D01*
X84735964Y-56964984D02*
X84469297Y-56898317D01*
X84469297Y-56898317D02*
X84335964Y-56831650D01*
X84335964Y-56831650D02*
X84269297Y-56764984D01*
X84269297Y-56764984D02*
X84202630Y-56631650D01*
X84202630Y-56631650D02*
X84202630Y-56498317D01*
X84202630Y-56498317D02*
X84269297Y-56364984D01*
X84269297Y-56364984D02*
X84335964Y-56298317D01*
X84335964Y-56298317D02*
X84469297Y-56231650D01*
X84469297Y-56231650D02*
X84802630Y-56231650D01*
X84802630Y-56231650D02*
X85002630Y-56298317D01*
X85602630Y-56231650D02*
X85602630Y-57364984D01*
X85602630Y-57364984D02*
X85669297Y-57498317D01*
X85669297Y-57498317D02*
X85735963Y-57564984D01*
X85735963Y-57564984D02*
X85869297Y-57631650D01*
X85869297Y-57631650D02*
X86135963Y-57631650D01*
X86135963Y-57631650D02*
X86269297Y-57564984D01*
X86269297Y-57564984D02*
X86335963Y-57498317D01*
X86335963Y-57498317D02*
X86402630Y-57364984D01*
X86402630Y-57364984D02*
X86402630Y-56231650D01*
X87535964Y-56898317D02*
X87069297Y-56898317D01*
X87069297Y-57631650D02*
X87069297Y-56231650D01*
X87069297Y-56231650D02*
X87735964Y-56231650D01*
X88735964Y-56898317D02*
X88269297Y-56898317D01*
X88269297Y-57631650D02*
X88269297Y-56231650D01*
X88269297Y-56231650D02*
X88935964Y-56231650D01*
X89469297Y-56898317D02*
X89935964Y-56898317D01*
X90135964Y-57631650D02*
X89469297Y-57631650D01*
X89469297Y-57631650D02*
X89469297Y-56231650D01*
X89469297Y-56231650D02*
X90135964Y-56231650D01*
X91535964Y-57631650D02*
X91069297Y-56964984D01*
X90735964Y-57631650D02*
X90735964Y-56231650D01*
X90735964Y-56231650D02*
X91269297Y-56231650D01*
X91269297Y-56231650D02*
X91402631Y-56298317D01*
X91402631Y-56298317D02*
X91469297Y-56364984D01*
X91469297Y-56364984D02*
X91535964Y-56498317D01*
X91535964Y-56498317D02*
X91535964Y-56698317D01*
X91535964Y-56698317D02*
X91469297Y-56831650D01*
X91469297Y-56831650D02*
X91402631Y-56898317D01*
X91402631Y-56898317D02*
X91269297Y-56964984D01*
X91269297Y-56964984D02*
X90735964Y-56964984D01*
X92135964Y-57631650D02*
X92135964Y-56231650D01*
X92802631Y-57631650D02*
X92802631Y-56231650D01*
X92802631Y-56231650D02*
X93602631Y-57631650D01*
X93602631Y-57631650D02*
X93602631Y-56231650D01*
X95002631Y-56298317D02*
X94869298Y-56231650D01*
X94869298Y-56231650D02*
X94669298Y-56231650D01*
X94669298Y-56231650D02*
X94469298Y-56298317D01*
X94469298Y-56298317D02*
X94335965Y-56431650D01*
X94335965Y-56431650D02*
X94269298Y-56564984D01*
X94269298Y-56564984D02*
X94202631Y-56831650D01*
X94202631Y-56831650D02*
X94202631Y-57031650D01*
X94202631Y-57031650D02*
X94269298Y-57298317D01*
X94269298Y-57298317D02*
X94335965Y-57431650D01*
X94335965Y-57431650D02*
X94469298Y-57564984D01*
X94469298Y-57564984D02*
X94669298Y-57631650D01*
X94669298Y-57631650D02*
X94802631Y-57631650D01*
X94802631Y-57631650D02*
X95002631Y-57564984D01*
X95002631Y-57564984D02*
X95069298Y-57498317D01*
X95069298Y-57498317D02*
X95069298Y-57031650D01*
X95069298Y-57031650D02*
X94802631Y-57031650D01*
D18*
X105200000Y-68745782D02*
X104800000Y-68174354D01*
X104514286Y-68745782D02*
X104514286Y-67545782D01*
X104514286Y-67545782D02*
X104971429Y-67545782D01*
X104971429Y-67545782D02*
X105085714Y-67602925D01*
X105085714Y-67602925D02*
X105142857Y-67660068D01*
X105142857Y-67660068D02*
X105200000Y-67774354D01*
X105200000Y-67774354D02*
X105200000Y-67945782D01*
X105200000Y-67945782D02*
X105142857Y-68060068D01*
X105142857Y-68060068D02*
X105085714Y-68117211D01*
X105085714Y-68117211D02*
X104971429Y-68174354D01*
X104971429Y-68174354D02*
X104514286Y-68174354D01*
X105600000Y-67545782D02*
X106342857Y-67545782D01*
X106342857Y-67545782D02*
X105942857Y-68002925D01*
X105942857Y-68002925D02*
X106114286Y-68002925D01*
X106114286Y-68002925D02*
X106228572Y-68060068D01*
X106228572Y-68060068D02*
X106285714Y-68117211D01*
X106285714Y-68117211D02*
X106342857Y-68231497D01*
X106342857Y-68231497D02*
X106342857Y-68517211D01*
X106342857Y-68517211D02*
X106285714Y-68631497D01*
X106285714Y-68631497D02*
X106228572Y-68688640D01*
X106228572Y-68688640D02*
X106114286Y-68745782D01*
X106114286Y-68745782D02*
X105771429Y-68745782D01*
X105771429Y-68745782D02*
X105657143Y-68688640D01*
X105657143Y-68688640D02*
X105600000Y-68631497D01*
X123133333Y-57153259D02*
X122800000Y-56677068D01*
X122561905Y-57153259D02*
X122561905Y-56153259D01*
X122561905Y-56153259D02*
X122942857Y-56153259D01*
X122942857Y-56153259D02*
X123038095Y-56200878D01*
X123038095Y-56200878D02*
X123085714Y-56248497D01*
X123085714Y-56248497D02*
X123133333Y-56343735D01*
X123133333Y-56343735D02*
X123133333Y-56486592D01*
X123133333Y-56486592D02*
X123085714Y-56581830D01*
X123085714Y-56581830D02*
X123038095Y-56629449D01*
X123038095Y-56629449D02*
X122942857Y-56677068D01*
X122942857Y-56677068D02*
X122561905Y-56677068D01*
X123990476Y-56486592D02*
X123990476Y-57153259D01*
X123752381Y-56105640D02*
X123514286Y-56819925D01*
X123514286Y-56819925D02*
X124133333Y-56819925D01*
X93533333Y-99058020D02*
X93485714Y-99105640D01*
X93485714Y-99105640D02*
X93342857Y-99153259D01*
X93342857Y-99153259D02*
X93247619Y-99153259D01*
X93247619Y-99153259D02*
X93104762Y-99105640D01*
X93104762Y-99105640D02*
X93009524Y-99010401D01*
X93009524Y-99010401D02*
X92961905Y-98915163D01*
X92961905Y-98915163D02*
X92914286Y-98724687D01*
X92914286Y-98724687D02*
X92914286Y-98581830D01*
X92914286Y-98581830D02*
X92961905Y-98391354D01*
X92961905Y-98391354D02*
X93009524Y-98296116D01*
X93009524Y-98296116D02*
X93104762Y-98200878D01*
X93104762Y-98200878D02*
X93247619Y-98153259D01*
X93247619Y-98153259D02*
X93342857Y-98153259D01*
X93342857Y-98153259D02*
X93485714Y-98200878D01*
X93485714Y-98200878D02*
X93533333Y-98248497D01*
X94533333Y-99153259D02*
X94200000Y-98677068D01*
X93961905Y-99153259D02*
X93961905Y-98153259D01*
X93961905Y-98153259D02*
X94342857Y-98153259D01*
X94342857Y-98153259D02*
X94438095Y-98200878D01*
X94438095Y-98200878D02*
X94485714Y-98248497D01*
X94485714Y-98248497D02*
X94533333Y-98343735D01*
X94533333Y-98343735D02*
X94533333Y-98486592D01*
X94533333Y-98486592D02*
X94485714Y-98581830D01*
X94485714Y-98581830D02*
X94438095Y-98629449D01*
X94438095Y-98629449D02*
X94342857Y-98677068D01*
X94342857Y-98677068D02*
X93961905Y-98677068D01*
X95485714Y-99153259D02*
X94914286Y-99153259D01*
X95200000Y-99153259D02*
X95200000Y-98153259D01*
X95200000Y-98153259D02*
X95104762Y-98296116D01*
X95104762Y-98296116D02*
X95009524Y-98391354D01*
X95009524Y-98391354D02*
X94914286Y-98438973D01*
D19*
X97738095Y-98654819D02*
X97738095Y-97654819D01*
X98309523Y-98654819D02*
X97880952Y-98083390D01*
X98309523Y-97654819D02*
X97738095Y-98226247D01*
D18*
X136000000Y-89745782D02*
X136000000Y-90602925D01*
X136000000Y-90602925D02*
X135942857Y-90774354D01*
X135942857Y-90774354D02*
X135828571Y-90888640D01*
X135828571Y-90888640D02*
X135657143Y-90945782D01*
X135657143Y-90945782D02*
X135542857Y-90945782D01*
X136514286Y-89860068D02*
X136571429Y-89802925D01*
X136571429Y-89802925D02*
X136685715Y-89745782D01*
X136685715Y-89745782D02*
X136971429Y-89745782D01*
X136971429Y-89745782D02*
X137085715Y-89802925D01*
X137085715Y-89802925D02*
X137142857Y-89860068D01*
X137142857Y-89860068D02*
X137200000Y-89974354D01*
X137200000Y-89974354D02*
X137200000Y-90088640D01*
X137200000Y-90088640D02*
X137142857Y-90260068D01*
X137142857Y-90260068D02*
X136457143Y-90945782D01*
X136457143Y-90945782D02*
X137200000Y-90945782D01*
X100989849Y-70945782D02*
X100589849Y-70374354D01*
X100304135Y-70945782D02*
X100304135Y-69745782D01*
X100304135Y-69745782D02*
X100761278Y-69745782D01*
X100761278Y-69745782D02*
X100875563Y-69802925D01*
X100875563Y-69802925D02*
X100932706Y-69860068D01*
X100932706Y-69860068D02*
X100989849Y-69974354D01*
X100989849Y-69974354D02*
X100989849Y-70145782D01*
X100989849Y-70145782D02*
X100932706Y-70260068D01*
X100932706Y-70260068D02*
X100875563Y-70317211D01*
X100875563Y-70317211D02*
X100761278Y-70374354D01*
X100761278Y-70374354D02*
X100304135Y-70374354D01*
X102132706Y-70945782D02*
X101446992Y-70945782D01*
X101789849Y-70945782D02*
X101789849Y-69745782D01*
X101789849Y-69745782D02*
X101675563Y-69917211D01*
X101675563Y-69917211D02*
X101561278Y-70031497D01*
X101561278Y-70031497D02*
X101446992Y-70088640D01*
X100989849Y-67145781D02*
X100589849Y-66574353D01*
X100304135Y-67145781D02*
X100304135Y-65945781D01*
X100304135Y-65945781D02*
X100761278Y-65945781D01*
X100761278Y-65945781D02*
X100875563Y-66002924D01*
X100875563Y-66002924D02*
X100932706Y-66060067D01*
X100932706Y-66060067D02*
X100989849Y-66174353D01*
X100989849Y-66174353D02*
X100989849Y-66345781D01*
X100989849Y-66345781D02*
X100932706Y-66460067D01*
X100932706Y-66460067D02*
X100875563Y-66517210D01*
X100875563Y-66517210D02*
X100761278Y-66574353D01*
X100761278Y-66574353D02*
X100304135Y-66574353D01*
X101446992Y-66060067D02*
X101504135Y-66002924D01*
X101504135Y-66002924D02*
X101618421Y-65945781D01*
X101618421Y-65945781D02*
X101904135Y-65945781D01*
X101904135Y-65945781D02*
X102018421Y-66002924D01*
X102018421Y-66002924D02*
X102075563Y-66060067D01*
X102075563Y-66060067D02*
X102132706Y-66174353D01*
X102132706Y-66174353D02*
X102132706Y-66288639D01*
X102132706Y-66288639D02*
X102075563Y-66460067D01*
X102075563Y-66460067D02*
X101389849Y-67145781D01*
X101389849Y-67145781D02*
X102132706Y-67145781D01*
X119400000Y-89845782D02*
X119400000Y-90702925D01*
X119400000Y-90702925D02*
X119342857Y-90874354D01*
X119342857Y-90874354D02*
X119228571Y-90988640D01*
X119228571Y-90988640D02*
X119057143Y-91045782D01*
X119057143Y-91045782D02*
X118942857Y-91045782D01*
X120485715Y-90245782D02*
X120485715Y-91045782D01*
X120200000Y-89788640D02*
X119914286Y-90645782D01*
X119914286Y-90645782D02*
X120657143Y-90645782D01*
X80000000Y-81145782D02*
X80000000Y-82002925D01*
X80000000Y-82002925D02*
X79942857Y-82174354D01*
X79942857Y-82174354D02*
X79828571Y-82288640D01*
X79828571Y-82288640D02*
X79657143Y-82345782D01*
X79657143Y-82345782D02*
X79542857Y-82345782D01*
X81200000Y-82345782D02*
X80514286Y-82345782D01*
X80857143Y-82345782D02*
X80857143Y-81145782D01*
X80857143Y-81145782D02*
X80742857Y-81317211D01*
X80742857Y-81317211D02*
X80628572Y-81431497D01*
X80628572Y-81431497D02*
X80514286Y-81488640D01*
X80000000Y-72345782D02*
X80000000Y-73202925D01*
X80000000Y-73202925D02*
X79942857Y-73374354D01*
X79942857Y-73374354D02*
X79828571Y-73488640D01*
X79828571Y-73488640D02*
X79657143Y-73545782D01*
X79657143Y-73545782D02*
X79542857Y-73545782D01*
X80457143Y-72345782D02*
X81200000Y-72345782D01*
X81200000Y-72345782D02*
X80800000Y-72802925D01*
X80800000Y-72802925D02*
X80971429Y-72802925D01*
X80971429Y-72802925D02*
X81085715Y-72860068D01*
X81085715Y-72860068D02*
X81142857Y-72917211D01*
X81142857Y-72917211D02*
X81200000Y-73031497D01*
X81200000Y-73031497D02*
X81200000Y-73317211D01*
X81200000Y-73317211D02*
X81142857Y-73431497D01*
X81142857Y-73431497D02*
X81085715Y-73488640D01*
X81085715Y-73488640D02*
X80971429Y-73545782D01*
X80971429Y-73545782D02*
X80628572Y-73545782D01*
X80628572Y-73545782D02*
X80514286Y-73488640D01*
X80514286Y-73488640D02*
X80457143Y-73431497D01*
X103583333Y-99058020D02*
X103535714Y-99105640D01*
X103535714Y-99105640D02*
X103392857Y-99153259D01*
X103392857Y-99153259D02*
X103297619Y-99153259D01*
X103297619Y-99153259D02*
X103154762Y-99105640D01*
X103154762Y-99105640D02*
X103059524Y-99010401D01*
X103059524Y-99010401D02*
X103011905Y-98915163D01*
X103011905Y-98915163D02*
X102964286Y-98724687D01*
X102964286Y-98724687D02*
X102964286Y-98581830D01*
X102964286Y-98581830D02*
X103011905Y-98391354D01*
X103011905Y-98391354D02*
X103059524Y-98296116D01*
X103059524Y-98296116D02*
X103154762Y-98200878D01*
X103154762Y-98200878D02*
X103297619Y-98153259D01*
X103297619Y-98153259D02*
X103392857Y-98153259D01*
X103392857Y-98153259D02*
X103535714Y-98200878D01*
X103535714Y-98200878D02*
X103583333Y-98248497D01*
X104535714Y-99153259D02*
X103964286Y-99153259D01*
X104250000Y-99153259D02*
X104250000Y-98153259D01*
X104250000Y-98153259D02*
X104154762Y-98296116D01*
X104154762Y-98296116D02*
X104059524Y-98391354D01*
X104059524Y-98391354D02*
X103964286Y-98438973D01*
X110085714Y-80345782D02*
X110085714Y-81317211D01*
X110085714Y-81317211D02*
X110142857Y-81431497D01*
X110142857Y-81431497D02*
X110200000Y-81488640D01*
X110200000Y-81488640D02*
X110314285Y-81545782D01*
X110314285Y-81545782D02*
X110542857Y-81545782D01*
X110542857Y-81545782D02*
X110657142Y-81488640D01*
X110657142Y-81488640D02*
X110714285Y-81431497D01*
X110714285Y-81431497D02*
X110771428Y-81317211D01*
X110771428Y-81317211D02*
X110771428Y-80345782D01*
X111971428Y-81545782D02*
X111285714Y-81545782D01*
X111628571Y-81545782D02*
X111628571Y-80345782D01*
X111628571Y-80345782D02*
X111514285Y-80517211D01*
X111514285Y-80517211D02*
X111400000Y-80631497D01*
X111400000Y-80631497D02*
X111285714Y-80688640D01*
X135600000Y-59845782D02*
X135600000Y-60702925D01*
X135600000Y-60702925D02*
X135542857Y-60874354D01*
X135542857Y-60874354D02*
X135428571Y-60988640D01*
X135428571Y-60988640D02*
X135257143Y-61045782D01*
X135257143Y-61045782D02*
X135142857Y-61045782D01*
X136742857Y-59845782D02*
X136171429Y-59845782D01*
X136171429Y-59845782D02*
X136114286Y-60417211D01*
X136114286Y-60417211D02*
X136171429Y-60360068D01*
X136171429Y-60360068D02*
X136285715Y-60302925D01*
X136285715Y-60302925D02*
X136571429Y-60302925D01*
X136571429Y-60302925D02*
X136685715Y-60360068D01*
X136685715Y-60360068D02*
X136742857Y-60417211D01*
X136742857Y-60417211D02*
X136800000Y-60531497D01*
X136800000Y-60531497D02*
X136800000Y-60817211D01*
X136800000Y-60817211D02*
X136742857Y-60931497D01*
X136742857Y-60931497D02*
X136685715Y-60988640D01*
X136685715Y-60988640D02*
X136571429Y-61045782D01*
X136571429Y-61045782D02*
X136285715Y-61045782D01*
X136285715Y-61045782D02*
X136171429Y-60988640D01*
X136171429Y-60988640D02*
X136114286Y-60931497D01*
X117927944Y-96758020D02*
X117880325Y-96805640D01*
X117880325Y-96805640D02*
X117737468Y-96853259D01*
X117737468Y-96853259D02*
X117642230Y-96853259D01*
X117642230Y-96853259D02*
X117499373Y-96805640D01*
X117499373Y-96805640D02*
X117404135Y-96710401D01*
X117404135Y-96710401D02*
X117356516Y-96615163D01*
X117356516Y-96615163D02*
X117308897Y-96424687D01*
X117308897Y-96424687D02*
X117308897Y-96281830D01*
X117308897Y-96281830D02*
X117356516Y-96091354D01*
X117356516Y-96091354D02*
X117404135Y-95996116D01*
X117404135Y-95996116D02*
X117499373Y-95900878D01*
X117499373Y-95900878D02*
X117642230Y-95853259D01*
X117642230Y-95853259D02*
X117737468Y-95853259D01*
X117737468Y-95853259D02*
X117880325Y-95900878D01*
X117880325Y-95900878D02*
X117927944Y-95948497D01*
X118927944Y-96853259D02*
X118594611Y-96377068D01*
X118356516Y-96853259D02*
X118356516Y-95853259D01*
X118356516Y-95853259D02*
X118737468Y-95853259D01*
X118737468Y-95853259D02*
X118832706Y-95900878D01*
X118832706Y-95900878D02*
X118880325Y-95948497D01*
X118880325Y-95948497D02*
X118927944Y-96043735D01*
X118927944Y-96043735D02*
X118927944Y-96186592D01*
X118927944Y-96186592D02*
X118880325Y-96281830D01*
X118880325Y-96281830D02*
X118832706Y-96329449D01*
X118832706Y-96329449D02*
X118737468Y-96377068D01*
X118737468Y-96377068D02*
X118356516Y-96377068D01*
X119308897Y-95948497D02*
X119356516Y-95900878D01*
X119356516Y-95900878D02*
X119451754Y-95853259D01*
X119451754Y-95853259D02*
X119689849Y-95853259D01*
X119689849Y-95853259D02*
X119785087Y-95900878D01*
X119785087Y-95900878D02*
X119832706Y-95948497D01*
X119832706Y-95948497D02*
X119880325Y-96043735D01*
X119880325Y-96043735D02*
X119880325Y-96138973D01*
X119880325Y-96138973D02*
X119832706Y-96281830D01*
X119832706Y-96281830D02*
X119261278Y-96853259D01*
X119261278Y-96853259D02*
X119880325Y-96853259D01*
D19*
X107738095Y-95054819D02*
X107738095Y-94054819D01*
X108309523Y-95054819D02*
X107880952Y-94483390D01*
X108309523Y-94054819D02*
X107738095Y-94626247D01*
D18*
X127685714Y-75345782D02*
X127685714Y-76317211D01*
X127685714Y-76317211D02*
X127742857Y-76431497D01*
X127742857Y-76431497D02*
X127800000Y-76488640D01*
X127800000Y-76488640D02*
X127914285Y-76545782D01*
X127914285Y-76545782D02*
X128142857Y-76545782D01*
X128142857Y-76545782D02*
X128257142Y-76488640D01*
X128257142Y-76488640D02*
X128314285Y-76431497D01*
X128314285Y-76431497D02*
X128371428Y-76317211D01*
X128371428Y-76317211D02*
X128371428Y-75345782D01*
X128885714Y-75460068D02*
X128942857Y-75402925D01*
X128942857Y-75402925D02*
X129057143Y-75345782D01*
X129057143Y-75345782D02*
X129342857Y-75345782D01*
X129342857Y-75345782D02*
X129457143Y-75402925D01*
X129457143Y-75402925D02*
X129514285Y-75460068D01*
X129514285Y-75460068D02*
X129571428Y-75574354D01*
X129571428Y-75574354D02*
X129571428Y-75688640D01*
X129571428Y-75688640D02*
X129514285Y-75860068D01*
X129514285Y-75860068D02*
X128828571Y-76545782D01*
X128828571Y-76545782D02*
X129571428Y-76545782D01*
%TO.C,CR3*%
D20*
X121440000Y-62040000D02*
X122440000Y-62040000D01*
X121440000Y-63560000D02*
X121440000Y-62040000D01*
X121490000Y-63560000D02*
X121440000Y-63560000D01*
X123390000Y-63560000D02*
X122610000Y-63560000D01*
X123560000Y-62040000D02*
X124560000Y-62040000D01*
X124560000Y-62040000D02*
X124560000Y-63560000D01*
X124560000Y-63560000D02*
X124510000Y-63560000D01*
X122620000Y-64100000D02*
X122950000Y-63860000D01*
X122950000Y-64340000D01*
X122620000Y-64100000D01*
G36*
X122950000Y-64340000D02*
G01*
X122620000Y-64100000D01*
X122950000Y-63860000D01*
X122950000Y-64340000D01*
G37*
%TO.C,R6*%
X115127064Y-55490000D02*
X113672936Y-55490000D01*
X115127064Y-57310000D02*
X113672936Y-57310000D01*
%TO.C,R3*%
X108370000Y-70400000D02*
X108440000Y-70400000D01*
X108370000Y-70400000D02*
G75*
G02*
X105630000Y-70400000I-1370000J0D01*
G01*
X105630000Y-70400000D02*
G75*
G02*
X108370000Y-70400000I1370000J0D01*
G01*
%TO.C,R4*%
X123230000Y-59000000D02*
X123160000Y-59000000D01*
X125970000Y-59000000D02*
G75*
G02*
X123230000Y-59000000I-1370000J0D01*
G01*
X123230000Y-59000000D02*
G75*
G02*
X125970000Y-59000000I1370000J0D01*
G01*
%TO.C,C5*%
X104459420Y-53890000D02*
X104740580Y-53890000D01*
X104459420Y-54910000D02*
X104740580Y-54910000D01*
%TO.C,C3*%
X119490000Y-62259420D02*
X119490000Y-62540580D01*
X120510000Y-62259420D02*
X120510000Y-62540580D01*
%TO.C,CR1*%
X91420000Y-96400000D02*
X92070000Y-96400000D01*
X95470000Y-97520000D02*
X95470000Y-95280000D01*
X95590000Y-97520000D02*
X95590000Y-95280000D01*
X95710000Y-97520000D02*
X95710000Y-95280000D01*
X96960000Y-96400000D02*
X96310000Y-96400000D01*
X92070000Y-95280000D02*
X96310000Y-95280000D01*
X96310000Y-97520000D01*
X92070000Y-97520000D01*
X92070000Y-95280000D01*
%TO.C,J2*%
X133780000Y-89870000D02*
X133780000Y-82630000D01*
X140000000Y-89870000D02*
X140000000Y-82630000D01*
%TO.C,R1*%
X89040000Y-70400000D02*
X89810000Y-70400000D01*
X97120000Y-70400000D02*
X96350000Y-70400000D01*
X89810000Y-69030000D02*
X96350000Y-69030000D01*
X96350000Y-71770000D01*
X89810000Y-71770000D01*
X89810000Y-69030000D01*
%TO.C,R2*%
X89040000Y-66599999D02*
X89810000Y-66599999D01*
X97120000Y-66599999D02*
X96350000Y-66599999D01*
X89810000Y-65229999D02*
X96350000Y-65229999D01*
X96350000Y-67969999D01*
X89810000Y-67969999D01*
X89810000Y-65229999D01*
%TO.C,C2*%
X114540580Y-57790000D02*
X114259420Y-57790000D01*
X114540580Y-58810000D02*
X114259420Y-58810000D01*
%TO.C,R10*%
X100962742Y-53877500D02*
X101437258Y-53877500D01*
X100962742Y-54922500D02*
X101437258Y-54922500D01*
%TO.C,R11*%
X109437258Y-63177500D02*
X108962742Y-63177500D01*
X109437258Y-64222500D02*
X108962742Y-64222500D01*
%TO.C,U3*%
X112340000Y-59240000D02*
X116460000Y-59240000D01*
X112340000Y-59335000D02*
X112340000Y-59240000D01*
X112340000Y-64360000D02*
X112340000Y-64265000D01*
X116460000Y-59240000D02*
X116460000Y-59335000D01*
X116460000Y-64265000D02*
X116460000Y-64360000D01*
X116460000Y-64360000D02*
X112340000Y-64360000D01*
X111800000Y-59330000D02*
X111560000Y-59000000D01*
X112040000Y-59000000D01*
X111800000Y-59330000D01*
G36*
X111800000Y-59330000D02*
G01*
X111560000Y-59000000D01*
X112040000Y-59000000D01*
X111800000Y-59330000D01*
G37*
%TO.C,R7*%
X108962742Y-59077500D02*
X109437258Y-59077500D01*
X108962742Y-60122500D02*
X109437258Y-60122500D01*
%TO.C,C7*%
X107290000Y-56659420D02*
X107290000Y-56940580D01*
X108310000Y-56659420D02*
X108310000Y-56940580D01*
%TO.C,J4*%
X114670000Y-86670000D02*
X116000000Y-86670000D01*
X114670000Y-88000000D02*
X114670000Y-86670000D01*
X117270000Y-86670000D02*
X124950000Y-86670000D01*
X117270000Y-89330000D02*
X117270000Y-86670000D01*
X117270000Y-89330000D02*
X124950000Y-89330000D01*
X124950000Y-89330000D02*
X124950000Y-86670000D01*
%TO.C,J1*%
X72700000Y-81730000D02*
X72700000Y-88970000D01*
X78920000Y-81730000D02*
X78920000Y-88970000D01*
%TO.C,R8*%
X100162742Y-61577500D02*
X100637258Y-61577500D01*
X100162742Y-62622500D02*
X100637258Y-62622500D01*
%TO.C,J3*%
X72700000Y-72930000D02*
X72700000Y-80170000D01*
X78920000Y-72930000D02*
X78920000Y-80170000D01*
%TO.C,C1*%
X101130000Y-95030000D02*
X106370000Y-95030000D01*
X101130000Y-97770000D02*
X101130000Y-95030000D01*
X106370000Y-95030000D02*
X106370000Y-97770000D01*
X106370000Y-97770000D02*
X101130000Y-97770000D01*
%TO.C,U1*%
X86670000Y-86670000D02*
X88000000Y-86670000D01*
X86670000Y-88000000D02*
X86670000Y-86670000D01*
X89270000Y-86670000D02*
X112190000Y-86670000D01*
X89270000Y-89330000D02*
X89270000Y-86670000D01*
X89270000Y-89330000D02*
X112190000Y-89330000D01*
X112190000Y-89330000D02*
X112190000Y-86670000D01*
%TO.C,R5*%
X118837258Y-57577500D02*
X118362742Y-57577500D01*
X118837258Y-58622500D02*
X118362742Y-58622500D01*
%TO.C,R9*%
X100637258Y-63377500D02*
X100162742Y-63377500D01*
X100637258Y-64422500D02*
X100162742Y-64422500D01*
%TO.C,J5*%
X126720000Y-57200000D02*
X126720000Y-60800000D01*
X128600000Y-55320000D02*
X132200000Y-55320000D01*
X128600000Y-62680000D02*
X132200000Y-62680000D01*
X134080000Y-57200000D02*
X134080000Y-60800000D01*
%TO.C,CR2*%
X109040000Y-96400000D02*
X109690000Y-96400000D01*
X110290000Y-95280000D02*
X110290000Y-97520000D01*
X110410000Y-95280000D02*
X110410000Y-97520000D01*
X110530000Y-95280000D02*
X110530000Y-97520000D01*
X114580000Y-96400000D02*
X113930000Y-96400000D01*
X109690000Y-95280000D02*
X113930000Y-95280000D01*
X113930000Y-97520000D01*
X109690000Y-97520000D01*
X109690000Y-95280000D01*
%TO.C,C4*%
X103065000Y-62738748D02*
X103065000Y-63261252D01*
X104535000Y-62738748D02*
X104535000Y-63261252D01*
%TO.C,U2*%
X118170000Y-68270000D02*
X118170000Y-81030000D01*
X118170000Y-68270000D02*
X120830000Y-68270000D01*
X118170000Y-81030000D02*
X120830000Y-81030000D01*
X119500000Y-65670000D02*
X120830000Y-65670000D01*
X120830000Y-65670000D02*
X120830000Y-67000000D01*
X120830000Y-68270000D02*
X120830000Y-81030000D01*
%TO.C,U4*%
X100940000Y-55640000D02*
X105060000Y-55640000D01*
X100940000Y-55735000D02*
X100940000Y-55640000D01*
X100940000Y-60760000D02*
X100940000Y-60665000D01*
X105060000Y-55640000D02*
X105060000Y-55735000D01*
X105060000Y-60665000D02*
X105060000Y-60760000D01*
X105060000Y-60760000D02*
X100940000Y-60760000D01*
X100400000Y-55730000D02*
X100160000Y-55400000D01*
X100640000Y-55400000D01*
X100400000Y-55730000D01*
G36*
X100400000Y-55730000D02*
G01*
X100160000Y-55400000D01*
X100640000Y-55400000D01*
X100400000Y-55730000D01*
G37*
%TO.C,C6*%
X105890000Y-62959420D02*
X105890000Y-63240580D01*
X106910000Y-62959420D02*
X106910000Y-63240580D01*
%TD*%
M02*
