M48
; DRILL file KiCad 10.0.6 date 2026-09-25T16:57:48
; FORMAT={-:-/ absolute / metric / decimal}
; #@! TF.CreationDate,2026-09-25T16:57:48+02:00
; #@! TF.GenerationSoftware,Kicad,Pcbnew,10.0.6
; #@! TF.FileFunction,Plated,1,2,PTH
FMAT,2
METRIC
; #@! TA.AperFunction,Plated,PTH,ViaDrill
T1C0.400
; #@! TA.AperFunction,Plated,PTH,ComponentDrill
T2C0.800
; #@! TA.AperFunction,Plated,PTH,ComponentDrill
T3C1.000
; #@! TA.AperFunction,Plated,PTH,ComponentDrill
T4C1.200
; #@! TA.AperFunction,Plated,PTH,ComponentDrill
T5C1.500
; #@! TA.AperFunction,Plated,PTH,ComponentDrill
T6C1.700
%
G90
G05
T1
X84.5Y-65.0
X85.4Y-70.1
X87.6Y-65.0
X88.7Y-73.3
X90.2Y-74.8
X90.3Y-71.7
X91.8Y-73.2
X92.7Y-72.3
X92.7Y-80.7
X94.2Y-67.8
X94.9Y-78.5
X95.7Y-69.3
X98.0Y-84.6
X99.1Y-64.1
X99.5Y-60.2
X99.5Y-67.7
X99.5Y-83.1
X99.6Y-71.2
X99.6Y-73.4
X100.0Y-62.6
X100.1Y-61.3
X100.3Y-65.1
X101.1Y-90.9
X102.8Y-58.6
X102.8Y-71.9
X103.0Y-64.2
X103.3Y-89.7
X103.3Y-90.9
X104.4Y-72.0
X105.2Y-54.9
X105.9Y-64.1
X106.4Y-65.3
X106.6Y-72.0
X107.3Y-57.8
X108.6Y-65.3
X109.2Y-55.0
X109.4Y-61.1
X109.4Y-90.8
X110.9Y-62.5
X111.1Y-85.4
X112.938Y-58.1
X113.7Y-63.0
X113.7Y-64.5
X113.7Y-78.4
X115.9Y-65.6
X115.9Y-78.4
X116.2Y-62.6
X117.7Y-75.1
X118.3Y-90.8
X119.5Y-63.4
X120.2Y-55.2
X120.5Y-86.2
X121.7Y-85.7
X124.0Y-85.0
X124.0Y-86.3
X125.1Y-74.2
X125.9Y-62.6
X126.0Y-55.0
X126.2Y-83.9
X126.2Y-87.6
X126.6Y-72.7
X127.4Y-87.6
T2
X88.0Y-66.6
X88.0Y-70.4
X90.38Y-96.4
X98.0Y-96.4
X98.16Y-66.6
X98.16Y-70.4
X102.5Y-96.4
X105.0Y-96.4
X107.0Y-70.4
X108.0Y-96.4
X109.54Y-70.4
X115.62Y-96.4
X122.06Y-59.0
X124.6Y-59.0
T3
X88.0Y-88.0
X90.54Y-88.0
X90.86Y-51.74
X93.08Y-88.0
X93.4Y-51.74
X95.62Y-88.0
X95.94Y-51.74
X98.16Y-88.0
X98.48Y-51.74
X100.0Y-100.0
X100.7Y-88.0
X101.02Y-51.74
X102.54Y-100.0
X103.24Y-88.0
X103.56Y-51.74
X105.08Y-100.0
X105.78Y-88.0
X106.1Y-51.74
X107.62Y-100.0
X108.32Y-88.0
X108.64Y-51.74
X110.16Y-100.0
X110.86Y-88.0
X111.18Y-51.74
X112.7Y-100.0
X113.72Y-51.74
X115.24Y-100.0
X116.0Y-88.0
X117.78Y-51.74
X117.78Y-100.0
X118.54Y-88.0
X119.5Y-67.0
X119.5Y-69.54
X119.5Y-72.08
X119.5Y-74.62
X119.5Y-77.16
X119.5Y-79.7
X120.32Y-51.74
X121.08Y-88.0
X122.86Y-51.74
X122.86Y-100.0
X123.62Y-88.0
X125.4Y-51.74
X125.4Y-100.0
X127.94Y-51.74
X127.94Y-100.0
X130.48Y-51.74
X130.48Y-100.0
X133.02Y-51.74
X133.02Y-100.0
X135.56Y-51.74
X135.56Y-100.0
T4
X75.7Y-74.8
X75.7Y-78.3
X75.7Y-83.6
X75.7Y-87.1
X137.0Y-84.5
X137.0Y-88.0
T5
X130.4Y-59.0
T6
X127.86Y-56.46
X127.86Y-61.54
X132.94Y-56.46
X132.94Y-61.54
M30
