%TF.GenerationSoftware,KiCad,Pcbnew,10.0.6*%
%TF.CreationDate,2026-09-25T18:21:20+02:00*%
%TF.ProjectId,mie1001_daq_simple,6d696531-3030-4315-9f64-61715f73696d,E*%
%TF.SameCoordinates,Original*%
%TF.FileFunction,Legend,Bot*%
%TF.FilePolarity,Positive*%
%FSLAX46Y46*%
G04 Gerber Fmt 4.6, Leading zero omitted, Abs format (unit mm)*
G04 Created by KiCad (PCBNEW 10.0.6) date 2026-09-25 18:21:20*
%MOMM*%
%LPD*%
G01*
G04 APERTURE LIST*
%ADD10C,0.160000*%
G04 APERTURE END LIST*
D10*
X114357143Y-74454299D02*
X114357143Y-73454299D01*
X114357143Y-73454299D02*
X114023810Y-74168584D01*
X114023810Y-74168584D02*
X113690477Y-73454299D01*
X113690477Y-73454299D02*
X113690477Y-74454299D01*
X113214286Y-74454299D02*
X113214286Y-73454299D01*
X112738096Y-73930489D02*
X112404763Y-73930489D01*
X112261906Y-74454299D02*
X112738096Y-74454299D01*
X112738096Y-74454299D02*
X112738096Y-73454299D01*
X112738096Y-73454299D02*
X112261906Y-73454299D01*
X111309525Y-74454299D02*
X111880953Y-74454299D01*
X111595239Y-74454299D02*
X111595239Y-73454299D01*
X111595239Y-73454299D02*
X111690477Y-73597156D01*
X111690477Y-73597156D02*
X111785715Y-73692394D01*
X111785715Y-73692394D02*
X111880953Y-73740013D01*
X110690477Y-73454299D02*
X110595239Y-73454299D01*
X110595239Y-73454299D02*
X110500001Y-73501918D01*
X110500001Y-73501918D02*
X110452382Y-73549537D01*
X110452382Y-73549537D02*
X110404763Y-73644775D01*
X110404763Y-73644775D02*
X110357144Y-73835251D01*
X110357144Y-73835251D02*
X110357144Y-74073346D01*
X110357144Y-74073346D02*
X110404763Y-74263822D01*
X110404763Y-74263822D02*
X110452382Y-74359060D01*
X110452382Y-74359060D02*
X110500001Y-74406680D01*
X110500001Y-74406680D02*
X110595239Y-74454299D01*
X110595239Y-74454299D02*
X110690477Y-74454299D01*
X110690477Y-74454299D02*
X110785715Y-74406680D01*
X110785715Y-74406680D02*
X110833334Y-74359060D01*
X110833334Y-74359060D02*
X110880953Y-74263822D01*
X110880953Y-74263822D02*
X110928572Y-74073346D01*
X110928572Y-74073346D02*
X110928572Y-73835251D01*
X110928572Y-73835251D02*
X110880953Y-73644775D01*
X110880953Y-73644775D02*
X110833334Y-73549537D01*
X110833334Y-73549537D02*
X110785715Y-73501918D01*
X110785715Y-73501918D02*
X110690477Y-73454299D01*
X109738096Y-73454299D02*
X109642858Y-73454299D01*
X109642858Y-73454299D02*
X109547620Y-73501918D01*
X109547620Y-73501918D02*
X109500001Y-73549537D01*
X109500001Y-73549537D02*
X109452382Y-73644775D01*
X109452382Y-73644775D02*
X109404763Y-73835251D01*
X109404763Y-73835251D02*
X109404763Y-74073346D01*
X109404763Y-74073346D02*
X109452382Y-74263822D01*
X109452382Y-74263822D02*
X109500001Y-74359060D01*
X109500001Y-74359060D02*
X109547620Y-74406680D01*
X109547620Y-74406680D02*
X109642858Y-74454299D01*
X109642858Y-74454299D02*
X109738096Y-74454299D01*
X109738096Y-74454299D02*
X109833334Y-74406680D01*
X109833334Y-74406680D02*
X109880953Y-74359060D01*
X109880953Y-74359060D02*
X109928572Y-74263822D01*
X109928572Y-74263822D02*
X109976191Y-74073346D01*
X109976191Y-74073346D02*
X109976191Y-73835251D01*
X109976191Y-73835251D02*
X109928572Y-73644775D01*
X109928572Y-73644775D02*
X109880953Y-73549537D01*
X109880953Y-73549537D02*
X109833334Y-73501918D01*
X109833334Y-73501918D02*
X109738096Y-73454299D01*
X108452382Y-74454299D02*
X109023810Y-74454299D01*
X108738096Y-74454299D02*
X108738096Y-73454299D01*
X108738096Y-73454299D02*
X108833334Y-73597156D01*
X108833334Y-73597156D02*
X108928572Y-73692394D01*
X108928572Y-73692394D02*
X109023810Y-73740013D01*
X107404762Y-73454299D02*
X106833334Y-73454299D01*
X107119048Y-74454299D02*
X107119048Y-73454299D01*
X106119048Y-74406680D02*
X106214286Y-74454299D01*
X106214286Y-74454299D02*
X106404762Y-74454299D01*
X106404762Y-74454299D02*
X106500000Y-74406680D01*
X106500000Y-74406680D02*
X106547619Y-74311441D01*
X106547619Y-74311441D02*
X106547619Y-73930489D01*
X106547619Y-73930489D02*
X106500000Y-73835251D01*
X106500000Y-73835251D02*
X106404762Y-73787632D01*
X106404762Y-73787632D02*
X106214286Y-73787632D01*
X106214286Y-73787632D02*
X106119048Y-73835251D01*
X106119048Y-73835251D02*
X106071429Y-73930489D01*
X106071429Y-73930489D02*
X106071429Y-74025727D01*
X106071429Y-74025727D02*
X106547619Y-74120965D01*
X105214286Y-74454299D02*
X105214286Y-73930489D01*
X105214286Y-73930489D02*
X105261905Y-73835251D01*
X105261905Y-73835251D02*
X105357143Y-73787632D01*
X105357143Y-73787632D02*
X105547619Y-73787632D01*
X105547619Y-73787632D02*
X105642857Y-73835251D01*
X105214286Y-74406680D02*
X105309524Y-74454299D01*
X105309524Y-74454299D02*
X105547619Y-74454299D01*
X105547619Y-74454299D02*
X105642857Y-74406680D01*
X105642857Y-74406680D02*
X105690476Y-74311441D01*
X105690476Y-74311441D02*
X105690476Y-74216203D01*
X105690476Y-74216203D02*
X105642857Y-74120965D01*
X105642857Y-74120965D02*
X105547619Y-74073346D01*
X105547619Y-74073346D02*
X105309524Y-74073346D01*
X105309524Y-74073346D02*
X105214286Y-74025727D01*
X104738095Y-74454299D02*
X104738095Y-73787632D01*
X104738095Y-73882870D02*
X104690476Y-73835251D01*
X104690476Y-73835251D02*
X104595238Y-73787632D01*
X104595238Y-73787632D02*
X104452381Y-73787632D01*
X104452381Y-73787632D02*
X104357143Y-73835251D01*
X104357143Y-73835251D02*
X104309524Y-73930489D01*
X104309524Y-73930489D02*
X104309524Y-74454299D01*
X104309524Y-73930489D02*
X104261905Y-73835251D01*
X104261905Y-73835251D02*
X104166667Y-73787632D01*
X104166667Y-73787632D02*
X104023810Y-73787632D01*
X104023810Y-73787632D02*
X103928571Y-73835251D01*
X103928571Y-73835251D02*
X103880952Y-73930489D01*
X103880952Y-73930489D02*
X103880952Y-74454299D01*
X102166667Y-73454299D02*
X102642857Y-73454299D01*
X102642857Y-73454299D02*
X102690476Y-73930489D01*
X102690476Y-73930489D02*
X102642857Y-73882870D01*
X102642857Y-73882870D02*
X102547619Y-73835251D01*
X102547619Y-73835251D02*
X102309524Y-73835251D01*
X102309524Y-73835251D02*
X102214286Y-73882870D01*
X102214286Y-73882870D02*
X102166667Y-73930489D01*
X102166667Y-73930489D02*
X102119048Y-74025727D01*
X102119048Y-74025727D02*
X102119048Y-74263822D01*
X102119048Y-74263822D02*
X102166667Y-74359060D01*
X102166667Y-74359060D02*
X102214286Y-74406680D01*
X102214286Y-74406680D02*
X102309524Y-74454299D01*
X102309524Y-74454299D02*
X102547619Y-74454299D01*
X102547619Y-74454299D02*
X102642857Y-74406680D01*
X102642857Y-74406680D02*
X102690476Y-74359060D01*
X100214285Y-74406680D02*
X100119047Y-74454299D01*
X100119047Y-74454299D02*
X99928571Y-74454299D01*
X99928571Y-74454299D02*
X99833333Y-74406680D01*
X99833333Y-74406680D02*
X99785714Y-74311441D01*
X99785714Y-74311441D02*
X99785714Y-74263822D01*
X99785714Y-74263822D02*
X99833333Y-74168584D01*
X99833333Y-74168584D02*
X99928571Y-74120965D01*
X99928571Y-74120965D02*
X100071428Y-74120965D01*
X100071428Y-74120965D02*
X100166666Y-74073346D01*
X100166666Y-74073346D02*
X100214285Y-73978108D01*
X100214285Y-73978108D02*
X100214285Y-73930489D01*
X100214285Y-73930489D02*
X100166666Y-73835251D01*
X100166666Y-73835251D02*
X100071428Y-73787632D01*
X100071428Y-73787632D02*
X99928571Y-73787632D01*
X99928571Y-73787632D02*
X99833333Y-73835251D01*
X99357142Y-74454299D02*
X99357142Y-73787632D01*
X99357142Y-73454299D02*
X99404761Y-73501918D01*
X99404761Y-73501918D02*
X99357142Y-73549537D01*
X99357142Y-73549537D02*
X99309523Y-73501918D01*
X99309523Y-73501918D02*
X99357142Y-73454299D01*
X99357142Y-73454299D02*
X99357142Y-73549537D01*
X98880952Y-74454299D02*
X98880952Y-73787632D01*
X98880952Y-73882870D02*
X98833333Y-73835251D01*
X98833333Y-73835251D02*
X98738095Y-73787632D01*
X98738095Y-73787632D02*
X98595238Y-73787632D01*
X98595238Y-73787632D02*
X98500000Y-73835251D01*
X98500000Y-73835251D02*
X98452381Y-73930489D01*
X98452381Y-73930489D02*
X98452381Y-74454299D01*
X98452381Y-73930489D02*
X98404762Y-73835251D01*
X98404762Y-73835251D02*
X98309524Y-73787632D01*
X98309524Y-73787632D02*
X98166667Y-73787632D01*
X98166667Y-73787632D02*
X98071428Y-73835251D01*
X98071428Y-73835251D02*
X98023809Y-73930489D01*
X98023809Y-73930489D02*
X98023809Y-74454299D01*
X97547619Y-73787632D02*
X97547619Y-74787632D01*
X97547619Y-73835251D02*
X97452381Y-73787632D01*
X97452381Y-73787632D02*
X97261905Y-73787632D01*
X97261905Y-73787632D02*
X97166667Y-73835251D01*
X97166667Y-73835251D02*
X97119048Y-73882870D01*
X97119048Y-73882870D02*
X97071429Y-73978108D01*
X97071429Y-73978108D02*
X97071429Y-74263822D01*
X97071429Y-74263822D02*
X97119048Y-74359060D01*
X97119048Y-74359060D02*
X97166667Y-74406680D01*
X97166667Y-74406680D02*
X97261905Y-74454299D01*
X97261905Y-74454299D02*
X97452381Y-74454299D01*
X97452381Y-74454299D02*
X97547619Y-74406680D01*
X96500000Y-74454299D02*
X96595238Y-74406680D01*
X96595238Y-74406680D02*
X96642857Y-74311441D01*
X96642857Y-74311441D02*
X96642857Y-73454299D01*
X95738095Y-74406680D02*
X95833333Y-74454299D01*
X95833333Y-74454299D02*
X96023809Y-74454299D01*
X96023809Y-74454299D02*
X96119047Y-74406680D01*
X96119047Y-74406680D02*
X96166666Y-74311441D01*
X96166666Y-74311441D02*
X96166666Y-73930489D01*
X96166666Y-73930489D02*
X96119047Y-73835251D01*
X96119047Y-73835251D02*
X96023809Y-73787632D01*
X96023809Y-73787632D02*
X95833333Y-73787632D01*
X95833333Y-73787632D02*
X95738095Y-73835251D01*
X95738095Y-73835251D02*
X95690476Y-73930489D01*
X95690476Y-73930489D02*
X95690476Y-74025727D01*
X95690476Y-74025727D02*
X96166666Y-74120965D01*
X94499999Y-74454299D02*
X94499999Y-73454299D01*
X94499999Y-73454299D02*
X94261904Y-73454299D01*
X94261904Y-73454299D02*
X94119047Y-73501918D01*
X94119047Y-73501918D02*
X94023809Y-73597156D01*
X94023809Y-73597156D02*
X93976190Y-73692394D01*
X93976190Y-73692394D02*
X93928571Y-73882870D01*
X93928571Y-73882870D02*
X93928571Y-74025727D01*
X93928571Y-74025727D02*
X93976190Y-74216203D01*
X93976190Y-74216203D02*
X94023809Y-74311441D01*
X94023809Y-74311441D02*
X94119047Y-74406680D01*
X94119047Y-74406680D02*
X94261904Y-74454299D01*
X94261904Y-74454299D02*
X94499999Y-74454299D01*
X93547618Y-74168584D02*
X93071428Y-74168584D01*
X93642856Y-74454299D02*
X93309523Y-73454299D01*
X93309523Y-73454299D02*
X92976190Y-74454299D01*
X91976190Y-74549537D02*
X92071428Y-74501918D01*
X92071428Y-74501918D02*
X92166666Y-74406680D01*
X92166666Y-74406680D02*
X92309523Y-74263822D01*
X92309523Y-74263822D02*
X92404761Y-74216203D01*
X92404761Y-74216203D02*
X92499999Y-74216203D01*
X92452380Y-74454299D02*
X92547618Y-74406680D01*
X92547618Y-74406680D02*
X92642856Y-74311441D01*
X92642856Y-74311441D02*
X92690475Y-74120965D01*
X92690475Y-74120965D02*
X92690475Y-73787632D01*
X92690475Y-73787632D02*
X92642856Y-73597156D01*
X92642856Y-73597156D02*
X92547618Y-73501918D01*
X92547618Y-73501918D02*
X92452380Y-73454299D01*
X92452380Y-73454299D02*
X92261904Y-73454299D01*
X92261904Y-73454299D02*
X92166666Y-73501918D01*
X92166666Y-73501918D02*
X92071428Y-73597156D01*
X92071428Y-73597156D02*
X92023809Y-73787632D01*
X92023809Y-73787632D02*
X92023809Y-74120965D01*
X92023809Y-74120965D02*
X92071428Y-74311441D01*
X92071428Y-74311441D02*
X92166666Y-74406680D01*
X92166666Y-74406680D02*
X92261904Y-74454299D01*
X92261904Y-74454299D02*
X92452380Y-74454299D01*
X90071427Y-74454299D02*
X90071427Y-73787632D01*
X90071427Y-73978108D02*
X90023808Y-73882870D01*
X90023808Y-73882870D02*
X89976189Y-73835251D01*
X89976189Y-73835251D02*
X89880951Y-73787632D01*
X89880951Y-73787632D02*
X89785713Y-73787632D01*
X89071427Y-74406680D02*
X89166665Y-74454299D01*
X89166665Y-74454299D02*
X89357141Y-74454299D01*
X89357141Y-74454299D02*
X89452379Y-74406680D01*
X89452379Y-74406680D02*
X89499998Y-74311441D01*
X89499998Y-74311441D02*
X89499998Y-73930489D01*
X89499998Y-73930489D02*
X89452379Y-73835251D01*
X89452379Y-73835251D02*
X89357141Y-73787632D01*
X89357141Y-73787632D02*
X89166665Y-73787632D01*
X89166665Y-73787632D02*
X89071427Y-73835251D01*
X89071427Y-73835251D02*
X89023808Y-73930489D01*
X89023808Y-73930489D02*
X89023808Y-74025727D01*
X89023808Y-74025727D02*
X89499998Y-74120965D01*
X88690474Y-73787632D02*
X88452379Y-74454299D01*
X88452379Y-74454299D02*
X88214284Y-73787632D01*
X87071426Y-73930489D02*
X86738093Y-73930489D01*
X86595236Y-74454299D02*
X87071426Y-74454299D01*
X87071426Y-74454299D02*
X87071426Y-73454299D01*
X87071426Y-73454299D02*
X86595236Y-73454299D01*
X117476190Y-76168584D02*
X117000000Y-76168584D01*
X117571428Y-76454299D02*
X117238095Y-75454299D01*
X117238095Y-75454299D02*
X116904762Y-76454299D01*
X116571428Y-76454299D02*
X116571428Y-75454299D01*
X116571428Y-75454299D02*
X116333333Y-75454299D01*
X116333333Y-75454299D02*
X116190476Y-75501918D01*
X116190476Y-75501918D02*
X116095238Y-75597156D01*
X116095238Y-75597156D02*
X116047619Y-75692394D01*
X116047619Y-75692394D02*
X116000000Y-75882870D01*
X116000000Y-75882870D02*
X116000000Y-76025727D01*
X116000000Y-76025727D02*
X116047619Y-76216203D01*
X116047619Y-76216203D02*
X116095238Y-76311441D01*
X116095238Y-76311441D02*
X116190476Y-76406680D01*
X116190476Y-76406680D02*
X116333333Y-76454299D01*
X116333333Y-76454299D02*
X116571428Y-76454299D01*
X115619047Y-76406680D02*
X115476190Y-76454299D01*
X115476190Y-76454299D02*
X115238095Y-76454299D01*
X115238095Y-76454299D02*
X115142857Y-76406680D01*
X115142857Y-76406680D02*
X115095238Y-76359060D01*
X115095238Y-76359060D02*
X115047619Y-76263822D01*
X115047619Y-76263822D02*
X115047619Y-76168584D01*
X115047619Y-76168584D02*
X115095238Y-76073346D01*
X115095238Y-76073346D02*
X115142857Y-76025727D01*
X115142857Y-76025727D02*
X115238095Y-75978108D01*
X115238095Y-75978108D02*
X115428571Y-75930489D01*
X115428571Y-75930489D02*
X115523809Y-75882870D01*
X115523809Y-75882870D02*
X115571428Y-75835251D01*
X115571428Y-75835251D02*
X115619047Y-75740013D01*
X115619047Y-75740013D02*
X115619047Y-75644775D01*
X115619047Y-75644775D02*
X115571428Y-75549537D01*
X115571428Y-75549537D02*
X115523809Y-75501918D01*
X115523809Y-75501918D02*
X115428571Y-75454299D01*
X115428571Y-75454299D02*
X115190476Y-75454299D01*
X115190476Y-75454299D02*
X115047619Y-75501918D01*
X113666666Y-75454299D02*
X113571428Y-75454299D01*
X113571428Y-75454299D02*
X113476190Y-75501918D01*
X113476190Y-75501918D02*
X113428571Y-75549537D01*
X113428571Y-75549537D02*
X113380952Y-75644775D01*
X113380952Y-75644775D02*
X113333333Y-75835251D01*
X113333333Y-75835251D02*
X113333333Y-76073346D01*
X113333333Y-76073346D02*
X113380952Y-76263822D01*
X113380952Y-76263822D02*
X113428571Y-76359060D01*
X113428571Y-76359060D02*
X113476190Y-76406680D01*
X113476190Y-76406680D02*
X113571428Y-76454299D01*
X113571428Y-76454299D02*
X113666666Y-76454299D01*
X113666666Y-76454299D02*
X113761904Y-76406680D01*
X113761904Y-76406680D02*
X113809523Y-76359060D01*
X113809523Y-76359060D02*
X113857142Y-76263822D01*
X113857142Y-76263822D02*
X113904761Y-76073346D01*
X113904761Y-76073346D02*
X113904761Y-75835251D01*
X113904761Y-75835251D02*
X113857142Y-75644775D01*
X113857142Y-75644775D02*
X113809523Y-75549537D01*
X113809523Y-75549537D02*
X113761904Y-75501918D01*
X113761904Y-75501918D02*
X113666666Y-75454299D01*
X112999999Y-76454299D02*
X112476190Y-75787632D01*
X112999999Y-75787632D02*
X112476190Y-76454299D01*
X111666666Y-75787632D02*
X111666666Y-76454299D01*
X111904761Y-75406680D02*
X112142856Y-76120965D01*
X112142856Y-76120965D02*
X111523809Y-76120965D01*
X110999999Y-75882870D02*
X111095237Y-75835251D01*
X111095237Y-75835251D02*
X111142856Y-75787632D01*
X111142856Y-75787632D02*
X111190475Y-75692394D01*
X111190475Y-75692394D02*
X111190475Y-75644775D01*
X111190475Y-75644775D02*
X111142856Y-75549537D01*
X111142856Y-75549537D02*
X111095237Y-75501918D01*
X111095237Y-75501918D02*
X110999999Y-75454299D01*
X110999999Y-75454299D02*
X110809523Y-75454299D01*
X110809523Y-75454299D02*
X110714285Y-75501918D01*
X110714285Y-75501918D02*
X110666666Y-75549537D01*
X110666666Y-75549537D02*
X110619047Y-75644775D01*
X110619047Y-75644775D02*
X110619047Y-75692394D01*
X110619047Y-75692394D02*
X110666666Y-75787632D01*
X110666666Y-75787632D02*
X110714285Y-75835251D01*
X110714285Y-75835251D02*
X110809523Y-75882870D01*
X110809523Y-75882870D02*
X110999999Y-75882870D01*
X110999999Y-75882870D02*
X111095237Y-75930489D01*
X111095237Y-75930489D02*
X111142856Y-75978108D01*
X111142856Y-75978108D02*
X111190475Y-76073346D01*
X111190475Y-76073346D02*
X111190475Y-76263822D01*
X111190475Y-76263822D02*
X111142856Y-76359060D01*
X111142856Y-76359060D02*
X111095237Y-76406680D01*
X111095237Y-76406680D02*
X110999999Y-76454299D01*
X110999999Y-76454299D02*
X110809523Y-76454299D01*
X110809523Y-76454299D02*
X110714285Y-76406680D01*
X110714285Y-76406680D02*
X110666666Y-76359060D01*
X110666666Y-76359060D02*
X110619047Y-76263822D01*
X110619047Y-76263822D02*
X110619047Y-76073346D01*
X110619047Y-76073346D02*
X110666666Y-75978108D01*
X110666666Y-75978108D02*
X110714285Y-75930489D01*
X110714285Y-75930489D02*
X110809523Y-75882870D01*
X108666665Y-76454299D02*
X108666665Y-75454299D01*
X108666665Y-75454299D02*
X108333332Y-76168584D01*
X108333332Y-76168584D02*
X107999999Y-75454299D01*
X107999999Y-75454299D02*
X107999999Y-76454299D01*
X106952380Y-76359060D02*
X106999999Y-76406680D01*
X106999999Y-76406680D02*
X107142856Y-76454299D01*
X107142856Y-76454299D02*
X107238094Y-76454299D01*
X107238094Y-76454299D02*
X107380951Y-76406680D01*
X107380951Y-76406680D02*
X107476189Y-76311441D01*
X107476189Y-76311441D02*
X107523808Y-76216203D01*
X107523808Y-76216203D02*
X107571427Y-76025727D01*
X107571427Y-76025727D02*
X107571427Y-75882870D01*
X107571427Y-75882870D02*
X107523808Y-75692394D01*
X107523808Y-75692394D02*
X107476189Y-75597156D01*
X107476189Y-75597156D02*
X107380951Y-75501918D01*
X107380951Y-75501918D02*
X107238094Y-75454299D01*
X107238094Y-75454299D02*
X107142856Y-75454299D01*
X107142856Y-75454299D02*
X106999999Y-75501918D01*
X106999999Y-75501918D02*
X106952380Y-75549537D01*
X106523808Y-76454299D02*
X106523808Y-75454299D01*
X106523808Y-75454299D02*
X106142856Y-75454299D01*
X106142856Y-75454299D02*
X106047618Y-75501918D01*
X106047618Y-75501918D02*
X105999999Y-75549537D01*
X105999999Y-75549537D02*
X105952380Y-75644775D01*
X105952380Y-75644775D02*
X105952380Y-75787632D01*
X105952380Y-75787632D02*
X105999999Y-75882870D01*
X105999999Y-75882870D02*
X106047618Y-75930489D01*
X106047618Y-75930489D02*
X106142856Y-75978108D01*
X106142856Y-75978108D02*
X106523808Y-75978108D01*
X104571427Y-75454299D02*
X104476189Y-75454299D01*
X104476189Y-75454299D02*
X104380951Y-75501918D01*
X104380951Y-75501918D02*
X104333332Y-75549537D01*
X104333332Y-75549537D02*
X104285713Y-75644775D01*
X104285713Y-75644775D02*
X104238094Y-75835251D01*
X104238094Y-75835251D02*
X104238094Y-76073346D01*
X104238094Y-76073346D02*
X104285713Y-76263822D01*
X104285713Y-76263822D02*
X104333332Y-76359060D01*
X104333332Y-76359060D02*
X104380951Y-76406680D01*
X104380951Y-76406680D02*
X104476189Y-76454299D01*
X104476189Y-76454299D02*
X104571427Y-76454299D01*
X104571427Y-76454299D02*
X104666665Y-76406680D01*
X104666665Y-76406680D02*
X104714284Y-76359060D01*
X104714284Y-76359060D02*
X104761903Y-76263822D01*
X104761903Y-76263822D02*
X104809522Y-76073346D01*
X104809522Y-76073346D02*
X104809522Y-75835251D01*
X104809522Y-75835251D02*
X104761903Y-75644775D01*
X104761903Y-75644775D02*
X104714284Y-75549537D01*
X104714284Y-75549537D02*
X104666665Y-75501918D01*
X104666665Y-75501918D02*
X104571427Y-75454299D01*
X103904760Y-76454299D02*
X103380951Y-75787632D01*
X103904760Y-75787632D02*
X103380951Y-76454299D01*
X102571427Y-75454299D02*
X102761903Y-75454299D01*
X102761903Y-75454299D02*
X102857141Y-75501918D01*
X102857141Y-75501918D02*
X102904760Y-75549537D01*
X102904760Y-75549537D02*
X102999998Y-75692394D01*
X102999998Y-75692394D02*
X103047617Y-75882870D01*
X103047617Y-75882870D02*
X103047617Y-76263822D01*
X103047617Y-76263822D02*
X102999998Y-76359060D01*
X102999998Y-76359060D02*
X102952379Y-76406680D01*
X102952379Y-76406680D02*
X102857141Y-76454299D01*
X102857141Y-76454299D02*
X102666665Y-76454299D01*
X102666665Y-76454299D02*
X102571427Y-76406680D01*
X102571427Y-76406680D02*
X102523808Y-76359060D01*
X102523808Y-76359060D02*
X102476189Y-76263822D01*
X102476189Y-76263822D02*
X102476189Y-76025727D01*
X102476189Y-76025727D02*
X102523808Y-75930489D01*
X102523808Y-75930489D02*
X102571427Y-75882870D01*
X102571427Y-75882870D02*
X102666665Y-75835251D01*
X102666665Y-75835251D02*
X102857141Y-75835251D01*
X102857141Y-75835251D02*
X102952379Y-75882870D01*
X102952379Y-75882870D02*
X102999998Y-75930489D01*
X102999998Y-75930489D02*
X103047617Y-76025727D01*
X101857141Y-75454299D02*
X101761903Y-75454299D01*
X101761903Y-75454299D02*
X101666665Y-75501918D01*
X101666665Y-75501918D02*
X101619046Y-75549537D01*
X101619046Y-75549537D02*
X101571427Y-75644775D01*
X101571427Y-75644775D02*
X101523808Y-75835251D01*
X101523808Y-75835251D02*
X101523808Y-76073346D01*
X101523808Y-76073346D02*
X101571427Y-76263822D01*
X101571427Y-76263822D02*
X101619046Y-76359060D01*
X101619046Y-76359060D02*
X101666665Y-76406680D01*
X101666665Y-76406680D02*
X101761903Y-76454299D01*
X101761903Y-76454299D02*
X101857141Y-76454299D01*
X101857141Y-76454299D02*
X101952379Y-76406680D01*
X101952379Y-76406680D02*
X101999998Y-76359060D01*
X101999998Y-76359060D02*
X102047617Y-76263822D01*
X102047617Y-76263822D02*
X102095236Y-76073346D01*
X102095236Y-76073346D02*
X102095236Y-75835251D01*
X102095236Y-75835251D02*
X102047617Y-75644775D01*
X102047617Y-75644775D02*
X101999998Y-75549537D01*
X101999998Y-75549537D02*
X101952379Y-75501918D01*
X101952379Y-75501918D02*
X101857141Y-75454299D01*
X98999998Y-76454299D02*
X99333331Y-75978108D01*
X99571426Y-76454299D02*
X99571426Y-75454299D01*
X99571426Y-75454299D02*
X99190474Y-75454299D01*
X99190474Y-75454299D02*
X99095236Y-75501918D01*
X99095236Y-75501918D02*
X99047617Y-75549537D01*
X99047617Y-75549537D02*
X98999998Y-75644775D01*
X98999998Y-75644775D02*
X98999998Y-75787632D01*
X98999998Y-75787632D02*
X99047617Y-75882870D01*
X99047617Y-75882870D02*
X99095236Y-75930489D01*
X99095236Y-75930489D02*
X99190474Y-75978108D01*
X99190474Y-75978108D02*
X99571426Y-75978108D01*
X98571426Y-76454299D02*
X98571426Y-75454299D01*
X98571426Y-75454299D02*
X98333331Y-75454299D01*
X98333331Y-75454299D02*
X98190474Y-75501918D01*
X98190474Y-75501918D02*
X98095236Y-75597156D01*
X98095236Y-75597156D02*
X98047617Y-75692394D01*
X98047617Y-75692394D02*
X97999998Y-75882870D01*
X97999998Y-75882870D02*
X97999998Y-76025727D01*
X97999998Y-76025727D02*
X98047617Y-76216203D01*
X98047617Y-76216203D02*
X98095236Y-76311441D01*
X98095236Y-76311441D02*
X98190474Y-76406680D01*
X98190474Y-76406680D02*
X98333331Y-76454299D01*
X98333331Y-76454299D02*
X98571426Y-76454299D01*
X97380950Y-75978108D02*
X97380950Y-76454299D01*
X97714283Y-75454299D02*
X97380950Y-75978108D01*
X97380950Y-75978108D02*
X97047617Y-75454299D01*
X96714283Y-76073346D02*
X95952379Y-76073346D01*
X95476188Y-75787632D02*
X94714284Y-76073346D01*
X94714284Y-76073346D02*
X95476188Y-76359060D01*
X94238093Y-76454299D02*
X94238093Y-75454299D01*
X94238093Y-75454299D02*
X93999998Y-75454299D01*
X93999998Y-75454299D02*
X93857141Y-75501918D01*
X93857141Y-75501918D02*
X93761903Y-75597156D01*
X93761903Y-75597156D02*
X93714284Y-75692394D01*
X93714284Y-75692394D02*
X93666665Y-75882870D01*
X93666665Y-75882870D02*
X93666665Y-76025727D01*
X93666665Y-76025727D02*
X93714284Y-76216203D01*
X93714284Y-76216203D02*
X93761903Y-76311441D01*
X93761903Y-76311441D02*
X93857141Y-76406680D01*
X93857141Y-76406680D02*
X93999998Y-76454299D01*
X93999998Y-76454299D02*
X94238093Y-76454299D01*
X93285712Y-75549537D02*
X93238093Y-75501918D01*
X93238093Y-75501918D02*
X93142855Y-75454299D01*
X93142855Y-75454299D02*
X92904760Y-75454299D01*
X92904760Y-75454299D02*
X92809522Y-75501918D01*
X92809522Y-75501918D02*
X92761903Y-75549537D01*
X92761903Y-75549537D02*
X92714284Y-75644775D01*
X92714284Y-75644775D02*
X92714284Y-75740013D01*
X92714284Y-75740013D02*
X92761903Y-75882870D01*
X92761903Y-75882870D02*
X93333331Y-76454299D01*
X93333331Y-76454299D02*
X92714284Y-76454299D01*
X90904759Y-75454299D02*
X90333331Y-75454299D01*
X90619045Y-76454299D02*
X90619045Y-75454299D01*
X89428569Y-76454299D02*
X89761902Y-75978108D01*
X89999997Y-76454299D02*
X89999997Y-75454299D01*
X89999997Y-75454299D02*
X89619045Y-75454299D01*
X89619045Y-75454299D02*
X89523807Y-75501918D01*
X89523807Y-75501918D02*
X89476188Y-75549537D01*
X89476188Y-75549537D02*
X89428569Y-75644775D01*
X89428569Y-75644775D02*
X89428569Y-75787632D01*
X89428569Y-75787632D02*
X89476188Y-75882870D01*
X89476188Y-75882870D02*
X89523807Y-75930489D01*
X89523807Y-75930489D02*
X89619045Y-75978108D01*
X89619045Y-75978108D02*
X89999997Y-75978108D01*
X88999997Y-76454299D02*
X88999997Y-75454299D01*
X87999998Y-75501918D02*
X88095236Y-75454299D01*
X88095236Y-75454299D02*
X88238093Y-75454299D01*
X88238093Y-75454299D02*
X88380950Y-75501918D01*
X88380950Y-75501918D02*
X88476188Y-75597156D01*
X88476188Y-75597156D02*
X88523807Y-75692394D01*
X88523807Y-75692394D02*
X88571426Y-75882870D01*
X88571426Y-75882870D02*
X88571426Y-76025727D01*
X88571426Y-76025727D02*
X88523807Y-76216203D01*
X88523807Y-76216203D02*
X88476188Y-76311441D01*
X88476188Y-76311441D02*
X88380950Y-76406680D01*
X88380950Y-76406680D02*
X88238093Y-76454299D01*
X88238093Y-76454299D02*
X88142855Y-76454299D01*
X88142855Y-76454299D02*
X87999998Y-76406680D01*
X87999998Y-76406680D02*
X87952379Y-76359060D01*
X87952379Y-76359060D02*
X87952379Y-76025727D01*
X87952379Y-76025727D02*
X88142855Y-76025727D01*
X87523807Y-76073346D02*
X86761903Y-76073346D01*
X86285712Y-75787632D02*
X85523808Y-76073346D01*
X85523808Y-76073346D02*
X86285712Y-76359060D01*
X85047617Y-76454299D02*
X85047617Y-75454299D01*
X85047617Y-75454299D02*
X84809522Y-75454299D01*
X84809522Y-75454299D02*
X84666665Y-75501918D01*
X84666665Y-75501918D02*
X84571427Y-75597156D01*
X84571427Y-75597156D02*
X84523808Y-75692394D01*
X84523808Y-75692394D02*
X84476189Y-75882870D01*
X84476189Y-75882870D02*
X84476189Y-76025727D01*
X84476189Y-76025727D02*
X84523808Y-76216203D01*
X84523808Y-76216203D02*
X84571427Y-76311441D01*
X84571427Y-76311441D02*
X84666665Y-76406680D01*
X84666665Y-76406680D02*
X84809522Y-76454299D01*
X84809522Y-76454299D02*
X85047617Y-76454299D01*
X83904760Y-75882870D02*
X83999998Y-75835251D01*
X83999998Y-75835251D02*
X84047617Y-75787632D01*
X84047617Y-75787632D02*
X84095236Y-75692394D01*
X84095236Y-75692394D02*
X84095236Y-75644775D01*
X84095236Y-75644775D02*
X84047617Y-75549537D01*
X84047617Y-75549537D02*
X83999998Y-75501918D01*
X83999998Y-75501918D02*
X83904760Y-75454299D01*
X83904760Y-75454299D02*
X83714284Y-75454299D01*
X83714284Y-75454299D02*
X83619046Y-75501918D01*
X83619046Y-75501918D02*
X83571427Y-75549537D01*
X83571427Y-75549537D02*
X83523808Y-75644775D01*
X83523808Y-75644775D02*
X83523808Y-75692394D01*
X83523808Y-75692394D02*
X83571427Y-75787632D01*
X83571427Y-75787632D02*
X83619046Y-75835251D01*
X83619046Y-75835251D02*
X83714284Y-75882870D01*
X83714284Y-75882870D02*
X83904760Y-75882870D01*
X83904760Y-75882870D02*
X83999998Y-75930489D01*
X83999998Y-75930489D02*
X84047617Y-75978108D01*
X84047617Y-75978108D02*
X84095236Y-76073346D01*
X84095236Y-76073346D02*
X84095236Y-76263822D01*
X84095236Y-76263822D02*
X84047617Y-76359060D01*
X84047617Y-76359060D02*
X83999998Y-76406680D01*
X83999998Y-76406680D02*
X83904760Y-76454299D01*
X83904760Y-76454299D02*
X83714284Y-76454299D01*
X83714284Y-76454299D02*
X83619046Y-76406680D01*
X83619046Y-76406680D02*
X83571427Y-76359060D01*
X83571427Y-76359060D02*
X83523808Y-76263822D01*
X83523808Y-76263822D02*
X83523808Y-76073346D01*
X83523808Y-76073346D02*
X83571427Y-75978108D01*
X83571427Y-75978108D02*
X83619046Y-75930489D01*
X83619046Y-75930489D02*
X83714284Y-75882870D01*
X115023810Y-78454299D02*
X115023810Y-77454299D01*
X115023810Y-77454299D02*
X114642858Y-77454299D01*
X114642858Y-77454299D02*
X114547620Y-77501918D01*
X114547620Y-77501918D02*
X114500001Y-77549537D01*
X114500001Y-77549537D02*
X114452382Y-77644775D01*
X114452382Y-77644775D02*
X114452382Y-77787632D01*
X114452382Y-77787632D02*
X114500001Y-77882870D01*
X114500001Y-77882870D02*
X114547620Y-77930489D01*
X114547620Y-77930489D02*
X114642858Y-77978108D01*
X114642858Y-77978108D02*
X115023810Y-77978108D01*
X114023810Y-78454299D02*
X114023810Y-77787632D01*
X114023810Y-77978108D02*
X113976191Y-77882870D01*
X113976191Y-77882870D02*
X113928572Y-77835251D01*
X113928572Y-77835251D02*
X113833334Y-77787632D01*
X113833334Y-77787632D02*
X113738096Y-77787632D01*
X113023810Y-78406680D02*
X113119048Y-78454299D01*
X113119048Y-78454299D02*
X113309524Y-78454299D01*
X113309524Y-78454299D02*
X113404762Y-78406680D01*
X113404762Y-78406680D02*
X113452381Y-78311441D01*
X113452381Y-78311441D02*
X113452381Y-77930489D01*
X113452381Y-77930489D02*
X113404762Y-77835251D01*
X113404762Y-77835251D02*
X113309524Y-77787632D01*
X113309524Y-77787632D02*
X113119048Y-77787632D01*
X113119048Y-77787632D02*
X113023810Y-77835251D01*
X113023810Y-77835251D02*
X112976191Y-77930489D01*
X112976191Y-77930489D02*
X112976191Y-78025727D01*
X112976191Y-78025727D02*
X113452381Y-78120965D01*
X112119048Y-78454299D02*
X112119048Y-77930489D01*
X112119048Y-77930489D02*
X112166667Y-77835251D01*
X112166667Y-77835251D02*
X112261905Y-77787632D01*
X112261905Y-77787632D02*
X112452381Y-77787632D01*
X112452381Y-77787632D02*
X112547619Y-77835251D01*
X112119048Y-78406680D02*
X112214286Y-78454299D01*
X112214286Y-78454299D02*
X112452381Y-78454299D01*
X112452381Y-78454299D02*
X112547619Y-78406680D01*
X112547619Y-78406680D02*
X112595238Y-78311441D01*
X112595238Y-78311441D02*
X112595238Y-78216203D01*
X112595238Y-78216203D02*
X112547619Y-78120965D01*
X112547619Y-78120965D02*
X112452381Y-78073346D01*
X112452381Y-78073346D02*
X112214286Y-78073346D01*
X112214286Y-78073346D02*
X112119048Y-78025727D01*
X111642857Y-78454299D02*
X111642857Y-77787632D01*
X111642857Y-77882870D02*
X111595238Y-77835251D01*
X111595238Y-77835251D02*
X111500000Y-77787632D01*
X111500000Y-77787632D02*
X111357143Y-77787632D01*
X111357143Y-77787632D02*
X111261905Y-77835251D01*
X111261905Y-77835251D02*
X111214286Y-77930489D01*
X111214286Y-77930489D02*
X111214286Y-78454299D01*
X111214286Y-77930489D02*
X111166667Y-77835251D01*
X111166667Y-77835251D02*
X111071429Y-77787632D01*
X111071429Y-77787632D02*
X110928572Y-77787632D01*
X110928572Y-77787632D02*
X110833333Y-77835251D01*
X110833333Y-77835251D02*
X110785714Y-77930489D01*
X110785714Y-77930489D02*
X110785714Y-78454299D01*
X110309524Y-77787632D02*
X110309524Y-78787632D01*
X110309524Y-77835251D02*
X110214286Y-77787632D01*
X110214286Y-77787632D02*
X110023810Y-77787632D01*
X110023810Y-77787632D02*
X109928572Y-77835251D01*
X109928572Y-77835251D02*
X109880953Y-77882870D01*
X109880953Y-77882870D02*
X109833334Y-77978108D01*
X109833334Y-77978108D02*
X109833334Y-78263822D01*
X109833334Y-78263822D02*
X109880953Y-78359060D01*
X109880953Y-78359060D02*
X109928572Y-78406680D01*
X109928572Y-78406680D02*
X110023810Y-78454299D01*
X110023810Y-78454299D02*
X110214286Y-78454299D01*
X110214286Y-78454299D02*
X110309524Y-78406680D01*
X109404762Y-78359060D02*
X109357143Y-78406680D01*
X109357143Y-78406680D02*
X109404762Y-78454299D01*
X109404762Y-78454299D02*
X109452381Y-78406680D01*
X109452381Y-78406680D02*
X109404762Y-78359060D01*
X109404762Y-78359060D02*
X109404762Y-78454299D01*
X109404762Y-77835251D02*
X109357143Y-77882870D01*
X109357143Y-77882870D02*
X109404762Y-77930489D01*
X109404762Y-77930489D02*
X109452381Y-77882870D01*
X109452381Y-77882870D02*
X109404762Y-77835251D01*
X109404762Y-77835251D02*
X109404762Y-77930489D01*
X108166667Y-78454299D02*
X108166667Y-77787632D01*
X108166667Y-77978108D02*
X108119048Y-77882870D01*
X108119048Y-77882870D02*
X108071429Y-77835251D01*
X108071429Y-77835251D02*
X107976191Y-77787632D01*
X107976191Y-77787632D02*
X107880953Y-77787632D01*
X107166667Y-78406680D02*
X107261905Y-78454299D01*
X107261905Y-78454299D02*
X107452381Y-78454299D01*
X107452381Y-78454299D02*
X107547619Y-78406680D01*
X107547619Y-78406680D02*
X107595238Y-78311441D01*
X107595238Y-78311441D02*
X107595238Y-77930489D01*
X107595238Y-77930489D02*
X107547619Y-77835251D01*
X107547619Y-77835251D02*
X107452381Y-77787632D01*
X107452381Y-77787632D02*
X107261905Y-77787632D01*
X107261905Y-77787632D02*
X107166667Y-77835251D01*
X107166667Y-77835251D02*
X107119048Y-77930489D01*
X107119048Y-77930489D02*
X107119048Y-78025727D01*
X107119048Y-78025727D02*
X107595238Y-78120965D01*
X106261905Y-78454299D02*
X106261905Y-77930489D01*
X106261905Y-77930489D02*
X106309524Y-77835251D01*
X106309524Y-77835251D02*
X106404762Y-77787632D01*
X106404762Y-77787632D02*
X106595238Y-77787632D01*
X106595238Y-77787632D02*
X106690476Y-77835251D01*
X106261905Y-78406680D02*
X106357143Y-78454299D01*
X106357143Y-78454299D02*
X106595238Y-78454299D01*
X106595238Y-78454299D02*
X106690476Y-78406680D01*
X106690476Y-78406680D02*
X106738095Y-78311441D01*
X106738095Y-78311441D02*
X106738095Y-78216203D01*
X106738095Y-78216203D02*
X106690476Y-78120965D01*
X106690476Y-78120965D02*
X106595238Y-78073346D01*
X106595238Y-78073346D02*
X106357143Y-78073346D01*
X106357143Y-78073346D02*
X106261905Y-78025727D01*
X105357143Y-78454299D02*
X105357143Y-77454299D01*
X105357143Y-78406680D02*
X105452381Y-78454299D01*
X105452381Y-78454299D02*
X105642857Y-78454299D01*
X105642857Y-78454299D02*
X105738095Y-78406680D01*
X105738095Y-78406680D02*
X105785714Y-78359060D01*
X105785714Y-78359060D02*
X105833333Y-78263822D01*
X105833333Y-78263822D02*
X105833333Y-77978108D01*
X105833333Y-77978108D02*
X105785714Y-77882870D01*
X105785714Y-77882870D02*
X105738095Y-77835251D01*
X105738095Y-77835251D02*
X105642857Y-77787632D01*
X105642857Y-77787632D02*
X105452381Y-77787632D01*
X105452381Y-77787632D02*
X105357143Y-77835251D01*
X104166666Y-78168584D02*
X103690476Y-78168584D01*
X104261904Y-78454299D02*
X103928571Y-77454299D01*
X103928571Y-77454299D02*
X103595238Y-78454299D01*
X102738095Y-78454299D02*
X103309523Y-78454299D01*
X103023809Y-78454299D02*
X103023809Y-77454299D01*
X103023809Y-77454299D02*
X103119047Y-77597156D01*
X103119047Y-77597156D02*
X103214285Y-77692394D01*
X103214285Y-77692394D02*
X103309523Y-77740013D01*
X101547618Y-78073346D02*
X100785714Y-78073346D01*
X99595237Y-78168584D02*
X99119047Y-78168584D01*
X99690475Y-78454299D02*
X99357142Y-77454299D01*
X99357142Y-77454299D02*
X99023809Y-78454299D01*
X98785713Y-77454299D02*
X98166666Y-77454299D01*
X98166666Y-77454299D02*
X98499999Y-77835251D01*
X98499999Y-77835251D02*
X98357142Y-77835251D01*
X98357142Y-77835251D02*
X98261904Y-77882870D01*
X98261904Y-77882870D02*
X98214285Y-77930489D01*
X98214285Y-77930489D02*
X98166666Y-78025727D01*
X98166666Y-78025727D02*
X98166666Y-78263822D01*
X98166666Y-78263822D02*
X98214285Y-78359060D01*
X98214285Y-78359060D02*
X98261904Y-78406680D01*
X98261904Y-78406680D02*
X98357142Y-78454299D01*
X98357142Y-78454299D02*
X98642856Y-78454299D01*
X98642856Y-78454299D02*
X98738094Y-78406680D01*
X98738094Y-78406680D02*
X98785713Y-78359060D01*
X97690475Y-78406680D02*
X97690475Y-78454299D01*
X97690475Y-78454299D02*
X97738094Y-78549537D01*
X97738094Y-78549537D02*
X97785713Y-78597156D01*
X95214285Y-78454299D02*
X95785713Y-78454299D01*
X95499999Y-78454299D02*
X95499999Y-77454299D01*
X95499999Y-77454299D02*
X95595237Y-77597156D01*
X95595237Y-77597156D02*
X95690475Y-77692394D01*
X95690475Y-77692394D02*
X95785713Y-77740013D01*
X94023808Y-77787632D02*
X94023808Y-78454299D01*
X94023808Y-77882870D02*
X93976189Y-77835251D01*
X93976189Y-77835251D02*
X93880951Y-77787632D01*
X93880951Y-77787632D02*
X93738094Y-77787632D01*
X93738094Y-77787632D02*
X93642856Y-77835251D01*
X93642856Y-77835251D02*
X93595237Y-77930489D01*
X93595237Y-77930489D02*
X93595237Y-78454299D01*
X93166665Y-78168584D02*
X92690475Y-78168584D01*
X93261903Y-78454299D02*
X92928570Y-77454299D01*
X92928570Y-77454299D02*
X92595237Y-78454299D01*
X91499998Y-77930489D02*
X90738094Y-77930489D01*
X90738094Y-78216203D02*
X91499998Y-78216203D01*
X89309522Y-77454299D02*
X89214284Y-77454299D01*
X89214284Y-77454299D02*
X89119046Y-77501918D01*
X89119046Y-77501918D02*
X89071427Y-77549537D01*
X89071427Y-77549537D02*
X89023808Y-77644775D01*
X89023808Y-77644775D02*
X88976189Y-77835251D01*
X88976189Y-77835251D02*
X88976189Y-78073346D01*
X88976189Y-78073346D02*
X89023808Y-78263822D01*
X89023808Y-78263822D02*
X89071427Y-78359060D01*
X89071427Y-78359060D02*
X89119046Y-78406680D01*
X89119046Y-78406680D02*
X89214284Y-78454299D01*
X89214284Y-78454299D02*
X89309522Y-78454299D01*
X89309522Y-78454299D02*
X89404760Y-78406680D01*
X89404760Y-78406680D02*
X89452379Y-78359060D01*
X89452379Y-78359060D02*
X89499998Y-78263822D01*
X89499998Y-78263822D02*
X89547617Y-78073346D01*
X89547617Y-78073346D02*
X89547617Y-77835251D01*
X89547617Y-77835251D02*
X89499998Y-77644775D01*
X89499998Y-77644775D02*
X89452379Y-77549537D01*
X89452379Y-77549537D02*
X89404760Y-77501918D01*
X89404760Y-77501918D02*
X89309522Y-77454299D01*
X88547617Y-78359060D02*
X88499998Y-78406680D01*
X88499998Y-78406680D02*
X88547617Y-78454299D01*
X88547617Y-78454299D02*
X88595236Y-78406680D01*
X88595236Y-78406680D02*
X88547617Y-78359060D01*
X88547617Y-78359060D02*
X88547617Y-78454299D01*
X87547618Y-78454299D02*
X88119046Y-78454299D01*
X87833332Y-78454299D02*
X87833332Y-77454299D01*
X87833332Y-77454299D02*
X87928570Y-77597156D01*
X87928570Y-77597156D02*
X88023808Y-77692394D01*
X88023808Y-77692394D02*
X88119046Y-77740013D01*
X86499998Y-77454299D02*
X86166665Y-78454299D01*
X86166665Y-78454299D02*
X85833332Y-77454299D01*
X115619050Y-79454299D02*
X115619050Y-80168584D01*
X115619050Y-80168584D02*
X115666669Y-80311441D01*
X115666669Y-80311441D02*
X115761907Y-80406680D01*
X115761907Y-80406680D02*
X115904764Y-80454299D01*
X115904764Y-80454299D02*
X116000002Y-80454299D01*
X114666669Y-79454299D02*
X115142859Y-79454299D01*
X115142859Y-79454299D02*
X115190478Y-79930489D01*
X115190478Y-79930489D02*
X115142859Y-79882870D01*
X115142859Y-79882870D02*
X115047621Y-79835251D01*
X115047621Y-79835251D02*
X114809526Y-79835251D01*
X114809526Y-79835251D02*
X114714288Y-79882870D01*
X114714288Y-79882870D02*
X114666669Y-79930489D01*
X114666669Y-79930489D02*
X114619050Y-80025727D01*
X114619050Y-80025727D02*
X114619050Y-80263822D01*
X114619050Y-80263822D02*
X114666669Y-80359060D01*
X114666669Y-80359060D02*
X114714288Y-80406680D01*
X114714288Y-80406680D02*
X114809526Y-80454299D01*
X114809526Y-80454299D02*
X115047621Y-80454299D01*
X115047621Y-80454299D02*
X115142859Y-80406680D01*
X115142859Y-80406680D02*
X115190478Y-80359060D01*
X113428573Y-79930489D02*
X112666669Y-79930489D01*
X112666669Y-80216203D02*
X113428573Y-80216203D01*
X111095240Y-79930489D02*
X111428573Y-79930489D01*
X111428573Y-80454299D02*
X111428573Y-79454299D01*
X111428573Y-79454299D02*
X110952383Y-79454299D01*
X110142859Y-80454299D02*
X110142859Y-79930489D01*
X110142859Y-79930489D02*
X110190478Y-79835251D01*
X110190478Y-79835251D02*
X110285716Y-79787632D01*
X110285716Y-79787632D02*
X110476192Y-79787632D01*
X110476192Y-79787632D02*
X110571430Y-79835251D01*
X110142859Y-80406680D02*
X110238097Y-80454299D01*
X110238097Y-80454299D02*
X110476192Y-80454299D01*
X110476192Y-80454299D02*
X110571430Y-80406680D01*
X110571430Y-80406680D02*
X110619049Y-80311441D01*
X110619049Y-80311441D02*
X110619049Y-80216203D01*
X110619049Y-80216203D02*
X110571430Y-80120965D01*
X110571430Y-80120965D02*
X110476192Y-80073346D01*
X110476192Y-80073346D02*
X110238097Y-80073346D01*
X110238097Y-80073346D02*
X110142859Y-80025727D01*
X109666668Y-80454299D02*
X109666668Y-79787632D01*
X109666668Y-79978108D02*
X109619049Y-79882870D01*
X109619049Y-79882870D02*
X109571430Y-79835251D01*
X109571430Y-79835251D02*
X109476192Y-79787632D01*
X109476192Y-79787632D02*
X109380954Y-79787632D01*
X108619049Y-80454299D02*
X108619049Y-79930489D01*
X108619049Y-79930489D02*
X108666668Y-79835251D01*
X108666668Y-79835251D02*
X108761906Y-79787632D01*
X108761906Y-79787632D02*
X108952382Y-79787632D01*
X108952382Y-79787632D02*
X109047620Y-79835251D01*
X108619049Y-80406680D02*
X108714287Y-80454299D01*
X108714287Y-80454299D02*
X108952382Y-80454299D01*
X108952382Y-80454299D02*
X109047620Y-80406680D01*
X109047620Y-80406680D02*
X109095239Y-80311441D01*
X109095239Y-80311441D02*
X109095239Y-80216203D01*
X109095239Y-80216203D02*
X109047620Y-80120965D01*
X109047620Y-80120965D02*
X108952382Y-80073346D01*
X108952382Y-80073346D02*
X108714287Y-80073346D01*
X108714287Y-80073346D02*
X108619049Y-80025727D01*
X107714287Y-80454299D02*
X107714287Y-79454299D01*
X107714287Y-80406680D02*
X107809525Y-80454299D01*
X107809525Y-80454299D02*
X108000001Y-80454299D01*
X108000001Y-80454299D02*
X108095239Y-80406680D01*
X108095239Y-80406680D02*
X108142858Y-80359060D01*
X108142858Y-80359060D02*
X108190477Y-80263822D01*
X108190477Y-80263822D02*
X108190477Y-79978108D01*
X108190477Y-79978108D02*
X108142858Y-79882870D01*
X108142858Y-79882870D02*
X108095239Y-79835251D01*
X108095239Y-79835251D02*
X108000001Y-79787632D01*
X108000001Y-79787632D02*
X107809525Y-79787632D01*
X107809525Y-79787632D02*
X107714287Y-79835251D01*
X106809525Y-80454299D02*
X106809525Y-79930489D01*
X106809525Y-79930489D02*
X106857144Y-79835251D01*
X106857144Y-79835251D02*
X106952382Y-79787632D01*
X106952382Y-79787632D02*
X107142858Y-79787632D01*
X107142858Y-79787632D02*
X107238096Y-79835251D01*
X106809525Y-80406680D02*
X106904763Y-80454299D01*
X106904763Y-80454299D02*
X107142858Y-80454299D01*
X107142858Y-80454299D02*
X107238096Y-80406680D01*
X107238096Y-80406680D02*
X107285715Y-80311441D01*
X107285715Y-80311441D02*
X107285715Y-80216203D01*
X107285715Y-80216203D02*
X107238096Y-80120965D01*
X107238096Y-80120965D02*
X107142858Y-80073346D01*
X107142858Y-80073346D02*
X106904763Y-80073346D01*
X106904763Y-80073346D02*
X106809525Y-80025727D01*
X106428572Y-79787632D02*
X106190477Y-80454299D01*
X105952382Y-79787632D02*
X106190477Y-80454299D01*
X106190477Y-80454299D02*
X106285715Y-80692394D01*
X106285715Y-80692394D02*
X106333334Y-80740013D01*
X106333334Y-80740013D02*
X106428572Y-80787632D01*
X104380953Y-80406680D02*
X104476191Y-80454299D01*
X104476191Y-80454299D02*
X104666667Y-80454299D01*
X104666667Y-80454299D02*
X104761905Y-80406680D01*
X104761905Y-80406680D02*
X104809524Y-80359060D01*
X104809524Y-80359060D02*
X104857143Y-80263822D01*
X104857143Y-80263822D02*
X104857143Y-79978108D01*
X104857143Y-79978108D02*
X104809524Y-79882870D01*
X104809524Y-79882870D02*
X104761905Y-79835251D01*
X104761905Y-79835251D02*
X104666667Y-79787632D01*
X104666667Y-79787632D02*
X104476191Y-79787632D01*
X104476191Y-79787632D02*
X104380953Y-79835251D01*
X103523810Y-79787632D02*
X103523810Y-80454299D01*
X103952381Y-79787632D02*
X103952381Y-80311441D01*
X103952381Y-80311441D02*
X103904762Y-80406680D01*
X103904762Y-80406680D02*
X103809524Y-80454299D01*
X103809524Y-80454299D02*
X103666667Y-80454299D01*
X103666667Y-80454299D02*
X103571429Y-80406680D01*
X103571429Y-80406680D02*
X103523810Y-80359060D01*
X103047619Y-79787632D02*
X103047619Y-80787632D01*
X103047619Y-79835251D02*
X102952381Y-79787632D01*
X102952381Y-79787632D02*
X102761905Y-79787632D01*
X102761905Y-79787632D02*
X102666667Y-79835251D01*
X102666667Y-79835251D02*
X102619048Y-79882870D01*
X102619048Y-79882870D02*
X102571429Y-79978108D01*
X102571429Y-79978108D02*
X102571429Y-80263822D01*
X102571429Y-80263822D02*
X102619048Y-80359060D01*
X102619048Y-80359060D02*
X102666667Y-80406680D01*
X102666667Y-80406680D02*
X102761905Y-80454299D01*
X102761905Y-80454299D02*
X102952381Y-80454299D01*
X102952381Y-80454299D02*
X103047619Y-80406680D01*
X101095238Y-80835251D02*
X101142857Y-80787632D01*
X101142857Y-80787632D02*
X101238095Y-80644775D01*
X101238095Y-80644775D02*
X101285714Y-80549537D01*
X101285714Y-80549537D02*
X101333333Y-80406680D01*
X101333333Y-80406680D02*
X101380952Y-80168584D01*
X101380952Y-80168584D02*
X101380952Y-79978108D01*
X101380952Y-79978108D02*
X101333333Y-79740013D01*
X101333333Y-79740013D02*
X101285714Y-79597156D01*
X101285714Y-79597156D02*
X101238095Y-79501918D01*
X101238095Y-79501918D02*
X101142857Y-79359060D01*
X101142857Y-79359060D02*
X101095238Y-79311441D01*
X100761904Y-80406680D02*
X100619047Y-80454299D01*
X100619047Y-80454299D02*
X100380952Y-80454299D01*
X100380952Y-80454299D02*
X100285714Y-80406680D01*
X100285714Y-80406680D02*
X100238095Y-80359060D01*
X100238095Y-80359060D02*
X100190476Y-80263822D01*
X100190476Y-80263822D02*
X100190476Y-80168584D01*
X100190476Y-80168584D02*
X100238095Y-80073346D01*
X100238095Y-80073346D02*
X100285714Y-80025727D01*
X100285714Y-80025727D02*
X100380952Y-79978108D01*
X100380952Y-79978108D02*
X100571428Y-79930489D01*
X100571428Y-79930489D02*
X100666666Y-79882870D01*
X100666666Y-79882870D02*
X100714285Y-79835251D01*
X100714285Y-79835251D02*
X100761904Y-79740013D01*
X100761904Y-79740013D02*
X100761904Y-79644775D01*
X100761904Y-79644775D02*
X100714285Y-79549537D01*
X100714285Y-79549537D02*
X100666666Y-79501918D01*
X100666666Y-79501918D02*
X100571428Y-79454299D01*
X100571428Y-79454299D02*
X100333333Y-79454299D01*
X100333333Y-79454299D02*
X100190476Y-79501918D01*
X99761904Y-80454299D02*
X99761904Y-79454299D01*
X99761904Y-79454299D02*
X99428571Y-80168584D01*
X99428571Y-80168584D02*
X99095238Y-79454299D01*
X99095238Y-79454299D02*
X99095238Y-80454299D01*
X98666666Y-80168584D02*
X98190476Y-80168584D01*
X98761904Y-80454299D02*
X98428571Y-79454299D01*
X98428571Y-79454299D02*
X98095238Y-80454299D01*
X97857142Y-80835251D02*
X97809523Y-80787632D01*
X97809523Y-80787632D02*
X97714285Y-80644775D01*
X97714285Y-80644775D02*
X97666666Y-80549537D01*
X97666666Y-80549537D02*
X97619047Y-80406680D01*
X97619047Y-80406680D02*
X97571428Y-80168584D01*
X97571428Y-80168584D02*
X97571428Y-79978108D01*
X97571428Y-79978108D02*
X97619047Y-79740013D01*
X97619047Y-79740013D02*
X97666666Y-79597156D01*
X97666666Y-79597156D02*
X97714285Y-79501918D01*
X97714285Y-79501918D02*
X97809523Y-79359060D01*
X97809523Y-79359060D02*
X97857142Y-79311441D01*
X97095237Y-80359060D02*
X97047618Y-80406680D01*
X97047618Y-80406680D02*
X97095237Y-80454299D01*
X97095237Y-80454299D02*
X97142856Y-80406680D01*
X97142856Y-80406680D02*
X97095237Y-80359060D01*
X97095237Y-80359060D02*
X97095237Y-80454299D01*
X94523809Y-80359060D02*
X94571428Y-80406680D01*
X94571428Y-80406680D02*
X94714285Y-80454299D01*
X94714285Y-80454299D02*
X94809523Y-80454299D01*
X94809523Y-80454299D02*
X94952380Y-80406680D01*
X94952380Y-80406680D02*
X95047618Y-80311441D01*
X95047618Y-80311441D02*
X95095237Y-80216203D01*
X95095237Y-80216203D02*
X95142856Y-80025727D01*
X95142856Y-80025727D02*
X95142856Y-79882870D01*
X95142856Y-79882870D02*
X95095237Y-79692394D01*
X95095237Y-79692394D02*
X95047618Y-79597156D01*
X95047618Y-79597156D02*
X94952380Y-79501918D01*
X94952380Y-79501918D02*
X94809523Y-79454299D01*
X94809523Y-79454299D02*
X94714285Y-79454299D01*
X94714285Y-79454299D02*
X94571428Y-79501918D01*
X94571428Y-79501918D02*
X94523809Y-79549537D01*
X93952380Y-80454299D02*
X94047618Y-80406680D01*
X94047618Y-80406680D02*
X94095237Y-80311441D01*
X94095237Y-80311441D02*
X94095237Y-79454299D01*
X93190475Y-80406680D02*
X93285713Y-80454299D01*
X93285713Y-80454299D02*
X93476189Y-80454299D01*
X93476189Y-80454299D02*
X93571427Y-80406680D01*
X93571427Y-80406680D02*
X93619046Y-80311441D01*
X93619046Y-80311441D02*
X93619046Y-79930489D01*
X93619046Y-79930489D02*
X93571427Y-79835251D01*
X93571427Y-79835251D02*
X93476189Y-79787632D01*
X93476189Y-79787632D02*
X93285713Y-79787632D01*
X93285713Y-79787632D02*
X93190475Y-79835251D01*
X93190475Y-79835251D02*
X93142856Y-79930489D01*
X93142856Y-79930489D02*
X93142856Y-80025727D01*
X93142856Y-80025727D02*
X93619046Y-80120965D01*
X92285713Y-80454299D02*
X92285713Y-79930489D01*
X92285713Y-79930489D02*
X92333332Y-79835251D01*
X92333332Y-79835251D02*
X92428570Y-79787632D01*
X92428570Y-79787632D02*
X92619046Y-79787632D01*
X92619046Y-79787632D02*
X92714284Y-79835251D01*
X92285713Y-80406680D02*
X92380951Y-80454299D01*
X92380951Y-80454299D02*
X92619046Y-80454299D01*
X92619046Y-80454299D02*
X92714284Y-80406680D01*
X92714284Y-80406680D02*
X92761903Y-80311441D01*
X92761903Y-80311441D02*
X92761903Y-80216203D01*
X92761903Y-80216203D02*
X92714284Y-80120965D01*
X92714284Y-80120965D02*
X92619046Y-80073346D01*
X92619046Y-80073346D02*
X92380951Y-80073346D01*
X92380951Y-80073346D02*
X92285713Y-80025727D01*
X91809522Y-79787632D02*
X91809522Y-80454299D01*
X91809522Y-79882870D02*
X91761903Y-79835251D01*
X91761903Y-79835251D02*
X91666665Y-79787632D01*
X91666665Y-79787632D02*
X91523808Y-79787632D01*
X91523808Y-79787632D02*
X91428570Y-79835251D01*
X91428570Y-79835251D02*
X91380951Y-79930489D01*
X91380951Y-79930489D02*
X91380951Y-80454299D01*
X89714284Y-80454299D02*
X89714284Y-79930489D01*
X89714284Y-79930489D02*
X89761903Y-79835251D01*
X89761903Y-79835251D02*
X89857141Y-79787632D01*
X89857141Y-79787632D02*
X90047617Y-79787632D01*
X90047617Y-79787632D02*
X90142855Y-79835251D01*
X89714284Y-80406680D02*
X89809522Y-80454299D01*
X89809522Y-80454299D02*
X90047617Y-80454299D01*
X90047617Y-80454299D02*
X90142855Y-80406680D01*
X90142855Y-80406680D02*
X90190474Y-80311441D01*
X90190474Y-80311441D02*
X90190474Y-80216203D01*
X90190474Y-80216203D02*
X90142855Y-80120965D01*
X90142855Y-80120965D02*
X90047617Y-80073346D01*
X90047617Y-80073346D02*
X89809522Y-80073346D01*
X89809522Y-80073346D02*
X89714284Y-80025727D01*
X89095236Y-80454299D02*
X89190474Y-80406680D01*
X89190474Y-80406680D02*
X89238093Y-80311441D01*
X89238093Y-80311441D02*
X89238093Y-79454299D01*
X88571426Y-80454299D02*
X88666664Y-80406680D01*
X88666664Y-80406680D02*
X88714283Y-80311441D01*
X88714283Y-80311441D02*
X88714283Y-79454299D01*
X87571425Y-79787632D02*
X87190473Y-79787632D01*
X87428568Y-80454299D02*
X87428568Y-79597156D01*
X87428568Y-79597156D02*
X87380949Y-79501918D01*
X87380949Y-79501918D02*
X87285711Y-79454299D01*
X87285711Y-79454299D02*
X87190473Y-79454299D01*
X86714282Y-80454299D02*
X86809520Y-80406680D01*
X86809520Y-80406680D02*
X86857139Y-80311441D01*
X86857139Y-80311441D02*
X86857139Y-79454299D01*
X85904758Y-79787632D02*
X85904758Y-80454299D01*
X86333329Y-79787632D02*
X86333329Y-80311441D01*
X86333329Y-80311441D02*
X86285710Y-80406680D01*
X86285710Y-80406680D02*
X86190472Y-80454299D01*
X86190472Y-80454299D02*
X86047615Y-80454299D01*
X86047615Y-80454299D02*
X85952377Y-80406680D01*
X85952377Y-80406680D02*
X85904758Y-80359060D01*
X85523805Y-80454299D02*
X84999996Y-79787632D01*
X85523805Y-79787632D02*
X84999996Y-80454299D01*
X116214288Y-82054299D02*
X116309526Y-82006680D01*
X116309526Y-82006680D02*
X116357145Y-81959060D01*
X116357145Y-81959060D02*
X116404764Y-81863822D01*
X116404764Y-81863822D02*
X116404764Y-81578108D01*
X116404764Y-81578108D02*
X116357145Y-81482870D01*
X116357145Y-81482870D02*
X116309526Y-81435251D01*
X116309526Y-81435251D02*
X116214288Y-81387632D01*
X116214288Y-81387632D02*
X116071431Y-81387632D01*
X116071431Y-81387632D02*
X115976193Y-81435251D01*
X115976193Y-81435251D02*
X115928574Y-81482870D01*
X115928574Y-81482870D02*
X115880955Y-81578108D01*
X115880955Y-81578108D02*
X115880955Y-81863822D01*
X115880955Y-81863822D02*
X115928574Y-81959060D01*
X115928574Y-81959060D02*
X115976193Y-82006680D01*
X115976193Y-82006680D02*
X116071431Y-82054299D01*
X116071431Y-82054299D02*
X116214288Y-82054299D01*
X115595240Y-81387632D02*
X115214288Y-81387632D01*
X115452383Y-82054299D02*
X115452383Y-81197156D01*
X115452383Y-81197156D02*
X115404764Y-81101918D01*
X115404764Y-81101918D02*
X115309526Y-81054299D01*
X115309526Y-81054299D02*
X115214288Y-81054299D01*
X115023811Y-81387632D02*
X114642859Y-81387632D01*
X114880954Y-82054299D02*
X114880954Y-81197156D01*
X114880954Y-81197156D02*
X114833335Y-81101918D01*
X114833335Y-81101918D02*
X114738097Y-81054299D01*
X114738097Y-81054299D02*
X114642859Y-81054299D01*
X113690477Y-81387632D02*
X113309525Y-81387632D01*
X113547620Y-81054299D02*
X113547620Y-81911441D01*
X113547620Y-81911441D02*
X113500001Y-82006680D01*
X113500001Y-82006680D02*
X113404763Y-82054299D01*
X113404763Y-82054299D02*
X113309525Y-82054299D01*
X112976191Y-82054299D02*
X112976191Y-81054299D01*
X112547620Y-82054299D02*
X112547620Y-81530489D01*
X112547620Y-81530489D02*
X112595239Y-81435251D01*
X112595239Y-81435251D02*
X112690477Y-81387632D01*
X112690477Y-81387632D02*
X112833334Y-81387632D01*
X112833334Y-81387632D02*
X112928572Y-81435251D01*
X112928572Y-81435251D02*
X112976191Y-81482870D01*
X111690477Y-82006680D02*
X111785715Y-82054299D01*
X111785715Y-82054299D02*
X111976191Y-82054299D01*
X111976191Y-82054299D02*
X112071429Y-82006680D01*
X112071429Y-82006680D02*
X112119048Y-81911441D01*
X112119048Y-81911441D02*
X112119048Y-81530489D01*
X112119048Y-81530489D02*
X112071429Y-81435251D01*
X112071429Y-81435251D02*
X111976191Y-81387632D01*
X111976191Y-81387632D02*
X111785715Y-81387632D01*
X111785715Y-81387632D02*
X111690477Y-81435251D01*
X111690477Y-81435251D02*
X111642858Y-81530489D01*
X111642858Y-81530489D02*
X111642858Y-81625727D01*
X111642858Y-81625727D02*
X112119048Y-81720965D01*
X110452381Y-81387632D02*
X110452381Y-82387632D01*
X110452381Y-81435251D02*
X110357143Y-81387632D01*
X110357143Y-81387632D02*
X110166667Y-81387632D01*
X110166667Y-81387632D02*
X110071429Y-81435251D01*
X110071429Y-81435251D02*
X110023810Y-81482870D01*
X110023810Y-81482870D02*
X109976191Y-81578108D01*
X109976191Y-81578108D02*
X109976191Y-81863822D01*
X109976191Y-81863822D02*
X110023810Y-81959060D01*
X110023810Y-81959060D02*
X110071429Y-82006680D01*
X110071429Y-82006680D02*
X110166667Y-82054299D01*
X110166667Y-82054299D02*
X110357143Y-82054299D01*
X110357143Y-82054299D02*
X110452381Y-82006680D01*
X109547619Y-82054299D02*
X109547619Y-81387632D01*
X109547619Y-81578108D02*
X109500000Y-81482870D01*
X109500000Y-81482870D02*
X109452381Y-81435251D01*
X109452381Y-81435251D02*
X109357143Y-81387632D01*
X109357143Y-81387632D02*
X109261905Y-81387632D01*
X108547619Y-82006680D02*
X108642857Y-82054299D01*
X108642857Y-82054299D02*
X108833333Y-82054299D01*
X108833333Y-82054299D02*
X108928571Y-82006680D01*
X108928571Y-82006680D02*
X108976190Y-81911441D01*
X108976190Y-81911441D02*
X108976190Y-81530489D01*
X108976190Y-81530489D02*
X108928571Y-81435251D01*
X108928571Y-81435251D02*
X108833333Y-81387632D01*
X108833333Y-81387632D02*
X108642857Y-81387632D01*
X108642857Y-81387632D02*
X108547619Y-81435251D01*
X108547619Y-81435251D02*
X108500000Y-81530489D01*
X108500000Y-81530489D02*
X108500000Y-81625727D01*
X108500000Y-81625727D02*
X108976190Y-81720965D01*
X107642857Y-82054299D02*
X107642857Y-81530489D01*
X107642857Y-81530489D02*
X107690476Y-81435251D01*
X107690476Y-81435251D02*
X107785714Y-81387632D01*
X107785714Y-81387632D02*
X107976190Y-81387632D01*
X107976190Y-81387632D02*
X108071428Y-81435251D01*
X107642857Y-82006680D02*
X107738095Y-82054299D01*
X107738095Y-82054299D02*
X107976190Y-82054299D01*
X107976190Y-82054299D02*
X108071428Y-82006680D01*
X108071428Y-82006680D02*
X108119047Y-81911441D01*
X108119047Y-81911441D02*
X108119047Y-81816203D01*
X108119047Y-81816203D02*
X108071428Y-81720965D01*
X108071428Y-81720965D02*
X107976190Y-81673346D01*
X107976190Y-81673346D02*
X107738095Y-81673346D01*
X107738095Y-81673346D02*
X107642857Y-81625727D01*
X107166666Y-82054299D02*
X107166666Y-81387632D01*
X107166666Y-81482870D02*
X107119047Y-81435251D01*
X107119047Y-81435251D02*
X107023809Y-81387632D01*
X107023809Y-81387632D02*
X106880952Y-81387632D01*
X106880952Y-81387632D02*
X106785714Y-81435251D01*
X106785714Y-81435251D02*
X106738095Y-81530489D01*
X106738095Y-81530489D02*
X106738095Y-82054299D01*
X106738095Y-81530489D02*
X106690476Y-81435251D01*
X106690476Y-81435251D02*
X106595238Y-81387632D01*
X106595238Y-81387632D02*
X106452381Y-81387632D01*
X106452381Y-81387632D02*
X106357142Y-81435251D01*
X106357142Y-81435251D02*
X106309523Y-81530489D01*
X106309523Y-81530489D02*
X106309523Y-82054299D01*
X105833333Y-81387632D02*
X105833333Y-82387632D01*
X105833333Y-81435251D02*
X105738095Y-81387632D01*
X105738095Y-81387632D02*
X105547619Y-81387632D01*
X105547619Y-81387632D02*
X105452381Y-81435251D01*
X105452381Y-81435251D02*
X105404762Y-81482870D01*
X105404762Y-81482870D02*
X105357143Y-81578108D01*
X105357143Y-81578108D02*
X105357143Y-81863822D01*
X105357143Y-81863822D02*
X105404762Y-81959060D01*
X105404762Y-81959060D02*
X105452381Y-82006680D01*
X105452381Y-82006680D02*
X105547619Y-82054299D01*
X105547619Y-82054299D02*
X105738095Y-82054299D01*
X105738095Y-82054299D02*
X105833333Y-82006680D01*
X103738095Y-81387632D02*
X103738095Y-82197156D01*
X103738095Y-82197156D02*
X103785714Y-82292394D01*
X103785714Y-82292394D02*
X103833333Y-82340013D01*
X103833333Y-82340013D02*
X103928571Y-82387632D01*
X103928571Y-82387632D02*
X104071428Y-82387632D01*
X104071428Y-82387632D02*
X104166666Y-82340013D01*
X103738095Y-82006680D02*
X103833333Y-82054299D01*
X103833333Y-82054299D02*
X104023809Y-82054299D01*
X104023809Y-82054299D02*
X104119047Y-82006680D01*
X104119047Y-82006680D02*
X104166666Y-81959060D01*
X104166666Y-81959060D02*
X104214285Y-81863822D01*
X104214285Y-81863822D02*
X104214285Y-81578108D01*
X104214285Y-81578108D02*
X104166666Y-81482870D01*
X104166666Y-81482870D02*
X104119047Y-81435251D01*
X104119047Y-81435251D02*
X104023809Y-81387632D01*
X104023809Y-81387632D02*
X103833333Y-81387632D01*
X103833333Y-81387632D02*
X103738095Y-81435251D01*
X102833333Y-81387632D02*
X102833333Y-82054299D01*
X103261904Y-81387632D02*
X103261904Y-81911441D01*
X103261904Y-81911441D02*
X103214285Y-82006680D01*
X103214285Y-82006680D02*
X103119047Y-82054299D01*
X103119047Y-82054299D02*
X102976190Y-82054299D01*
X102976190Y-82054299D02*
X102880952Y-82006680D01*
X102880952Y-82006680D02*
X102833333Y-81959060D01*
X101928571Y-82054299D02*
X101928571Y-81530489D01*
X101928571Y-81530489D02*
X101976190Y-81435251D01*
X101976190Y-81435251D02*
X102071428Y-81387632D01*
X102071428Y-81387632D02*
X102261904Y-81387632D01*
X102261904Y-81387632D02*
X102357142Y-81435251D01*
X101928571Y-82006680D02*
X102023809Y-82054299D01*
X102023809Y-82054299D02*
X102261904Y-82054299D01*
X102261904Y-82054299D02*
X102357142Y-82006680D01*
X102357142Y-82006680D02*
X102404761Y-81911441D01*
X102404761Y-81911441D02*
X102404761Y-81816203D01*
X102404761Y-81816203D02*
X102357142Y-81720965D01*
X102357142Y-81720965D02*
X102261904Y-81673346D01*
X102261904Y-81673346D02*
X102023809Y-81673346D01*
X102023809Y-81673346D02*
X101928571Y-81625727D01*
X101452380Y-82054299D02*
X101452380Y-81387632D01*
X101452380Y-81578108D02*
X101404761Y-81482870D01*
X101404761Y-81482870D02*
X101357142Y-81435251D01*
X101357142Y-81435251D02*
X101261904Y-81387632D01*
X101261904Y-81387632D02*
X101166666Y-81387632D01*
X100404761Y-82054299D02*
X100404761Y-81054299D01*
X100404761Y-82006680D02*
X100499999Y-82054299D01*
X100499999Y-82054299D02*
X100690475Y-82054299D01*
X100690475Y-82054299D02*
X100785713Y-82006680D01*
X100785713Y-82006680D02*
X100833332Y-81959060D01*
X100833332Y-81959060D02*
X100880951Y-81863822D01*
X100880951Y-81863822D02*
X100880951Y-81578108D01*
X100880951Y-81578108D02*
X100833332Y-81482870D01*
X100833332Y-81482870D02*
X100785713Y-81435251D01*
X100785713Y-81435251D02*
X100690475Y-81387632D01*
X100690475Y-81387632D02*
X100499999Y-81387632D01*
X100499999Y-81387632D02*
X100404761Y-81435251D01*
X98738094Y-82054299D02*
X98738094Y-81530489D01*
X98738094Y-81530489D02*
X98785713Y-81435251D01*
X98785713Y-81435251D02*
X98880951Y-81387632D01*
X98880951Y-81387632D02*
X99071427Y-81387632D01*
X99071427Y-81387632D02*
X99166665Y-81435251D01*
X98738094Y-82006680D02*
X98833332Y-82054299D01*
X98833332Y-82054299D02*
X99071427Y-82054299D01*
X99071427Y-82054299D02*
X99166665Y-82006680D01*
X99166665Y-82006680D02*
X99214284Y-81911441D01*
X99214284Y-81911441D02*
X99214284Y-81816203D01*
X99214284Y-81816203D02*
X99166665Y-81720965D01*
X99166665Y-81720965D02*
X99071427Y-81673346D01*
X99071427Y-81673346D02*
X98833332Y-81673346D01*
X98833332Y-81673346D02*
X98738094Y-81625727D01*
X98261903Y-82054299D02*
X98261903Y-81387632D01*
X98261903Y-81578108D02*
X98214284Y-81482870D01*
X98214284Y-81482870D02*
X98166665Y-81435251D01*
X98166665Y-81435251D02*
X98071427Y-81387632D01*
X98071427Y-81387632D02*
X97976189Y-81387632D01*
X97261903Y-82006680D02*
X97357141Y-82054299D01*
X97357141Y-82054299D02*
X97547617Y-82054299D01*
X97547617Y-82054299D02*
X97642855Y-82006680D01*
X97642855Y-82006680D02*
X97690474Y-81911441D01*
X97690474Y-81911441D02*
X97690474Y-81530489D01*
X97690474Y-81530489D02*
X97642855Y-81435251D01*
X97642855Y-81435251D02*
X97547617Y-81387632D01*
X97547617Y-81387632D02*
X97357141Y-81387632D01*
X97357141Y-81387632D02*
X97261903Y-81435251D01*
X97261903Y-81435251D02*
X97214284Y-81530489D01*
X97214284Y-81530489D02*
X97214284Y-81625727D01*
X97214284Y-81625727D02*
X97690474Y-81720965D01*
X96357141Y-82054299D02*
X96357141Y-81530489D01*
X96357141Y-81530489D02*
X96404760Y-81435251D01*
X96404760Y-81435251D02*
X96499998Y-81387632D01*
X96499998Y-81387632D02*
X96690474Y-81387632D01*
X96690474Y-81387632D02*
X96785712Y-81435251D01*
X96357141Y-82006680D02*
X96452379Y-82054299D01*
X96452379Y-82054299D02*
X96690474Y-82054299D01*
X96690474Y-82054299D02*
X96785712Y-82006680D01*
X96785712Y-82006680D02*
X96833331Y-81911441D01*
X96833331Y-81911441D02*
X96833331Y-81816203D01*
X96833331Y-81816203D02*
X96785712Y-81720965D01*
X96785712Y-81720965D02*
X96690474Y-81673346D01*
X96690474Y-81673346D02*
X96452379Y-81673346D01*
X96452379Y-81673346D02*
X96357141Y-81625727D01*
X94976188Y-82054299D02*
X95071426Y-82006680D01*
X95071426Y-82006680D02*
X95119045Y-81959060D01*
X95119045Y-81959060D02*
X95166664Y-81863822D01*
X95166664Y-81863822D02*
X95166664Y-81578108D01*
X95166664Y-81578108D02*
X95119045Y-81482870D01*
X95119045Y-81482870D02*
X95071426Y-81435251D01*
X95071426Y-81435251D02*
X94976188Y-81387632D01*
X94976188Y-81387632D02*
X94833331Y-81387632D01*
X94833331Y-81387632D02*
X94738093Y-81435251D01*
X94738093Y-81435251D02*
X94690474Y-81482870D01*
X94690474Y-81482870D02*
X94642855Y-81578108D01*
X94642855Y-81578108D02*
X94642855Y-81863822D01*
X94642855Y-81863822D02*
X94690474Y-81959060D01*
X94690474Y-81959060D02*
X94738093Y-82006680D01*
X94738093Y-82006680D02*
X94833331Y-82054299D01*
X94833331Y-82054299D02*
X94976188Y-82054299D01*
X94214283Y-81387632D02*
X94214283Y-82054299D01*
X94214283Y-81482870D02*
X94166664Y-81435251D01*
X94166664Y-81435251D02*
X94071426Y-81387632D01*
X94071426Y-81387632D02*
X93928569Y-81387632D01*
X93928569Y-81387632D02*
X93833331Y-81435251D01*
X93833331Y-81435251D02*
X93785712Y-81530489D01*
X93785712Y-81530489D02*
X93785712Y-82054299D01*
X92547616Y-82054299D02*
X92547616Y-81054299D01*
X92547616Y-81435251D02*
X92452378Y-81387632D01*
X92452378Y-81387632D02*
X92261902Y-81387632D01*
X92261902Y-81387632D02*
X92166664Y-81435251D01*
X92166664Y-81435251D02*
X92119045Y-81482870D01*
X92119045Y-81482870D02*
X92071426Y-81578108D01*
X92071426Y-81578108D02*
X92071426Y-81863822D01*
X92071426Y-81863822D02*
X92119045Y-81959060D01*
X92119045Y-81959060D02*
X92166664Y-82006680D01*
X92166664Y-82006680D02*
X92261902Y-82054299D01*
X92261902Y-82054299D02*
X92452378Y-82054299D01*
X92452378Y-82054299D02*
X92547616Y-82006680D01*
X91499997Y-82054299D02*
X91595235Y-82006680D01*
X91595235Y-82006680D02*
X91642854Y-81959060D01*
X91642854Y-81959060D02*
X91690473Y-81863822D01*
X91690473Y-81863822D02*
X91690473Y-81578108D01*
X91690473Y-81578108D02*
X91642854Y-81482870D01*
X91642854Y-81482870D02*
X91595235Y-81435251D01*
X91595235Y-81435251D02*
X91499997Y-81387632D01*
X91499997Y-81387632D02*
X91357140Y-81387632D01*
X91357140Y-81387632D02*
X91261902Y-81435251D01*
X91261902Y-81435251D02*
X91214283Y-81482870D01*
X91214283Y-81482870D02*
X91166664Y-81578108D01*
X91166664Y-81578108D02*
X91166664Y-81863822D01*
X91166664Y-81863822D02*
X91214283Y-81959060D01*
X91214283Y-81959060D02*
X91261902Y-82006680D01*
X91261902Y-82006680D02*
X91357140Y-82054299D01*
X91357140Y-82054299D02*
X91499997Y-82054299D01*
X90880949Y-81387632D02*
X90499997Y-81387632D01*
X90738092Y-81054299D02*
X90738092Y-81911441D01*
X90738092Y-81911441D02*
X90690473Y-82006680D01*
X90690473Y-82006680D02*
X90595235Y-82054299D01*
X90595235Y-82054299D02*
X90499997Y-82054299D01*
X90166663Y-82054299D02*
X90166663Y-81054299D01*
X89738092Y-82054299D02*
X89738092Y-81530489D01*
X89738092Y-81530489D02*
X89785711Y-81435251D01*
X89785711Y-81435251D02*
X89880949Y-81387632D01*
X89880949Y-81387632D02*
X90023806Y-81387632D01*
X90023806Y-81387632D02*
X90119044Y-81435251D01*
X90119044Y-81435251D02*
X90166663Y-81482870D01*
X88547615Y-82006680D02*
X88452377Y-82054299D01*
X88452377Y-82054299D02*
X88261901Y-82054299D01*
X88261901Y-82054299D02*
X88166663Y-82006680D01*
X88166663Y-82006680D02*
X88119044Y-81911441D01*
X88119044Y-81911441D02*
X88119044Y-81863822D01*
X88119044Y-81863822D02*
X88166663Y-81768584D01*
X88166663Y-81768584D02*
X88261901Y-81720965D01*
X88261901Y-81720965D02*
X88404758Y-81720965D01*
X88404758Y-81720965D02*
X88499996Y-81673346D01*
X88499996Y-81673346D02*
X88547615Y-81578108D01*
X88547615Y-81578108D02*
X88547615Y-81530489D01*
X88547615Y-81530489D02*
X88499996Y-81435251D01*
X88499996Y-81435251D02*
X88404758Y-81387632D01*
X88404758Y-81387632D02*
X88261901Y-81387632D01*
X88261901Y-81387632D02*
X88166663Y-81435251D01*
X87690472Y-82054299D02*
X87690472Y-81387632D01*
X87690472Y-81054299D02*
X87738091Y-81101918D01*
X87738091Y-81101918D02*
X87690472Y-81149537D01*
X87690472Y-81149537D02*
X87642853Y-81101918D01*
X87642853Y-81101918D02*
X87690472Y-81054299D01*
X87690472Y-81054299D02*
X87690472Y-81149537D01*
X86785711Y-82054299D02*
X86785711Y-81054299D01*
X86785711Y-82006680D02*
X86880949Y-82054299D01*
X86880949Y-82054299D02*
X87071425Y-82054299D01*
X87071425Y-82054299D02*
X87166663Y-82006680D01*
X87166663Y-82006680D02*
X87214282Y-81959060D01*
X87214282Y-81959060D02*
X87261901Y-81863822D01*
X87261901Y-81863822D02*
X87261901Y-81578108D01*
X87261901Y-81578108D02*
X87214282Y-81482870D01*
X87214282Y-81482870D02*
X87166663Y-81435251D01*
X87166663Y-81435251D02*
X87071425Y-81387632D01*
X87071425Y-81387632D02*
X86880949Y-81387632D01*
X86880949Y-81387632D02*
X86785711Y-81435251D01*
X85928568Y-82006680D02*
X86023806Y-82054299D01*
X86023806Y-82054299D02*
X86214282Y-82054299D01*
X86214282Y-82054299D02*
X86309520Y-82006680D01*
X86309520Y-82006680D02*
X86357139Y-81911441D01*
X86357139Y-81911441D02*
X86357139Y-81530489D01*
X86357139Y-81530489D02*
X86309520Y-81435251D01*
X86309520Y-81435251D02*
X86214282Y-81387632D01*
X86214282Y-81387632D02*
X86023806Y-81387632D01*
X86023806Y-81387632D02*
X85928568Y-81435251D01*
X85928568Y-81435251D02*
X85880949Y-81530489D01*
X85880949Y-81530489D02*
X85880949Y-81625727D01*
X85880949Y-81625727D02*
X86357139Y-81720965D01*
X85499996Y-82006680D02*
X85404758Y-82054299D01*
X85404758Y-82054299D02*
X85214282Y-82054299D01*
X85214282Y-82054299D02*
X85119044Y-82006680D01*
X85119044Y-82006680D02*
X85071425Y-81911441D01*
X85071425Y-81911441D02*
X85071425Y-81863822D01*
X85071425Y-81863822D02*
X85119044Y-81768584D01*
X85119044Y-81768584D02*
X85214282Y-81720965D01*
X85214282Y-81720965D02*
X85357139Y-81720965D01*
X85357139Y-81720965D02*
X85452377Y-81673346D01*
X85452377Y-81673346D02*
X85499996Y-81578108D01*
X85499996Y-81578108D02*
X85499996Y-81530489D01*
X85499996Y-81530489D02*
X85452377Y-81435251D01*
X85452377Y-81435251D02*
X85357139Y-81387632D01*
X85357139Y-81387632D02*
X85214282Y-81387632D01*
X85214282Y-81387632D02*
X85119044Y-81435251D01*
X84642853Y-81959060D02*
X84595234Y-82006680D01*
X84595234Y-82006680D02*
X84642853Y-82054299D01*
X84642853Y-82054299D02*
X84690472Y-82006680D01*
X84690472Y-82006680D02*
X84642853Y-81959060D01*
X84642853Y-81959060D02*
X84642853Y-82054299D01*
M02*
