%TF.GenerationSoftware,KiCad,Pcbnew,10.0.6*%
%TF.CreationDate,2026-09-25T16:57:47+02:00*%
%TF.ProjectId,mie1001_daq_simple,6d696531-3030-4315-9f64-61715f73696d,E*%
%TF.SameCoordinates,Original*%
%TF.FileFunction,Paste,Top*%
%TF.FilePolarity,Positive*%
%FSLAX46Y46*%
G04 Gerber Fmt 4.6, Leading zero omitted, Abs format (unit mm)*
G04 Created by KiCad (PCBNEW 10.0.6) date 2026-09-25 16:57:47*
%MOMM*%
%LPD*%
G01*
G04 APERTURE LIST*
G04 Aperture macros list*
%AMRoundRect*
0 Rectangle with rounded corners*
0 $1 Rounding radius*
0 $2 $3 $4 $5 $6 $7 $8 $9 X,Y pos of 4 corners*
0 Add a 4 corners polygon primitive as box body*
4,1,4,$2,$3,$4,$5,$6,$7,$8,$9,$2,$3,0*
0 Add four circle primitives for the rounded corners*
1,1,$1+$1,$2,$3*
1,1,$1+$1,$4,$5*
1,1,$1+$1,$6,$7*
1,1,$1+$1,$8,$9*
0 Add four rect primitives between the rounded corners*
20,1,$1+$1,$2,$3,$4,$5,0*
20,1,$1+$1,$4,$5,$6,$7,0*
20,1,$1+$1,$6,$7,$8,$9,0*
20,1,$1+$1,$8,$9,$2,$3,0*%
G04 Aperture macros list end*
%ADD10RoundRect,0.150000X-0.825000X-0.150000X0.825000X-0.150000X0.825000X0.150000X-0.825000X0.150000X0*%
%ADD11RoundRect,0.200000X-0.200000X-0.275000X0.200000X-0.275000X0.200000X0.275000X-0.200000X0.275000X0*%
%ADD12RoundRect,0.225000X-0.250000X0.225000X-0.250000X-0.225000X0.250000X-0.225000X0.250000X0.225000X0*%
%ADD13RoundRect,0.200000X0.200000X0.275000X-0.200000X0.275000X-0.200000X-0.275000X0.200000X-0.275000X0*%
%ADD14RoundRect,0.250000X-0.475000X0.250000X-0.475000X-0.250000X0.475000X-0.250000X0.475000X0.250000X0*%
%ADD15RoundRect,0.250000X0.312500X0.625000X-0.312500X0.625000X-0.312500X-0.625000X0.312500X-0.625000X0*%
%ADD16RoundRect,0.225000X0.225000X0.250000X-0.225000X0.250000X-0.225000X-0.250000X0.225000X-0.250000X0*%
%ADD17RoundRect,0.225000X-0.225000X-0.250000X0.225000X-0.250000X0.225000X0.250000X-0.225000X0.250000X0*%
%ADD18RoundRect,0.150000X0.150000X-0.587500X0.150000X0.587500X-0.150000X0.587500X-0.150000X-0.587500X0*%
G04 APERTURE END LIST*
D10*
%TO.C,U3*%
X111925000Y-59895000D03*
X111925000Y-61165000D03*
X111925000Y-62435000D03*
X111925000Y-63705000D03*
X116875000Y-63705000D03*
X116875000Y-62435000D03*
X116875000Y-61165000D03*
X116875000Y-59895000D03*
%TD*%
D11*
%TO.C,R7*%
X108375000Y-59600000D03*
X110025000Y-59600000D03*
%TD*%
D12*
%TO.C,C7*%
X107800000Y-56025000D03*
X107800000Y-57575000D03*
%TD*%
D13*
%TO.C,R9*%
X101225000Y-63900000D03*
X99575000Y-63900000D03*
%TD*%
D11*
%TO.C,R8*%
X99575000Y-62100000D03*
X101225000Y-62100000D03*
%TD*%
%TO.C,R10*%
X100375000Y-54400000D03*
X102025000Y-54400000D03*
%TD*%
D14*
%TO.C,C4*%
X103800000Y-62050000D03*
X103800000Y-63950000D03*
%TD*%
D15*
%TO.C,R6*%
X115862500Y-56400000D03*
X112937500Y-56400000D03*
%TD*%
D10*
%TO.C,U4*%
X100525000Y-56295000D03*
X100525000Y-57565000D03*
X100525000Y-58835000D03*
X100525000Y-60105000D03*
X105475000Y-60105000D03*
X105475000Y-58835000D03*
X105475000Y-57565000D03*
X105475000Y-56295000D03*
%TD*%
D12*
%TO.C,C6*%
X106400000Y-62325000D03*
X106400000Y-63875000D03*
%TD*%
D13*
%TO.C,R5*%
X119425000Y-58100000D03*
X117775000Y-58100000D03*
%TD*%
D16*
%TO.C,C2*%
X115175000Y-58300000D03*
X113625000Y-58300000D03*
%TD*%
D12*
%TO.C,C3*%
X120000000Y-61625000D03*
X120000000Y-63175000D03*
%TD*%
D17*
%TO.C,C5*%
X103825000Y-54400000D03*
X105375000Y-54400000D03*
%TD*%
D13*
%TO.C,R11*%
X110025000Y-63700000D03*
X108375000Y-63700000D03*
%TD*%
D18*
%TO.C,CR3*%
X122050000Y-63737500D03*
X123950000Y-63737500D03*
X123000000Y-61862500D03*
%TD*%
M02*
