%TF.GenerationSoftware,KiCad,Pcbnew,10.0.6*%
%TF.CreationDate,2026-09-25T18:21:20+02:00*%
%TF.ProjectId,mie1001_daq_simple,6d696531-3030-4315-9f64-61715f73696d,E*%
%TF.SameCoordinates,Original*%
%TF.FileFunction,Soldermask,Top*%
%TF.FilePolarity,Negative*%
%FSLAX46Y46*%
G04 Gerber Fmt 4.6, Leading zero omitted, Abs format (unit mm)*
G04 Created by KiCad (PCBNEW 10.0.6) date 2026-09-25 18:21:20*
%MOMM*%
%LPD*%
G01*
G04 APERTURE LIST*
G04 Aperture macros list*
%AMRoundRect*
0 Rectangle with rounded corners*
0 $1 Rounding radius*
0 $2 $3 $4 $5 $6 $7 $8 $9 X,Y pos of 4 corners*
0 Add a 4 corners polygon primitive as box body*
4,1,4,$2,$3,$4,$5,$6,$7,$8,$9,$2,$3,0*
0 Add four circle primitives for the rounded corners*
1,1,$1+$1,$2,$3*
1,1,$1+$1,$4,$5*
1,1,$1+$1,$6,$7*
1,1,$1+$1,$8,$9*
0 Add four rect primitives between the rounded corners*
20,1,$1+$1,$2,$3,$4,$5,0*
20,1,$1+$1,$4,$5,$6,$7,0*
20,1,$1+$1,$6,$7,$8,$9,0*
20,1,$1+$1,$8,$9,$2,$3,0*%
%AMFreePoly0*
4,1,23,0.500000,-0.750000,0.000000,-0.750000,0.000000,-0.745722,-0.065263,-0.745722,-0.191342,-0.711940,-0.304381,-0.646677,-0.396677,-0.554381,-0.461940,-0.441342,-0.495722,-0.315263,-0.495722,-0.250000,-0.500000,-0.250000,-0.500000,0.250000,-0.495722,0.250000,-0.495722,0.315263,-0.461940,0.441342,-0.396677,0.554381,-0.304381,0.646677,-0.191342,0.711940,-0.065263,0.745722,0.000000,0.745722,
0.000000,0.750000,0.500000,0.750000,0.500000,-0.750000,0.500000,-0.750000,$1*%
%AMFreePoly1*
4,1,23,0.000000,0.745722,0.065263,0.745722,0.191342,0.711940,0.304381,0.646677,0.396677,0.554381,0.461940,0.441342,0.495722,0.315263,0.495722,0.250000,0.500000,0.250000,0.500000,-0.250000,0.495722,-0.250000,0.495722,-0.315263,0.461940,-0.441342,0.396677,-0.554381,0.304381,-0.646677,0.191342,-0.711940,0.065263,-0.745722,0.000000,-0.745722,0.000000,-0.750000,-0.500000,-0.750000,
-0.500000,0.750000,0.000000,0.750000,0.000000,0.745722,0.000000,0.745722,$1*%
G04 Aperture macros list end*
%ADD10C,0.000000*%
%ADD11FreePoly0,0.000000*%
%ADD12FreePoly1,0.000000*%
%ADD13RoundRect,0.250000X0.550000X0.550000X-0.550000X0.550000X-0.550000X-0.550000X0.550000X-0.550000X0*%
%ADD14C,1.600000*%
%ADD15RoundRect,0.250001X-0.949999X0.949999X-0.949999X-0.949999X0.949999X-0.949999X0.949999X0.949999X0*%
%ADD16C,2.400000*%
%ADD17RoundRect,0.200000X0.200000X0.275000X-0.200000X0.275000X-0.200000X-0.275000X0.200000X-0.275000X0*%
%ADD18RoundRect,0.225000X-0.250000X0.225000X-0.250000X-0.225000X0.250000X-0.225000X0.250000X0.225000X0*%
%ADD19C,2.050000*%
%ADD20C,2.250000*%
%ADD21RoundRect,0.200000X-0.200000X-0.275000X0.200000X-0.275000X0.200000X0.275000X-0.200000X0.275000X0*%
%ADD22RoundRect,0.225000X0.225000X0.250000X-0.225000X0.250000X-0.225000X-0.250000X0.225000X-0.250000X0*%
%ADD23RoundRect,0.225000X-0.225000X-0.250000X0.225000X-0.250000X0.225000X0.250000X-0.225000X0.250000X0*%
%ADD24RoundRect,0.150000X0.150000X-0.587500X0.150000X0.587500X-0.150000X0.587500X-0.150000X-0.587500X0*%
%ADD25RoundRect,0.250001X0.949999X-0.949999X0.949999X0.949999X-0.949999X0.949999X-0.949999X-0.949999X0*%
%ADD26RoundRect,0.250000X-0.550000X-0.550000X0.550000X-0.550000X0.550000X0.550000X-0.550000X0.550000X0*%
%ADD27R,1.700000X1.700000*%
%ADD28C,1.700000*%
%ADD29RoundRect,0.150000X-0.825000X-0.150000X0.825000X-0.150000X0.825000X0.150000X-0.825000X0.150000X0*%
%ADD30RoundRect,0.250000X-0.475000X0.250000X-0.475000X-0.250000X0.475000X-0.250000X0.475000X0.250000X0*%
%ADD31C,3.200000*%
%ADD32RoundRect,0.250000X0.312500X0.625000X-0.312500X0.625000X-0.312500X-0.625000X0.312500X-0.625000X0*%
%ADD33R,1.600000X1.600000*%
%ADD34O,1.600000X1.600000*%
G04 APERTURE END LIST*
D10*
G36*
X114758779Y-55769098D02*
G01*
X114795106Y-55819098D01*
X114800000Y-55850000D01*
X114800000Y-56950000D01*
X114780902Y-57008779D01*
X114730902Y-57045106D01*
X114700000Y-57050000D01*
X114100000Y-57050000D01*
X114041221Y-57030902D01*
X114004894Y-56980902D01*
X114000000Y-56950000D01*
X113999999Y-55850000D01*
X114019097Y-55791222D01*
X114069097Y-55754894D01*
X114099999Y-55750000D01*
X114700000Y-55750000D01*
X114758779Y-55769098D01*
G37*
G36*
X116854874Y-57503506D02*
G01*
X116898575Y-57547207D01*
X116908244Y-57608250D01*
X116904947Y-57622357D01*
X116882982Y-57692844D01*
X116880930Y-57703160D01*
X116875204Y-57766178D01*
X116875124Y-57767942D01*
X116875018Y-57768223D01*
X116875000Y-57768425D01*
X116874944Y-57768419D01*
X116853376Y-57825792D01*
X116845938Y-57834112D01*
X116320709Y-58359340D01*
X116265641Y-58387398D01*
X116204599Y-58377730D01*
X116179287Y-58359340D01*
X116154288Y-58334341D01*
X116126230Y-58279273D01*
X116124999Y-58263630D01*
X116124999Y-58004226D01*
X116124740Y-57999155D01*
X116115411Y-57907831D01*
X116112864Y-57895931D01*
X116119236Y-57834457D01*
X116160524Y-57788469D01*
X116210649Y-57774999D01*
X116222437Y-57774999D01*
X116227508Y-57774740D01*
X116322259Y-57765061D01*
X116332882Y-57762787D01*
X116488590Y-57711190D01*
X116499081Y-57706299D01*
X116638385Y-57620375D01*
X116647466Y-57613195D01*
X116738764Y-57521897D01*
X116793831Y-57493838D01*
X116854874Y-57503506D01*
G37*
G36*
X129017398Y-59669598D02*
G01*
X129047720Y-59705101D01*
X129093922Y-59795778D01*
X129098010Y-59802449D01*
X129234485Y-59990292D01*
X129239570Y-59996246D01*
X129372613Y-60129289D01*
X129400671Y-60184357D01*
X129391003Y-60245399D01*
X129347301Y-60289101D01*
X129301902Y-60300000D01*
X128950395Y-60300000D01*
X128891617Y-60280902D01*
X128714861Y-60152482D01*
X128708190Y-60148393D01*
X128487287Y-60035837D01*
X128480043Y-60032837D01*
X128244255Y-59956226D01*
X128236643Y-59954398D01*
X127991771Y-59915614D01*
X127983959Y-59915000D01*
X127736041Y-59915000D01*
X127728228Y-59915614D01*
X127483356Y-59954398D01*
X127475744Y-59956226D01*
X127239956Y-60032837D01*
X127232712Y-60035837D01*
X127125399Y-60090517D01*
X127064356Y-60100185D01*
X127009289Y-60072127D01*
X126981231Y-60017059D01*
X126980000Y-60001416D01*
X126980000Y-59750500D01*
X126999098Y-59691721D01*
X127049098Y-59655394D01*
X127080000Y-59650500D01*
X128958619Y-59650500D01*
X129017398Y-59669598D01*
G37*
G36*
X129360681Y-57719098D02*
G01*
X129397008Y-57769098D01*
X129397008Y-57830902D01*
X129372613Y-57870711D01*
X129239570Y-58003753D01*
X129234485Y-58009707D01*
X129098010Y-58197550D01*
X129093922Y-58204221D01*
X129047720Y-58294899D01*
X129004018Y-58338600D01*
X128958619Y-58349500D01*
X127080000Y-58349500D01*
X127021221Y-58330402D01*
X126984894Y-58280402D01*
X126980000Y-58249500D01*
X126980000Y-57998583D01*
X126999098Y-57939804D01*
X127049098Y-57903477D01*
X127110902Y-57903477D01*
X127125400Y-57909483D01*
X127232707Y-57964160D01*
X127239956Y-57967162D01*
X127475744Y-58043773D01*
X127483356Y-58045601D01*
X127728228Y-58084385D01*
X127736041Y-58085000D01*
X127983959Y-58085000D01*
X127991771Y-58084385D01*
X128236643Y-58045601D01*
X128244255Y-58043773D01*
X128480043Y-57967162D01*
X128487287Y-57964162D01*
X128708190Y-57851606D01*
X128714861Y-57847517D01*
X128891617Y-57719098D01*
X128950395Y-57700000D01*
X129301902Y-57700000D01*
X129360681Y-57719098D01*
G37*
G36*
X122158779Y-62319098D02*
G01*
X122195106Y-62369098D01*
X122200000Y-62400000D01*
X122200000Y-62513680D01*
X122200153Y-62517594D01*
X122202499Y-62547401D01*
X122204325Y-62557396D01*
X122246961Y-62704152D01*
X122251922Y-62715616D01*
X122329113Y-62846139D01*
X122336764Y-62856003D01*
X122443996Y-62963235D01*
X122453860Y-62970886D01*
X122584383Y-63048077D01*
X122595847Y-63053038D01*
X122742603Y-63095674D01*
X122752598Y-63097500D01*
X122782405Y-63099846D01*
X122788281Y-63100077D01*
X122846265Y-63121466D01*
X122880603Y-63172853D01*
X122878178Y-63234608D01*
X122839918Y-63283145D01*
X122784358Y-63300000D01*
X122568135Y-63300000D01*
X122549181Y-63303770D01*
X122471822Y-63335812D01*
X122455757Y-63346546D01*
X122396546Y-63405757D01*
X122385812Y-63421822D01*
X122353769Y-63499181D01*
X122349727Y-63519508D01*
X122319529Y-63573431D01*
X122263403Y-63599307D01*
X122251648Y-63600000D01*
X121848352Y-63600000D01*
X121789573Y-63580902D01*
X121753246Y-63530902D01*
X121750273Y-63519508D01*
X121746230Y-63499181D01*
X121710418Y-63412722D01*
X121712606Y-63411815D01*
X121700000Y-63370254D01*
X121700000Y-62400000D01*
X121719098Y-62341221D01*
X121769098Y-62304894D01*
X121800000Y-62300000D01*
X122100000Y-62300000D01*
X122158779Y-62319098D01*
G37*
G36*
X124258779Y-62319098D02*
G01*
X124295106Y-62369098D01*
X124300000Y-62400000D01*
X124300000Y-63370254D01*
X124287393Y-63411815D01*
X124289582Y-63412722D01*
X124253769Y-63499181D01*
X124249727Y-63519508D01*
X124219529Y-63573431D01*
X124163403Y-63599307D01*
X124151648Y-63600000D01*
X123748352Y-63600000D01*
X123689573Y-63580902D01*
X123653246Y-63530902D01*
X123650273Y-63519508D01*
X123646230Y-63499181D01*
X123614187Y-63421822D01*
X123603453Y-63405757D01*
X123544242Y-63346546D01*
X123528177Y-63335812D01*
X123450818Y-63303770D01*
X123431865Y-63300000D01*
X123215642Y-63300000D01*
X123156863Y-63280902D01*
X123120536Y-63230902D01*
X123120536Y-63169098D01*
X123156863Y-63119098D01*
X123211719Y-63100077D01*
X123217594Y-63099846D01*
X123247401Y-63097500D01*
X123257396Y-63095674D01*
X123404152Y-63053038D01*
X123415616Y-63048077D01*
X123546139Y-62970886D01*
X123556003Y-62963235D01*
X123663235Y-62856003D01*
X123670886Y-62846139D01*
X123748077Y-62715616D01*
X123753038Y-62704152D01*
X123795674Y-62557396D01*
X123797500Y-62547401D01*
X123799846Y-62517594D01*
X123800000Y-62513680D01*
X123800000Y-62400000D01*
X123819098Y-62341221D01*
X123869098Y-62304894D01*
X123900000Y-62300000D01*
X124200000Y-62300000D01*
X124258779Y-62319098D01*
G37*
G36*
X131255935Y-56994098D02*
G01*
X131267867Y-57004289D01*
X131512914Y-57249336D01*
X131531303Y-57274648D01*
X131548387Y-57308177D01*
X131552487Y-57314868D01*
X131698209Y-57515438D01*
X131703294Y-57521392D01*
X131878607Y-57696705D01*
X131884561Y-57701790D01*
X132085138Y-57847517D01*
X132091814Y-57851608D01*
X132125352Y-57868697D01*
X132150665Y-57887087D01*
X132395711Y-58132133D01*
X132423769Y-58187201D01*
X132425000Y-58202844D01*
X132425000Y-59797154D01*
X132405902Y-59855933D01*
X132395711Y-59867865D01*
X132150661Y-60112914D01*
X132125351Y-60131302D01*
X132091821Y-60148387D01*
X132085134Y-60152485D01*
X131884561Y-60298209D01*
X131878607Y-60303294D01*
X131703294Y-60478607D01*
X131698209Y-60484561D01*
X131552485Y-60685134D01*
X131548387Y-60691821D01*
X131531302Y-60725351D01*
X131512914Y-60750660D01*
X131267866Y-60995710D01*
X131212799Y-61023769D01*
X131197155Y-61025000D01*
X129720000Y-61025000D01*
X129661221Y-61005902D01*
X129624894Y-60955902D01*
X129620000Y-60925000D01*
X129620000Y-60477303D01*
X129639098Y-60418524D01*
X129689098Y-60382197D01*
X129750902Y-60382197D01*
X129765399Y-60388203D01*
X129811092Y-60411485D01*
X129818338Y-60414486D01*
X130039157Y-60486235D01*
X130046778Y-60488065D01*
X130276098Y-60524385D01*
X130283911Y-60525000D01*
X130516089Y-60525000D01*
X130523901Y-60524385D01*
X130753221Y-60488065D01*
X130760842Y-60486235D01*
X130981661Y-60414486D01*
X130988897Y-60411489D01*
X131195778Y-60306078D01*
X131202449Y-60301989D01*
X131390292Y-60165514D01*
X131396246Y-60160429D01*
X131560429Y-59996246D01*
X131565514Y-59990292D01*
X131701989Y-59802449D01*
X131706078Y-59795778D01*
X131811489Y-59588897D01*
X131814486Y-59581661D01*
X131886235Y-59360842D01*
X131888065Y-59353221D01*
X131924385Y-59123901D01*
X131925000Y-59116088D01*
X131925000Y-58883911D01*
X131924385Y-58876098D01*
X131888065Y-58646778D01*
X131886235Y-58639157D01*
X131814486Y-58418338D01*
X131811489Y-58411102D01*
X131706078Y-58204221D01*
X131701989Y-58197550D01*
X131565514Y-58009707D01*
X131560429Y-58003753D01*
X131396246Y-57839570D01*
X131390292Y-57834485D01*
X131202449Y-57698010D01*
X131195778Y-57693921D01*
X130988897Y-57588510D01*
X130981661Y-57585513D01*
X130760842Y-57513764D01*
X130753221Y-57511934D01*
X130523901Y-57475614D01*
X130516089Y-57475000D01*
X130283911Y-57475000D01*
X130276098Y-57475614D01*
X130046778Y-57511934D01*
X130039157Y-57513764D01*
X129818338Y-57585513D01*
X129811096Y-57588512D01*
X129765398Y-57611797D01*
X129704355Y-57621465D01*
X129649289Y-57593406D01*
X129621231Y-57538338D01*
X129620000Y-57522696D01*
X129620000Y-57075000D01*
X129639098Y-57016221D01*
X129689098Y-56979894D01*
X129720000Y-56975000D01*
X131197156Y-56975000D01*
X131255935Y-56994098D01*
G37*
G36*
X126418779Y-59669598D02*
G01*
X126455106Y-59719598D01*
X126460000Y-59750500D01*
X126460000Y-60684274D01*
X126449101Y-60729673D01*
X126355837Y-60912712D01*
X126352837Y-60919956D01*
X126276226Y-61155744D01*
X126274398Y-61163356D01*
X126235614Y-61408228D01*
X126235000Y-61416041D01*
X126235000Y-61663958D01*
X126235614Y-61671771D01*
X126274398Y-61916643D01*
X126276226Y-61924255D01*
X126352837Y-62160043D01*
X126355837Y-62167287D01*
X126468393Y-62388190D01*
X126472482Y-62394861D01*
X126618209Y-62595438D01*
X126623294Y-62601392D01*
X126770711Y-62748809D01*
X126798769Y-62803877D01*
X126800000Y-62819520D01*
X126800000Y-63500000D01*
X126780902Y-63558779D01*
X126730902Y-63595106D01*
X126700000Y-63600000D01*
X124920000Y-63600000D01*
X124861221Y-63580902D01*
X124824894Y-63530902D01*
X124820000Y-63500000D01*
X124820000Y-61998134D01*
X124816229Y-61979181D01*
X124784187Y-61901822D01*
X124773453Y-61885757D01*
X124714242Y-61826546D01*
X124698177Y-61815812D01*
X124620818Y-61783770D01*
X124601865Y-61780000D01*
X123900000Y-61780000D01*
X123841221Y-61760902D01*
X123804894Y-61710902D01*
X123800000Y-61680000D01*
X123800000Y-61211319D01*
X123799846Y-61207405D01*
X123797500Y-61177598D01*
X123795674Y-61167603D01*
X123753038Y-61020847D01*
X123748077Y-61009383D01*
X123670886Y-60878860D01*
X123663235Y-60868996D01*
X123556003Y-60761764D01*
X123546139Y-60754113D01*
X123415616Y-60676922D01*
X123404152Y-60671961D01*
X123257396Y-60629325D01*
X123247401Y-60627499D01*
X123217594Y-60625153D01*
X123213681Y-60625000D01*
X122810500Y-60625000D01*
X122751721Y-60605902D01*
X122715394Y-60555902D01*
X122710500Y-60525000D01*
X122710500Y-60185226D01*
X122729598Y-60126447D01*
X122751721Y-60104324D01*
X122903723Y-59993888D01*
X122909664Y-59988813D01*
X123048797Y-59849680D01*
X123049474Y-59848888D01*
X123049773Y-59848704D01*
X123051585Y-59846893D01*
X123052019Y-59847327D01*
X123102164Y-59816585D01*
X123163778Y-59821421D01*
X123206431Y-59855039D01*
X123354398Y-60058698D01*
X123359477Y-60064645D01*
X123535354Y-60240522D01*
X123541295Y-60245597D01*
X123742515Y-60391791D01*
X123749195Y-60395885D01*
X123970796Y-60508796D01*
X123978032Y-60511793D01*
X124214569Y-60588649D01*
X124222190Y-60590479D01*
X124467834Y-60629385D01*
X124475647Y-60630000D01*
X124724353Y-60630000D01*
X124732165Y-60629385D01*
X124977809Y-60590479D01*
X124985430Y-60588649D01*
X125221967Y-60511793D01*
X125229203Y-60508796D01*
X125450804Y-60395885D01*
X125457484Y-60391791D01*
X125658704Y-60245597D01*
X125664645Y-60240522D01*
X125840522Y-60064645D01*
X125845597Y-60058704D01*
X125991791Y-59857484D01*
X125995884Y-59850804D01*
X126070124Y-59705101D01*
X126113826Y-59661400D01*
X126159225Y-59650500D01*
X126360000Y-59650500D01*
X126418779Y-59669598D01*
G37*
G36*
X111833779Y-55850991D02*
G01*
X111870106Y-55900991D01*
X111875000Y-55931893D01*
X111875000Y-57072437D01*
X111875259Y-57077508D01*
X111884938Y-57172259D01*
X111887212Y-57182882D01*
X111938809Y-57338590D01*
X111943700Y-57349081D01*
X112029624Y-57488385D01*
X112036800Y-57497461D01*
X112152538Y-57613199D01*
X112161614Y-57620375D01*
X112175234Y-57628776D01*
X112215236Y-57675888D01*
X112219906Y-57737515D01*
X112215125Y-57752155D01*
X112173409Y-57852868D01*
X112173346Y-57853077D01*
X112170170Y-57861947D01*
X112167284Y-57871463D01*
X112166944Y-57873175D01*
X112165218Y-57879296D01*
X112139401Y-58009082D01*
X112138681Y-58013936D01*
X112138432Y-58016456D01*
X112138440Y-58016551D01*
X112137518Y-58025920D01*
X112137495Y-58025970D01*
X112137240Y-58028562D01*
X112137000Y-58033454D01*
X112137000Y-58166546D01*
X112137240Y-58171433D01*
X112137491Y-58173981D01*
X112137518Y-58174080D01*
X112138440Y-58183450D01*
X112138428Y-58183502D01*
X112138680Y-58186060D01*
X112139402Y-58190918D01*
X112165525Y-58322248D01*
X112166629Y-58325239D01*
X112167283Y-58328527D01*
X112170180Y-58338075D01*
X112173352Y-58346940D01*
X112173409Y-58347130D01*
X112223819Y-58468832D01*
X112224915Y-58471291D01*
X112225866Y-58473279D01*
X112226613Y-58474312D01*
X112226890Y-58474829D01*
X112227060Y-58475776D01*
X112228343Y-58478460D01*
X112229065Y-58479872D01*
X112229520Y-58480663D01*
X112233009Y-58486429D01*
X112234198Y-58488297D01*
X112308880Y-58600066D01*
X112311788Y-58603987D01*
X112313404Y-58605956D01*
X112313488Y-58606029D01*
X112319454Y-58613299D01*
X112319475Y-58613354D01*
X112321122Y-58615361D01*
X112324399Y-58618977D01*
X112418512Y-58713090D01*
X112422145Y-58716383D01*
X112424115Y-58717999D01*
X112424202Y-58718047D01*
X112431474Y-58724015D01*
X112431505Y-58724064D01*
X112433505Y-58725705D01*
X112437441Y-58728624D01*
X112539552Y-58796853D01*
X112577814Y-58845389D01*
X112580240Y-58907144D01*
X112545904Y-58958532D01*
X112487921Y-58979923D01*
X112483995Y-58980000D01*
X112383089Y-58980000D01*
X112324310Y-58960902D01*
X112292168Y-58916663D01*
X112290518Y-58917347D01*
X112279357Y-58890401D01*
X112232856Y-58820808D01*
X112219191Y-58807143D01*
X112149600Y-58760644D01*
X112131751Y-58753250D01*
X112044817Y-58735958D01*
X112035086Y-58735000D01*
X111562955Y-58735000D01*
X111557066Y-58735347D01*
X111505833Y-58741424D01*
X111490863Y-58745652D01*
X111413080Y-58781555D01*
X111397450Y-58792923D01*
X111340667Y-58854408D01*
X111330579Y-58870888D01*
X111301646Y-58949431D01*
X111298634Y-58968508D01*
X111299530Y-58991026D01*
X111282783Y-59050517D01*
X111234266Y-59088802D01*
X111199609Y-59095000D01*
X111036319Y-59095000D01*
X111032405Y-59095153D01*
X111002599Y-59097499D01*
X110992592Y-59099326D01*
X110990498Y-59099935D01*
X110989444Y-59099901D01*
X110987576Y-59100243D01*
X110987502Y-59099840D01*
X110928725Y-59097985D01*
X110879897Y-59060098D01*
X110871423Y-59044943D01*
X110864889Y-59030425D01*
X110783203Y-58895301D01*
X110775800Y-58885851D01*
X110664148Y-58774199D01*
X110654698Y-58766796D01*
X110519575Y-58685111D01*
X110508623Y-58680182D01*
X110357155Y-58632982D01*
X110346839Y-58630930D01*
X110283836Y-58625205D01*
X110279300Y-58625000D01*
X109770680Y-58625000D01*
X109766183Y-58625204D01*
X109703161Y-58630930D01*
X109692845Y-58632982D01*
X109541376Y-58680182D01*
X109530424Y-58685111D01*
X109395301Y-58766796D01*
X109385851Y-58774199D01*
X109371840Y-58788211D01*
X109316772Y-58816269D01*
X109301129Y-58817500D01*
X108920877Y-58817500D01*
X108901923Y-58821270D01*
X108824564Y-58853312D01*
X108808499Y-58864046D01*
X108749288Y-58923257D01*
X108738554Y-58939322D01*
X108706512Y-59016681D01*
X108702742Y-59035634D01*
X108702742Y-59077129D01*
X108683644Y-59135908D01*
X108633644Y-59172235D01*
X108602742Y-59177129D01*
X108600000Y-59177129D01*
X108541221Y-59158031D01*
X108504894Y-59108031D01*
X108500000Y-59077129D01*
X108500000Y-58416727D01*
X108519098Y-58357948D01*
X108529289Y-58346016D01*
X108618453Y-58256851D01*
X108625631Y-58247773D01*
X108708492Y-58113435D01*
X108713378Y-58102957D01*
X108763138Y-57952790D01*
X108765410Y-57942174D01*
X108774741Y-57850842D01*
X108774999Y-57845775D01*
X108774999Y-57304226D01*
X108774740Y-57299155D01*
X108765411Y-57207833D01*
X108763136Y-57197203D01*
X108713378Y-57047042D01*
X108708492Y-57036564D01*
X108625631Y-56902226D01*
X108618453Y-56893148D01*
X108599289Y-56873984D01*
X108571231Y-56818916D01*
X108570000Y-56803273D01*
X108570000Y-56796727D01*
X108589098Y-56737948D01*
X108599289Y-56726016D01*
X108618453Y-56706851D01*
X108625631Y-56697773D01*
X108708492Y-56563435D01*
X108713378Y-56552957D01*
X108763138Y-56402790D01*
X108765410Y-56392174D01*
X108774741Y-56300842D01*
X108774999Y-56295775D01*
X108774999Y-55931893D01*
X108794097Y-55873115D01*
X108844097Y-55836787D01*
X108874999Y-55831893D01*
X111775000Y-55831893D01*
X111833779Y-55850991D01*
G37*
G36*
X126758779Y-54519098D02*
G01*
X126795106Y-54569098D01*
X126800000Y-54600000D01*
X126800000Y-55180480D01*
X126780902Y-55239259D01*
X126770711Y-55251191D01*
X126623294Y-55398607D01*
X126618209Y-55404561D01*
X126472482Y-55605138D01*
X126468393Y-55611809D01*
X126355837Y-55832712D01*
X126352837Y-55839956D01*
X126276226Y-56075744D01*
X126274398Y-56083356D01*
X126235614Y-56328228D01*
X126235000Y-56336041D01*
X126235000Y-56583958D01*
X126235614Y-56591771D01*
X126274398Y-56836643D01*
X126276226Y-56844255D01*
X126352837Y-57080043D01*
X126355837Y-57087287D01*
X126449101Y-57270325D01*
X126460000Y-57315724D01*
X126460000Y-58249500D01*
X126440902Y-58308279D01*
X126390902Y-58344606D01*
X126360000Y-58349500D01*
X126159225Y-58349500D01*
X126100446Y-58330402D01*
X126070124Y-58294899D01*
X125995884Y-58149195D01*
X125991791Y-58142515D01*
X125845597Y-57941295D01*
X125840522Y-57935354D01*
X125664645Y-57759477D01*
X125658704Y-57754402D01*
X125457484Y-57608208D01*
X125450804Y-57604114D01*
X125229203Y-57491203D01*
X125221967Y-57488206D01*
X124985430Y-57411350D01*
X124977809Y-57409520D01*
X124732165Y-57370614D01*
X124724353Y-57370000D01*
X124528333Y-57370000D01*
X124469554Y-57350902D01*
X124433227Y-57300902D01*
X124428333Y-57270000D01*
X124428333Y-55825449D01*
X124424169Y-55812635D01*
X124420007Y-55809611D01*
X122282743Y-55809611D01*
X122269929Y-55813774D01*
X122266905Y-55817936D01*
X122266905Y-57434086D01*
X122271068Y-57446900D01*
X122275231Y-57449925D01*
X123652605Y-57449925D01*
X123711384Y-57469023D01*
X123747711Y-57519023D01*
X123747711Y-57580827D01*
X123711384Y-57630827D01*
X123711383Y-57630827D01*
X123541301Y-57754398D01*
X123535354Y-57759477D01*
X123359477Y-57935354D01*
X123354396Y-57941303D01*
X123206430Y-58144960D01*
X123156430Y-58181287D01*
X123094627Y-58181287D01*
X123051932Y-58152759D01*
X123051585Y-58153107D01*
X123049840Y-58151362D01*
X123049491Y-58151129D01*
X123048811Y-58150333D01*
X122909664Y-58011186D01*
X122903723Y-58006111D01*
X122744527Y-57890448D01*
X122737847Y-57886355D01*
X122562527Y-57797026D01*
X122555291Y-57794029D01*
X122368154Y-57733224D01*
X122360533Y-57731394D01*
X122166193Y-57700614D01*
X122158381Y-57700000D01*
X121961619Y-57700000D01*
X121953805Y-57700614D01*
X121768246Y-57730004D01*
X121707204Y-57720335D01*
X121681892Y-57701946D01*
X121571023Y-57591077D01*
X121566138Y-57586793D01*
X121550600Y-57574870D01*
X121545192Y-57571257D01*
X121499902Y-57545109D01*
X121494345Y-57541653D01*
X121471972Y-57526703D01*
X121463358Y-57522099D01*
X121457698Y-57519755D01*
X121445971Y-57513972D01*
X121427639Y-57503388D01*
X121412418Y-57497283D01*
X121409045Y-57495198D01*
X121399684Y-57490818D01*
X121399082Y-57490637D01*
X121397653Y-57490232D01*
X121372177Y-57483405D01*
X121359799Y-57479203D01*
X121354143Y-57476860D01*
X121344780Y-57474020D01*
X121318377Y-57468768D01*
X121312008Y-57467283D01*
X121261518Y-57453754D01*
X121255110Y-57452480D01*
X121235727Y-57449928D01*
X121229196Y-57449500D01*
X120272368Y-57449500D01*
X120213589Y-57430402D01*
X120186790Y-57401234D01*
X120183203Y-57395301D01*
X120175800Y-57385851D01*
X120064148Y-57274199D01*
X120054698Y-57266796D01*
X119919575Y-57185111D01*
X119908623Y-57180182D01*
X119757155Y-57132982D01*
X119746839Y-57130930D01*
X119683836Y-57125205D01*
X119679300Y-57125000D01*
X119170680Y-57125000D01*
X119166183Y-57125204D01*
X119103161Y-57130930D01*
X119092845Y-57132982D01*
X118941376Y-57180182D01*
X118930424Y-57185111D01*
X118795301Y-57266796D01*
X118785851Y-57274199D01*
X118771840Y-57288211D01*
X118716772Y-57316269D01*
X118701129Y-57317500D01*
X118498871Y-57317500D01*
X118440092Y-57298402D01*
X118428160Y-57288211D01*
X118414148Y-57274199D01*
X118404698Y-57266796D01*
X118269575Y-57185111D01*
X118258623Y-57180182D01*
X118107155Y-57132982D01*
X118096839Y-57130930D01*
X118033836Y-57125205D01*
X118029300Y-57125000D01*
X117520680Y-57125000D01*
X117516183Y-57125204D01*
X117453161Y-57130930D01*
X117442845Y-57132982D01*
X117291376Y-57180182D01*
X117280424Y-57185111D01*
X117145301Y-57266796D01*
X117135846Y-57274203D01*
X117055336Y-57354713D01*
X117000269Y-57382771D01*
X116939226Y-57373102D01*
X116895525Y-57329401D01*
X116885857Y-57268358D01*
X116889702Y-57252546D01*
X116912789Y-57182873D01*
X116915060Y-57172266D01*
X116924741Y-57077506D01*
X116924999Y-57072439D01*
X116924999Y-55727562D01*
X116924740Y-55722491D01*
X116915061Y-55627740D01*
X116912787Y-55617117D01*
X116861190Y-55461409D01*
X116856299Y-55450918D01*
X116770375Y-55311614D01*
X116763199Y-55302538D01*
X116647461Y-55186800D01*
X116638385Y-55179624D01*
X116499081Y-55093700D01*
X116488590Y-55088809D01*
X116332876Y-55037210D01*
X116322266Y-55034939D01*
X116227506Y-55025258D01*
X116222439Y-55025000D01*
X115502562Y-55025000D01*
X115497491Y-55025259D01*
X115402740Y-55034938D01*
X115392117Y-55037212D01*
X115236409Y-55088809D01*
X115225918Y-55093700D01*
X115086614Y-55179624D01*
X115077538Y-55186800D01*
X115063628Y-55200711D01*
X115008560Y-55228769D01*
X114992917Y-55230000D01*
X113807083Y-55230000D01*
X113748304Y-55210902D01*
X113736372Y-55200711D01*
X113722461Y-55186800D01*
X113713385Y-55179624D01*
X113574081Y-55093700D01*
X113563590Y-55088809D01*
X113407876Y-55037210D01*
X113397266Y-55034939D01*
X113302506Y-55025258D01*
X113297439Y-55025000D01*
X112577562Y-55025000D01*
X112572491Y-55025259D01*
X112477740Y-55034938D01*
X112467117Y-55037212D01*
X112311409Y-55088809D01*
X112300918Y-55093700D01*
X112161614Y-55179624D01*
X112152538Y-55186800D01*
X112036800Y-55302538D01*
X112029624Y-55311614D01*
X111943700Y-55450918D01*
X111938809Y-55461409D01*
X111905030Y-55563348D01*
X111868413Y-55613135D01*
X111810106Y-55631893D01*
X108830274Y-55631893D01*
X108771495Y-55612795D01*
X108735350Y-55563348D01*
X108713379Y-55497046D01*
X108708489Y-55486558D01*
X108625631Y-55352226D01*
X108618453Y-55343148D01*
X108529289Y-55253984D01*
X108501231Y-55198916D01*
X108500000Y-55183273D01*
X108500000Y-54600000D01*
X108519098Y-54541221D01*
X108569098Y-54504894D01*
X108600000Y-54500000D01*
X126700000Y-54500000D01*
X126758779Y-54519098D01*
G37*
G36*
X120725006Y-58769598D02*
G01*
X120761333Y-58819598D01*
X120764996Y-58866143D01*
X120760614Y-58893805D01*
X120760000Y-58901619D01*
X120760000Y-59098380D01*
X120760614Y-59106193D01*
X120791394Y-59300533D01*
X120793224Y-59308154D01*
X120854029Y-59495291D01*
X120857026Y-59502527D01*
X120946355Y-59677847D01*
X120950448Y-59684527D01*
X121066111Y-59843723D01*
X121071186Y-59849664D01*
X121210335Y-59988813D01*
X121216276Y-59993888D01*
X121368279Y-60104324D01*
X121404606Y-60154324D01*
X121409500Y-60185226D01*
X121409500Y-60991704D01*
X121409926Y-60998215D01*
X121412480Y-61017614D01*
X121413754Y-61024023D01*
X121427288Y-61074533D01*
X121428773Y-61080901D01*
X121434020Y-61107278D01*
X121436860Y-61116641D01*
X121439201Y-61122292D01*
X121443405Y-61134676D01*
X121446490Y-61146189D01*
X121457726Y-61170365D01*
X121458664Y-61173461D01*
X121459113Y-61178180D01*
X121464341Y-61191788D01*
X121473972Y-61208471D01*
X121479755Y-61220198D01*
X121482099Y-61225858D01*
X121486703Y-61234472D01*
X121501653Y-61256845D01*
X121505109Y-61262402D01*
X121531257Y-61307692D01*
X121534870Y-61313100D01*
X121546793Y-61328638D01*
X121551085Y-61333532D01*
X121826842Y-61609289D01*
X121854900Y-61664357D01*
X121845232Y-61725399D01*
X121801530Y-61769101D01*
X121756131Y-61780000D01*
X121398135Y-61780000D01*
X121379181Y-61783770D01*
X121301822Y-61815812D01*
X121285757Y-61826546D01*
X121226546Y-61885757D01*
X121215812Y-61901822D01*
X121192388Y-61958375D01*
X121152250Y-62005371D01*
X121092155Y-62019799D01*
X121035056Y-61996148D01*
X121002763Y-61943452D01*
X121000000Y-61920107D01*
X121000000Y-61807870D01*
X120997568Y-61792515D01*
X120980902Y-61741221D01*
X120985051Y-61739872D01*
X120974999Y-61708931D01*
X120974999Y-61354226D01*
X120974740Y-61349155D01*
X120965411Y-61257833D01*
X120963136Y-61247203D01*
X120913378Y-61097042D01*
X120908492Y-61086564D01*
X120825631Y-60952226D01*
X120818453Y-60943148D01*
X120706851Y-60831546D01*
X120697773Y-60824368D01*
X120563435Y-60741507D01*
X120552957Y-60736621D01*
X120402790Y-60686861D01*
X120392174Y-60684589D01*
X120300842Y-60675258D01*
X120295775Y-60675000D01*
X119704226Y-60675000D01*
X119699155Y-60675259D01*
X119607833Y-60684588D01*
X119597203Y-60686863D01*
X119447042Y-60736621D01*
X119436564Y-60741507D01*
X119302226Y-60824368D01*
X119293148Y-60831546D01*
X119181546Y-60943148D01*
X119174368Y-60952226D01*
X119091507Y-61086564D01*
X119086621Y-61097042D01*
X119036860Y-61247213D01*
X119033645Y-61262230D01*
X119002662Y-61315707D01*
X118991418Y-61324439D01*
X118965671Y-61341642D01*
X118960116Y-61345096D01*
X118918428Y-61369165D01*
X118911802Y-61372450D01*
X118911867Y-61372582D01*
X118901231Y-61377825D01*
X118882904Y-61384722D01*
X118876932Y-61386322D01*
X118875943Y-61386965D01*
X118851610Y-61393484D01*
X118852559Y-61395957D01*
X118830701Y-61404347D01*
X118814024Y-61413975D01*
X118802301Y-61419756D01*
X118796642Y-61422100D01*
X118788025Y-61426705D01*
X118778702Y-61432935D01*
X118729694Y-61449572D01*
X118724280Y-61449927D01*
X118704885Y-61452480D01*
X118698480Y-61453753D01*
X118647980Y-61467285D01*
X118641610Y-61468770D01*
X118615220Y-61474019D01*
X118605862Y-61476858D01*
X118600196Y-61479205D01*
X118587823Y-61483404D01*
X118564808Y-61489571D01*
X118558599Y-61491679D01*
X118540546Y-61499157D01*
X118534679Y-61502050D01*
X118514024Y-61513975D01*
X118502301Y-61519756D01*
X118496645Y-61522098D01*
X118488030Y-61526703D01*
X118479138Y-61532646D01*
X118423579Y-61549500D01*
X117530795Y-61549500D01*
X117524284Y-61549926D01*
X117504885Y-61552480D01*
X117498480Y-61553753D01*
X117447980Y-61567285D01*
X117441610Y-61568770D01*
X117415220Y-61574019D01*
X117405862Y-61576858D01*
X117400196Y-61579205D01*
X117387823Y-61583404D01*
X117364797Y-61589574D01*
X117358611Y-61591674D01*
X117340544Y-61599158D01*
X117334678Y-61602050D01*
X117314030Y-61613971D01*
X117302309Y-61619751D01*
X117296651Y-61622094D01*
X117294603Y-61623190D01*
X117293098Y-61623566D01*
X117292111Y-61623976D01*
X117292050Y-61623829D01*
X117247459Y-61635000D01*
X115986319Y-61635000D01*
X115982405Y-61635153D01*
X115952598Y-61637499D01*
X115942603Y-61639325D01*
X115795843Y-61681962D01*
X115778610Y-61689420D01*
X115778078Y-61688191D01*
X115734913Y-61700000D01*
X113065087Y-61700000D01*
X113021921Y-61688191D01*
X113021390Y-61689420D01*
X113004156Y-61681962D01*
X112857396Y-61639325D01*
X112847401Y-61637499D01*
X112817594Y-61635153D01*
X112813681Y-61635000D01*
X111036319Y-61635000D01*
X111032405Y-61635153D01*
X111002598Y-61637499D01*
X110992603Y-61639325D01*
X110845843Y-61681962D01*
X110828610Y-61689420D01*
X110828078Y-61688191D01*
X110784913Y-61700000D01*
X108600000Y-61700000D01*
X108541221Y-61680902D01*
X108504894Y-61630902D01*
X108500000Y-61600000D01*
X108500000Y-59477129D01*
X108519098Y-59418350D01*
X108569098Y-59382023D01*
X108600000Y-59377129D01*
X109025000Y-59377129D01*
X109083779Y-59396227D01*
X109120106Y-59446227D01*
X109125000Y-59477129D01*
X109125001Y-59762500D01*
X109105903Y-59821278D01*
X109055903Y-59857606D01*
X109025001Y-59862500D01*
X108920877Y-59862500D01*
X108901923Y-59866270D01*
X108824564Y-59898312D01*
X108808499Y-59909046D01*
X108749288Y-59968257D01*
X108738554Y-59984322D01*
X108706512Y-60061681D01*
X108702742Y-60080634D01*
X108702742Y-60164365D01*
X108706512Y-60183318D01*
X108738554Y-60260677D01*
X108749288Y-60276742D01*
X108808499Y-60335953D01*
X108824564Y-60346687D01*
X108901923Y-60378729D01*
X108920877Y-60382500D01*
X109301129Y-60382500D01*
X109359908Y-60401598D01*
X109371840Y-60411789D01*
X109385851Y-60425800D01*
X109395301Y-60433203D01*
X109530424Y-60514888D01*
X109541376Y-60519817D01*
X109692844Y-60567017D01*
X109703160Y-60569069D01*
X109766163Y-60574794D01*
X109770699Y-60574999D01*
X110279319Y-60574999D01*
X110283816Y-60574795D01*
X110346838Y-60569069D01*
X110357154Y-60567017D01*
X110508623Y-60519817D01*
X110519571Y-60514890D01*
X110534213Y-60506038D01*
X110594394Y-60491970D01*
X110651351Y-60515962D01*
X110656663Y-60520902D01*
X110693996Y-60558235D01*
X110703860Y-60565886D01*
X110834383Y-60643077D01*
X110845847Y-60648038D01*
X110992603Y-60690674D01*
X111002598Y-60692500D01*
X111032405Y-60694846D01*
X111036319Y-60695000D01*
X112813681Y-60695000D01*
X112817594Y-60694846D01*
X112847401Y-60692500D01*
X112857396Y-60690674D01*
X113004152Y-60648038D01*
X113015616Y-60643077D01*
X113146139Y-60565886D01*
X113156003Y-60558235D01*
X113263235Y-60451003D01*
X113270886Y-60441139D01*
X113348077Y-60310616D01*
X113353038Y-60299152D01*
X113395674Y-60152396D01*
X113397500Y-60142401D01*
X113399846Y-60112594D01*
X113400000Y-60108680D01*
X113400000Y-59681319D01*
X113399846Y-59677405D01*
X113397500Y-59647598D01*
X113395676Y-59637612D01*
X113392855Y-59627902D01*
X113394795Y-59566129D01*
X113432674Y-59517293D01*
X113488884Y-59500000D01*
X115138631Y-59500000D01*
X115197410Y-59519098D01*
X115209342Y-59529289D01*
X115370711Y-59690658D01*
X115398769Y-59745726D01*
X115400000Y-59761369D01*
X115400000Y-60108680D01*
X115400153Y-60112594D01*
X115402499Y-60142401D01*
X115404325Y-60152396D01*
X115446961Y-60299152D01*
X115451922Y-60310616D01*
X115529113Y-60441139D01*
X115536764Y-60451003D01*
X115643996Y-60558235D01*
X115653860Y-60565886D01*
X115784383Y-60643077D01*
X115795847Y-60648038D01*
X115942603Y-60690674D01*
X115952598Y-60692500D01*
X115982405Y-60694846D01*
X115986319Y-60695000D01*
X117763681Y-60695000D01*
X117767594Y-60694846D01*
X117797401Y-60692500D01*
X117807396Y-60690674D01*
X117954152Y-60648038D01*
X117965616Y-60643077D01*
X118096139Y-60565886D01*
X118106003Y-60558235D01*
X118213235Y-60451003D01*
X118220886Y-60441139D01*
X118298077Y-60310616D01*
X118303038Y-60299152D01*
X118345674Y-60152396D01*
X118347500Y-60142401D01*
X118349846Y-60112594D01*
X118350000Y-60108680D01*
X118350000Y-59681319D01*
X118349846Y-59677405D01*
X118347500Y-59647598D01*
X118345674Y-59637603D01*
X118303038Y-59490847D01*
X118298077Y-59479383D01*
X118220886Y-59348860D01*
X118213235Y-59338996D01*
X118101556Y-59227317D01*
X118102475Y-59226397D01*
X118071515Y-59180845D01*
X118073454Y-59119072D01*
X118111331Y-59070236D01*
X118137793Y-59057470D01*
X118258623Y-59019817D01*
X118269575Y-59014888D01*
X118404698Y-58933203D01*
X118414148Y-58925800D01*
X118428160Y-58911789D01*
X118483228Y-58883731D01*
X118498871Y-58882500D01*
X118701129Y-58882500D01*
X118759908Y-58901598D01*
X118771840Y-58911789D01*
X118785851Y-58925800D01*
X118795301Y-58933203D01*
X118930424Y-59014888D01*
X118941376Y-59019817D01*
X119092844Y-59067017D01*
X119103160Y-59069069D01*
X119166163Y-59074794D01*
X119170699Y-59074999D01*
X119679319Y-59074999D01*
X119683816Y-59074795D01*
X119746838Y-59069069D01*
X119757154Y-59067017D01*
X119908623Y-59019817D01*
X119919575Y-59014888D01*
X120054698Y-58933203D01*
X120064148Y-58925800D01*
X120175800Y-58814148D01*
X120183203Y-58804698D01*
X120186790Y-58798766D01*
X120233542Y-58758345D01*
X120272368Y-58750500D01*
X120666227Y-58750500D01*
X120725006Y-58769598D01*
G37*
%TO.C,JP1*%
G36*
X127250000Y-85250000D02*
G01*
X127550000Y-85250000D01*
X127550000Y-86750000D01*
X127250000Y-86750000D01*
X127250000Y-85250000D01*
G37*
%TD*%
D11*
%TO.C,JP1*%
X126750000Y-86000000D03*
D12*
X128050000Y-86000000D03*
%TD*%
D13*
%TO.C,CR1*%
X98000000Y-96400000D03*
D14*
X90380000Y-96400000D03*
%TD*%
D15*
%TO.C,J1*%
X75700000Y-83600000D03*
D16*
X75700000Y-87100000D03*
%TD*%
D17*
%TO.C,R5*%
X119425000Y-58100000D03*
X117775000Y-58100000D03*
%TD*%
D18*
%TO.C,C7*%
X107800000Y-56025000D03*
X107800000Y-57575000D03*
%TD*%
D17*
%TO.C,R11*%
X110025000Y-63700000D03*
X108375000Y-63700000D03*
%TD*%
D14*
%TO.C,C1*%
X102500000Y-96400000D03*
X105000000Y-96400000D03*
%TD*%
%TO.C,R1*%
X88000000Y-70400000D03*
X98160000Y-70400000D03*
%TD*%
D19*
%TO.C,J5*%
X130400000Y-59000000D03*
D20*
X127860000Y-56460000D03*
X127860000Y-61540000D03*
X132940000Y-56460000D03*
X132940000Y-61540000D03*
%TD*%
D21*
%TO.C,R8*%
X99575000Y-62100000D03*
X101225000Y-62100000D03*
%TD*%
D22*
%TO.C,C2*%
X115175000Y-58300000D03*
X113625000Y-58300000D03*
%TD*%
D18*
%TO.C,C6*%
X106400000Y-62325000D03*
X106400000Y-63875000D03*
%TD*%
%TO.C,C3*%
X120000000Y-61625000D03*
X120000000Y-63175000D03*
%TD*%
D23*
%TO.C,C5*%
X103825000Y-54400000D03*
X105375000Y-54400000D03*
%TD*%
D14*
%TO.C,R3*%
X107000000Y-70400000D03*
X109540000Y-70400000D03*
%TD*%
D24*
%TO.C,CR3*%
X122050000Y-63737500D03*
X123950000Y-63737500D03*
X123000000Y-61862500D03*
%TD*%
D25*
%TO.C,J2*%
X137000000Y-88000000D03*
D16*
X137000000Y-84500000D03*
%TD*%
D26*
%TO.C,CR2*%
X108000000Y-96400000D03*
D14*
X115620000Y-96400000D03*
%TD*%
D27*
%TO.C,U1*%
X88000000Y-88000000D03*
D28*
X90540000Y-88000000D03*
X93080000Y-88000000D03*
X95620000Y-88000000D03*
X98160000Y-88000000D03*
X100700000Y-88000000D03*
X103240000Y-88000000D03*
X105780000Y-88000000D03*
X108320000Y-88000000D03*
X110860000Y-88000000D03*
%TD*%
D21*
%TO.C,R10*%
X100375000Y-54400000D03*
X102025000Y-54400000D03*
%TD*%
D29*
%TO.C,U4*%
X100525000Y-56295000D03*
X100525000Y-57565000D03*
X100525000Y-58835000D03*
X100525000Y-60105000D03*
X105475000Y-60105000D03*
X105475000Y-58835000D03*
X105475000Y-57565000D03*
X105475000Y-56295000D03*
%TD*%
D30*
%TO.C,C4*%
X103800000Y-62050000D03*
X103800000Y-63950000D03*
%TD*%
D27*
%TO.C,J4*%
X116000000Y-88000000D03*
D28*
X118540000Y-88000000D03*
X121080000Y-88000000D03*
X123620000Y-88000000D03*
%TD*%
D31*
%TO.C,H1*%
X86030000Y-100000000D03*
%TD*%
D14*
%TO.C,R2*%
X88000000Y-66599999D03*
X98160000Y-66599999D03*
%TD*%
D21*
%TO.C,R7*%
X108375000Y-59600000D03*
X110025000Y-59600000D03*
%TD*%
D29*
%TO.C,U3*%
X111925000Y-59895000D03*
X111925000Y-61165000D03*
X111925000Y-62435000D03*
X111925000Y-63705000D03*
X116875000Y-63705000D03*
X116875000Y-62435000D03*
X116875000Y-61165000D03*
X116875000Y-59895000D03*
%TD*%
D32*
%TO.C,R6*%
X115862500Y-56400000D03*
X112937500Y-56400000D03*
%TD*%
D31*
%TO.C,H3*%
X138100000Y-66979999D03*
%TD*%
D17*
%TO.C,R9*%
X101225000Y-63900000D03*
X99575000Y-63900000D03*
%TD*%
D31*
%TO.C,H2*%
X138100000Y-94920000D03*
%TD*%
D27*
%TO.C,U2*%
X119500000Y-67000000D03*
D28*
X119500000Y-69540000D03*
X119500000Y-72080000D03*
X119500000Y-74620000D03*
X119500000Y-77160000D03*
X119500000Y-79700000D03*
%TD*%
D15*
%TO.C,J3*%
X75700000Y-74800000D03*
D16*
X75700000Y-78300000D03*
%TD*%
D14*
%TO.C,R4*%
X124600000Y-59000000D03*
X122060000Y-59000000D03*
%TD*%
D33*
%TO.C,ARD1*%
X100000000Y-100000000D03*
D34*
X102540000Y-100000000D03*
X105080000Y-100000000D03*
X107620000Y-100000000D03*
X110160000Y-100000000D03*
X112700000Y-100000000D03*
X115240000Y-100000000D03*
X117780000Y-100000000D03*
X122860000Y-100000000D03*
X125400000Y-100000000D03*
X127940000Y-100000000D03*
X130480000Y-100000000D03*
X133020000Y-100000000D03*
X135560000Y-100000000D03*
X135560000Y-51740000D03*
X133020000Y-51740000D03*
X130480000Y-51740000D03*
X127940000Y-51740000D03*
X125400000Y-51740000D03*
X122860000Y-51740000D03*
X120320000Y-51740000D03*
X117780000Y-51740000D03*
X113720000Y-51740000D03*
X111180000Y-51740000D03*
X108640000Y-51740000D03*
X106100000Y-51740000D03*
X103560000Y-51740000D03*
X101020000Y-51740000D03*
X98480000Y-51740000D03*
X95940000Y-51740000D03*
X93400000Y-51740000D03*
X90860000Y-51740000D03*
%TD*%
M02*
