M48
; DRILL file KiCad 10.0.6 date 2026-09-24T16:02:02
; FORMAT={-:-/ absolute / metric / decimal}
; #@! TF.CreationDate,2026-09-24T16:02:02+02:00
; #@! TF.GenerationSoftware,Kicad,Pcbnew,10.0.6
; #@! TF.FileFunction,Plated,1,2,PTH
FMAT,2
METRIC
; #@! TA.AperFunction,Plated,PTH,ViaDrill
T1C0.400
; #@! TA.AperFunction,Plated,PTH,ComponentDrill
T2C0.800
; #@! TA.AperFunction,Plated,PTH,ComponentDrill
T3C1.000
; #@! TA.AperFunction,Plated,PTH,ComponentDrill
T4C1.200
; #@! TA.AperFunction,Plated,PTH,ComponentDrill
T5C1.500
; #@! TA.AperFunction,Plated,PTH,ComponentDrill
T6C1.700
%
G90
G05
T1
X85.4Y-70.1
X85.5Y-74.3
X86.6Y-75.4
X88.1Y-76.9
X89.2Y-61.7
X89.5Y-82.7
X90.3Y-71.7
X90.7Y-63.2
X91.1Y-81.1
X91.8Y-73.2
X92.8Y-79.4
X92.9Y-74.3
X94.3Y-77.9
X95.0Y-67.0
X96.5Y-68.5
X97.3Y-65.1
X97.4Y-84.0
X98.5Y-68.6
X98.5Y-72.0
X98.9Y-82.5
X99.1Y-63.9
X99.5Y-60.2
X100.0Y-62.6
X100.3Y-65.1
X100.7Y-68.6
X101.4Y-66.2
X101.8Y-67.5
X103.0Y-64.0
X103.3Y-60.3
X103.3Y-89.7
X104.2Y-66.1
X104.2Y-67.5
X104.2Y-70.1
X104.2Y-74.8
X105.2Y-54.9
X106.4Y-64.4
X106.4Y-66.1
X106.4Y-67.5
X106.4Y-74.8
X107.3Y-57.8
X108.0Y-67.4
X108.5Y-90.8
X108.7Y-68.9
X109.1Y-62.5
X109.1Y-64.9
X109.2Y-55.0
X109.4Y-61.1
X109.9Y-74.8
X110.2Y-67.4
X111.0Y-85.4
X111.8Y-67.4
X112.1Y-74.8
X112.9Y-62.5
X116.2Y-62.6
X116.2Y-66.0
X118.0Y-70.8
X118.0Y-75.9
X118.3Y-90.8
X119.5Y-63.4
X120.2Y-55.2
X125.1Y-74.2
X125.9Y-62.6
X126.0Y-55.0
X126.6Y-72.7
T2
X88.0Y-66.6
X88.0Y-70.4
X90.38Y-96.4
X98.0Y-96.4
X98.16Y-66.6
X98.16Y-70.4
X102.5Y-96.4
X105.0Y-96.4
X107.0Y-70.4
X108.0Y-96.4
X109.54Y-70.4
X115.62Y-96.4
X122.06Y-59.0
X124.6Y-59.0
T3
X88.0Y-88.0
X90.54Y-88.0
X90.86Y-51.74
X93.08Y-88.0
X93.4Y-51.74
X95.62Y-88.0
X95.94Y-51.74
X98.16Y-88.0
X98.48Y-51.74
X100.0Y-100.0
X100.7Y-88.0
X101.02Y-51.74
X102.54Y-100.0
X103.24Y-88.0
X103.56Y-51.74
X105.08Y-100.0
X105.78Y-88.0
X106.1Y-51.74
X107.62Y-100.0
X108.32Y-88.0
X108.64Y-51.74
X110.16Y-100.0
X110.86Y-88.0
X111.18Y-51.74
X112.7Y-100.0
X113.72Y-51.74
X115.24Y-100.0
X116.0Y-88.0
X117.78Y-51.74
X117.78Y-100.0
X118.54Y-88.0
X119.5Y-67.0
X119.5Y-69.54
X119.5Y-72.08
X119.5Y-74.62
X119.5Y-77.16
X119.5Y-79.7
X120.32Y-51.74
X121.08Y-88.0
X122.86Y-51.74
X122.86Y-100.0
X123.62Y-88.0
X125.4Y-51.74
X125.4Y-100.0
X127.94Y-51.74
X127.94Y-100.0
X130.48Y-51.74
X130.48Y-100.0
X133.02Y-51.74
X133.02Y-100.0
X135.56Y-51.74
X135.56Y-100.0
T4
X75.7Y-74.8
X75.7Y-78.3
X75.7Y-83.6
X75.7Y-87.1
X137.0Y-84.5
X137.0Y-88.0
T5
X130.4Y-59.0
T6
X127.86Y-56.46
X127.86Y-61.54
X132.94Y-56.46
X132.94Y-61.54
M30
